<svg id="Objects" xmlns="http://www.w3.org/2000/svg" viewBox="0 0 369.82 174.68"><defs><style>.cls-1{fill:none;stroke-width:2px;}.cls-1,.cls-2,.cls-3{stroke:#fff;stroke-miterlimit:10;}.cls-2{fill:#fff;}.cls-3{fill:#5f5f5f;}</style></defs><title>binoculars</title><g id="_Группа_" data-name="&lt;Группа&gt;"><g id="_Группа_2" data-name="&lt;Группа&gt;"><path id="_Контур_" data-name="&lt;Контур&gt;" class="cls-1" d="M179.74,161.72c0,29.46-11.9,46.13-31.34,46.13-24,0-44.06-27.88-44.06-54.74s11.83-49.94,35.2-48.63C161.55,105.69,179.74,134.86,179.74,161.72Z" transform="translate(-11.88 -37.35)"/><path id="_Контур_2" data-name="&lt;Контур&gt;" class="cls-1" d="M178.26,160.23c0,27.34-10.85,42.3-28.88,42.3s-39.72-24.33-39.72-49.26,14.62-45.13,32.66-45.13C162.78,108.13,178.26,135.3,178.26,160.23Z" transform="translate(-11.88 -37.35)"/><path id="_Контур_3" data-name="&lt;Контур&gt;" class="cls-1" d="M158.5,94c-11.61-.61-20.77,3.7-27.44,11.15a30.35,30.35,0,0,1,8.47-.67c22,1.23,40.2,30.39,40.2,57.25,0,24.24-8.07,39.81-21.75,44.57a38.81,38.81,0,0,0,10.81,1.56c22.57,0,36.39-18.36,36.39-50.8C205.18,127.46,184.06,95.34,158.5,94Z" transform="translate(-11.88 -37.35)"/><path id="_Составной_контур_" data-name="&lt;Составной контур&gt;" class="cls-2" d="M218.71,133.12c-2.88-2.29-8.06-.61-7.88,3.46a.39.39,0,0,0,.06.18,14.76,14.76,0,0,0,1.75,6.08c1.6,2.32,7.76,6.5,9.93,2.86S221.73,135.53,218.71,133.12Zm0,12.66a8.42,8.42,0,0,1-3.62-1.75,8.58,8.58,0,0,1-2.76-3.84,10.7,10.7,0,0,1-.51-4.21,5.64,5.64,0,0,1,.74-1.27l.08,0a.31.31,0,0,0,.09.07c3.3,1.26,5.34,5.94,6.55,9,.14.35.79.36.74-.1-.3-2.47-1.75-4.6-3.21-6.55-.77-1-1.84-2.84-3.24-3a.34.34,0,0,0-.14-.23,3.72,3.72,0,0,1,5.24.64,13.41,13.41,0,0,1,3.44,7.39C222.33,144.21,221.45,146.33,218.74,145.78Z" transform="translate(-11.88 -37.35)"/><path id="_Составной_контур_2" data-name="&lt;Составной контур&gt;" class="cls-2" d="M207.9,195.78a2.42,2.42,0,0,0-2.34-2,2.67,2.67,0,0,0-1.82.79,3.78,3.78,0,0,0-1.64,1.35A34.59,34.59,0,0,0,200.2,199a8.84,8.84,0,0,0-1.23,2.36c-.81,3.55,4.61,3.21,6.51,2.29C208.09,202.4,208.58,198.29,207.9,195.78Zm-.89,2.32c-.06,1.58-.27,3.62-1.79,4.51a6.68,6.68,0,0,1-3.12.64,1.77,1.77,0,0,1-1.13-.34.33.33,0,0,0,0-.16c-.51-1.12.4-3.16.91-4.16a9.53,9.53,0,0,1,.87-1.35.44.44,0,0,0,.54-.16,8.75,8.75,0,0,1,1.36-1.84h.14a9.37,9.37,0,0,1-.76,6.54c-.15.36.3.85.61.47a7.61,7.61,0,0,0,1-7,.39.39,0,0,0,.21-.32,2.06,2.06,0,0,1,1,.93A4.51,4.51,0,0,1,207,198.11Z" transform="translate(-11.88 -37.35)"/><path id="_Составной_контур_3" data-name="&lt;Составной контур&gt;" class="cls-2" d="M155.24,200.84l-.42,0a.27.27,0,0,0-.14-.07,14.94,14.94,0,0,1-7.24-3.24c-.31-.26-.76.18-.45.45a14.33,14.33,0,0,0,5.31,3c-14.78-.07-25.4-14.08-32.47-25.9s-10.52-25.6-7-38.83a52.76,52.76,0,0,1,4.2-9.78.05.05,0,0,0-.09-.05,34.51,34.51,0,0,0-2.29,3.6.3.3,0,0,0-.45.14,34.79,34.79,0,0,0-2.9,8c-7.56,25.88,7.73,62.6,35.94,64a18,18,0,0,0,8.13-.29C155.91,201.69,155.82,200.77,155.24,200.84Zm-27.67-8.49c-6.4-5.57-10.84-13.47-13.66-21.4a57.21,57.21,0,0,1-3.43-20.2,60,60,0,0,0,8.69,25.31c4.49,7.43,11.63,17.77,20.4,23A34.93,34.93,0,0,1,127.57,192.35Z" transform="translate(-11.88 -37.35)"/><path id="_Контур_4" data-name="&lt;Контур&gt;" class="cls-2" d="M256.33,135.19c-10-19.19-26.09-35.42-45.67-44.73-.43-.2-.81.42-.38.65,19.15,10.21,34.88,25.43,44.93,44.74C255.6,136.59,256.72,135.94,256.33,135.19Z" transform="translate(-11.88 -37.35)"/><path id="_Составной_контур_4" data-name="&lt;Составной контур&gt;" class="cls-2" d="M219.73,56.67a.41.41,0,0,0-.39-.39,2.37,2.37,0,0,0-1,.18h0a.42.42,0,0,0-.27.15c-1.09.68-1.49,2.27-1.57,3.57s0,3.58,1.8,3.82c2.17.29,2.67-2.35,2.83-3.92C221.22,58.74,220.82,57.24,219.73,56.67Zm.21,3.91a7.11,7.11,0,0,1-.24,1.17q-.11.92-1.08.69-.89.51-1-.34a4.86,4.86,0,0,1-.13-2.35,3,3,0,0,1,1.06-2.3h0C220.28,57.23,220.1,59.56,219.95,60.58Z" transform="translate(-11.88 -37.35)"/><path id="_Составной_контур_5" data-name="&lt;Составной контур&gt;" class="cls-2" d="M241.33,55.64a2,2,0,0,0-1.66-.56,1,1,0,0,0-1.3,0,2.73,2.73,0,0,0-1,2.2c-.06,1.64,1.27,3.57,3.12,2.83C242,59.54,242.33,56.79,241.33,55.64Zm-1.23,3.5c-1.24.51-1.9-1.26-1.62-2.41a.45.45,0,0,0,.79-.16c.18-.73,1.13-.63,1.43,0S240.85,58.83,240.1,59.14Z" transform="translate(-11.88 -37.35)"/><path id="_Составной_контур_6" data-name="&lt;Составной контур&gt;" class="cls-2" d="M243.78,53.95a5,5,0,0,0-6.5-2.37c-7.34,2.08-2.14,18.18,4.77,13.3C245.12,62.72,245.37,57.07,243.78,53.95Zm-1.25,8.59c-2.5,4.23-6.3,1.06-7.19-2.28-.62-2.3-.8-5.36.89-7.08a.41.41,0,0,0,.39,0C239.08,51.74,241.87,52,243,55A9.45,9.45,0,0,1,242.52,62.54Z" transform="translate(-11.88 -37.35)"/><path id="_Составной_контур_7" data-name="&lt;Составной контур&gt;" class="cls-2" d="M256,54.78a2.32,2.32,0,0,0-1.57-.58l-.06-.06a1.48,1.48,0,0,0-1.93.28,3.27,3.27,0,0,0-.45,2.69c.27,1.77,1.75,3.39,3.57,2.2A3,3,0,0,0,256,54.78Zm-.85,3.43c-.85.78-1.67.18-2-.76a5.19,5.19,0,0,1-.19-1.22.39.39,0,0,0,.27-.19c.46-.77,1.35-1.24,2.07-.42A1.9,1.9,0,0,1,255.16,58.21Z" transform="translate(-11.88 -37.35)"/><path id="_Составной_контур_8" data-name="&lt;Составной контур&gt;" class="cls-2" d="M253.69,49.12a.36.36,0,0,0-.45-.29c-7.48,1.57-4.8,16.68,2.93,15.39C263.5,63,261.55,48,253.69,49.12ZM255.28,63c-5.84.09-7-9.93-2.82-12.92a.52.52,0,0,0,.51.2c3.46-.52,5.72,1.39,6.29,4.78C259.77,58.09,259.14,63,255.28,63Z" transform="translate(-11.88 -37.35)"/><path id="_Составной_контур_9" data-name="&lt;Составной контур&gt;" class="cls-2" d="M108.4,90.37A6.45,6.45,0,0,0,102,86.43a.28.28,0,0,0-.41-.05c-1.94,1.47-2.34,4.48-1.46,6.66s3.89,4.79,6.46,3.74C108.94,95.81,109.18,92.4,108.4,90.37Zm-3.71,5.35c-1.72-.21-3.28-2-3.75-3.61a5.67,5.67,0,0,1,.74-4.46c1.81,2.15,2.29,4.48,2.57,7.24,0,.4.66.56.76.1a9.32,9.32,0,0,0-1.87-7.33,5.13,5.13,0,0,1,3.8,2.37C108.11,92,108.08,96.14,104.68,95.73Z" transform="translate(-11.88 -37.35)"/><path id="_Контур_5" data-name="&lt;Контур&gt;" class="cls-3" d="M219,103.7c-.28-.2-.65.27-.38.49a67.52,67.52,0,0,1,25.1,40.8c.11.56.94.32.85-.23A65,65,0,0,0,219,103.7Z" transform="translate(-11.88 -37.35)"/><path id="_Контур_6" data-name="&lt;Контур&gt;" class="cls-3" d="M213.43,149.22c-.08-.4-.66-.22-.6.16.35,2.17.61,4.38,1.13,6.52.09.37.73.3.68-.09C214.38,153.6,213.86,151.4,213.43,149.22Z" transform="translate(-11.88 -37.35)"/><path id="_Контур_7" data-name="&lt;Контур&gt;" class="cls-3" d="M216.17,151c-.07-.38-.64-.22-.58.16.18,1.18.32,2.38.58,3.55.08.35.69.28.64-.09C216.67,153.39,216.4,152.18,216.17,151Z" transform="translate(-11.88 -37.35)"/><path id="_Контур_8" data-name="&lt;Контур&gt;" class="cls-3" d="M218.45,155.43c-.49-2.48-1.15-4.94-1.75-7.4-.1-.39-.69-.23-.61.17.55,2.47,1,5,1.7,7.41A.34.34,0,0,0,218.45,155.43Z" transform="translate(-11.88 -37.35)"/><path id="_Контур_9" data-name="&lt;Контур&gt;" class="cls-3" d="M220.24,149.51c-.08-.38-.65-.22-.58.16.31,1.57.58,3.16.95,4.72.1.42.7.23.63-.17C221,152.64,220.58,151.08,220.24,149.51Z" transform="translate(-11.88 -37.35)"/><path id="_Контур_10" data-name="&lt;Контур&gt;" class="cls-3" d="M222.61,148.33c-.05-.36-.68-.28-.64.09.22,1.69.37,3.43.7,5.1.07.38.71.3.68-.09C223.21,151.72,222.87,150,222.61,148.33Z" transform="translate(-11.88 -37.35)"/><path id="_Контур_11" data-name="&lt;Контур&gt;" class="cls-3" d="M227.06,151.28a141.47,141.47,0,0,0-4.7-16.57c-.13-.38-.74-.22-.61.17a153.42,153.42,0,0,1,4.68,16.58C226.52,151.87,227.15,151.69,227.06,151.28Z" transform="translate(-11.88 -37.35)"/><path id="_Контур_12" data-name="&lt;Контур&gt;" class="cls-3" d="M222.88,128.15c-.17-.36-.69,0-.53.31a141.67,141.67,0,0,1,7.47,22.44c.12.44.76.25.68-.19A95.19,95.19,0,0,0,222.88,128.15Z" transform="translate(-11.88 -37.35)"/><path id="_Контур_13" data-name="&lt;Контур&gt;" class="cls-3" d="M234.44,150A113.52,113.52,0,0,0,221.18,116a.31.31,0,0,0-.53.31,113.49,113.49,0,0,1,12.95,34C233.72,150.81,234.56,150.58,234.44,150Z" transform="translate(-11.88 -37.35)"/><path id="_Контур_14" data-name="&lt;Контур&gt;" class="cls-3" d="M239.49,147.95a109.33,109.33,0,0,0-13.25-31.11.31.31,0,0,0-.53.31,112.34,112.34,0,0,1,12.86,31.05A.48.48,0,0,0,239.49,147.95Z" transform="translate(-11.88 -37.35)"/><path id="_Контур_15" data-name="&lt;Контур&gt;" class="cls-3" d="M241.91,144.76a73.05,73.05,0,0,0-5.74-14.83c-.18-.37-.73,0-.55.32a107.26,107.26,0,0,1,5.6,14.7A.36.36,0,0,0,241.91,144.76Z" transform="translate(-11.88 -37.35)"/><path id="_Контур_16" data-name="&lt;Контур&gt;" class="cls-3" d="M214.39,161.42a.31.31,0,0,0-.62,0,72.57,72.57,0,0,1-2,15.9.33.33,0,0,0,.64.18A50,50,0,0,0,214.39,161.42Z" transform="translate(-11.88 -37.35)"/><path id="_Контур_17" data-name="&lt;Контур&gt;" class="cls-3" d="M219.87,160.46c-.05-.38-.72-.3-.68.09a43.31,43.31,0,0,1-1.51,15.9.34.34,0,0,0,.65.18A34.28,34.28,0,0,0,219.87,160.46Z" transform="translate(-11.88 -37.35)"/><path id="_Контур_18" data-name="&lt;Контур&gt;" class="cls-3" d="M223,161.72c-.14,4.63-.37,9.27-.38,13.9a.34.34,0,0,0,.68,0c.22-4.62.23-9.27.32-13.9A.31.31,0,0,0,223,161.72Z" transform="translate(-11.88 -37.35)"/><path id="_Контур_19" data-name="&lt;Контур&gt;" class="cls-3" d="M195.41,157c-3.16.22-6.31.55-9.46.84-.5,0-.5.83,0,.79,3.15-.31,6.31-.59,9.46-1C195.83,157.63,195.85,157,195.41,157Z" transform="translate(-11.88 -37.35)"/><path id="_Контур_20" data-name="&lt;Контур&gt;" class="cls-3" d="M188.61,131.52a69.55,69.55,0,0,0-8.39.75c-.39.05-.3.75.09.7,2.76-.34,5.53-.53,8.3-.77C189,132.16,189,131.51,188.61,131.52Z" transform="translate(-11.88 -37.35)"/><path id="_Контур_21" data-name="&lt;Контур&gt;" class="cls-3" d="M128.26,117.06a44.38,44.38,0,0,0-9.35,19.75c-.08.38.5.54.58.16a44.87,44.87,0,0,1,9.21-19.48C128.95,117.19,128.52,116.75,128.26,117.06Z" transform="translate(-11.88 -37.35)"/><path id="_Контур_22" data-name="&lt;Контур&gt;" class="cls-3" d="M116.24,132.61a25.82,25.82,0,0,0-2.75,12.55c0,.4.63.4.62,0a25.57,25.57,0,0,1,2.66-12.24C116.94,132.56,116.41,132.25,116.24,132.61Z" transform="translate(-11.88 -37.35)"/><path id="_Контур_23" data-name="&lt;Контур&gt;" class="cls-3" d="M135.52,190.27a60.44,60.44,0,0,1-18.62-36.85c0-.37-.63-.38-.59,0a59.33,59.33,0,0,0,18.75,37.31C135.37,191,135.82,190.56,135.52,190.27Z" transform="translate(-11.88 -37.35)"/><path id="_Контур_24" data-name="&lt;Контур&gt;" class="cls-3" d="M144.59,193.36a61.79,61.79,0,0,1-22.28-42.88c0-.41-.67-.42-.65,0a60.76,60.76,0,0,0,22.47,43.33C144.45,194.07,144.91,193.63,144.59,193.36Z" transform="translate(-11.88 -37.35)"/><path id="_Контур_25" data-name="&lt;Контур&gt;" class="cls-3" d="M148.47,190.55a41.66,41.66,0,0,1-16.29-20.95c-.13-.38-.74-.22-.61.17a41.3,41.3,0,0,0,16.58,21.33C148.49,191.33,148.8,190.78,148.47,190.55Z" transform="translate(-11.88 -37.35)"/><path id="_Контур_26" data-name="&lt;Контур&gt;" class="cls-3" d="M141.24,175.18a60.82,60.82,0,0,1-7.15-13.81c-.13-.37-.72-.21-.59.16a55.86,55.86,0,0,0,7.19,14C140.93,175.82,141.47,175.52,141.24,175.18Z" transform="translate(-11.88 -37.35)"/><path id="_Контур_27" data-name="&lt;Контур&gt;" class="cls-3" d="M154,181.86a70.86,70.86,0,0,1-13.3-18.23c-.18-.36-.72,0-.54.32a69.12,69.12,0,0,0,13.38,18.37A.32.32,0,0,0,154,181.86Z" transform="translate(-11.88 -37.35)"/><path id="_Контур_28" data-name="&lt;Контур&gt;" class="cls-3" d="M160.6,191.87a15.12,15.12,0,0,1-6.4-3.73c-.29-.28-.73.16-.44.44a15.26,15.26,0,0,0,6.68,3.9A.32.32,0,0,0,160.6,191.87Z" transform="translate(-11.88 -37.35)"/><path id="_Контур_29" data-name="&lt;Контур&gt;" class="cls-3" d="M155.92,173.11a47.34,47.34,0,0,1-10.48-18c-.12-.4-.74-.23-.62.17a43.76,43.76,0,0,0,10.64,18.27C155.75,173.88,156.2,173.42,155.92,173.11Z" transform="translate(-11.88 -37.35)"/><path id="_Контур_30" data-name="&lt;Контур&gt;" class="cls-3" d="M165.92,174.65a71.46,71.46,0,0,1-14.18-19.36c-.18-.35-.7,0-.53.31a70.09,70.09,0,0,0,14.25,19.51C165.76,175.39,166.21,174.94,165.92,174.65Z" transform="translate(-11.88 -37.35)"/><path id="_Контур_31" data-name="&lt;Контур&gt;" class="cls-3" d="M169.83,168.07a72.33,72.33,0,0,1-13.75-20.93c-.15-.36-.75-.21-.6.16a61.12,61.12,0,0,0,13.87,21.24A.34.34,0,0,0,169.83,168.07Z" transform="translate(-11.88 -37.35)"/><path id="_Контур_32" data-name="&lt;Контур&gt;" class="cls-3" d="M172,164.15a61.69,61.69,0,0,1-10-15c-.17-.37-.7,0-.54.32a50,50,0,0,0,10,15.22C171.8,165,172.28,164.49,172,164.15Z" transform="translate(-11.88 -37.35)"/><path id="_Контур_33" data-name="&lt;Контур&gt;" class="cls-3" d="M158.74,197.11a31.61,31.61,0,0,1-7-1.41c-.39-.13-.55.48-.17.61a24.22,24.22,0,0,0,7.18,1.46C159.18,197.79,159.16,197.15,158.74,197.11Z" transform="translate(-11.88 -37.35)"/><path id="_Контур_34" data-name="&lt;Контур&gt;" class="cls-3" d="M244.12,124.93c-2.48-3.7-5-7.36-7.56-11-.22-.33-.76,0-.53.31,2.51,3.68,5,7.38,7.54,11C243.8,125.58,244.35,125.27,244.12,124.93Z" transform="translate(-11.88 -37.35)"/><path id="_Контур_35" data-name="&lt;Контур&gt;" class="cls-3" d="M253.19,124.8a84.26,84.26,0,0,0-18.53-21c-.31-.25-.75.18-.44.44a102.92,102.92,0,0,1,18.41,20.85C252.86,125.47,253.41,125.16,253.19,124.8Z" transform="translate(-11.88 -37.35)"/><path id="_Контур_36" data-name="&lt;Контур&gt;" class="cls-3" d="M259.72,119.65a94.91,94.91,0,0,0-20.24-23.6c-.31-.27-.77.18-.46.46A122.16,122.16,0,0,1,259.13,120C259.37,120.35,259.94,120,259.72,119.65Z" transform="translate(-11.88 -37.35)"/><path id="_Контур_37" data-name="&lt;Контур&gt;" class="cls-3" d="M110.59,83.26a67.14,67.14,0,0,0-4.74-11.92c-.17-.35-.7,0-.53.31a98.41,98.41,0,0,1,4.63,11.79A.33.33,0,0,0,110.59,83.26Z" transform="translate(-11.88 -37.35)"/><path id="_Контур_38" data-name="&lt;Контур&gt;" class="cls-3" d="M114.55,87.46q-3.47-10.73-7.88-21.11c-.15-.35-.66,0-.51.3q4.39,10.3,7.79,21C114.06,88,114.67,87.84,114.55,87.46Z" transform="translate(-11.88 -37.35)"/><path id="_Контур_39" data-name="&lt;Контур&gt;" class="cls-3" d="M121.13,94.74A143.64,143.64,0,0,0,106.2,58.59a.3.3,0,0,0-.52.3,164.28,164.28,0,0,1,14.74,36A.37.37,0,0,0,121.13,94.74Z" transform="translate(-11.88 -37.35)"/><path id="_Контур_40" data-name="&lt;Контур&gt;" class="cls-3" d="M119.77,78.52c-.13-.36-.71-.21-.58.16a184.73,184.73,0,0,1,5.47,19.27c.12.48.81.27.73-.2A107.82,107.82,0,0,0,119.77,78.52Z" transform="translate(-11.88 -37.35)"/><path id="_Контур_41" data-name="&lt;Контур&gt;" class="cls-2" d="M102.57,119.08c-.37-4.49-.61-9.14-2.3-13.37-.15-.37-.72-.23-.61.17,2.62,9.29,1.9,19.12,2.86,28.62a.37.37,0,0,0,.75,0A119.72,119.72,0,0,0,102.57,119.08Z" transform="translate(-11.88 -37.35)"/><path id="_Контур_42" data-name="&lt;Контур&gt;" class="cls-2" d="M103.4,108.41c-.06-.38-.72-.29-.67.09a205.13,205.13,0,0,1,.89,20.68.36.36,0,0,0,.72,0A78.51,78.51,0,0,0,103.4,108.41Z" transform="translate(-11.88 -37.35)"/><path id="_Контур_43" data-name="&lt;Контур&gt;" class="cls-2" d="M104.81,109.26c-.08-.33-.65-.28-.62.08.51,5.5.94,10.76.92,16.29,0,.47.67.45.71,0A48.33,48.33,0,0,0,104.81,109.26Z" transform="translate(-11.88 -37.35)"/><path id="_Контур_44" data-name="&lt;Контур&gt;" class="cls-3" d="M107,110.18c-.1-.43-.71-.24-.65.18A100.65,100.65,0,0,1,107.2,123a.37.37,0,0,0,.73,0A39.53,39.53,0,0,0,107,110.18Z" transform="translate(-11.88 -37.35)"/><path id="_Контур_45" data-name="&lt;Контур&gt;" class="cls-3" d="M108.94,112.32c-.05-.4-.66-.43-.65,0a59.41,59.41,0,0,0,.55,7.52c.07.43.75.32.75-.1A58.59,58.59,0,0,0,108.94,112.32Z" transform="translate(-11.88 -37.35)"/><path id="_Контур_46" data-name="&lt;Контур&gt;" class="cls-3" d="M111.43,113.81a.3.3,0,0,0,0-.59.27.27,0,0,0-.22.1c.07-.45-.6-.66-.7-.19a3.62,3.62,0,0,0,.25,2.67.38.38,0,0,0,.69-.29c-.05-.35-.19-.69-.25-1a3.71,3.71,0,0,1,0-.79A.26.26,0,0,0,111.43,113.81Z" transform="translate(-11.88 -37.35)"/><path id="_Контур_47" data-name="&lt;Контур&gt;" class="cls-3" d="M175.31,126.94a105.81,105.81,0,0,0-8.07-12.06c-.24-.31-.77,0-.53.31a118.08,118.08,0,0,1,8,12.08A.32.32,0,0,0,175.31,126.94Z" transform="translate(-11.88 -37.35)"/><path id="_Контур_48" data-name="&lt;Контур&gt;" class="cls-3" d="M177.4,127.53a69.91,69.91,0,0,0-13-18.73c-.27-.28-.69.15-.42.42a73.32,73.32,0,0,1,12.88,18.65C177,128.27,177.58,127.92,177.4,127.53Z" transform="translate(-11.88 -37.35)"/><path id="_Контур_49" data-name="&lt;Контур&gt;" class="cls-3" d="M180.58,127.56a102.37,102.37,0,0,0-12.06-18.19c-.25-.3-.68.13-.43.43a105.36,105.36,0,0,1,11.86,18.12C180.16,128.35,180.79,128,180.58,127.56Z" transform="translate(-11.88 -37.35)"/><path id="_Контур_50" data-name="&lt;Контур&gt;" class="cls-3" d="M184.15,126.61l-.17,0a.32.32,0,0,0-.23,0c-.19-.69-.61-1.72-.65-1.82a26.24,26.24,0,0,0-1.24-2.62,52.79,52.79,0,0,0-3.19-5.41,56.39,56.39,0,0,0-7.15-8.61.3.3,0,0,0-.42.42,55,55,0,0,1,8.24,10.59,55.85,55.85,0,0,1,2.69,5.14c.44,1,.65,2.77,1.74,3.24a.4.4,0,0,0,.58-.23l.06-.24A.37.37,0,0,0,184.15,126.61Z" transform="translate(-11.88 -37.35)"/><path id="_Контур_51" data-name="&lt;Контур&gt;" class="cls-3" d="M188.12,127.3a60.93,60.93,0,0,0-14-20.26c-.3-.28-.74.16-.45.45a65.36,65.36,0,0,1,13.78,20.11C187.59,128,188.29,127.7,188.12,127.3Z" transform="translate(-11.88 -37.35)"/><path id="_Контур_52" data-name="&lt;Контур&gt;" class="cls-3" d="M195.43,132.26A93.56,93.56,0,0,0,181,109.56c-.27-.32-.72.14-.46.46a137.41,137.41,0,0,1,14.29,22.58C195.05,133,195.59,132.65,195.43,132.26Z" transform="translate(-11.88 -37.35)"/><path id="_Контур_53" data-name="&lt;Контур&gt;" class="cls-3" d="M265.38,140.61a.33.33,0,0,0-.64.09,62.29,62.29,0,0,0,1,8.39.37.37,0,0,0,.73-.1A62.24,62.24,0,0,0,265.38,140.61Z" transform="translate(-11.88 -37.35)"/><path id="_Контур_54" data-name="&lt;Контур&gt;" class="cls-3" d="M276.1,138.06c0-.4-.65-.42-.64,0,.17,4.33.49,8.69,1,13,.05.47.77.49.75,0C277,146.73,276.61,142.37,276.1,138.06Z" transform="translate(-11.88 -37.35)"/><path id="_Контур_55" data-name="&lt;Контур&gt;" class="cls-3" d="M261.67,141.61c0-.42-.7-.44-.67,0a145.48,145.48,0,0,0,2.36,19.61c.08.41.8.33.74-.1C263.3,154.62,262.43,148.12,261.67,141.61Z" transform="translate(-11.88 -37.35)"/><path id="_Контур_56" data-name="&lt;Контур&gt;" class="cls-3" d="M279.48,138.95c0-.47-.76-.48-.74,0a45.86,45.86,0,0,0,1.12,8.69c.11.44.74.25.67-.18A72.2,72.2,0,0,1,279.48,138.95Z" transform="translate(-11.88 -37.35)"/><path id="_Контур_57" data-name="&lt;Контур&gt;" class="cls-3" d="M282.6,136.29c0-.4-.64-.41-.63,0A81.79,81.79,0,0,0,283.51,150c.09.47.77.26.7-.19C283.54,145.29,283,140.81,282.6,136.29Z" transform="translate(-11.88 -37.35)"/><path id="_Контур_58" data-name="&lt;Контур&gt;" class="cls-3" d="M287,136.89c0-.45-.73-.45-.7,0,.32,4.43.57,8.87,1,13.3,0,.44.72.45.69,0C287.76,145.75,287.35,141.32,287,136.89Z" transform="translate(-11.88 -37.35)"/><path id="_Контур_59" data-name="&lt;Контур&gt;" class="cls-3" d="M186.53,166.45c0-.39-.62-.39-.61,0a34.32,34.32,0,0,1-1.11,10,.31.31,0,0,0,.61.17A32.25,32.25,0,0,0,186.53,166.45Z" transform="translate(-11.88 -37.35)"/><path id="_Контур_60" data-name="&lt;Контур&gt;" class="cls-3" d="M188.81,164.39A97,97,0,0,1,183,189.13c-.14.38.46.54.61.17a90.56,90.56,0,0,0,5.82-24.9C189.45,164,188.85,164,188.81,164.39Z" transform="translate(-11.88 -37.35)"/><path id="_Контур_61" data-name="&lt;Контур&gt;" class="cls-3" d="M191.91,166.67a108.49,108.49,0,0,1-7.61,26.28c-.16.39.39.73.57.34a94.92,94.92,0,0,0,7.63-26.45C192.56,166.44,192,166.27,191.91,166.67Z" transform="translate(-11.88 -37.35)"/><path id="_Контур_62" data-name="&lt;Контур&gt;" class="cls-3" d="M195.36,166.45a58.35,58.35,0,0,1-6.65,26.79c-.19.37.35.7.57.33a53.33,53.33,0,0,0,6.7-27.12A.31.31,0,0,0,195.36,166.45Z" transform="translate(-11.88 -37.35)"/><path id="_Контур_63" data-name="&lt;Контур&gt;" class="cls-3" d="M201.55,156.69c0-.38-.62-.39-.6,0a72.74,72.74,0,0,1-7.5,34.92c-.18.37.37.7.56.33A69.89,69.89,0,0,0,201.55,156.69Z" transform="translate(-11.88 -37.35)"/><path id="_Контур_64" data-name="&lt;Контур&gt;" class="cls-3" d="M193,103.85c-2.89-2.64-5.89-5.15-8.87-7.69-.3-.26-.75.17-.44.44,2.92,2.6,5.83,5.22,8.84,7.72C192.81,104.59,193.27,104.15,193,103.85Z" transform="translate(-11.88 -37.35)"/><path id="_Контур_65" data-name="&lt;Контур&gt;" class="cls-3" d="M35.42,142.81a54.4,54.4,0,0,1-14-33.13c0-.41-.65-.41-.64,0A51.07,51.07,0,0,0,35,143.27C35.25,143.57,35.69,143.12,35.42,142.81Z" transform="translate(-11.88 -37.35)"/><path id="_Контур_66" data-name="&lt;Контур&gt;" class="cls-3" d="M39.37,142.09a71.79,71.79,0,0,1-13.56-24.47c-.12-.39-.73-.23-.61.17A64.14,64.14,0,0,0,38.9,142.56C39.19,142.88,39.64,142.42,39.37,142.09Z" transform="translate(-11.88 -37.35)"/><path id="_Контур_67" data-name="&lt;Контур&gt;" class="cls-3" d="M41.44,137.08a43.8,43.8,0,0,1-9.7-15.71c-.13-.39-.75-.22-.61.17a39.14,39.14,0,0,0,9.85,16A.33.33,0,0,0,41.44,137.08Z" transform="translate(-11.88 -37.35)"/><path id="_Контур_68" data-name="&lt;Контур&gt;" class="cls-3" d="M39.26,128.73a97.63,97.63,0,0,1-4.78-8.56c-.19-.39-.76-.05-.58.34a48.75,48.75,0,0,0,4.74,8.58C38.91,129.47,39.51,129.14,39.26,128.73Z" transform="translate(-11.88 -37.35)"/><path id="_Контур_69" data-name="&lt;Контур&gt;" class="cls-3" d="M56.14,153.7c-6.36.81-12.38-.81-16.89-5.55-.27-.29-.7.14-.43.43,4.35,4.73,11,7.28,17.41,5.79C56.6,154.28,56.53,153.65,56.14,153.7Z" transform="translate(-11.88 -37.35)"/><path id="_Контур_70" data-name="&lt;Контур&gt;" class="cls-3" d="M57.49,148.78A18.67,18.67,0,0,1,42.4,144.7c-.31-.26-.76.18-.45.45a18.07,18.07,0,0,0,15.71,4.28C58.1,149.34,57.91,148.72,57.49,148.78Z" transform="translate(-11.88 -37.35)"/><path id="_Контур_71" data-name="&lt;Контур&gt;" class="cls-3" d="M30.4,80.4a33.44,33.44,0,0,0-7.91,20.41c0,.47.68.46.72,0a37.59,37.59,0,0,1,7.68-20C31.11,80.5,30.63,80.13,30.4,80.4Z" transform="translate(-11.88 -37.35)"/><path id="_Контур_72" data-name="&lt;Контур&gt;" class="cls-3" d="M58.24,89.33c-.23-.35-.79,0-.57.33,5.67,9.07,7.12,19.56,8.7,29.92.07.43.82.33.76-.1C65.85,109,64.12,98.28,58.24,89.33Z" transform="translate(-11.88 -37.35)"/><path id="_Контур_73" data-name="&lt;Контур&gt;" class="cls-3" d="M61.43,106c-.09-.39-.7-.23-.61.17a52,52,0,0,1,1.11,15.28c0,.41.6.4.64,0A46.56,46.56,0,0,0,61.43,106Z" transform="translate(-11.88 -37.35)"/><path id="_Контур_74" data-name="&lt;Контур&gt;" class="cls-3" d="M67.09,101.9c-.14-.37-.74-.22-.61.17a58.89,58.89,0,0,1,3.15,22.39c0,.42.61.41.65,0A51,51,0,0,0,67.09,101.9Z" transform="translate(-11.88 -37.35)"/><path id="_Контур_75" data-name="&lt;Контур&gt;" class="cls-3" d="M131.18,126.62a20,20,0,0,0-.73,16.72c.15.36.75.1.63-.27a21.26,21.26,0,0,1,.68-16.11C131.95,126.57,131.38,126.23,131.18,126.62Z" transform="translate(-11.88 -37.35)"/><path id="_Контур_76" data-name="&lt;Контур&gt;" class="cls-3" d="M135.38,126.81a.31.31,0,0,0,0,.61A.31.31,0,0,0,135.38,126.81Z" transform="translate(-11.88 -37.35)"/><path id="_Контур_77" data-name="&lt;Контур&gt;" class="cls-3" d="M70,131.86c0-.41-.68-.42-.65,0a18.15,18.15,0,0,1-3.38,12c-.22.33.3.74.55.43A17.25,17.25,0,0,0,70,131.86Z" transform="translate(-11.88 -37.35)"/><path id="_Контур_78" data-name="&lt;Контур&gt;" class="cls-3" d="M75.49,95.83c-.19-.38-.75,0-.57.33A50.39,50.39,0,0,1,79.37,111c.06.38.71.29.67-.09A43.94,43.94,0,0,0,75.49,95.83Z" transform="translate(-11.88 -37.35)"/><path id="_Контур_79" data-name="&lt;Контур&gt;" class="cls-3" d="M75.65,87.91c-.18-.38-.74,0-.57.33a78.24,78.24,0,0,1,7.32,35,.37.37,0,0,0,.74,0A75.78,75.78,0,0,0,75.65,87.91Z" transform="translate(-11.88 -37.35)"/><path id="_Контур_80" data-name="&lt;Контур&gt;" class="cls-3" d="M79.55,87.69c-.15-.35-.73-.2-.58.16A88.8,88.8,0,0,1,85.4,121.8a.37.37,0,0,0,.73,0A84.13,84.13,0,0,0,79.55,87.69Z" transform="translate(-11.88 -37.35)"/><path id="_Контур_81" data-name="&lt;Контур&gt;" class="cls-3" d="M84.87,91.24c-.12-.36-.69-.2-.57.16A89.56,89.56,0,0,1,89,118.54a.32.32,0,0,0,.64,0A88.44,88.44,0,0,0,84.87,91.24Z" transform="translate(-11.88 -37.35)"/><path id="_Контур_82" data-name="&lt;Контур&gt;" class="cls-3" d="M82.33,136.47a64.2,64.2,0,0,1-5.55,15,.35.35,0,0,0,.6.35,49.7,49.7,0,0,0,5.56-15.17C83,136.24,82.42,136.07,82.33,136.47Z" transform="translate(-11.88 -37.35)"/><path id="_Контур_83" data-name="&lt;Контур&gt;" class="cls-3" d="M85.41,127.71a.31.31,0,0,0-.63,0,67.79,67.79,0,0,1-5.22,24.79c-.14.36.46.61.62.26A55.85,55.85,0,0,0,85.41,127.71Z" transform="translate(-11.88 -37.35)"/><path id="_Контур_84" data-name="&lt;Контур&gt;" class="cls-3" d="M88.73,128.26c0-.43-.68-.43-.67,0,.27,8.3-3.22,15.54-6.37,23-.15.37.46.62.64.27C86,144.31,89.1,136.46,88.73,128.26Z" transform="translate(-11.88 -37.35)"/><path id="_Контур_85" data-name="&lt;Контур&gt;" class="cls-3" d="M91,128c0-.41-.66-.41-.64,0,.21,4.31.33,8.64-1.1,12.78-1.17,3.35-2.9,6.4-3.32,10,0,.37.6.46.66.09.65-4,2.8-7.42,3.87-11.29S91.2,131.86,91,128Z" transform="translate(-11.88 -37.35)"/><g id="_Группа_3" data-name="&lt;Группа&gt;"><path id="_Контур_86" data-name="&lt;Контур&gt;" class="cls-3" d="M162.73,204h0Z" transform="translate(-11.88 -37.35)"/><path id="_Составной_контур_10" data-name="&lt;Составной контур&gt;" class="cls-2" d="M381.12,101.35c0-4.66.1-9.33.06-14,0-3.39-.27-6.81-2.05-9.73a.59.59,0,0,0,0-.69c-4.5-6-11.47-8.64-18.31-11.09-9.56-3.42-19.14-6.81-28.78-10s-19.34-6.13-29.17-8.62c-6-1.53-12.2-3-18.4-4.13.79-2.78-1.86-4.93-4.52-5.2-2.32-.24-4.85.42-7.1.87a38.68,38.68,0,0,0-8.41,2.4,3.71,3.71,0,0,0-2.21,2.47,3.3,3.3,0,0,0-2.73-1.54c-4.14-.56-8.66-.19-12.82-.13s-8.43.22-12.64.48c-4,.25-8.22.3-12.13,1.21a.35.35,0,0,0-.13.06,3.79,3.79,0,0,0-7.44-.09c0,.05.05,1.66,0,1.72-.48.61-2.2.62-2.93.81-1.43.38-4,.74-5.16,1.85a1.63,1.63,0,0,0-.47,1.74.39.39,0,0,0,0,.23v0c-15.11,1.5-30.21,3.26-45.25,5.4Q149,57,137.57,58.92c-7.91,1.31-15.81,3.07-23.8,3.82a67.77,67.77,0,0,0-5.24-6.5,29.81,29.81,0,0,0-2.92-2.82c-1.24-1.37-2.7-2.85-4.45-2.89-1.29,0-2.72.75-3.91,1.17-2.2.78-4.4,1.54-6.57,2.39a.53.53,0,0,0-.17.11,3.31,3.31,0,0,0-3,1.18.41.41,0,0,0,0,.59,6.91,6.91,0,0,0-2-.5,4.11,4.11,0,0,0-4.2,2.17,72.48,72.48,0,0,0-8.75,1.11A3.56,3.56,0,0,0,70,56.12a3.21,3.21,0,0,0-3.47,1.3A3.29,3.29,0,0,0,64,55.94a2.16,2.16,0,0,0-1.38.5,22.09,22.09,0,0,0-1.57-2.68.45.45,0,0,0-.83.22c-.07,1.62-.12,3.25-.12,4.87-5.7-.39-11.61-.52-17,1.75-3.23,1.37-7.92,4.33-8.45,8.16a.39.39,0,0,0,0,.21c-4.32,1.23-8.94,3.18-11.25,7-.26.44.37,1,.72.55,6.67-7.76,18-8.3,27.67-7.89,10.52,4.37,21.44,6.72,29.3,15.72a47.79,47.79,0,0,1,8.49,14.95c1.85,5,2.7,10.21,4.2,15.25.38,3.41.56,6.85.6,10.27.1,9.4-1.06,19.28-6.08,27.45a28.46,28.46,0,0,1-8.23,8.61c-1.76.76-3.8,1.31-5.31.94l-2.07-2.75a19.94,19.94,0,0,1,.85-5.75c3.61-6.92,6.32-14.16,6.85-22,.57-8.41-1.08-16.86-3.75-24.81A120.86,120.86,0,0,0,72.18,95C70.53,91.41,69,87.47,66,84.73a.41.41,0,0,0-.58.58c2.56,2.84,4.08,6.35,5.63,9.8a120.23,120.23,0,0,1,4.44,11.23,68.54,68.54,0,0,1,4,21.91,43.48,43.48,0,0,1-.34,5.15c-1.27,6-3.52,11.65-5.56,17.53-2.51,5.1-5.24,10.81-9.94,13.79a.73.73,0,0,0-.66.39,13.11,13.11,0,0,1-4.78,1.56c7.58-2.74,12.85-11.22,15.77-18.24a48.08,48.08,0,0,0,2.25-6.9c.18-.48.35-1,.51-1.43a.36.36,0,0,0-.06-.36c.41-1.11.79-2.22,1.15-3.3.11-.33-.24-.6-.53-.56,1.42-10.8-.45-22.09-4.47-32.31A46.06,46.06,0,0,0,70.4,98.2c-.72-1.48-1.48-2.94-2.28-4.35-4-7-9.49-13.21-16.55-17a34.54,34.54,0,0,0-13.41-5.72.44.44,0,0,0-.48-.29,26.5,26.5,0,0,0-9.25,3.28,12.14,12.14,0,0,0-5.87,4.45.6.6,0,0,0-.11.33c-7.4,7.8-10.59,19.8-10,30.69a76.67,76.67,0,0,0,8.22,30c6,14,18.66,33.24,34.34,27.94a4.7,4.7,0,0,0,1.31.05c.23,0,.46,0,.68,0a4,4,0,0,0,.57-.11.41.41,0,0,0,.37.17,11.92,11.92,0,0,0,5.77-1.45A23.5,23.5,0,0,0,80,162.71a11.25,11.25,0,0,0,3.24-1.5,26.82,26.82,0,0,0,7.94-9.39.58.58,0,0,0,.1-.1c4,.7,8.49,1.48,12.48,1.23a60.93,60.93,0,0,0,3.69,22.22c3,7.69,8,14.36,13.46,20.44,5.76,6.37,13.84,12,22.82,11.71.53,0,.69-.85.13-1-5-1-9.69-2.08-14.09-4.9s-7.86-6.79-11.14-10.78c-6.59-8-11.24-16.66-12.84-27A82.17,82.17,0,0,1,107,134.36c1.88-8.83,5.47-17.47,12.69-23.22l0,0a2,2,0,0,0,1.1-.85l.21,0a.5.5,0,0,0,.37-.66q1-.51,2.06-1c1.73-.65,3.45-1.4,5.14-2.15,1.42-.55,2.84-1.09,4.27-1.63.62-.23.38-1.19-.28-1s-1,.31-1.54.48c0,0,0,0,0,0a64.11,64.11,0,0,0-3.48-18.58c14-2.49,28-5.11,42-7.46q10.33-1.73,20.68-3.35,5.46-.86,10.93-1.68c1.47-.22,4.1-.12,5.9-.72a.63.63,0,0,0,.46.05,2,2,0,0,0,.5-.21.52.52,0,0,0,.37.31c9,1.5,18.14-.55,27-1.9,9.37-1.43,18.84-2.58,28.16-4.31a3.29,3.29,0,0,0,1,.27.58.58,0,0,0,.24,0,.75.75,0,0,0,.86-.39v0c2.49,5,7.51,1,11.31.09a.63.63,0,0,0,.31.1A1.58,1.58,0,0,0,278.6,66a.61.61,0,0,0,.11-.14,1.34,1.34,0,0,0,.13-.24c9.18-1.22,17.84.66,26.68,3.05,7.85,2.12,15.69,4.29,23.41,6.85a159,159,0,0,1,23.24,9.56c6.92,3.59,13.93,7.57,18.33,14.16a21.55,21.55,0,0,1-3.57,2.73c-5.57,3.41-12,5.8-18.29,8a.35.35,0,0,0-.35-.05c-1.62.61-3.24,1.23-4.86,1.85l-3.19,1.13q-28.92,10.45-58.72,18.2c-4.53,1.18-9.09,2.28-13.64,3.34-1.6-15.63-12.29-28.4-24-38.05-6.6-5.43-13.75-8.61-22-10.8-9-2.39-18.26-4.38-27.62-4.31-5.92,0-18.2.3-20.55,7.4a36.72,36.72,0,0,0-7.41,2,.19.19,0,0,0-.13.19l-.33,0a.45.45,0,0,0-.24.05h-.12c-.21,0-.24.24-.11.35a.54.54,0,0,0,.34.6l.8.29,1,1.95-.14.07c-.48.24-.14,1.07.37.88l.19-.07a.34.34,0,0,0,.18.1c8.69,1.21,15.76,6.75,21.43,13.15a70.37,70.37,0,0,1,13.55,23,71.25,71.25,0,0,1,3.16,12.18c.67,4,.48,8.05,1.06,12,.33,2.24,1.25,3.54,2.52,4.21a.15.15,0,0,0,.09.2,9.72,9.72,0,0,0,1.24.44s-.08,0-.1.05c-.41,0-.81,0-1.23,0a.14.14,0,0,0-.14.11c0-.08,0-.16,0-.25a.34.34,0,0,0-.68,0,47.87,47.87,0,0,1-2.67,14.7c-.14.39.48.56.62.17a44.3,44.3,0,0,0,2.72-14.52.13.13,0,0,0,.1.1c.41.1.83.17,1.26.23a18.08,18.08,0,0,1-1,7.86c-.14.39.48.56.62.17a17.3,17.3,0,0,0,1-8,18.23,18.23,0,0,0,5.33-.32,57.46,57.46,0,0,1-2.52,16c-.12.42.5.58.65.18a44.14,44.14,0,0,0,2.53-16.31,46,46,0,0,0,8.44-3c0,.92,0,1.84-.07,2.76-2.57,4.29-2.05,11,1.58,14.16q-.05.92-.12,1.84c-4.84,1.31-9.59,3-14.28,4.74-3.11,1.15-7,2.28-10.09,4.29,4.93-11,5-24.62,3-36a113.49,113.49,0,0,0-6.39-22c-1.37-3.45-3.16-7.37-5.82-10.28-.63-.79-1.3-1.55-2-2.29l-.28-.29c-1.61-1.7-3.33-3.3-5-4.79-2.78-2.46-5.63-4.84-8.53-7.15-2-1.56-4.9-4.83-7.43-5.2a.75.75,0,0,0-.45.07.42.42,0,0,0-.64-.14,18.5,18.5,0,0,1-5.21,2.75.53.53,0,0,0,.28,1c7.66-1.48,15.12,6.29,20.15,11.13a105.11,105.11,0,0,1,11.78,14.15c.91,2.48,1.7,4.94,2.47,7.16a81.28,81.28,0,0,1,5,26.11c.09,13.69-4.83,28.8-14.13,39.24a38.55,38.55,0,0,1-10,4.93,56.3,56.3,0,0,1-7.08,2.22,12.61,12.61,0,0,1-2.65.45,1.81,1.81,0,0,1-2,.06c5-3.06,7.87-8.74,10.12-14a74.07,74.07,0,0,0,5.84-26.53c0-.41-.61-.4-.63,0a75.16,75.16,0,0,1-4.9,23.38c-2.31,5.84-5.35,13-11,16.38a4,4,0,0,1-.2-.68c-1.34-1.86-1.27-1.29-.23-2.74.34-.47-.43-.91-.77-.45l-.1.13a.38.38,0,0,0-.44.11c-.28.29-.67.83-1.08,1.39a.42.42,0,0,0-.77-.15l-.53.91c0-.4-.63-.56-.76-.1l0,.16a.41.41,0,0,0-.5.4q0,.52,0,1l0,0-.15-.2a.6.6,0,0,0-.67-.19c-.5,0-.94.65-.46,1l.58.46a2.36,2.36,0,0,0,.9.52.48.48,0,0,0,.71-.41h0l.08-.06c.18-.18.51-.46.86-.77,0,0,0,0,0,.05a1.93,1.93,0,0,0,.54.88h0c-.64.19-.36,1.2.28,1,.32-.1.63-.23.94-.35a12.82,12.82,0,0,0,4.55.08c5.08-.54,10.36-2.75,15-4.82l.81-.38c-.39.34-.77.7-1.18,1-.21.15-.41.31-.6.48s-.46.39-.7.56a.56.56,0,0,0-.16.19,7.59,7.59,0,0,1-.72.56,22.7,22.7,0,0,1-2.33,1.28c-.15-.06-.31-.13-.47-.18s-.44.22-.34.45a3.38,3.38,0,0,0,1,1.23c-1.82.3-3.66.6-5.46,1-.53.13-.43,1,.13,1l.5-.07c3.52,2.12,7.74,1.81,11.41.18a.36.36,0,0,0,.32.08c14.62-3.12,28.75-8.93,40.06-18.26a.38.38,0,0,0,.35.15c8.26-.93,15.64-5.39,21.77-10.81a34.52,34.52,0,0,0,8.79-11.53.41.41,0,0,0,.45.12c10.91-3.18,21.64-7.12,32.41-10.75s21.47-7.22,32.19-10.88a194.89,194.89,0,0,0,28.75-11.91,265.49,265.49,0,0,0,26.92-16.61.59.59,0,0,0,.24-.36c1.15-1,1.49-2.76,1.59-4.36C381.35,110.55,381.1,105.91,381.12,101.35ZM57.68,84.06A50.48,50.48,0,0,1,67.9,96.57c2.85,5,4.1,10.61,6.51,15.79a59.81,59.81,0,0,1,.74,27.95c-.6,1.39-1.22,2.79-1.89,4.16a59.67,59.67,0,0,1-6.71,10.08,20.75,20.75,0,0,1-6.24,4.35c-6.22,2.79-12.25,1-17.45-2.42-2.24-1.7-4.32-3.64-6.18-5.31-.43-.39-.85-.78-1.27-1.18l-.64-.7c-12.33-13.75-18.36-33.34-15.36-51.63C21,88,26.1,78.64,35.36,75.43c1.34-.1,2.67-.13,3.93-.11C46.69,75.44,52.33,79.26,57.68,84.06ZM37.77,71.61A27.24,27.24,0,0,1,44.56,74,31.77,31.77,0,0,0,33,73,25.48,25.48,0,0,1,37.77,71.61Zm-9.71,3.94A19,19,0,0,1,36.25,74c-.47.11-.93.25-1.38.4a30.49,30.49,0,0,0-7.76,1.81C27.43,76,27.74,75.77,28.06,75.55ZM14.38,116.23a56.75,56.75,0,0,1-.5-16.33c0,.05,0,.1,0,.16a83.9,83.9,0,0,0,.54,16.34Zm14.81,36.61A69.69,69.69,0,0,0,35,159.29a32,32,0,0,0,10.29,6.89C38.91,164.34,33.51,159.13,29.19,152.85ZM36.66,159a71,71,0,0,1-15.3-21c-1-2.41-1.79-4.72-2.45-6.83a88,88,0,0,1-4-27.7c.2-11.08,3.27-19.5,12.23-26.23a23.22,23.22,0,0,1,4.36-1.26,20.08,20.08,0,0,0-2.84,2,27.94,27.94,0,0,0-8.45,12.2A44.12,44.12,0,0,0,17.33,101a64.4,64.4,0,0,0,8.75,40.23A58.87,58.87,0,0,0,39.79,156c4.08,3.25,8.38,6.66,13.84,6.66,7.49,0,13.18-4.7,17.26-10.67A31.7,31.7,0,0,1,61,163.66C52.89,169.17,43.12,165,36.66,159ZM262.2,61.28a44.66,44.66,0,0,1-.58-5.9C261.76,57.36,262,59.33,262.2,61.28ZM261.26,48q0,1.84.18,3.67c0,.25,0,.49,0,.74A15.53,15.53,0,0,1,261.26,48Zm-40.43-3.67A2.8,2.8,0,0,0,218.13,43Q220.59,42.22,220.82,44.29Zm-9.67,3a40.71,40.71,0,0,1,4.12-.83.55.55,0,0,0,.38-.67l-.33-1.38c.51-.31,1-.58,1.43-.8a2.46,2.46,0,0,0-.82,1.49.57.57,0,0,0,.38.67,5.71,5.71,0,0,0,2.46.51.46.46,0,0,0,.49-.53c1,.07,1.61.57,1.67,1.5a.55.55,0,0,0,1.08-.15,13.12,13.12,0,0,0-.13-2.76l.09,0c6.44.14,13-.94,19.49-1.14q4.6-.14,9.2-.12c1.57,0,8.86-.69,10.37,1.13A279.93,279.93,0,0,1,207,49.58a.3.3,0,0,0-.16-.2s0,0,0,0v0C206.94,48.85,210.88,47.36,211.15,47.29ZM88.13,56c1.35-1.07,3.42-.57,4.6.43a11.65,11.65,0,0,1,1.58,1.84c.92,1.2,1.78,2.47,2.62,3.73a85.79,85.79,0,0,1,4.39,7.4,94.93,94.93,0,0,1,5.95,14.7,2.56,2.56,0,0,1-1.22.46.57.57,0,0,0,0-.26c-3.29-8.18-7.32-16.69-12.85-23.62a15.76,15.76,0,0,0-5.33-4.59A.47.47,0,0,0,88.13,56Zm-4.26.64,2.34.09a8.2,8.2,0,0,1,2.3,1.1,14.45,14.45,0,0,1,3.19,2.93,54.94,54.94,0,0,1,5.05,7.58,119,119,0,0,1,8,16.31v0c-.42,0-.84,0-1.25,0a44,44,0,0,0-7.9-13.9c-.63-.94-1.28-1.86-2-2.76C90.89,64.27,87.2,58.92,82,59.15Zm-3.7,2.3c.41,1,1,1.22,2.2,1.8a22.8,22.8,0,0,1,7.89,6,96.74,96.74,0,0,1,6.26,7.69,85.5,85.5,0,0,1,4.89,10.11H98.9C96.32,77.89,91.54,72.66,86,68.23c-4-3.21-8.39-6.45-13.32-8,0-.16,0-.32,0-.48C75.2,59.44,77.68,59.15,80.18,58.95Zm-12.95-.27c.9-2.56,3.22-1.4,4,.37l-.08,0a.4.4,0,0,0-.29.46c-1.29-.19-2.65-.4-4-.47A.61.61,0,0,0,67.23,58.67Zm-1.07.14a.64.64,0,0,0,.26.22,11.46,11.46,0,0,0-1.4,0,3.24,3.24,0,0,0-1.35.4,10.29,10.29,0,0,0-.62-2.15C63.94,56.17,65.62,58,66.16,58.81Zm-5.07-3.4a15.68,15.68,0,0,1,1,1.93,1.85,1.85,0,0,0-.05.2.4.4,0,0,0,.32.48c.08.24.17.48.23.73a8,8,0,0,1,.23,1.43.37.37,0,0,0,0,.21l-1.42,3-.23.13a.6.6,0,0,0-.2,0C60.95,60.8,61,58.11,61.09,55.41Zm-24,13-1.51.39c4.47-8.87,16-9.17,24.6-8.59,0,.27,0,.53,0,.8a45.17,45.17,0,0,0-14.67,1.4c-3.33.9-6.38,2.68-7.91,5.88Zm55.19,81.5c3.87-7.72,4.62-17.27,4.35-25.69-.31-9.47-1.77-19.27-5.37-28.07a47.63,47.63,0,0,0-2.9-5.9,46.39,46.39,0,0,0-9.55-12.59c-6.87-6.33-16.36-11-25.88-10.31A41,41,0,0,0,38.81,68c2.07-3.11,5.44-4.41,9.1-5.06a49.49,49.49,0,0,1,12.27-.86q0,.85.06,1.71a.47.47,0,0,0-.06.69,2.55,2.55,0,0,0,.32.32.39.39,0,0,0,.05.13.46.46,0,0,0,.55.51,4.49,4.49,0,0,0,1.64-.63,2.05,2.05,0,0,0,1.06-1.08,3.58,3.58,0,0,0,.51-2c.64-.74,1.39-1.1,3.13-1.15l.42.06,2.14.18a16,16,0,0,1,5.36,2.61c4.23,2.8,8.45,5.05,12.08,8.71a61.68,61.68,0,0,1,9.18,12.42h-.87a.5.5,0,0,0-.42.22,1,1,0,0,0-.92,0,.35.35,0,0,0-.3-.22c-2.72-4.74-7-9-11-12.5a60.47,60.47,0,0,0-14.9-9.56c-.37-.17-.7.37-.33.56a69.19,69.19,0,0,1,14.93,10C86.9,76.74,90,81,93.4,85.27a.52.52,0,0,0,0,.15l-.06.58a10.35,10.35,0,0,0-.52,2.47c-.68-1.16-1.43-2.3-2.24-3.41-2-5.11-6.48-8.8-11-11.7-3.23-2.07-6.58-4-9.89-5.93-2.11-1.24-4.43-3.13-6.86-1.82a.35.35,0,0,0,.27.64c3.23-.84,7.48,2.89,10.06,4.43,2.12,1.27,4.26,2.51,6.32,3.86.82.54,1.6,1.1,2.36,1.68A70.9,70.9,0,0,1,89.6,86c.58.92,1.12,1.86,1.63,2.82.72,1.95,1.4,3.91,2,5.89a10.36,10.36,0,0,0,.51,1.7A114.16,114.16,0,0,1,98,118.23a112.39,112.39,0,0,1,.37,15.67c0,.77-.06,1.66-.1,2.61-.39,2.71-.81,5.42-1.14,8.17C96.27,147.24,94.83,149.31,92.25,149.87Zm9.27-46.74-.88-.66a23.54,23.54,0,0,1-4.36-6.28c-.28-.59-.53-1.19-.76-1.8-.09-.29-.2-.57-.31-.85a23,23,0,0,1-.63-2.27,22,22,0,0,1-.42-2.5c.05-.9.12-1.78.16-2.63a.47.47,0,0,0,.35-.39,1,1,0,0,1,1,.19h0A20.26,20.26,0,0,0,101.51,103.13Zm2.26,47.5c0,.43,0,.85,0,1.28a36.61,36.61,0,0,0-6.37-.88c.46-.91.41-2.28.9-3.26a9,9,0,0,1,2.54-3,.45.45,0,0,0,.14-.2h2.83a.52.52,0,0,0,.38-.15C104,146.52,103.84,148.61,103.77,150.63Zm.56-8.14h-.51a.25.25,0,0,0,.06-.08,15.94,15.94,0,0,0,.72-2.14C104.51,141,104.41,141.75,104.33,142.49Zm1.1-7.26c.08-.85.13-1.69.16-2.49,0-.41-.67-.52-.74-.1-.51,3.14-1.38,6.43-1.59,9.6a.28.28,0,0,0,.12.24h-1.28a12.59,12.59,0,0,0,.73-7.15c-.08-.4-.77-.32-.73.1a16,16,0,0,1-.76,7l-1.19,0c.19-1.05.39-2.11.54-3.16.06-.4-.54-.6-.63-.17-.23,1.08-.4,2.17-.59,3.25a.36.36,0,0,0,0,.13l-.6,0c0-.17.06-.34.08-.5v-.12c2.5-9.26,2.54-20.42.53-30.27A26.94,26.94,0,0,0,98.07,104c4,4.56,10.71,6.2,16.62,7.75a9.68,9.68,0,0,0-.15,1.25h0c0,.48.79.51.76,0a9.81,9.81,0,0,0-.13-1.12l1.58.43C110.51,118.22,107.17,126.57,105.44,135.23Zm15.18-26.85h-.16a21.29,21.29,0,0,1-17.84-5.79C98,98,96.38,92,96.6,85.68q2.82.08,5.64.09a.87.87,0,0,0,1.21,0c.61,0,1.23,0,1.84,0a4.68,4.68,0,0,0,2.37-.45l.29.88a.54.54,0,0,0,.4.38c3.47,8.5,8.75,16.71,17.91,19.36C124.36,106.71,122.46,107.5,120.62,108.38Zm8.12-3.47-.53.22-.08,0c-10.48-2.16-16.2-11.78-19.57-21.13a.61.61,0,0,0-.15-.23c-2.35-7.06-10-25.62-16.42-29,1.32-.42,2.63-.86,3.94-1.3s3.3-1.61,4.62-1.56a3.7,3.7,0,0,1,.41,0,.17.17,0,0,0,0,.24l.12.11a.11.11,0,0,0,.15,0l.09-.09a.05.05,0,0,0,0-.09,3.8,3.8,0,0,1,.7.11c2.33,1,4.36,3.77,5.86,5.44a81.67,81.67,0,0,1,6.71,8.59q1,1.45,1.91,2.91c.6,1,1.2,1.92,1.76,2.91A83.67,83.67,0,0,1,128.73,104.91ZM207.06,71a.59.59,0,0,0-.44.16l-.65,0a28.24,28.24,0,0,0-2.88.43l-5.18.78-9.78,1.51q-10.35,1.63-20.67,3.39c-13.47,2.29-26.94,4.65-40.32,7.42-2.13-5.35-5.46-10.1-8.62-14.88-1.34-2-2.7-4.07-4.11-6.08,6.86-.09,13.87-2,20.59-3.15q11.71-2,23.47-3.68,23.62-3.43,47.37-5.8l.45,3.55q.21,3,.43,5.95c.06.77.23,8.15.43,10.05A.55.55,0,0,0,207.06,71Zm19.51-.18a91,91,0,0,1-10.08,1.1,23.64,23.64,0,0,1-5.11-.1c-1.12-.21-1.91-.45-2.32-1.41A1.74,1.74,0,0,1,209,70c0-.19,0-.39,0-.59,0-.44,0-.9,0-1.22A158.12,158.12,0,0,0,207,51.63l-.1-1,1.83,0A156.63,156.63,0,0,0,211,68.38c.06.36.69.28.64-.09-.75-5.86-1.43-11.74-2.18-17.6,1.54,0,3.08,0,4.63,0a.35.35,0,0,0,0,.14,14.56,14.56,0,0,0,.5,5.44.35.35,0,0,0,.22.24c-1.7,4.08-.48,10.72,3.7,11.07,6.38.54,6.47-12.62,1.44-13.81a.35.35,0,0,0,.13-.27,5.55,5.55,0,0,0-.2-1.37,3.09,3.09,0,0,1,2.38,1.25c.24.3.73-.09.53-.41a3.47,3.47,0,0,0-3.14-1.54.4.4,0,0,0-.61.4,12.32,12.32,0,0,0,.27,1.56,4.09,4.09,0,0,0-4.06,2.24,39.17,39.17,0,0,1-.5-4.8.33.33,0,0,0,0-.15,248,248,0,0,0,45.94-5.15c-.93,2.75,0,8.7.05,9.88.14,2.45-.19,7.51,1.64,9.94C250.33,66.82,238.45,69,226.57,70.79Zm-8.8-16.3a.49.49,0,0,0,.5.23c3.77-.56,4,3.91,3.89,6.23a7.55,7.55,0,0,1-.82,3.56q-.4,1.64-2.26,1.26-2.15,1.14-3.09-1.21C214.4,61.69,214.64,56.12,217.77,54.5Zm-34.39,54.79c-4.34-3.92-9.8-9.07-15.93-9.52a19.17,19.17,0,0,0,2.36-1.48.27.27,0,0,0,.27.16c1.53-.13,3.86,2.36,5,3.24q1.92,1.52,3.81,3.08c2.43,2,4.86,4,7.2,6.11.36.32.71.65,1.06,1a.13.13,0,0,0,.05.15c.18.12.34.25.51.37q.74.72,1.45,1.45a.31.31,0,0,0,0,.51,28.15,28.15,0,0,1,2.6,2.37c.29.34.56.7.84,1a32.8,32.8,0,0,1,1.66,3A92,92,0,0,0,183.38,109.28ZM271.87,67c-2.49.85-4.83-.16-5.51-2.8-.53-2.05-1.24-5.69,1.5-6.67.75-.3.45-1.51-.34-1.23-3,1.23-3.38-6.19-3.61-7.56a20.6,20.6,0,0,1-.59-3.49c.09-3,1.84-3.18,4-3.89,3-1,17.35-5.25,16.12,1.56l-.54-.09c.25-2-2.81-2.9-4.63-2.65a28.51,28.51,0,0,0-11.51,4.23.48.48,0,0,0-.9.23q0,.21,0,.43l-.3.23c-.31.25,0,.66.32.63.1,2.28.53,4.63,2.09,6.36A10.12,10.12,0,0,0,270.59,54q1.12-.2.83.87.38.93-.62,1.12c-.73.93-.56.1-1.25,1.16a6.26,6.26,0,0,0,0,5.63c.47.86.56,1,1.45,1.21a14.6,14.6,0,0,0,2.64-.09l1.92.22a1.7,1.7,0,0,1,1.65.91C275.31,65.33,273.78,66.34,271.87,67Zm9.73-24.37q-2.78-.43-5.57-.74C278.69,41.2,281,41.13,281.59,42.62Zm72.76,41.89a159.56,159.56,0,0,0-24-10c-8.4-2.81-16.94-5.16-25.5-7.44-8.32-2.21-17.35-4.47-25.93-2.38a2,2,0,0,0-.48-.87c-.77-.85-2.52-1-3.55-1.12-.7-.09-1.59,0-2.28-.12q-1.5.52-2.09-1.13a4.35,4.35,0,0,1-.2-1.92c.2-2.4,2.08-2.29,2.94-4a2,2,0,0,0,.07-1.72c-.51-1-1.54-.64-2.41-.94-3.23-1.11-3.67-4.43-3.95-7.36a63.7,63.7,0,0,1,6.71-2.85.43.43,0,0,0,.19.09c9.4,1.83,18.78,3.4,28.08,5.74s18.46,5.1,27.57,8.08c8.94,2.92,17.81,6,26.67,9.2C364,68.51,372.64,71,378,77.81h0c-.23,7.6-1.49,14.88-6.32,20.26C367.92,91.76,360.62,87.83,354.36,84.51Zm-42.65,39.34q3.37-1,6.72-2.13c-6.41,2.54-12.85,5-19.37,7.27A347.47,347.47,0,0,1,248.8,142.4a5.53,5.53,0,0,0-.39-2.47h0C269.81,136.27,291,130.27,311.71,123.85Zm-62.62,31.38a6.24,6.24,0,0,0-2.82-.65h-.07c0-.17.1-.33.15-.5a8.81,8.81,0,0,1,1.29-2.45h0a32.13,32.13,0,0,0,4.82.39c.39,0,.5-.63.09-.7a31.32,31.32,0,0,0-4.3-.38,5,5,0,0,1,1.17-.84.54.54,0,0,0,1-.38,5.19,5.19,0,0,1,.91-.14,15.07,15.07,0,0,1,3.18.36l.35.13a10.67,10.67,0,0,0-2.76,3.54.34.34,0,0,0-.16-.12,24.58,24.58,0,0,0-3.56-.77c-.53-.09-1.16-.09-1.32.55a.32.32,0,0,0,.08.31l.1.08c.25.21.66-.06.47-.36.25.42,1.81.51,2.23.59a15.87,15.87,0,0,0,1.87.31c-1.62,3.46-2.21,7.83-.93,10.32-4.6-.43-5.81-5.41-4.85-9.41a.3.3,0,0,0,.22.09,6.48,6.48,0,0,1,2.5.56C249.14,156,249.47,155.42,249.09,155.23Zm-2.34-5.73-.46-1.43a8.11,8.11,0,0,0,1-.82c.2.82.42,1.64.66,2.44a7.69,7.69,0,0,0-.78.77C247,150.11,246.83,149.76,246.75,149.5Zm1.67-1.83.13.15a.35.35,0,0,0,.29.1l.26,1a5.5,5.5,0,0,0-.52.29C248.51,148.69,248.47,148.18,248.42,147.66Zm2.42,22.47a6,6,0,0,1,1.65-1.22c.8-.41,1.68-.71,2.53-1a12.4,12.4,0,0,0-.92,1.79.51.51,0,0,0-.72.17,46.76,46.76,0,0,1-16.89,16.75l-.51.28a43.08,43.08,0,0,0,11-10.13,12,12,0,0,0,2.89-4.57C250.2,171.5,250.54,170.83,250.84,170.13Zm.82-6.62c-1.67-3.05.62-11,4.15-13l.06,0a.8.8,0,0,0,.46,0,.39.39,0,0,0,.39.09,1.82,1.82,0,0,1,2.47.91q.23,1.4.48,2.79a21.75,21.75,0,0,1-.53,4.45,15.51,15.51,0,0,1-1.28,3.68C256.64,164.73,253.56,167,251.66,163.51Zm6-14.1a.37.37,0,0,0-.42-.33,3.46,3.46,0,0,0-.61.12,4.09,4.09,0,0,0-2.44-1.28,10.55,10.55,0,0,1-1.66-.5l-.27-1a8,8,0,0,0-.11-2.23l.59-.12a.6.6,0,0,0,.45-.37,29.32,29.32,0,0,0,.36,3c.07.4.71.3.7-.09a29.07,29.07,0,0,0-.3-3.07q.76-.13,1.51-.3c.21,1.65.43,3.31.73,4.95.07.37.7.29.66-.09-.18-1.68-.45-3.36-.72-5q.84-.23,1.66-.53.52,3.57,1.09,7.13A2,2,0,0,0,257.66,149.41ZM188.23,82.82a64.87,64.87,0,0,1,15.46.25A128.59,128.59,0,0,1,220,86.37a66,66,0,0,1,14.25,5c8,4.22,15.18,11.14,20.9,18.13,6,7.29,10.45,15.84,11.35,25.32l-4,.94c-1.07-12.55-11-23.34-20-31.29A88.4,88.4,0,0,0,209.79,86c-.39-.12-.54.47-.17.61a96.52,96.52,0,0,1,31.29,18.06,94,94,0,0,1,11.47,11.75,137.1,137.1,0,0,1,6.5,13.73c.5,2,.94,4,1.3,6a.41.41,0,0,0,.06.14l-4.72,1.1a1.53,1.53,0,0,0-.31-2.24.66.66,0,0,0-.58-.15.51.51,0,0,0-.38-.24,42.71,42.71,0,0,0-5.47-9.35.53.53,0,0,0-.1-.09A92.63,92.63,0,0,0,233.31,107a0,0,0,0,0,0,0,140.16,140.16,0,0,1,18.44,25.81c.77,1.59,1.5,3.19,2.19,4.83l0,0-2.28.54a68.64,68.64,0,0,0-7.94-16.9.09.09,0,0,0-.16.09,101.67,101.67,0,0,1,7.53,16.94l-2.82.67c-.47-4.39-2.58-8.73-4.93-12.41-.21-.38-.42-.77-.64-1.15-4.94-8.57-12-15.9-19.81-22A73,73,0,0,0,197,90.29a57.89,57.89,0,0,0-22.31-1.72C177,84.14,183.79,83.33,188.23,82.82ZM173.7,95.38c-1.16-.4-3.2-.47-4.4-1.12l.05,0a.42.42,0,0,0-.29-.71,1.73,1.73,0,0,0-.48.08,6.24,6.24,0,0,1-.24-.78,68.51,68.51,0,0,1,8.06,3.69A27.74,27.74,0,0,0,173.7,95.38Zm40.79,63.68c-1.21.26-3.15.5-4.22-.3-1.63-1.22-1.89-3.21-2-5.06a94,94,0,0,0-1.15-11.53c-2.82-15.47-11-30.88-23.27-40.89l-.93-.73c9.84,7,17.25,16.62,22.13,28.76,1.13,2.82,2.11,5.7,3,8.61a118.73,118.73,0,0,1,3,19.14.42.42,0,0,0,.38.39.27.27,0,0,0,.19.28,9,9,0,0,0,2.39.49,5,5,0,0,0,1.74.51C215.33,158.86,214.91,159,214.49,159.06Zm-2.72-3.4a5.32,5.32,0,0,0,1.12,1.75,10.29,10.29,0,0,1-1-.19.4.4,0,0,0,0-.16C211.85,156.59,211.8,156.12,211.76,155.66Zm9.64.51a.59.59,0,0,0-.46-.05c-2.68.75-5.68,2.37-7.69-1.16-.87-1.52-.71-4.64-1-6.38a107.08,107.08,0,0,0-2.74-11.67,78.22,78.22,0,0,0-9.77-21.27l0,0c-.62-1-1.25-2-1.92-2.91C191,103.13,180,93.38,167.91,91.24a.45.45,0,0,0-.4-.28l-.34,0c2.2-.44,4.37-.8,6.53-1.08a.39.39,0,0,0,.5-.06,57.62,57.62,0,0,1,21.06,1,70.86,70.86,0,0,1,24.64,11.72,91.3,91.3,0,0,1,7.68,6.24c9,10.31,19.35,20.86,19.07,35.24a13.53,13.53,0,0,1-4.11,3.79c-4.29,1.4-8.55,3.47-12.68,5C227.3,153.77,224.39,155.15,221.41,156.17Zm17.82.79a2.85,2.85,0,0,0-1.11,0,.52.52,0,0,0-.1-.28,14.56,14.56,0,0,0-1.11-3.93l1-.39C238.29,153.92,238.68,155.48,239.23,157ZM238,152.35l1.07-.44c.38,1.75.71,3.6,1.19,5.38a3.3,3.3,0,0,0-.85-.31C239,155.41,238.5,153.87,238,152.35Zm-.06,6.18a.11.11,0,0,0,.21,0c0-.21,0-.43,0-.64,2.13-.59,3.34,2.16,3.38,4.27,0,1,0,2,0,3a18.29,18.29,0,0,1-.77,4.82c-.57,1.72-2.48,4.13-4.37,3.92a.71.71,0,0,0-.76-.71l-.55.07a4.61,4.61,0,0,1-.9-1.18c-2.32-4.19.28-9.71,2.76-13.56h0a3.92,3.92,0,0,1,.9-.54C237.83,158.16,237.88,158.34,237.93,158.53Zm3-.77c-.45-2-1.15-4-1.72-5.93l1.14-.49c.56,2.62,1,5.34,1.65,8A3.76,3.76,0,0,0,241,157.76Zm-14.06,1.33c0-.63,0-1.26-.06-1.88,2.5-1.14,4.9-2.32,7.11-3.23l2.48-1c.36,1.17.69,2.35,1,3.54-2.23.33-4.26-.13-6.43.06a2.94,2.94,0,0,0-1.46.5A7.56,7.56,0,0,0,226.89,159.09Zm.67,10.76a3.46,3.46,0,0,1,2.25.49c.35.2.77-.3.45-.58a3.15,3.15,0,0,0-2.88-.64,9.69,9.69,0,0,1-.16-1.1,11.73,11.73,0,0,1,3.87.85c.4.15.61-.45.28-.66a7,7,0,0,0-4.2-1c0-.43,0-.86,0-1.28,1.42.33,2.76.82,4.16,1.2a.35.35,0,0,0,.27-.63,12,12,0,0,0-4.38-1.33c0-.3.05-.59.09-.86s.09-.69.14-1c.77.14,1.56.16,2.33.25.95.11,1.89.33,2.84.39.42,0,.46-.58.1-.71a13,13,0,0,0-5.15-.59,10.76,10.76,0,0,1,.41-1.44c.07-.17.14-.34.22-.51a.27.27,0,0,0,.23.24c1.56.31,3.21.47,4.79.63.41,0,.48-.6.1-.71a15.4,15.4,0,0,0-4.8-.58.31.31,0,0,0-.15.05c.12-.23.24-.46.37-.68a4.89,4.89,0,0,1,.52-.62.36.36,0,0,0,.13,0,43.94,43.94,0,0,0,4.73.37c.38,0,.49-.62.09-.68a38.2,38.2,0,0,0-4.2-.33,4.74,4.74,0,0,1,2.3-.7c1.63-.1,3.13,0,4.72-.21l0,0a3.54,3.54,0,0,0-.54.53.33.33,0,0,0-.07.17,16.34,16.34,0,0,0-3.56,11.84,6.78,6.78,0,0,0,1.28,3.22c-1.9-.06-4-.07-5.34-1.4A4.85,4.85,0,0,1,227.56,169.85Zm-28.38,18.42a87.31,87.31,0,0,0,6.17-20c0,.36-.06.73-.1,1.09-.8,7.31-3.2,13.65-6.29,20.26a.81.81,0,0,0,0,.77,20.75,20.75,0,0,0-2.32,3.25c-.35.6-.67,1.23-1,1.86a.64.64,0,0,0-.11-.16A54.08,54.08,0,0,0,199.17,188.27Zm-22.66,21.67c1.73-.25,3.45-.59,5.16-.91a.47.47,0,0,0,.26-.14,13.5,13.5,0,0,0,4.05.88A12.63,12.63,0,0,1,176.51,209.94Zm7.42-2.79a14.69,14.69,0,0,0,3.56-1.67,10,10,0,0,1-1.34,1.13A7.59,7.59,0,0,1,183.93,207.15Zm2.66,1.44c3.88-1.67,6.25-5.19,8.12-8.9,2.82-5.58,5.36-10.34,11.09-13.43,5.24-2.82,11.2-4.39,16.82-6.29,6.51-2.2,13-4.36,19.54-6.61.59-.2.34-1.14-.26-.94l-1.82.6c2.64-3.21,2.74-9.38,2.15-13,.21.8.44,1.6.7,2.38,0,.11.24.11.22,0a101.33,101.33,0,0,0-2.42-11.21l1.24-.58c.56,3.18.9,6.49,1.77,9.57a.19.19,0,0,0,.37-.05,54.08,54.08,0,0,0-1.58-9.8l.77-.41c.41,1.9.5,3.79.83,5.7,0,.28.42.17.45-.06a16.16,16.16,0,0,0-.79-5.9c.2-.11.39-.24.59-.36.06.44.12.89.19,1.33a5.7,5.7,0,0,0,.57,2.41.15.15,0,0,0,.26,0,5.24,5.24,0,0,0-.26-2.32c-.11-.54-.23-1.09-.35-1.63.29-.17.58-.33.86-.52l.13-.1.23.8c.06.21.37,1.19.59,1.87a10.4,10.4,0,0,0-1.13,2.12.34.34,0,0,0-.18.2c-.92,2.42-1.63,5.35-.84,7.9a8.56,8.56,0,0,0,1.06,3.21c.86,1.47,2.64,2.77,3.2,4.43l.06.18a3.13,3.13,0,0,1,.12.67.73.73,0,0,0,0,.19c-3.37,6.9-9,11.66-15.17,16.32a64.23,64.23,0,0,0,9.12-12.23c.16-.28-.11-.7-.44-.58L221.34,181c-3.63,1.29-7.28,2.52-10.89,3.86a15.9,15.9,0,0,0-6.16,3.67c-4.11,4.25-6.23,10.15-9.9,14.76a22.22,22.22,0,0,1-6.19,5.41Q187.39,208.66,186.58,208.6Zm3.13.44a.55.55,0,0,0-.09-.13c5-3.25,8-8.75,11-13.74,1.88-3.15,3.78-6.45,7.1-8.28,3.56-2,7.79-3,11.61-4.35l22.31-7.92C230.35,193.55,210.68,204.1,189.72,209Zm39-18,.71-.6a.31.31,0,0,0,.33.15c4.95-.92,9.93-4.54,13.75-7.67a47.86,47.86,0,0,0,9.16-10.07c-1,1.94-2.24,3.75-3.36,5.63-.1.16.13.35.26.2a27.21,27.21,0,0,0,3.84-5.7c.83-1.57,1.94-3.51,2.09-5.34a7.89,7.89,0,0,0,1.18-.62c.1-.07.18-.14.27-.21-.82,1.82-1.61,3.66-2.58,5.42-1.25,2.26-2.77,4.35-4.09,6.57a.2.2,0,0,0,.31.24,32.94,32.94,0,0,0,7.3-13.09l0,0V166a.11.11,0,0,0,.21,0c0-.16.05-.3.07-.45A5.69,5.69,0,0,0,259,164C256.55,177.71,241.92,188.77,228.73,191.07ZM377.6,119.19a.43.43,0,0,0-.27.41c-3.37,2.13-6.72,4.3-10.07,6.45.08-6,0-12.1,0-18.15a.35.35,0,0,0-.7,0c0,6.19-.08,12.39,0,18.59-4.87,3.1-9.78,6.13-14.9,8.85a151.67,151.67,0,0,1-14.82,6.8.3.3,0,0,0,.07-.22,175.27,175.27,0,0,1-.37-18.94c0-.42-.64-.42-.66,0a126.62,126.62,0,0,0,.34,18.94.36.36,0,0,0,.35.33c-4.75,1.89-9.57,3.62-14.42,5.27-20,6.82-40.06,13.34-60,20.32-.22-2.27-.72-4.51-.91-6.79-.09-1.07-.16-2.15-.19-3.23-.07-2.57.17.57.14,1.31,0,0,.07,0,.08,0A9.78,9.78,0,0,0,261,156c0-.09-.15-.07-.16,0A30.09,30.09,0,0,0,262,167.91L258.86,169a21.86,21.86,0,0,0,1.62-9.63.53.53,0,0,0-.2-.4c.15-.74.26-1.45.33-2.06.17-1.51.16-4.41-.76-6.13-.44-2.82-.92-5.63-1.42-8.44a18.42,18.42,0,0,0,2-.92.37.37,0,0,0,.19-.26c2.52-.52,5-1.07,7.53-1.69a136.82,136.82,0,0,0,1.71,17.62c.06.4.76.31.72-.1-.62-5.9-1.16-11.8-1.69-17.71l3.14-.8c.17,5.27.55,10.6,1.1,15.85,0,.47.78.5.76,0-.22-5.32-.62-10.68-1.22-16a.31.31,0,0,0,0,0c9.21-2.43,18.31-5.33,27.27-8.44,14.25-4.94,28.48-10.31,42.35-16.3l.49-.18q7.68-2.8,15.3-5.78A53,53,0,0,0,369.5,102a21,21,0,0,0,2.08-1.7.79.79,0,0,0,.75-.73c5.06-5.16,6.54-12.21,6.7-19.47,2,5.67.93,12.71.89,18.46q0,5.1-.06,10.19C379.85,111.68,380.88,117.65,377.6,119.19Z" transform="translate(-11.88 -37.35)"/></g><path id="_Составной_контур_11" data-name="&lt;Составной контур&gt;" class="cls-2" d="M286.64,53.68a.4.4,0,0,0,0-.58c-2.22-2.11-5.09,4.29-2,5.36,1.45.51,2.75-1,3-2.3A2.7,2.7,0,0,0,286.64,53.68Zm-.2,2.17c-.1.63-.7,1.64-1.43,1.46-1.05-.27-.6-2.34.16-3.18a.4.4,0,0,0,.21.36C286,54.81,286.58,55,286.44,55.85Z" transform="translate(-11.88 -37.35)"/><path id="_Составной_контур_12" data-name="&lt;Составной контур&gt;" class="cls-2" d="M295.2,55.43a3.23,3.23,0,0,0-2.74-1.6.53.53,0,0,0-.83-.25,3.47,3.47,0,0,0-.79,3.89,2.35,2.35,0,0,0,3.41,1.31A2.51,2.51,0,0,0,295.2,55.43Zm-1.56,2.32c-.93.57-1.72-.31-1.91-1.21a2.63,2.63,0,0,1,.22-1.67h0c.68.28,1.34.14,1.91.72A1.33,1.33,0,0,1,293.65,57.75Z" transform="translate(-11.88 -37.35)"/><path id="_Составной_контур_13" data-name="&lt;Составной контур&gt;" class="cls-2" d="M302.22,54.38a2.22,2.22,0,0,0-2.29.19c-1.44.39-1.54,2.46-1,3.65.71,1.59,3,2.61,4.25,1C304.15,58,303.58,55.2,302.22,54.38Zm0,4.16c-1.22,1.32-2.84-1-2.56-2.34a.48.48,0,0,0,.72-.24c.27-.88,1.2-.9,1.68-.13C302.42,56.44,302.74,58,302.21,58.54Z" transform="translate(-11.88 -37.35)"/><path id="_Составной_контур_14" data-name="&lt;Составной контур&gt;" class="cls-2" d="M310.3,56.2a1.81,1.81,0,0,0-1.47-.14,2,2,0,0,0-2,.77,3.21,3.21,0,0,0-.27,3c.61,1.84,2.58,2.93,4,1.19C311.58,59.72,311.84,57.21,310.3,56.2Zm-.61,3.89c-1.36,1.78-2.63-1.1-2.14-2.45a1.33,1.33,0,0,0,.29.54c.27.33.73,0,.77-.32.1-1.09,1.24-.84,1.5,0A2.63,2.63,0,0,1,309.69,60.09Z" transform="translate(-11.88 -37.35)"/><path id="_Составной_контур_15" data-name="&lt;Составной контур&gt;" class="cls-2" d="M319,59.48a1.74,1.74,0,0,0-2.12-.8l-.08,0a2.83,2.83,0,0,0-2.32,2.6c0,1.71,1.69,3.54,3.48,2.93C319.54,63.7,319.74,60.73,319,59.48Zm-.88,2.59c-.09.52-.17,1.07-.88,1.08a1.58,1.58,0,0,1-1-.48,1.6,1.6,0,0,1-.09-2.42,1.61,1.61,0,0,0,.06.19c.19.43.83.18.84-.23q.57-.93,1-.17a1.5,1.5,0,0,1,.21.75A5.39,5.39,0,0,1,318.08,62.07Z" transform="translate(-11.88 -37.35)"/><path id="_Контур_87" data-name="&lt;Контур&gt;" class="cls-2" d="M324.93,61.66c-.33-.25-.67.16-.62.48.14.87.77,1.6.3,2.52a1.29,1.29,0,0,1-1.64.66c-1.3-.76-.28-4.31,1.35-3.82.49.15.83-.61.35-.84-2.76-1.3-4.39,4-2.42,5.46a2.28,2.28,0,0,0,3.08-.54A3,3,0,0,0,324.93,61.66Z" transform="translate(-11.88 -37.35)"/><path id="_Составной_контур_16" data-name="&lt;Составной контур&gt;" class="cls-2" d="M330.94,63.52a.48.48,0,0,0-.52-.64,2.61,2.61,0,0,0-2,2.71,2.36,2.36,0,0,0,2.39,2.1A2,2,0,0,0,333,65.6,2.1,2.1,0,0,0,330.94,63.52Zm-.31,3c-1.53-.21-1.18-1.84-.27-2.57a.47.47,0,0,0,.35.59,1.16,1.16,0,0,1,1.11,1.07C331.87,66.29,331.23,66.6,330.62,66.51Z" transform="translate(-11.88 -37.35)"/><path id="_Составной_контур_17" data-name="&lt;Составной контур&gt;" class="cls-2" d="M280.6,54.43a2.57,2.57,0,0,0-.81-1.75.9.9,0,0,0-.65-.15l-.06-.07a.5.5,0,0,0-.69,0,3.43,3.43,0,0,0-.82,3.81,1.54,1.54,0,0,0,2.76.22A2.75,2.75,0,0,0,280.6,54.43Zm-1.84,1.63c-.39-.25-.4-1-.36-1.42a2.41,2.41,0,0,1,.18-.66l.07.06a.38.38,0,0,0,.56-.22l.11,0a4.28,4.28,0,0,1,.23.94C279.6,55.13,279.52,56.55,278.76,56.06Z" transform="translate(-11.88 -37.35)"/><path id="_Контур_88" data-name="&lt;Контур&gt;" class="cls-3" d="M290.66,142.41c-.05-.38-.62-.22-.57.16l.62,4.43c.05.38.63.22.58-.16Z" transform="translate(-11.88 -37.35)"/><path id="_Контур_89" data-name="&lt;Контур&gt;" class="cls-3" d="M292.49,135.39c-.05-.42-.73-.43-.67,0,.41,3.18.79,6.37,1.24,9.54.05.35.67.27.63-.08C293.33,141.69,292.9,138.54,292.49,135.39Z" transform="translate(-11.88 -37.35)"/><path id="_Контур_90" data-name="&lt;Контур&gt;" class="cls-3" d="M295.43,134.51c0-.46-.77-.46-.72,0,.37,3.85.7,7.7,1.15,11.54.05.43.73.45.69,0C296.25,142.2,295.82,138.35,295.43,134.51Z" transform="translate(-11.88 -37.35)"/><path id="_Контур_91" data-name="&lt;Контур&gt;" class="cls-3" d="M298.3,135.11c0-.44-.75-.45-.7,0,.38,3.55.73,7.11,1.18,10.65.05.41.69.43.66,0C299.11,142.2,298.69,138.66,298.3,135.11Z" transform="translate(-11.88 -37.35)"/><path id="_Контур_92" data-name="&lt;Контур&gt;" class="cls-3" d="M301.95,135.1c-.05-.48-.81-.49-.76,0,.36,3.39.66,6.78,1.11,10.16.05.39.72.3.69-.09C302.73,141.81,302.31,138.45,301.95,135.1Z" transform="translate(-11.88 -37.35)"/><path id="_Контур_93" data-name="&lt;Контур&gt;" class="cls-3" d="M313.09,131c0-.39-.67-.41-.63,0,.37,3.58.68,7.17,1.18,10.73.05.38.7.29.67-.09C314,138.05,313.53,134.51,313.09,131Z" transform="translate(-11.88 -37.35)"/><path id="_Контур_94" data-name="&lt;Контур&gt;" class="cls-3" d="M316.91,128.61c0-.46-.77-.47-.73,0,.32,3.47.51,7,1,10.43.06.39.7.29.68-.09C317.74,135.5,317.26,132,316.91,128.61Z" transform="translate(-11.88 -37.35)"/><path id="_Контур_95" data-name="&lt;Контур&gt;" class="cls-3" d="M320.25,125.64a.37.37,0,0,0-.75,0,59.54,59.54,0,0,0,.69,9.25c.06.38.73.3.68-.09A85,85,0,0,1,320.25,125.64Z" transform="translate(-11.88 -37.35)"/><path id="_Контур_96" data-name="&lt;Контур&gt;" class="cls-3" d="M323.42,122.39c0-.43-.7-.44-.67,0,.25,3.74.42,7.51.85,11.24.05.44.72.46.7,0C324.15,129.88,323.75,126.13,323.42,122.39Z" transform="translate(-11.88 -37.35)"/><path id="_Контур_97" data-name="&lt;Контур&gt;" class="cls-3" d="M212.32,51.13a.34.34,0,0,0-.67,0,59,59,0,0,0,1.2,13.39c.08.38.73.3.69-.09C213.1,60,212.57,55.59,212.32,51.13Z" transform="translate(-11.88 -37.35)"/><path id="_Контур_98" data-name="&lt;Контур&gt;" class="cls-3" d="M216.11,51.31a.4.4,0,0,0,0,.8A.4.4,0,0,0,216.11,51.31Z" transform="translate(-11.88 -37.35)"/><path id="_Контур_99" data-name="&lt;Контур&gt;" class="cls-3" d="M224.11,53.79c0-.43-.68-.43-.67,0,.12,3.56.33,7.13.79,10.66.05.4.68.41.64,0C224.53,60.89,224.23,57.35,224.11,53.79Z" transform="translate(-11.88 -37.35)"/><path id="_Контур_100" data-name="&lt;Контур&gt;" class="cls-3" d="M226.44,53.49c0-.39-.63-.39-.61,0l.67,11.82c0,.41.66.41.64,0Z" transform="translate(-11.88 -37.35)"/><path id="_Контур_101" data-name="&lt;Контур&gt;" class="cls-3" d="M229.09,51.72c0-.44-.73-.45-.69,0,.28,3.74.49,7.51,1,11.23.05.41.67.43.66,0C229.87,59.2,229.44,55.46,229.09,51.72Z" transform="translate(-11.88 -37.35)"/><path id="_Контур_102" data-name="&lt;Контур&gt;" class="cls-3" d="M232.48,50.72c-.08-.45-.75-.26-.69.19a31.79,31.79,0,0,1,.2,4.94c0,.39.63.5.7.09A15.32,15.32,0,0,0,232.48,50.72Z" transform="translate(-11.88 -37.35)"/><path id="_Контур_103" data-name="&lt;Контур&gt;" class="cls-3" d="M234.74,50.83a.27.27,0,0,0-.18.07l-.1-.45c-.1-.48-.84-.28-.74.2a6.89,6.89,0,0,0,.36,1.56c.16.34.67.15.68-.18a2.34,2.34,0,0,0-.09-.61h.07A.3.3,0,0,0,234.74,50.83Z" transform="translate(-11.88 -37.35)"/><path id="_Контур_104" data-name="&lt;Контур&gt;" class="cls-3" d="M330.95,141.15l-.06-.21c-.1-.37-.73-.31-.69.09-.15-1.44.11-3.15,0-4.66-.09-1.29-.18-2.59-.27-3.88l-.57-8.32c0-.48-.78-.48-.75,0q.35,5.55.7,11.09c.11,1.68-.42,5,.73,6.37a.4.4,0,0,0,.48.06l.24-.13A.37.37,0,0,0,330.95,141.15Z" transform="translate(-11.88 -37.35)"/><path id="_Контур_105" data-name="&lt;Контур&gt;" class="cls-3" d="M332.62,120.61c0-.41-.65-.41-.64,0,.2,7,.62,14,1.18,21,0,.51.85.51.8,0C333.35,134.62,332.93,127.62,332.62,120.61Z" transform="translate(-11.88 -37.35)"/><path id="_Контур_106" data-name="&lt;Контур&gt;" class="cls-3" d="M340.31,118.25a.41.41,0,0,0-.81,0l.28,21.59a.42.42,0,0,0,.84,0Z" transform="translate(-11.88 -37.35)"/><path id="_Контур_107" data-name="&lt;Контур&gt;" class="cls-3" d="M344.47,115.88a.32.32,0,0,0-.65,0c-.14,7.26-.4,14.63,0,21.88a.37.37,0,0,0,.74,0C344.86,130.51,344.61,123.14,344.47,115.88Z" transform="translate(-11.88 -37.35)"/><path id="_Контур_108" data-name="&lt;Контур&gt;" class="cls-3" d="M347.35,121.8a.34.34,0,0,0-.67,0c.11,4.53.13,9.07.37,13.6a.34.34,0,0,0,.68,0C347.71,130.87,347.48,126.33,347.35,121.8Z" transform="translate(-11.88 -37.35)"/><path id="_Контур_109" data-name="&lt;Контур&gt;" class="cls-3" d="M350.87,113.52a.34.34,0,0,0-.67,0c0,7.2.13,14.39.26,21.58a.43.43,0,0,0,.86,0C351.2,127.91,351.09,120.71,350.87,113.52Z" transform="translate(-11.88 -37.35)"/><path id="_Контур_110" data-name="&lt;Контур&gt;" class="cls-3" d="M354.73,111.45a.34.34,0,0,0-.67,0c0,6.78-.18,13.64.27,20.4a.37.37,0,0,0,.75,0C355.31,125.08,354.94,118.22,354.73,111.45Z" transform="translate(-11.88 -37.35)"/><path id="_Контур_111" data-name="&lt;Контур&gt;" class="cls-3" d="M358.06,113.52c0-.46-.73-.46-.71,0,.19,5.32.25,10.66.63,16a.35.35,0,0,0,.7,0C358.65,124.16,358.29,118.83,358.06,113.52Z" transform="translate(-11.88 -37.35)"/><path id="_Контур_112" data-name="&lt;Контур&gt;" class="cls-3" d="M361.62,109.38a.32.32,0,0,0-.65,0c-.27,6.25-.36,12.67,0,18.92a.35.35,0,0,0,.7,0C362,122.05,361.89,115.63,361.62,109.38Z" transform="translate(-11.88 -37.35)"/><path id="_Контур_113" data-name="&lt;Контур&gt;" class="cls-3" d="M364.6,108.19a.35.35,0,0,0-.69,0c-.07,6.2-.19,12.43,0,18.63a.33.33,0,0,0,.67,0C364.78,120.62,364.66,114.4,364.6,108.19Z" transform="translate(-11.88 -37.35)"/><path id="_Контур_114" data-name="&lt;Контур&gt;" class="cls-3" d="M370.22,108.49a.36.36,0,0,0-.71,0c0,4.93-.07,9.86,0,14.78a.35.35,0,0,0,.69,0C370.29,118.35,370.23,113.42,370.22,108.49Z" transform="translate(-11.88 -37.35)"/><path id="_Контур_115" data-name="&lt;Контур&gt;" class="cls-3" d="M373.44,100.21a.32.32,0,0,0-.65,0c-.1,6.7-.17,13.41,0,20.11a.34.34,0,0,0,.67,0C373.61,113.62,373.54,106.91,373.44,100.21Z" transform="translate(-11.88 -37.35)"/><path id="_Контур_116" data-name="&lt;Контур&gt;" class="cls-3" d="M376.41,95.78a.33.33,0,0,0-.67,0c-.08,7.38-.25,14.8,0,22.18a.36.36,0,0,0,.71,0C376.66,110.57,376.49,103.16,376.41,95.78Z" transform="translate(-11.88 -37.35)"/><path id="_Контур_117" data-name="&lt;Контур&gt;" class="cls-3" d="M378.24,94.29c-.11,6.7-.31,13.41-.25,20.11a.34.34,0,0,0,.68,0c.23-6.7.2-13.41.25-20.11A.34.34,0,0,0,378.24,94.29Z" transform="translate(-11.88 -37.35)"/></g><path id="_Контур_118" data-name="&lt;Контур&gt;" class="cls-2" d="M151.89,108.9c-13.48-6.36-29.37,3.05-35.48,15.43a.18.18,0,0,0,.32.18c8.58-11.7,19.69-19.51,34.68-14.49C152.07,110.25,152.52,109.2,151.89,108.9Z" transform="translate(-11.88 -37.35)"/><path id="_Контур_119" data-name="&lt;Контур&gt;" class="cls-3" d="M264.38,148.68c0-.07-.11,0-.1,0,.75,4.92,1.34,9.9,2.37,14.77.07.34.56.19.52-.14C266.47,158.42,265.34,153.55,264.38,148.68Z" transform="translate(-11.88 -37.35)"/><path id="_Контур_120" data-name="&lt;Контур&gt;" class="cls-3" d="M268.65,158.38c-.37-1.9-.64-3.82-.82-5.75,0-.12-.19-.12-.18,0,.12,3.22.15,7.24,1.52,10.21a.18.18,0,0,0,.34-.09A33.07,33.07,0,0,0,268.65,158.38Z" transform="translate(-11.88 -37.35)"/><path id="_Контур_121" data-name="&lt;Контур&gt;" class="cls-3" d="M271.76,151c0-.14-.27-.11-.25,0,.42,3.6.8,7.21,1.29,10.8,0,.27.51.21.48-.06C272.84,158.14,272.27,154.56,271.76,151Z" transform="translate(-11.88 -37.35)"/><path id="_Контур_122" data-name="&lt;Контур&gt;" class="cls-3" d="M275.7,152.3c0-.14-.22-.14-.21,0a65.52,65.52,0,0,0,.81,8.53c0,.25.42.14.38-.11C276.24,157.92,275.87,155.13,275.7,152.3Z" transform="translate(-11.88 -37.35)"/><path id="_Контур_123" data-name="&lt;Контур&gt;" class="cls-3" d="M278.37,144.45s-.07,0-.06,0a75.34,75.34,0,0,1,1,15.64c0,.33.51.33.52,0A65.21,65.21,0,0,0,278.37,144.45Z" transform="translate(-11.88 -37.35)"/><path id="_Контур_124" data-name="&lt;Контур&gt;" class="cls-3" d="M283.51,154.54a18.31,18.31,0,0,0-.58-2.62.09.09,0,0,0-.18,0,17.81,17.81,0,0,1,.43,2.94,10.7,10.7,0,0,0,.11,2.3.14.14,0,0,0,.26,0A5.89,5.89,0,0,0,283.51,154.54Z" transform="translate(-11.88 -37.35)"/></g></svg>