<?xml version="1.0" encoding="UTF-8" standalone="no"?>
<svg width="33px" height="31px" viewBox="0 0 33 31" version="1.1" xmlns="http://www.w3.org/2000/svg" xmlns:xlink="http://www.w3.org/1999/xlink">
    <!-- Generator: Sketch 41 (35326) - http://www.bohemiancoding.com/sketch -->
    <title>Fill 43</title>
    <desc>Created with Sketch.</desc>
    <defs></defs>
    <g id="Page-1" stroke="none" stroke-width="1" fill="none" fill-rule="evenodd">
        <g id="Artboard-4" transform="translate(-133.000000, -356.000000)" fill="#FFFFFF">
            <path d="M164.405398,357.583783 C163.385252,356.563637 162.027898,356 160.584112,356 C159.140934,356 157.784797,356.563637 156.763434,357.583783 C156.525441,357.821776 156.525441,358.206461 156.763434,358.444455 C157.001427,358.682448 157.386721,358.682448 157.624106,358.444455 C159.205454,356.863107 161.963378,356.863107 163.544726,358.444455 C164.334183,359.233911 164.769997,360.284491 164.769997,361.402025 C164.769997,362.51956 164.334183,363.570748 163.544726,364.36264 C163.306732,364.600025 163.306732,364.985318 163.544726,365.223312 C163.663418,365.342004 163.818023,365.401655 163.975062,365.401655 C164.129666,365.401655 164.286097,365.342004 164.405398,365.223312 C165.425544,364.203166 165.987354,362.845203 165.987354,361.402025 C165.987354,359.958848 165.425544,358.603928 164.405398,357.583783 L164.405398,357.583783 Z M149.309552,372.950491 C148.63757,372.950491 148.090977,372.403897 148.090977,371.73435 C148.090977,371.062369 148.63757,370.515775 149.309552,370.515775 C149.979099,370.515775 150.525692,371.062369 150.525692,371.73435 C150.525692,372.403897 149.979099,372.950491 149.309552,372.950491 L149.309552,372.950491 Z M154.390804,365.976856 L150.658384,369.708667 C150.436217,369.560149 150.184223,369.454239 149.918231,369.385458 L149.918231,361.385591 C149.918231,361.047774 149.644934,360.776912 149.309552,360.776912 C148.971735,360.776912 148.700873,361.047774 148.700873,361.385591 L148.700873,369.38485 C147.653336,369.656929 146.873619,370.60099 146.873619,371.73435 C146.873619,373.074053 147.966806,374.167849 149.309552,374.167849 C150.65108,374.167849 151.74305,373.074053 151.74305,371.73435 C151.74305,371.332622 151.636531,370.959502 151.464275,370.625337 L155.251476,366.837528 C155.48886,366.599535 155.48886,366.21485 155.251476,365.976856 C155.013482,365.738863 154.628188,365.738863 154.390804,365.976856 L154.390804,365.976856 Z M149.309552,383.90732 C142.597041,383.90732 137.134756,378.445035 137.134756,371.734959 C137.134756,365.020013 142.597041,359.559554 149.309552,359.559554 C156.022063,359.559554 161.482522,365.020013 161.482522,371.734959 C161.482522,378.445035 156.022063,383.90732 149.309552,383.90732 L149.309552,383.90732 Z M149.309552,358.342805 C141.925668,358.342805 135.917398,364.349249 135.917398,371.734959 C135.917398,376.556305 138.479936,380.789058 142.314005,383.14708 L140.853176,386.06813 C140.702223,386.370035 140.825176,386.734025 141.124646,386.886195 C141.212296,386.928802 141.305424,386.950106 141.396726,386.950106 C141.620111,386.950106 141.835583,386.826544 141.942102,386.612289 L143.38041,383.73689 C145.169318,384.623735 147.18161,385.124678 149.309552,385.124678 C151.638357,385.124678 153.829602,384.526347 155.739027,383.475767 C155.749375,383.506809 155.749984,383.539069 155.764592,383.568895 L157.286289,386.612289 C157.393417,386.826544 157.607672,386.950106 157.831057,386.950106 C157.922359,386.950106 158.015487,386.928802 158.101919,386.886195 C158.403824,386.734025 158.525559,386.370035 158.375824,386.06813 L156.854127,383.024736 C156.823693,382.964476 156.77926,382.916391 156.733609,382.871349 C160.327249,380.467676 162.699271,376.373701 162.699271,371.734959 C162.699271,364.349249 156.692219,358.342805 149.309552,358.342805 L149.309552,358.342805 Z M134.217358,361.402025 C134.217358,360.284491 134.653781,359.233911 135.443237,358.444455 C137.076323,356.81076 139.732598,356.81076 141.363248,358.444455 C141.601242,358.682448 141.986536,358.682448 142.22392,358.444455 C142.461914,358.206461 142.461914,357.821776 142.22392,357.583783 C140.117283,355.477145 136.689203,355.477145 134.582565,357.583783 C133.562419,358.603928 133,359.958848 133,361.402025 C133,362.845203 133.562419,364.203166 134.582565,365.223312 C134.701258,365.342004 134.858297,365.401655 135.012901,365.401655 C135.16994,365.401655 135.323936,365.342004 135.443237,365.223312 C135.680622,364.985318 135.680622,364.600025 135.443237,364.36264 C134.653781,363.570748 134.217358,362.51956 134.217358,361.402025 L134.217358,361.402025 Z" id="Fill-43"></path>
        </g>
    </g>
</svg>