<?xml version="1.0" encoding="UTF-8" standalone="no"?>
<svg width="15px" height="28px" viewBox="0 0 15 28" version="1.1" xmlns="http://www.w3.org/2000/svg" xmlns:xlink="http://www.w3.org/1999/xlink">
    <!-- Generator: Sketch 41 (35326) - http://www.bohemiancoding.com/sketch -->
    <title>facebook-logo-2</title>
    <desc>Created with Sketch.</desc>
    <defs></defs>
    <g id="Page-1" stroke="none" stroke-width="1" fill="none" fill-rule="evenodd">
        <g id="Artboard-4" transform="translate(-149.000000, -702.000000)" fill="#FFFFFF">
            <g id="facebook-logo-2" transform="translate(149.000000, 702.000000)">
                <g id="Capa_1">
                    <path d="M14.1761321,0.00577319588 L10.6483019,0 C6.68490566,0 4.12358491,2.68020619 4.12358491,6.82853608 L4.12358491,9.97694845 L0.576509434,9.97694845 C0.27,9.97694845 0.0217924528,10.2303918 0.0217924528,10.5430103 L0.0217924528,15.104701 C0.0217924528,15.4173196 0.270283019,15.6704742 0.576509434,15.6704742 L4.12358491,15.6704742 L4.12358491,27.1810722 C4.12358491,27.4936907 4.37179245,27.7468454 4.67830189,27.7468454 L9.30622642,27.7468454 C9.61273585,27.7468454 9.8609434,27.4934021 9.8609434,27.1810722 L9.8609434,15.6704742 L14.0083019,15.6704742 C14.3148113,15.6704742 14.5630189,15.4173196 14.5630189,15.104701 L14.564717,10.5430103 C14.564717,10.3929072 14.5061321,10.2491546 14.4022642,10.1429278 C14.2983962,10.036701 14.1568868,9.97694845 14.009717,9.97694845 L9.8609434,9.97694845 L9.8609434,7.308 C9.8609434,6.02519588 10.1606604,5.37397938 11.7990566,5.37397938 L14.175566,5.3731134 C14.4817925,5.3731134 14.73,5.1196701 14.73,4.80734021 L14.73,0.571546392 C14.73,0.259505155 14.4820755,0.00635051546 14.1761321,0.00577319588 Z" id="Shape"></path>
                </g>
            </g>
        </g>
    </g>
</svg>