<?xml version="1.0" encoding="UTF-8" standalone="no"?>
<svg width="35px" height="34px" viewBox="0 0 35 34" version="1.1" xmlns="http://www.w3.org/2000/svg" xmlns:xlink="http://www.w3.org/1999/xlink">
    <!-- Generator: Sketch 41 (35326) - http://www.bohemiancoding.com/sketch -->
    <title>gamepad</title>
    <desc>Created with Sketch.</desc>
    <defs></defs>
    <g id="Page-1" stroke="none" stroke-width="1" fill="none" fill-rule="evenodd">
        <g id="Artboard-4" transform="translate(-43.000000, -356.000000)" fill="#FFFFFF">
            <g id="gamepad" transform="translate(43.987354, 356.000000)">
                <g id="Layer_1" transform="translate(0.000000, -0.000000)">
                    <g id="Group">
                        <path d="M8.29065891,25.4246657 C9.2048336,25.4246657 9.9487907,24.6807086 9.9487907,23.766534 L9.9487907,22.1084022 L11.6069225,22.1084022 C12.5210972,22.1084022 13.2650543,21.3644451 13.2650543,20.4502704 C13.2650543,19.5360957 12.5210972,18.7921386 11.6069225,18.7921386 L9.9487907,18.7921386 L9.9487907,17.1340068 C9.9487907,16.2198321 9.2048336,15.475875 8.29065891,15.475875 C7.37648423,15.475875 6.63252713,16.2198321 6.63252713,17.1340068 L6.63252713,18.7921386 L4.97439535,18.7921386 C4.06022066,18.7921386 3.31626357,19.5360957 3.31626357,20.4502704 C3.31626357,21.3644451 4.06022066,22.1084022 4.97439535,22.1084022 L6.63252713,22.1084022 L6.63252713,23.766534 C6.63252713,24.6807086 7.37648423,25.4246657 8.29065891,25.4246657 Z M4.97439535,21.0030242 C4.66932501,21.0030242 4.42170634,20.7548873 4.42170634,20.4503352 C4.42170634,20.145783 4.66932501,19.8975814 4.97439535,19.8975814 L7.18521613,19.8975814 C7.49086941,19.8975814 7.73790514,19.6499627 7.73790514,19.3448924 L7.73790514,17.1340716 C7.73790514,16.8295194 7.9855238,16.5813826 8.29059414,16.5813826 C8.59566448,16.5813826 8.84328315,16.8295194 8.84328315,17.1340716 L8.84328315,19.3448924 C8.84328315,19.6499627 9.09031887,19.8975814 9.39597215,19.8975814 L11.6069225,19.8975814 C11.9119928,19.8975814 12.1596115,20.1457182 12.1596115,20.4502704 C12.1596115,20.7548226 11.9119928,21.0029594 11.6069225,21.0029594 L9.39610169,21.0029594 C9.09044841,21.0029594 8.84341269,21.2505781 8.84341269,21.5556484 L8.84341269,23.7664692 C8.84341269,24.0710214 8.59579402,24.3191582 8.29072368,24.3191582 C7.98565334,24.3191582 7.73803468,24.0710214 7.73803468,23.7664692 L7.73803468,21.5557132 C7.73803468,21.2506428 7.49099895,21.0030242 7.18534568,21.0030242 L4.97439535,21.0030242 Z" id="Shape"></path>
                        <path d="M24.8719767,12.1596115 L21.0030242,12.1596115 L21.0030242,7.18521613 C21.0030242,5.66141893 19.7633116,4.42164157 18.2394496,4.42164157 C16.7156524,4.42164157 15.475875,5.66135416 15.475875,7.18521613 C15.475875,8.09939082 14.731918,8.84334792 13.8177433,8.84334792 C12.9035686,8.84334792 12.1596115,8.09939082 12.1596115,7.18521613 L12.1596115,0.552689004 C12.1596115,0.247618664 11.9125758,0 11.6069225,0 C11.3012692,0 11.0542335,0.247618664 11.0542335,0.552689004 L11.0542335,7.18521613 C11.0542335,8.70901333 12.2939461,9.9487907 13.817808,9.9487907 C15.3416052,9.9487907 16.5813826,8.7090781 16.5813826,7.18521613 C16.5813826,6.27104145 17.3253397,5.52708435 18.2395144,5.52708435 C19.1536891,5.52708435 19.8976462,6.27104145 19.8976462,7.18521613 L19.8976462,12.7123005 C19.8976462,13.0173708 20.1446819,13.2649895 20.4503352,13.2649895 L24.8719767,13.2649895 C28.7669024,13.2649895 32.0571929,16.55528 32.0571929,20.4502056 L32.0571929,29.3228947 C32.0571929,31.0832995 30.4233501,32.0571281 29.2936183,32.0571281 C27.6891167,32.0571281 26.7373102,31.0163913 25.5324443,29.6986947 C23.7914059,27.7946283 21.6242407,25.424601 16.5813178,25.424601 C11.5461027,25.424601 9.38670993,27.789641 7.65227818,29.6898859 C6.44514528,31.0125051 5.49171951,32.0571281 3.86895257,32.0571281 C2.71486694,32.0571281 1.10537801,31.0058985 1.10537801,29.2935535 L1.10537801,20.4502704 C1.10544278,16.5553447 4.39573326,13.2650543 8.29065891,13.2650543 L18.2394496,13.2650543 C18.5451029,13.2650543 18.7921386,13.0174356 18.7921386,12.7123653 C18.7921386,12.4072949 18.5451029,12.1596763 18.2394496,12.1596763 L8.29065891,12.1596763 C3.79653885,12.1596763 0,15.9562151 0,20.4503352 L0,29.2936831 C0,31.5736143 2.03891916,33.1626357 3.86895257,33.1626357 C5.97866618,33.1626357 7.18851944,31.8378143 8.46858423,30.4355918 C10.1400588,28.6049755 12.0336323,26.5301085 16.5813178,26.5301085 C21.1367758,26.5301085 23.0391582,28.6099628 24.7166564,30.4449836 C25.994519,31.8422187 27.2022348,33.1626357 29.2936831,33.1626357 C31.1237165,33.1626357 33.1626357,31.5857264 33.1626357,29.3229595 L33.1626357,20.4502704 C33.1626357,15.9562151 29.3660968,12.1596115 24.8719767,12.1596115 Z" id="Shape"></path>
                        <path d="M28.1882403,22.1084022 C29.102415,22.1084022 29.8463721,21.3644451 29.8463721,20.4502704 C29.8463721,19.5360957 29.102415,18.7921386 28.1882403,18.7921386 C27.2740656,18.7921386 26.5301085,19.5360957 26.5301085,20.4502704 C26.5301085,21.3644451 27.2740656,22.1084022 28.1882403,22.1084022 Z M28.1882403,19.8975814 C28.4933106,19.8975814 28.7409293,20.1457182 28.7409293,20.4502704 C28.7409293,20.7548226 28.4933106,21.0029594 28.1882403,21.0029594 C27.88317,21.0029594 27.6355513,20.7548226 27.6355513,20.4502704 C27.6355513,20.1457182 27.88317,19.8975814 28.1882403,19.8975814 Z" id="Shape"></path>
                        <path d="M24.8719767,15.475875 C23.9578021,15.475875 23.213845,16.2198321 23.213845,17.1340068 C23.213845,18.0481815 23.9578021,18.7921386 24.8719767,18.7921386 C25.7861514,18.7921386 26.5301085,18.0481815 26.5301085,17.1340068 C26.5301085,16.2198321 25.7861514,15.475875 24.8719767,15.475875 Z M24.8719767,17.6867606 C24.5669064,17.6867606 24.3192877,17.4386238 24.3192877,17.1340716 C24.3192877,16.8295194 24.5669064,16.5813826 24.8719767,16.5813826 C25.1770471,16.5813826 25.4246657,16.8295194 25.4246657,17.1340716 C25.4246657,17.438559 25.1770471,17.6867606 24.8719767,17.6867606 Z" id="Shape"></path>
                        <path d="M21.5557132,18.7921386 C20.6415385,18.7921386 19.8975814,19.5360957 19.8975814,20.4502704 C19.8975814,21.3644451 20.6415385,22.1084022 21.5557132,22.1084022 C22.4698879,22.1084022 23.213845,21.3644451 23.213845,20.4502704 C23.213845,19.5360957 22.4698879,18.7921386 21.5557132,18.7921386 Z M21.5557132,21.0030242 C21.2506428,21.0030242 21.0030242,20.7548873 21.0030242,20.4503352 C21.0030242,20.145783 21.2506428,19.8976462 21.5557132,19.8976462 C21.8607835,19.8976462 22.1084022,20.145783 22.1084022,20.4503352 C22.1084022,20.7548873 21.8607835,21.0030242 21.5557132,21.0030242 Z" id="Shape"></path>
                        <path d="M24.8719767,25.4246657 C25.7861514,25.4246657 26.5301085,24.6807086 26.5301085,23.766534 C26.5301085,22.8523593 25.7861514,22.1084022 24.8719767,22.1084022 C23.9578021,22.1084022 23.213845,22.8523593 23.213845,23.766534 C23.213845,24.6807086 23.9578021,25.4246657 24.8719767,25.4246657 Z M24.8719767,23.213845 C25.1770471,23.213845 25.4246657,23.4619818 25.4246657,23.766534 C25.4246657,24.0710861 25.1770471,24.319223 24.8719767,24.319223 C24.5669064,24.319223 24.3192877,24.0710861 24.3192877,23.766534 C24.3192877,23.4619818 24.5669064,23.213845 24.8719767,23.213845 Z" id="Shape"></path>
                    </g>
                </g>
            </g>
        </g>
    </g>
</svg>