<svg id="Objects" xmlns="http://www.w3.org/2000/svg" viewBox="0 0 151.76 220.14"><defs><style>.cls-1{fill:#fff;}</style></defs><title>key-2</title><g id="_Группа_" data-name="&lt;Группа&gt;"><g id="_Группа_2" data-name="&lt;Группа&gt;"><g id="_Группа_3" data-name="&lt;Группа&gt;"><path id="_Составной_контур_" data-name="&lt;Составной контур&gt;" class="cls-1" d="M92.92,234.33C51.08,234.33,17,184.95,17,124.26s34-110.07,75.88-110.07S168.8,63.56,168.8,124.26,134.76,234.33,92.92,234.33ZM92.92,16c-40.86,0-74.11,48.58-74.11,108.3s33.25,108.3,74.11,108.3S167,184,167,124.26,133.78,16,92.92,16Z" transform="translate(-17.04 -14.18)"/></g><g id="_Группа_4" data-name="&lt;Группа&gt;"><path id="_Составной_контур_2" data-name="&lt;Составной контур&gt;" class="cls-1" d="M92.92,222.29c-37.28,0-67.61-44-67.61-98s30.33-98,67.61-98,67.61,44,67.61,98S130.2,222.29,92.92,222.29Zm0-194.3c-36.31,0-65.84,43.18-65.84,96.26s29.54,96.26,65.84,96.26,65.84-43.18,65.84-96.26S129.22,28,92.92,28Z" transform="translate(-17.04 -14.18)"/></g><g id="_Группа_5" data-name="&lt;Группа&gt;"><path id="_Составной_контур_3" data-name="&lt;Составной контур&gt;" class="cls-1" d="M92.92,205.66c-31,0-56.19-36.52-56.19-81.4s25.21-81.4,56.19-81.4,56.19,36.52,56.19,81.41S123.9,205.66,92.92,205.66Zm0-161c-30,0-54.42,35.72-54.42,79.63s24.41,79.63,54.42,79.63,54.42-35.72,54.42-79.63S122.93,44.62,92.92,44.62Z" transform="translate(-17.04 -14.18)"/></g><g id="_Группа_6" data-name="&lt;Группа&gt;"><path id="_Контур_" data-name="&lt;Контур&gt;" class="cls-1" d="M49.49,71.78c-2.54.34-5.17,1.21-7.2-1a5,5,0,0,1-1.21-3.58c.05-1.4.79-2.35,1.19-3.61a.59.59,0,0,0-.85-.66c-3.24,1.54-2.48,7.05-.52,9.24s7.34,3.58,9.08.27A.44.44,0,0,0,49.49,71.78Z" transform="translate(-17.04 -14.18)"/></g><g id="_Группа_7" data-name="&lt;Группа&gt;"><path id="_Контур_2" data-name="&lt;Контур&gt;" class="cls-1" d="M94.72,217.81c-2.74-.19-5.62.74-7.82-1.51-1.93-2-1.43-4.8.28-6.67a.06.06,0,0,0-.05-.09c-3.26.48-3.33,5.15-1.92,7.32a5.08,5.08,0,0,0,.58.68c-2.49-.14-5,0-6.79-2.16a5.28,5.28,0,0,1,.56-7.19.56.56,0,0,0-.67-.87,4.54,4.54,0,0,0-1.13.79,5.41,5.41,0,0,0-.44-2.43.32.32,0,0,0-.58.08c-.58,2.54-1.38,5.13-3.89,6.41-2.68,1.36-7.77.24-7.72-3.37a6.07,6.07,0,0,0,3.9-5.14c0-.3-.43-.53-.64-.26-1.38,1.76-2.58,3.42-4.84,4.09a5.8,5.8,0,0,1-6.11-1.68,6.88,6.88,0,0,1-1.65-3.3c-.15-.8.22-1.82,0-2.53a3,3,0,0,0-.19-.52.54.54,0,0,0,0-.43,7.06,7.06,0,0,0,3.64-1c1.64-1.09,2.53-3,1.63-4.78a.43.43,0,0,0-.78.1c-1.44,7.31-14.87,3.39-12.81-3.59a9.42,9.42,0,0,0,5.71-.79c1.71-1,2.92-3.2,1.59-5a.42.42,0,0,0-.77.21c-.59,6.87-14.2,3.48-11.28-2.6,3.29.81,7.09-.46,8.41-3.83.13-.33-.32-.49-.53-.31-2.16,1.81-4.74,3.32-7.67,2.45a6.65,6.65,0,0,1-3.41-2.46c-.82-1.12-2.33-4.07-.27-5,0,0,0,0,0,0A3.83,3.83,0,0,0,42.66,171a.42.42,0,0,0-.29-.71c-3.32,0-6.27.21-7.94-3.37-1.33-2.86-.5-5.52.58-8.18,2.47.37,5.15-.31,6.19-2.62a.42.42,0,0,0-.57-.57c-2.6,1.12-5.34,2.32-7.95.34-2.4-1.82-2.42-4.66-1.82-7.3a13.54,13.54,0,0,0,4.42-1.94.8.8,0,0,0-.81-1.39,9.52,9.52,0,0,1-3.71,1.27c-1.6.13-2-1.43-2.28-2.83S28,137,30,136.6a7.69,7.69,0,0,0,4,.61c2-.23,4.55-1.41,4.69-3.64a.43.43,0,0,0-.65-.37c-1.15.59-2,1.5-3.28,1.87a5.77,5.77,0,0,1-4.61-.54,6.28,6.28,0,0,1-2.71-4.06c-.18-.83-.53-5.8,1.29-5.57a.11.11,0,0,0,.11-.08l0-.1c4.13,1.8,9.15-3.36,8.65-7.9,0-.36-.58-.63-.77-.21-1.3,2.83-3.24,8.16-7.49,6.18-1.74-.81-2.15-2.77-2.19-4.53,0-1.19-.18-5.29,1.74-5a.16.16,0,0,0,.18-.15c3.28,3.16,10.09.7,8.54-4.35a.4.4,0,0,0-.77,0,5.64,5.64,0,0,1-2.17,3.5,3.64,3.64,0,0,1-4.8-1,6.06,6.06,0,0,1-.87-3.88c0-.76.12-4.33,1.53-4.17a.42.42,0,0,0,.47-.32c3.65,2.52,10-1.28,8.59-6.11a.31.31,0,0,0-.56-.07,26.76,26.76,0,0,1-2.07,3.7c-1.48,1.73-4.48,2.43-6,.26-.85-1.25-1.46-9.48,1.5-9a3.94,3.94,0,0,0,.86.8,6.39,6.39,0,0,0,7.2-.2c1.94-1.47,3.2-4.5,1.75-6.67-.16-.24-.62-.25-.68.09-.26,1.4-.28,2.85-1.09,4.09a4.71,4.71,0,0,1-4.86,2c-2.43-.49-2.75-2.54-2.8-4.63,0-1.79-.76-5.93,2.06-6.21a.44.44,0,0,0,.37-.62,5.5,5.5,0,0,0,3.1,2.37,5.94,5.94,0,0,0,6.34-1.82c1.22-1.51,2.28-4.79.28-6.1a.38.38,0,0,0-.55.22c-.52,1.46-.06,2.92-1,4.32a4.17,4.17,0,0,1-4.67,1.72,3.84,3.84,0,0,1-2.87-3.6,6.7,6.7,0,0,1,1.67-4.08c.07-.1,0-.2-.14-.18-2.11.36-3,2.76-3,4.69a5.11,5.11,0,0,0,.66,2.31.42.42,0,0,0-.28-.12c-2.74-.12-3.24,2.68-3.31,4.84-.06,1.91-.43,4.16.34,5.9-1.15-.17-2.18,1.18-2.54,2.37-.74,2.44-1.18,5.75.1,8.08a5.19,5.19,0,0,0,.54.79c-1.58,0-2.23,2.16-2.49,3.53-.43,2.29-.51,4.88.88,6.86-1.18-.66-2.34,1.61-2.56,2.73-.52,2.56-.76,5.77,1,7.94a6.27,6.27,0,0,0,.9.9c-1.21.4-1.92,2.92-2.07,3.82a8.82,8.82,0,0,0,1.87,6.94,6.87,6.87,0,0,0,1.26,1.14,3.06,3.06,0,0,0-1.19,1.25,12.69,12.69,0,0,0-.93,6.39c.13,1.51.74,4.18,2.29,4.94a2.25,2.25,0,0,0,.66.19c-1.69,2.73-.52,6.81,1.92,8.72a6.92,6.92,0,0,0,2.18,1.09c-2.17,2.81-2.13,7.45-.32,10.33A8.56,8.56,0,0,0,37.63,172a2.91,2.91,0,0,0-1,1.93c-.3,2.28,1.31,4.83,3,6.2a7.22,7.22,0,0,0,1.83,1.07c-2.58,3.21,1.14,7.5,4.67,8.3-1.82,3.71,1.5,7.81,5.3,8.95a13.75,13.75,0,0,0,3.23.56h0s0,0,0,.07a.88.88,0,0,0-.62.63c-.74,4.23,1.61,8.86,6.06,9.76A8.11,8.11,0,0,0,64,209.2c-.48,3.66,4.32,5.69,7.5,5.25a7.68,7.68,0,0,0,4.61-2.53,6.86,6.86,0,0,0,1.13,4.29c1.89,2.69,6.61,4.23,9.44,2.11,2.39,1.69,6.16,2,8.31.15C95.26,218.23,95,217.83,94.72,217.81Z" transform="translate(-17.04 -14.18)"/></g><g id="_Группа_8" data-name="&lt;Группа&gt;"><path id="_Контур_3" data-name="&lt;Контур&gt;" class="cls-1" d="M157.58,103.77a7.06,7.06,0,0,0,.7-1.29,7.48,7.48,0,0,0-3.09-9.07,8.06,8.06,0,0,0,.88-2.36c.57-3.11-1-7-4-8.26a6.08,6.08,0,0,0,.89-2.87c.09-2.63-1.84-5.82-4.68-5.72.75-3.35-.42-7.25-3.81-7.62,1.74-4.56-1.22-11.55-7-10.64a6.75,6.75,0,0,0-.06-.71c-.25-1.79-2.46-7.05-4.8-6.07a7.67,7.67,0,0,0-1.11-3.56,6.21,6.21,0,0,0-6.05-2.91,8,8,0,0,0-.42-2c-1.06-2.84-4.17-5.32-7.29-5a4.9,4.9,0,0,0-3.69-4.63c-2.51-.7-6.71-.59-8.59,1.59-.05-.21-.11-.42-.17-.6A8.31,8.31,0,0,0,101,27.17c-3.55-1.62-8.31,0-9.71,3.63a6.9,6.9,0,0,0-4-2.16c-3.24-.48-9.25,1.53-7.54,5.65a7.68,7.68,0,0,0-3.3-1.93c-4-.91-8.63,2.4-8.57,6.55a7.83,7.83,0,0,0-4.1-.35c-4.19.75-8.24,5.46-6,9.72,0,0,0,0,.06.05a7.08,7.08,0,0,0-4.63-.77A7.46,7.46,0,0,0,48.08,52a13.53,13.53,0,0,0-1,3.62c-.32,2.13-.67,2-2.57,2.81-.15.06-.06.28.08.28a19.57,19.57,0,0,1,2.82.28.74.74,0,0,0,.91-.7c.32-3.05.75-6.82,3.73-8.54a5.24,5.24,0,0,1,7.06,1.82,15.46,15.46,0,0,1,1.15,3.79.36.36,0,0,0,.66.09c1.46-2.85-.29-5.59-2.83-7a.4.4,0,0,0,.37-.44,6.88,6.88,0,0,1,4.39-7.62c4.25-1.51,7.47,1.18,7.31,5.45a.39.39,0,0,0,.66.27,4.31,4.31,0,0,0-.27-5.32,5.74,5.74,0,0,0-1.93-1.57c1.25-3.32,4.44-6.35,8.22-4.77C80.28,35.89,80,39,80.8,42a.35.35,0,0,0,.58.15c2.11-2,1-5.06-1-7.21a.22.22,0,0,0,.05-.17c-.67-4.5,5.22-5.53,8.29-3.91s1.82,4.89,2.38,7.67a.39.39,0,0,0,.65.17,5.63,5.63,0,0,0,.12-7.16c1.89-2.83,5.81-4.48,8.92-2.45a7,7,0,0,1,2.91,5.26c.12,1.36-.31,2.66-.13,4,.06.43.6.43.86.23,1.33-1,1.51-3,1.24-4.79a9.47,9.47,0,0,1,6.94-1.15c4.15.88,3.38,5.07,3.35,8.34a.36.36,0,0,0,.67.18,11,11,0,0,0,1.11-4.1c2.48,1,4.75,2.1,5.48,5,.66,2.59-.68,4.62-1.54,6.93a.43.43,0,0,0,.53.53c2.18-.85,3.17-3.16,3.26-5.48a5.22,5.22,0,0,1,5,4.57c.45,3-1.29,5.37-1.63,8.21-.05.47.54.57.83.34a9.1,9.1,0,0,0,2.92-6.47c2.67,0,3,6.18,2.51,7.71-.64,2.06-2.28,3.06-3.9,4.3a.39.39,0,0,0,.09.71c3.89,1.29,6-3.31,6.13-6.7,2.43,1.09,4.74,2.68,5.28,5.49.58,3-1.37,5.28-3.28,7.3a.49.49,0,0,0,.47.81,5.47,5.47,0,0,0,3.9-2.45,4.93,4.93,0,0,1,2.52,5.68c-.47,1.85-2,3-2.6,4.76a.56.56,0,0,0,.68.68,5.51,5.51,0,0,0,3.45-3.45c1.85,1,3.32,2.66,2.82,5-.53,2.47-3,3.81-4.95,5a.42.42,0,0,0,.21.77A6.75,6.75,0,0,0,151.17,84c1.77,1.8,3.22,3.87,2.69,6.61-.63,3.31-3.32,4.22-5.8,5.85a.42.42,0,0,0,.1.76c2.46.87,4.87-.69,6.39-2.8,1.77,2,2.88,4.5,1.91,7.21-1.15,3.18-4.14,3.64-6.94,4.47a.41.41,0,0,0-.1.73c2.5,1.41,5.52,0,7.4-2.09,1.26,2.86,2.43,5.77,1.28,8.93s-3.6,4-6.44,4.87a.45.45,0,0,0-.11.81c3.22,1.62,6.75-1.22,8.1-4.07C161.45,111.52,160.22,106.83,157.58,103.77Z" transform="translate(-17.04 -14.18)"/></g><g id="_Группа_9" data-name="&lt;Группа&gt;"><path id="_Контур_4" data-name="&lt;Контур&gt;" class="cls-1" d="M106.41,215.65c-2.4,1.25-4.62,2.52-7.43,1.65-3-.94-4.6-4.12-4.85-7.09,0-.28-.44-.38-.52-.07a7.44,7.44,0,0,0,4.19,8.37c3,1.38,7.54.82,9.12-2.35A.38.38,0,0,0,106.41,215.65Z" transform="translate(-17.04 -14.18)"/></g><g id="_Группа_10" data-name="&lt;Группа&gt;"><path id="_Контур_5" data-name="&lt;Контур&gt;" class="cls-1" d="M117.13,210.9c-1.94,1.75-4.87,3.84-7.64,3.41a5.27,5.27,0,0,1-4.41-5.92c0-.32-.42-.39-.57-.15-1.77,2.91.38,6.6,3.29,7.75,4.07,1.61,8.22-1,9.85-4.69A.33.33,0,0,0,117.13,210.9Z" transform="translate(-17.04 -14.18)"/></g><g id="_Группа_11" data-name="&lt;Группа&gt;"><path id="_Контур_6" data-name="&lt;Контур&gt;" class="cls-1" d="M126.31,206.24c-2.08,1.44-4.06,3.41-6.83,2.35-2.56-1-3.28-4.55-1.65-6.64.31-.4-.1-1.15-.6-.78-3,2.17-2.41,6.89.56,8.88s8.85.59,9.16-3.45A.42.42,0,0,0,126.31,206.24Z" transform="translate(-17.04 -14.18)"/></g><g id="_Группа_12" data-name="&lt;Группа&gt;"><path id="_Контур_7" data-name="&lt;Контур&gt;" class="cls-1" d="M134.7,197.89c-1.65,1.27-3.26,2.86-5.55,2.41-2.53-.5-3.55-3-3.93-5.24a.29.29,0,0,0-.53-.07c-1.46,2.84.66,6.37,3.53,7.28s7.18-.59,7.14-4C135.36,198,135,197.68,134.7,197.89Z" transform="translate(-17.04 -14.18)"/></g><g id="_Группа_13" data-name="&lt;Группа&gt;"><path id="_Контур_8" data-name="&lt;Контур&gt;" class="cls-1" d="M143.45,186.85c-1.37,1.75-2.28,3.91-4.33,5a5.09,5.09,0,0,1-6.66-1.8c-.25-.35-1-.28-.9.24.31,3,3.5,4.51,6.3,4.11a7.72,7.72,0,0,0,6.36-7.27C144.22,186.82,143.71,186.52,143.45,186.85Z" transform="translate(-17.04 -14.18)"/></g><g id="_Группа_14" data-name="&lt;Группа&gt;"><path id="_Контур_9" data-name="&lt;Контур&gt;" class="cls-1" d="M148.7,175.48a.49.49,0,0,0-.84,0c-1,2.06-1.62,4.17-3.58,5.56a6.21,6.21,0,0,1-7.18.28c-.3-.22-.66.2-.49.49C140.09,187.9,151.36,181.66,148.7,175.48Z" transform="translate(-17.04 -14.18)"/></g><g id="_Группа_15" data-name="&lt;Группа&gt;"><path id="_Контур_10" data-name="&lt;Контур&gt;" class="cls-1" d="M151.42,167.12a.48.48,0,0,0-.8.33c0,2.43-1,4.58-3.5,5.35-1.91.6-4.66.76-6.31-.48-.27-.2-.64.13-.55.42.9,2.92,6.09,2.76,8.3,1.84C151.27,173.46,153.8,169.78,151.42,167.12Z" transform="translate(-17.04 -14.18)"/></g><g id="_Группа_16" data-name="&lt;Группа&gt;"><path id="_Контур_11" data-name="&lt;Контур&gt;" class="cls-1" d="M155,157a.36.36,0,0,0-.67.18c-.11,2.05-.82,4.46-2.74,5.51a5.21,5.21,0,0,1-6.42-1.63.39.39,0,0,0-.67.39,5.91,5.91,0,0,0,7.69,3.26C155.07,163.48,156.85,159.78,155,157Z" transform="translate(-17.04 -14.18)"/></g><g id="_Группа_17" data-name="&lt;Группа&gt;"><path id="_Контур_12" data-name="&lt;Контур&gt;" class="cls-1" d="M158.47,144c-.18-.39-.68-.2-.81.11-.83,2-.69,4.37-2.14,6.14-1.6,1.95-5.35,2.76-6.34-.33a.33.33,0,0,0-.64.18,4.56,4.56,0,0,0,6.82,3C158.31,151.4,159.91,147.18,158.47,144Z" transform="translate(-17.04 -14.18)"/></g><g id="_Группа_18" data-name="&lt;Группа&gt;"><path id="_Контур_13" data-name="&lt;Контур&gt;" class="cls-1" d="M157.55,132.1a.38.38,0,0,0-.65,0c-.94,1.91-.63,4.17-1.82,6s-3.94,2.76-5.66,1.17a.24.24,0,0,0-.37.29c1.15,2.39,4.44,2.42,6.35.94A7.69,7.69,0,0,0,157.55,132.1Z" transform="translate(-17.04 -14.18)"/></g><g id="_Группа_19" data-name="&lt;Группа&gt;"><path id="_Контур_14" data-name="&lt;Контур&gt;" class="cls-1" d="M157.15,120.63a.31.31,0,0,0-.57.15c-.13,2.14.27,4.68-1.15,6.5a3.84,3.84,0,0,1-5.24.76c-.15-.11-.4.08-.33.25,1,2.46,4.35,2.41,6.23,1C158.73,127.36,158.93,123.2,157.15,120.63Z" transform="translate(-17.04 -14.18)"/></g><g id="_Группа_20" data-name="&lt;Группа&gt;"><path id="_Составной_контур_4" data-name="&lt;Составной контур&gt;" class="cls-1" d="M110.42,121.19c2.75,6.49,12.4,5.58,16.44,1.13,5.08-5.61,3.35-14.84-2.27-19.35a12.54,12.54,0,0,0-6.23-2.45c5.57-3.62,12.4-8.5,7.89-15a1,1,0,0,0-1.29-.34c-2.87,1.75-6.34,4-8.77,6.77a17.55,17.55,0,0,0,.14-2.09c2-6.91,1.55-14.39-3.11-20.32-3.59-4.57-13.57-11.11-19-5.7A5.45,5.45,0,0,0,93,65.51a17,17,0,0,0-.69-5c-.72-2.7-2-6.16-5.25-6.41-4.91-.37-5,5.32-3.78,10.22-5.38-3-13.64,2.37-16.63,6.57-2.51,3.53-3.19,7.72-2.94,12,0,.33,0,.67.06,1-.17-.27-.34-.54-.53-.8-1.43-1.93-4.66-4.71-7.25-3.19-2.85,1.67-.5,6.56.82,8.47a32.35,32.35,0,0,0,8.34,7.75,10.78,10.78,0,0,0-8.67,1.93c-5.44,4.06-6.51,11.39-4.63,17.55,2,6.43,5.64,10.51,12.85,8.39a6.44,6.44,0,0,0,4.18-4c.85,2.54-.08,4.86-2.82,6.93l-1.62,1.67a41.55,41.55,0,0,0-3.22,3.66,21.1,21.1,0,0,0-4.07,10.92c-.22,4.2,1,8,4.46,9.51-3.4,1-9.53,4-6.39,6.71a6.51,6.51,0,0,0,4.89,1.2c-3.84,6.39-1.17,15.7,6,18.67,5.06,2.08,10.77.8,15-2.46-.05.24-.12.48-.15.74a5.26,5.26,0,0,0,3.33,5.72c4.67,1.72,5.68-3,5-7.11,4.94,3.51,12.92,4.54,17.8,3.77,9-1.44,14.45-10.4,12.58-19.06a2.91,2.91,0,0,0,1-.25c3.67-1.69,1.54-6.72-1.29-8-.28-.12-.73.09-.59.45.44,1.1,1.3,2,1.63,3.12s0,2.83-1.53,2.51c-1.15-.23-2.16-1.65-2.89-2.51s-1.25-1.66-2-2.39c0-.11,0-.22,0-.34,5.57-1.3,7.85-6.35,6.86-12-.72-4.07-3.32-7.48-5.69-10.72-1.21-1.65-2.49-3.23-3.61-4.94a26.23,26.23,0,0,1-1.9-3.2l-.11-.14q-.48-2.37-1-4.7a4.57,4.57,0,0,1,2.16-.67v0A4.2,4.2,0,0,0,110.42,121.19Zm17-10.57c1.14,4.14.14,9-3.5,11.55a9.54,9.54,0,0,1-5.44,1.75,8.37,8.37,0,0,1-2.88-.46c-1.5-.38-2.25-1.17-2.31-2.34a3.74,3.74,0,0,0,.62.08,4.59,4.59,0,0,0,4.25-2.93,7.85,7.85,0,0,0-4.51-10.35,7.59,7.59,0,0,0-4.9,0c.65-.91,1.27-1.83,1.88-2.75a11.45,11.45,0,0,1,2.89-2.18.61.61,0,0,0,.94.21c.42-.31.9-.64,1.41-1a8.17,8.17,0,0,1,1.83-.09C122.33,102.38,126.18,106.26,127.38,110.62ZM110.6,81.82a17.41,17.41,0,0,0-2.74-3.72c.19.18.4.34.58.53,5.83,6,5.81,11.8,3.59,17.54C113.07,91.17,112.88,86.05,110.6,81.82Zm14.51,5.45c3.07,6-5.64,9.65-10.07,13.24-.28,0-.56.08-.84.14C115.4,94.15,119.76,90.56,125.11,87.28ZM107.37,67a17.74,17.74,0,0,1,6.37,7.49,20.14,20.14,0,0,1,1.63,9.77,19.13,19.13,0,0,0-4.3-6.66,24.72,24.72,0,0,0-9-5.63,3.07,3.07,0,0,0-3-3.79C100.8,63.18,102.78,64,107.37,67Zm-14.84,1a7.35,7.35,0,0,0,.21,1.77c-.45,0-.91-.06-1.36-.09A5.42,5.42,0,0,0,92.52,68.05ZM86.35,56.23c3.08-.95,4,4.39,4.39,6.58a14.42,14.42,0,0,1-.68,6.79s0,.07,0,.1a29.88,29.88,0,0,0-3.81.2l-.37-1.22a5,5,0,0,0-.8-2.77C84,62,83.31,57.16,86.35,56.23Zm3,16.26a.32.32,0,0,0,.3-.33l1,.2c-9.4,2.38-14.88,15.54-13.63,25,.64,4.88,2.79,8.79,4.23,13.36,2.62,8.3-.91,12.63-3.81,19.72a101.91,101.91,0,0,0-7.64,30,6.75,6.75,0,0,1-1.16-2.07c1.25-14.16,7.14-28.59,10.28-42.23a.91.91,0,0,0,0-.54.86.86,0,0,0,.19-1c-.82-2.21-1.92-4.74-3-7.45-1.44-4.45-3.05-8.81-3.47-13.6C71.54,81.72,77.41,74,89.38,72.48ZM69.4,89.9c0,.07,0,.13,0,.2-.62-6.14,1.21-11.95,8-16.22.33-.11.68-.2,1-.3l.25.18c-.35.21-.71.4-1,.63a11.84,11.84,0,0,0-6.23,6.32A15.85,15.85,0,0,0,69.4,89.9ZM66.74,74.55A15.15,15.15,0,0,1,77,66c3.32-1.32,4.65-.08,4,3.69-2.51-.41-3.8,1.49-3.24,3l-.3.17c-7.11,3.32-10.52,10.32-10.34,17.9-.4-.88-.8-1.75-1.16-2.6q-.36-.86-.75-1.71A25.85,25.85,0,0,1,66.74,74.55Zm-5,16.73a22.81,22.81,0,0,1-3.42-3.75c-.75-1.12-3.41-7,.61-5.8,2.94.85,4.4,5,5.41,7.54s1.75,5.66,3.61,7.82l0,0C66,95,63.76,93.22,61.71,91.28Zm-.55,31.37a7.49,7.49,0,0,1-6-4,17.6,17.6,0,0,1-2-11.65c1.64-7.6,10.79-12.85,16.63-6l0,0c.82,1.6,1.71,3.14,2.55,4.8a8.81,8.81,0,0,0-4.95-2.09c-5.87-.43-9.78,6-7.76,11.3,1,2.66,5.53,5.39,8.29,4.18C67.78,122.08,63,122.86,61.16,122.66Zm8.46,55.15c-9.39-1.69-10.24-10.68-7.2-18a3.66,3.66,0,0,0,1.84-2.7c0-.26-.22-.56-.49-.37-2,1.32-4.09,2.74-6.55,1.8-2.24-.85.71-2.73,1.64-3.32a21.72,21.72,0,0,1,4.53-1.88.48.48,0,0,0,.19-.16,9.49,9.49,0,0,0,1,.09c.45,0,.47-.59.1-.73-4.78-1.79-6.07-7.55-5.18-11.93a21.08,21.08,0,0,1,4.76-9c1.55-1.83,3.42-3.38,4.92-5.26,2.65-3.33,4.53-7.46,2.88-11.74s-7.81-6.16-8.28-.42a.35.35,0,0,0,.34.38,2.56,2.56,0,0,0-.05.85.49.49,0,0,0,.83.34q1.23-1.41,1,1.75a3.16,3.16,0,0,1-2.19-.69,4.91,4.91,0,0,1-2.5-4c-.4-3.26,1.75-6.86,5.28-7.11,4.72-.34,7.36,4,8.33,8.2.28,7.67-4.33,16.47-6,23.43-1.47,6.13-8,23.35-.67,27.94a6.67,6.67,0,0,0,1.44.66v0a1,1,0,0,0,1.76.48c3.85,2.27,8.77,3.05,13.72,3.17,0,.06,0,.11,0,.16C81,174.36,76.48,179,69.63,177.81Zm8.67-11.2c1.8-.07,3.49-.17,4.77-.14,3.61.09,7.23.22,10.85.32-.84,0-1.67.12-2.52.14A74.45,74.45,0,0,1,78.3,166.6Zm6.9,14.45c-1.86-.53-2.25-2.67-2-4.28a9.24,9.24,0,0,1,1.08-3.25l.25-.34a2.13,2.13,0,0,1,.93-.66.41.41,0,0,0,0-.78l.13-.22a9.15,9.15,0,0,0,1.69,2.69C87.68,177.29,88.08,181.88,85.2,181.05Zm29-21.88a14.08,14.08,0,0,0,.21-2.53,22.32,22.32,0,0,0,1.92,2.42,5,5,0,0,0,2.83,1.71c-.86,8.52-4.71,16.28-14.38,16.7-5.71.25-12.19-1.37-16.57-5.22a5.2,5.2,0,0,0-.48-.73.32.32,0,0,0-.35-.1,15.09,15.09,0,0,1-1.14-1.23c.08-.2.17-.39.25-.6,4.15,0,8.24-.39,11.65-.7,3.05-.28,15.17-.78,15.67-5.32a.92.92,0,0,0,.35-.72C114.13,161.68,114.15,160.44,114.16,159.18Zm-.17-7.25a118.1,118.1,0,0,0-3-22.48c-.12-.74-.25-1.47-.38-2.2C116.28,135.48,125.17,145.95,114,151.93Zm-6.34,11.51a1,1,0,0,0-.33.42c-4.42.27-28.36.26-30.79-.14A14.11,14.11,0,0,1,72,162.27c1.11-7.53,2.24-14.94,4.56-22.28a111.52,111.52,0,0,1,5.68-14.34c1.16-2.44,3.28-5.18,3.62-8,.72-5.82-4.83-12.32-6.18-17.78-3-12.28,3.2-26,16-26a4.85,4.85,0,0,0,2.48.59c5.66,2.29,10.28,6.17,11.46,13.07,1.41,8.29-2.47,16-6.55,23a1,1,0,0,0,.19,1.23s0,0,0,0a63.77,63.77,0,0,0,2.07,9.37c1,5.53,2.11,11.05,2.78,16.67C108.72,143,112.59,159.79,107.65,163.44Zm.69-53.29a4.62,4.62,0,0,0-1.32,1.39l0-.18a.08.08,0,0,0,0-.06c.13-2.53,3.61-2.53,5.26-2.12a6.09,6.09,0,0,1,3.75,2.66,6.38,6.38,0,0,1,.94,3.78,5.29,5.29,0,0,1-.81,2.5l-1,1c-1.08.61-1.56.54-1.45-.17.13-.3.3-.61.48-.94.3.65,1.4.62,1.34-.22a2.92,2.92,0,0,0-.07-.42s0-.06,0-.1a2.32,2.32,0,0,0-.76-1.59C116.68,112.08,112.66,107.2,108.34,110.14Z" transform="translate(-17.04 -14.18)"/></g><g id="_Группа_21" data-name="&lt;Группа&gt;"><path id="_Контур_15" data-name="&lt;Контур&gt;" class="cls-1" d="M46.16,202.5c-9.27-15.94-17.22-31.82-21.32-49.94-4.29-18.94-4.28-37.89-1.63-57,0-.1-.14-.15-.16,0C15,131,22.82,174,45.76,202.8,45.94,203,46.29,202.73,46.16,202.5Z" transform="translate(-17.04 -14.18)"/></g><g id="_Группа_22" data-name="&lt;Группа&gt;"><path id="_Контур_16" data-name="&lt;Контур&gt;" class="cls-1" d="M143.55,53.4a.06.06,0,0,0-.1.06c10.17,19.27,15.76,39.28,18.81,60.75,0,.19.33.14.33,0C161.57,92.7,154.43,71.8,143.55,53.4Z" transform="translate(-17.04 -14.18)"/></g><g id="_Группа_23" data-name="&lt;Группа&gt;"><path id="_Контур_17" data-name="&lt;Контур&gt;" class="cls-1" d="M127.16,32.63c-7.64-8.48-19-13.66-30.39-13.22a.06.06,0,0,0,0,.11c12.2,0,20.7,6.79,30.15,13.41C127.12,33.07,127.31,32.79,127.16,32.63Z" transform="translate(-17.04 -14.18)"/></g><g id="_Группа_24" data-name="&lt;Группа&gt;"><path id="_Контур_18" data-name="&lt;Контур&gt;" class="cls-1" d="M136.65,205.66c-18.71,21.5-48.79,32.28-74,14.37-.06,0-.15.06-.08.11,24,19.27,57.25,9.12,74.42-14.24C137.08,205.72,136.79,205.49,136.65,205.66Z" transform="translate(-17.04 -14.18)"/></g><g id="_Группа_25" data-name="&lt;Группа&gt;"><path id="_Контур_19" data-name="&lt;Контур&gt;" class="cls-1" d="M61.5,63.2c-15.65,14.17-20,37.91-20.23,58.09,0,.25.36.24.39,0,2.33-21.86,5.28-40.72,20-57.93A.11.11,0,0,0,61.5,63.2Z" transform="translate(-17.04 -14.18)"/></g><g id="_Группа_26" data-name="&lt;Группа&gt;"><path id="_Контур_20" data-name="&lt;Контур&gt;" class="cls-1" d="M136,85.46c-3.75-9.93-8.66-22.94-18.69-28a0,0,0,0,0,0,0c19.86,15,24,47,25.25,70a.28.28,0,0,0,.55,0C143.84,113.28,141,98.69,136,85.46Z" transform="translate(-17.04 -14.18)"/></g><g id="_Группа_27" data-name="&lt;Группа&gt;"><path id="_Контур_21" data-name="&lt;Контур&gt;" class="cls-1" d="M111.86,195.46c-10.44,7.47-28.85,6-39.1-.93-.05,0-.11,0-.07.09,8.73,8.78,30.37,10.13,39.35,1.08C112.16,195.58,112,195.36,111.86,195.46Z" transform="translate(-17.04 -14.18)"/></g><g id="_Группа_28" data-name="&lt;Группа&gt;"><path id="_Контур_22" data-name="&lt;Контур&gt;" class="cls-1" d="M99.72,51C93.5,47.62,86,48.13,79.65,50.81c-.16.07-.1.33.07.27,6.77-2.57,13.12-1.93,19.88.16A.15.15,0,0,0,99.72,51Z" transform="translate(-17.04 -14.18)"/></g></g></g></svg>