<svg xmlns="http://www.w3.org/2000/svg" viewBox="0 0 166.5 397"><defs><style>.cls-1{fill:#fff;}.cls-2{fill:none;stroke:#fff;stroke-miterlimit:10;}</style></defs><title>Key</title><g id="Objects"><g id="_Группа_" data-name="&lt;Группа&gt;"><g id="_Группа_2" data-name="&lt;Группа&gt;"><g id="_Группа_3" data-name="&lt;Группа&gt;"><path id="_Составной_контур_" data-name="&lt;Составной контур&gt;" class="cls-1" d="M150.42,373.55c-1.07-1-2.6-1.27-4-1.62-2.12-.52-4.24-1.06-6.39-1.47,0-.09.05-.17.07-.26.6-2.77.67-5.79,1-8.61a.45.45,0,0,0-.41-.48l-7.45-.69c-1.17-.11-4-1-5.07-.24-.88.62-1,2.73-1.17,3.66a40.49,40.49,0,0,0-.84,4.82c-.07.22-.15.44-.24.65-2.27-1.35-6-2.19-8.36-1.58-2,.5-2.39,2.22-2.61,4a.54.54,0,0,0-.07.65c0,.29-.06.57-.09.85-.29,2.36-1.43,5.82.58,7.71a5.82,5.82,0,0,0,3.66,1.26,49.33,49.33,0,0,1,7.34.82c.28,3-2.14,6-.91,9,1,2.27,3.56,3.17,5.83,3.41,6.46.69,8.68-4.7,7.45-10.2,5.06,1.54,12.26,2.73,13.13-4.09C152.17,378.6,152.39,375.46,150.42,373.55Zm-3.28-.36a7,7,0,0,1,1.27.52s0,0,0,0l.06.15a.37.37,0,0,0-.25.08l-.73.57c-.27-.51-.54-1-.82-1.49Zm-.67-.18q.39.86.75,1.74l-.77.59c-.43-.91-.88-1.81-1.32-2.7Zm-1.63-.44c.41,1,.81,2,1.25,3.06-.31.25-.61.51-.89.79a36.32,36.32,0,0,0-1.93-3.6s-.08,0-.06,0c.61,1.24,1.13,2.53,1.69,3.8a7.24,7.24,0,0,0-.76-.38,26.65,26.65,0,0,0-2.37-4.35c0-.06-.14,0-.1,0,.77,1.33,1.36,2.74,2,4.11l-.6-.23-.38-.15c-.64-1.26-1.44-2.46-2.2-3.63,0,0-.1,0-.07,0,.67,1.13,1.26,2.31,1.92,3.45l-1.6-.62c-.22-.37-.47-.72-.7-1.05a9.45,9.45,0,0,0-1.12-1.4,5.12,5.12,0,0,0,.81-1.24C141.44,371.75,143.15,372.13,144.85,372.56ZM137.47,371c-.05-.12-.11-.26-.18-.38,0-.41,0-.83.07-1.24.18.38.36.76.53,1.14s.33.85.52,1.27a5.59,5.59,0,0,1-.41.45C137.84,371.8,137.64,371.37,137.47,371Zm.14,1.59-.49.38c0-.5.07-1,.11-1.49,0,.16.09.31.12.41S137.52,372.35,137.61,372.58Zm-.21-3.68c0-.72.07-1.43.09-2.15.23.63.49,1.26.75,1.88a11.31,11.31,0,0,0,.89,1.92l0,.11a3.62,3.62,0,0,1-.43.8c-.15-.37-.34-.74-.5-1.09C137.92,369.88,137.66,369.39,137.39,368.91Zm.7,4.41c.07,0,.14,0,.14-.11h0a7.57,7.57,0,0,0,.62-.62c.29.47.64.91.95,1.37.17.25.33.52.49.79-.78-.29-1.57-.57-2.37-.81l-.29-.24Zm2-10.83a2.44,2.44,0,0,1,0,1.24,3.92,3.92,0,0,0-.41-1l-.44-.87A1.44,1.44,0,0,1,140.11,362.49Zm-1.11-.7.46,1.1a3.32,3.32,0,0,0,.54,1,.1.1,0,0,0,.14,0c-.09.65-.25,1.36-.35,1.89-.14-.37-.31-.73-.47-1.07a17.49,17.49,0,0,0-1.09-2.16.06.06,0,0,0-.11.05c.25.77.59,1.51.87,2.26a12.14,12.14,0,0,0,.68,1.67c0,.47-.08,1-.12,1.49-.2-.52-.46-1-.69-1.5-.38-.81-.76-1.61-1.19-2.4a.06.06,0,0,0-.11.05c.29.85.63,1.68,1,2.51a11,11,0,0,0,1,2.09,9.3,9.3,0,0,1-.24,1.39,13.28,13.28,0,0,0-1.73-3.81c0-1.59.06-3.17,0-4.75A7.2,7.2,0,0,1,139,361.79Zm-21.46,7.78a13.73,13.73,0,0,0,1.17,2c.06.08.17,0,.14-.09a14,14,0,0,0-1.12-2.16,6.69,6.69,0,0,1,.74-.66c.24.45.47.9.72,1.34a10.72,10.72,0,0,0,1.07,1.81c.07.09.19,0,.16-.1a11.42,11.42,0,0,0-1-1.94c-.23-.41-.47-.8-.71-1.2a5.25,5.25,0,0,1,.81-.08h.14a26,26,0,0,0,1.6,3c0,.06.13,0,.1-.06a24.82,24.82,0,0,0-1.54-2.88c.37,0,.73,0,1.1.07.43.77.75,1.6,1.21,2.34,0,.06.15,0,.14,0a6.58,6.58,0,0,0-1.13-2.28,21.4,21.4,0,0,1,4.62,1.2,5.24,5.24,0,0,1-1.29,1.79l-.66.26c-1.71.62-3.9.34-5.94,0a7.36,7.36,0,0,0-.47-.84c-.13-.23-.27-.45-.41-.67A5.91,5.91,0,0,1,117.55,369.56Zm-.85,1.26.24.44c.1.17.19.37.3.56l-.9-.13A7.08,7.08,0,0,1,116.69,370.82Zm21.1,20.59a5.06,5.06,0,0,1-3.55,2.93c.21-2.88.13-9.51,3.59-9.44h0l.32.1C138.29,387.16,138.7,389.35,137.79,391.42Zm7.17-6.13a26.08,26.08,0,0,1-6.84-1.43.53.53,0,0,0-.66.3c-4.2.27-3.85,7.26-4.13,10.36a9.3,9.3,0,0,1-3.61-.33c-6.27-1.81-2-7.16-2.51-11.41a.38.38,0,0,0-.1-.22.35.35,0,0,0-.29-.37,29,29,0,0,0-6-.85c-1.24,0-2.73.13-3.88-.45a4.22,4.22,0,0,1-.43-.25.22.22,0,0,0-.1-.32c-1.73-.79-.81-4.74-.61-6.12,0-.33.1-.65.16-1,2.5,1,5.93,1.17,8.32-.27a3,3,0,0,0,1.22-1,5.28,5.28,0,0,0,.68-.91.14.14,0,0,0,.23-.08c.06-.24.12-.48.17-.73l0-.08,0,0a.17.17,0,0,0,.13-.3h0c.3-.83.49-1.72.7-2.58a52.5,52.5,0,0,0,1.3-5.57A2.69,2.69,0,0,1,130,361l2.13.19,4.26.38.34,0c-.37,2.71-.5,5.46-.69,8.19-.08,1.1-.7,3.32.11,4.4.59.78,1.86.92,2.69,1.23,3.77,1.43,7.43,4.57,5.76,9.09a.48.48,0,0,0,.4.65Zm-1.12-7.89a3.72,3.72,0,0,1,1.84,3.09A7.75,7.75,0,0,0,143.84,377.4Zm1.92,7.9c1.25-2,1.62-5.52.4-7.5a3.12,3.12,0,0,0-.67-.76,11.25,11.25,0,0,0,1-.64,29.26,29.26,0,0,0,1.45,2.87.08.08,0,0,0,.14-.07,29.72,29.72,0,0,0-1.22-3.09l.74-.59c.48,1.15,1,2.3,1.53,3.39,0,.07.16,0,.14,0a17.78,17.78,0,0,0-1.36-3.59l.86-.69a16.47,16.47,0,0,0,1.31,2.88.07.07,0,0,0,.12-.06c-.37-1-.86-2-1.3-3a.41.41,0,0,0-.2-.46l-.06-.13c2,1.18,2.48,3.2,2.27,5.93C150.61,383.1,149.38,385.23,145.76,385.3Z" transform="translate(-18.39 -22.72)"/><path id="_Составной_контур_2" data-name="&lt;Составной контур&gt;" class="cls-1" d="M162.57,370.59a.58.58,0,0,0-.52-.62,42.15,42.15,0,0,1-6.07-1,4.76,4.76,0,0,1-2.79-1.39l.08-1.27a11.67,11.67,0,0,1,.32-3.16c.07-.52.12-1,.18-1.38a16.6,16.6,0,0,0,6,.37l.16,0h.37c1.16-.09,1.81-1,2.52-1.87l.1-.11.3,0a.56.56,0,0,0,.59-.5c.52-4.63.86-9.26,1.06-13.91a.51.51,0,0,0-.45-.54l-15.6-1.35a.48.48,0,0,0-.51.43v0a6.61,6.61,0,0,0-2.64,3.49c-.55,2.56-.53,5.45-2.15,7.61a4.32,4.32,0,0,1-2.08-.6c-4.93-2.77-3.37-9-2-13.37a.45.45,0,0,0-.37-.59,42,42,0,0,0-10.85-.48.28.28,0,0,0-.27.22c-.72.28-.65,1.59-.76,2.25-.44,2.66-1.64,4.93-2.31,7.47-.14.23-.3.46-.46.68a8,8,0,0,1-6.62,3,5.31,5.31,0,0,1-4.4-1.84c-.21-.56-.57-1-.85-1.57a11.22,11.22,0,0,1-.86-2.91,23,23,0,0,0-.66-3.86q1.71-11.12,3.28-22.25,6-42.41,9.81-85.1c1.45-16.3,2.93-32.67,3.55-49a.25.25,0,0,0-.51,0c-2.37,28.47-4.3,56.93-7.52,85.33q-4.78,42.22-11.79,84.15c-2.44,14.57-5.6,29.09-7.87,43.69a35.52,35.52,0,0,0-.59,3.88l0,.13s0,0,0,0a81.43,81.43,0,0,0-.25,8.64c-.08.4-.16.8-.22,1.19a13,13,0,0,0-12.79-2.58,10.3,10.3,0,0,1-.17-3.58c.88-8.19,2-16.35,3.07-24.52q3-24.17,6.1-48.34l12-95.27c2.3-18.21,4.62-36.42,6.86-54.65.06-.47-.67-.53-.73-.06-9.06,69.08-17.58,138.23-26.45,207.33-.63,4.9-1.28,9.8-1.89,14.71v0c-.72,1.73-1.31,3.57-.74,5.3a.58.58,0,0,0,.33.75c.07.12.14.25.23.37a9.29,9.29,0,0,0,5.15,3.38c1.29.37,6,.9,8.49-.08l.28,0,.09.06.13,0a.4.4,0,0,0,.51-.25l.7-.15a.56.56,0,0,0,.44-.55.38.38,0,0,0,0-.2c-.08-.55-.15-1.1-.21-1.65,0-.28-.06-.55-.09-.83s0-.43-.06-.64l0-.2c.82-5.26,1.14-10.64,1.81-15.92l0-.23c8.71-5.18,18.29,2.45,17.64,12-.06.83-.71,2.81.19,3.45l.11.05a3.27,3.27,0,0,0,.14.37c.37,2,4.1,2.69,5.68,2.86s2.94.24,4.07-1a5.89,5.89,0,0,0,1.27-4.27A.21.21,0,0,0,131,410c0-.26,0-.53,0-.79a11.23,11.23,0,0,1,1.51-4.07l.11-.16c3.25.38,5.81.78,6.09,5.26a32.14,32.14,0,0,1-.49,4.66c-.09,1-.4,1.94.31,2.76,1.1,1.28,5.57,1.48,7.09,1.66a83.11,83.11,0,0,0,10.39.32h0a.55.55,0,0,0,.87-.32,59.64,59.64,0,0,0,1.77-15.07.63.63,0,0,0-.56-.67c-3.82-.51-8.45-1.27-8.6-6.07a5.1,5.1,0,0,1,.52-2.63,26.42,26.42,0,0,0,4.47,1.16,5.81,5.81,0,0,0,1.3.19,9,9,0,0,0,4.75-1.65.5.5,0,0,0,.2-.25.59.59,0,0,0,.26-.43Q162.15,382.26,162.57,370.59ZM86.45,412.86c.32-.11.65-.2,1-.28l.85,1.5c.28.49.53,1,.86,1.52A5.4,5.4,0,0,1,86.45,412.86Zm3.21,3a10.65,10.65,0,0,0-1-1.9l-.83-1.42c.31-.07.62-.12.93-.16.28.64.62,1.25,1,1.87a11.07,11.07,0,0,0,1.21,2A9.07,9.07,0,0,1,89.65,415.82Zm8.65.28-1.18.18a.16.16,0,0,0,.06-.13,3.23,3.23,0,0,0-.93-1.61c-.18-.2-.49.07-.31.26a4.79,4.79,0,0,1,.58.76,6,6,0,0,0,.4.7l0,0-1.21.13A8.25,8.25,0,0,0,95,415a14.38,14.38,0,0,0-.9-1.52c-.09-.12-.26,0-.21.14a15,15,0,0,0,.85,1.63,8.86,8.86,0,0,0,.75,1.26c-.43,0-.86.05-1.29.06-.32-.56-.7-1.09-1-1.64-.42-.71-.8-1.43-1.2-2.15a.09.09,0,0,0-.16.08,16.4,16.4,0,0,0,2,3.71,15.64,15.64,0,0,1-2.2-.18c-.21,0-.39-.08-.58-.12a.07.07,0,0,0,0-.09,11.73,11.73,0,0,0-1.12-2.21c-.31-.54-.61-1.09-1-1.6.36,0,.71-.05,1.07-.06.29.71.68,1.4,1,2.08a12.52,12.52,0,0,0,1.15,2c.06.08.17,0,.14-.09a14.16,14.16,0,0,0-1.15-2.26c-.32-.57-.63-1.15-1-1.69a11.78,11.78,0,0,1,8.47,3.51A2.38,2.38,0,0,1,98.31,416.1ZM154,360.67a1.6,1.6,0,0,1,.83-.88l.28.53.16.33A9.53,9.53,0,0,0,154,360.67Zm1.74,0c-.12-.24-.26-.47-.38-.69l-.19-.33a4.42,4.42,0,0,1,.94-.16l.36.72.27.56Zm1.45.14c-.15-.29-.33-.57-.49-.85l-.28-.49c.38,0,.76,0,1.15,0,.11.26.22.53.34.79s.17.41.26.63Zm1.34.13c-.12-.26-.27-.51-.39-.76s-.24-.46-.35-.68l1,.08c.07.17.13.34.21.51a3.37,3.37,0,0,0,.52.88C159.27,361,158.95,361,158.57,360.95Zm3.09-.83a3.24,3.24,0,0,1-1.87.84,5.22,5.22,0,0,0-.52-1c-.07-.12-.12-.25-.18-.38.93.1,1.87.23,2.79.34Zm-14.46-13.53a5.28,5.28,0,0,0,.83,1.92.1.1,0,0,0,.17-.08,5.92,5.92,0,0,0-.84-2.08c.29-.4.61-.78.93-1.16,0,1.48,0,3-.09,4.45a7.35,7.35,0,0,1-.2,1.14,11,11,0,0,0-.77-1.41c-.25-.47-.47-1-.67-1.45A4.78,4.78,0,0,1,147.19,346.59Zm-.71,1.65c.15.42.3.84.49,1.25a4.38,4.38,0,0,0,.92,1.55l0,0a8.39,8.39,0,0,1-.49,1.31,4.44,4.44,0,0,0-.58-1.32q-.31-.56-.65-1.1C146.28,349.37,146.35,348.8,146.48,348.25Zm-.56,3.53c.1-.47.17-.94.23-1.42.13.28.26.55.39.83a4.61,4.61,0,0,0,.72,1.42l.05,0a6.85,6.85,0,0,1-.56.9c-.11-.23-.25-.45-.37-.66s-.33-.61-.51-.9Zm-.14.62.34.71a7.8,7.8,0,0,0,.37.75,5.09,5.09,0,0,1-.7.69,6.38,6.38,0,0,0-.39-.75C145.55,353.34,145.67,352.87,145.77,352.4Zm-.52,1.8a4.41,4.41,0,0,0,.29.55,3.79,3.79,0,0,1-.75.4A5.59,5.59,0,0,0,145.25,354.2Zm-17.14-11.68c0-.28,0-.55.07-.82a3.23,3.23,0,0,1,.31.22,19.33,19.33,0,0,0,.45,2.27,7.59,7.59,0,0,0,.63,2.09h0a11.37,11.37,0,0,1-.5,1.77,7.37,7.37,0,0,0-.46-1.76c-.21-.67-.45-1.33-.7-2A14.31,14.31,0,0,0,128.11,342.51Zm.58-.42a3.94,3.94,0,0,1,1,3.31c-.1-.49-.27-1-.4-1.45S128.93,342.7,128.69,342.1Zm-3.61,9.44a4.64,4.64,0,0,0,.38.89.09.09,0,0,0,.18-.06,5.38,5.38,0,0,0-.35-1.12c.19-.27.36-.57.53-.86a5.31,5.31,0,0,0,.55,1.51c0,.06.17.07.17,0A6,6,0,0,0,126,350c.16-.3.31-.62.46-.94a6.79,6.79,0,0,0,.8,1.86c.06.08.18,0,.16-.08a7.6,7.6,0,0,0-.77-2.24c.19-.46.35-.93.5-1.4l.21.66a8.84,8.84,0,0,0,.69,1.82.09.09,0,0,0,.18-.06,8.35,8.35,0,0,0-.52-1.75c-.14-.38-.27-.77-.42-1.15.1-.34.2-.68.28-1s.17-.72.24-1.07c.14.59.28,1.18.44,1.76a6.31,6.31,0,0,0,.65,1.85.06.06,0,0,0,0,0,13,13,0,0,1-1.77,3.2,7.39,7.39,0,0,1-5.6,2.84A8.39,8.39,0,0,0,125.08,351.54Zm-22.9,44.31v0a12.1,12.1,0,0,1,8.18-3.11c.2.27.39.55.57.83s.39.65.6,1A11.4,11.4,0,0,0,102.19,395.85Zm9.74-1.23a6,6,0,0,0-.62-1.12c-.18-.27-.37-.55-.57-.81.45,0,.9,0,1.34,0,.23.45.53.89.79,1.32s.49.89.77,1.31A11.22,11.22,0,0,0,111.92,394.62Zm3.74,2.13a11.12,11.12,0,0,0-1.73-1.22,7.76,7.76,0,0,0-.92-1.78,9.41,9.41,0,0,0-.67-1c.51,0,1,.12,1.5.21.69,1.26,1.25,2.59,1.91,3.86Zm4.82,12.6a23.61,23.61,0,0,1,.2-3,9.15,9.15,0,0,0-.61-2.84,21,21,0,0,0-1.72-3.5.07.07,0,0,0,0-.09,31.3,31.3,0,0,0-2.83-6.23c-.05-.09-.2,0-.15.07.91,1.85,1.65,3.8,2.56,5.65a14.26,14.26,0,0,0-1.81-2.22A19,19,0,0,0,114,393a10.92,10.92,0,0,1,3.85,1.53,13,13,0,0,1,5.28,7.44,15,15,0,0,1,.4,2.06,13,13,0,0,1-.17,2.37,13.11,13.11,0,0,1-.5,2.3,5,5,0,0,1-1.65,2.06C120.91,410.61,120.65,410.17,120.48,409.36Zm.38,3a2.76,2.76,0,0,0,.38-.09l.13.22c.17.26.35.58.57.86A4.57,4.57,0,0,1,120.86,412.35Zm1.91,1.45a8,8,0,0,0-1.07-1.54l-.07-.11a6.53,6.53,0,0,0,.85-.41,7,7,0,0,0,1.81,2.46c.07.05.19,0,.14-.12a17.43,17.43,0,0,0-1.07-1.44c-.24-.34-.45-.68-.65-1l.41-.25a.4.4,0,0,0,.41,0,1.7,1.7,0,0,0,.17-.15c.57,1.9,3,2.62,4.88,2.08A5.89,5.89,0,0,1,122.77,413.8ZM133,404.43a3.21,3.21,0,0,1,1.22-1.25c.16.25.3.5.47.75,0,0,.11,0,.1,0a1.86,1.86,0,0,0-.38-.8,5.25,5.25,0,0,1,.85-.24c.22.41.49.81.71,1.22s.33.65.5,1A8.8,8.8,0,0,0,133,404.43Zm3.92.82a9,9,0,0,0-.72-1.43c-.19-.34-.4-.7-.63-1l.21,0,.61-.08c.55,1.08,1,2.15,1.47,3.24A5.05,5.05,0,0,0,136.92,405.25Zm2.87,11.86c.41-.28.82-.56,1.22-.86l.2-.15c.11.17.22.35.35.51a4.09,4.09,0,0,0,1,1.1.08.08,0,0,0,.1-.11c-.25-.38-.64-.69-.92-1-.14-.18-.27-.36-.4-.55a2.9,2.9,0,0,0,.8-.79,9.46,9.46,0,0,0,2.19,3C142.92,418.07,140.92,417.92,139.79,417.12Zm5.32,1.14-.57-.06a.1.1,0,0,0,0-.1c-.38-.55-.9-1-1.3-1.55a15,15,0,0,1-1-1.51.21.21,0,0,0-.17-.28l0-.08c0-.08-.17,0-.13.06l0,0a2.48,2.48,0,0,0-1,.57l0,0c0-.08-.17,0-.13.06l0,.08-.22.18c-.43.35-.84.71-1.25,1.09a1.76,1.76,0,0,1-.31-.53c-.43-1.23.45-4.1.53-5.37a6.4,6.4,0,0,0-.79-3.81,15.17,15.17,0,0,0-2.14-4.37c.36,0,.71-.06,1.07-.08,1.36,3,2.19,6.09,3.48,9.06a.07.07,0,0,0,.13,0c-.43-3.12-2-6.26-3.46-9H138a5.13,5.13,0,0,1,2.83.69.06.06,0,0,0,0,.07,15.28,15.28,0,0,1,.9,2,20.56,20.56,0,0,0,.68,2.05c0,.07.16.06.16,0a8.64,8.64,0,0,0-1.55-4,5.52,5.52,0,0,1,2,2.81,10.76,10.76,0,0,1,.1,3.69c-.07,1.31-.75,3.11-.41,4.38a2.36,2.36,0,0,0,.22.54s0,.06,0,.08a.15.15,0,0,0,.14.14c.85,1.22,2.74,1.78,4.07,2.37a18.33,18.33,0,0,0,3.89,1.27A58.71,58.71,0,0,1,145.11,418.26ZM150.72,394a3.56,3.56,0,0,1,1.23-.72c.09.14.18.27.27.42a5,5,0,0,0,.5.87C152,394.41,151.36,394.19,150.72,394Zm5.87,1a7.55,7.55,0,0,1-3.64-.37.1.1,0,0,0,0-.06,2,2,0,0,0-.43-1.08c-.07-.11-.16-.21-.24-.32a5.86,5.86,0,0,1,.86-.15l.29.38a5.76,5.76,0,0,0,.74,1c.06.06.14,0,.11-.1a3.94,3.94,0,0,0-.69-1l-.23-.26a15.34,15.34,0,0,1,5.53.87A17.38,17.38,0,0,1,156.59,395.05Zm3.36-2c-2.68-1-7.18-2.55-9.51-1.05-2.1,1.35-2.57,5.49-1.91,7.64.87,2.86,3.61,4.24,6.34,4.81a8.83,8.83,0,0,1,2.18.31c.89.76.44,2.48.38,3.52a52.36,52.36,0,0,1-1.44,9.4.58.58,0,0,0-.51-.16,14.59,14.59,0,0,1-5.55-.29l-.35-.11c-.51-.18-1.49-.52-2.51-.93-.24-.12-.47-.23-.7-.37a4.36,4.36,0,0,1-2.28-3.42c.71-2.59,1.16-5.72.43-7.82-.87-2.52-3.1-2.8-5.49-3s-5.74-.35-7.58,1.45a3.84,3.84,0,0,0-1.1,2.67,10.21,10.21,0,0,0,.12,2.06c-.07.58-.12,1.17-.14,1.74l-2.58,3.15a4.5,4.5,0,0,1-3.64-1.93c1.28-2.05.44-7.11,0-8.87a13.73,13.73,0,0,0-6.11-8.25,12.34,12.34,0,0,0-10-1.23,15.18,15.18,0,0,0-5.5,2.39c2.07-10.23,3.6-20.62,5.34-30.86q1.44-8.52,2.76-17.06c.14.74.31,1.45.44,2.06a8.6,8.6,0,0,0,.93,2.73c.82,2.35,3,3.41,5.43,3.49,4.38,1,8.8-.15,11.25-4.15a14.46,14.46,0,0,0,2-7.19c0-1.9-.41-2.13-1.87-2.58a.34.34,0,0,0,0-.15,28.83,28.83,0,0,1,7.61.22c2.31.51,1.81,1.09,1.31,3.23-.58,2.52-.94,5.42.22,7.84,1.58,3.29,6.16,5.68,9.21,2.79,2-1.85,2.1-4.7,2.12-7.2s.17-3.12,2.82-2.88l6.5.59c1.62.15,4.52-.3,5.33,1.38.65,1.35-.37,5.5-.5,7-.24,2.67.3,4.73-2.7,4.8a60.25,60.25,0,0,1-6.76-.63.57.57,0,0,0-.6.5c0,.22-.08.44-.12.67a7.65,7.65,0,0,0-.45,1.66h0c-.16.06-.14.24,0,.34-.08.57-.14,1.14-.21,1.64a26.9,26.9,0,0,0-.3,4.27c0,.5-.06,1-.08,1.49a.57.57,0,0,0,.36.58c2.25.52,4.64.77,6.85,1.4,2,.57,1.94.46,2.08,2.55a36,36,0,0,1-.2,4.12C160.84,382.58,160.44,387.79,159.95,393Z" transform="translate(-18.39 -22.72)"/><path id="_Составной_контур_3" data-name="&lt;Составной контур&gt;" class="cls-1" d="M160.85,88.24a9,9,0,0,0-1.65-3.31,5.31,5.31,0,0,0-4.6-2.07.11.11,0,0,0-.09-.07c-1.68-.11-2.91,2.18-3.23,3.55-.25,1-.12,3.07,1.07,3.52a3.91,3.91,0,0,0,2.46,2.22,13.29,13.29,0,0,0,6.23,0,.4.4,0,0,0,.27-.53C161.61,90.66,161.08,89.06,160.85,88.24Zm-.5,3.07c-1.24-.06-2.5.07-3.75,0a.4.4,0,0,0,0-.12,8,8,0,0,0-1.85-3.81c-.5-.52-1.86-1.68-2.61-1.13a.07.07,0,0,0,0,.09c.17.33.36.34.71.52A4.78,4.78,0,0,1,154.25,88a7.6,7.6,0,0,1,1.51,3.26A4.68,4.68,0,0,1,153.23,90l-.24-.2a.2.2,0,0,0,0-.14c-.19-.46-.54-.73-.76-1.18a3.25,3.25,0,0,1,0-2.58c0-.13.1-.24.16-.36a6.93,6.93,0,0,1,3.1,2.27,8.18,8.18,0,0,1,1,1.86,7.63,7.63,0,0,0,.59,1.54c.05.08.15,0,.17-.05.25-1.34-.94-3.1-1.79-4.06a5.36,5.36,0,0,0-3-1.9,5.45,5.45,0,0,1,1.49-1.8,5.74,5.74,0,0,1,4.68,2.48,8,8,0,0,1,1.06,2.4,12.48,12.48,0,0,0-1.43-2.63s-.08,0-.06,0a10.66,10.66,0,0,1,1,2c.26.72.38,1.48.65,2.19,0,.07.15.05.15,0a4.06,4.06,0,0,0,0-.45A6,6,0,0,1,160.35,91.31Z" transform="translate(-18.39 -22.72)"/><path id="_Контур_" data-name="&lt;Контур&gt;" class="cls-1" d="M159.17,106.69a3.32,3.32,0,0,1-1.79-1,2.57,2.57,0,0,1-.29-2.47.07.07,0,0,0-.12-.06,2.39,2.39,0,0,0-.06,2.72,2.17,2.17,0,0,0,2.24,1C159.24,106.86,159.27,106.72,159.17,106.69Z" transform="translate(-18.39 -22.72)"/><path id="_Контур_2" data-name="&lt;Контур&gt;" class="cls-1" d="M159.3,106a3.28,3.28,0,0,1-.89-1.22,2.53,2.53,0,0,1,.09-1.61.05.05,0,0,0-.08-.06c-1,.76-.55,3,.78,3.07A.12.12,0,0,0,159.3,106Z" transform="translate(-18.39 -22.72)"/><path id="_Контур_3" data-name="&lt;Контур&gt;" class="cls-1" d="M159.15,90.9c-.93-2.78-2.17-6.78-5.72-6.94-.05,0-.08.08,0,.1,3.37.86,4.27,4.16,5.32,7C158.84,91.38,159.25,91.18,159.15,90.9Z" transform="translate(-18.39 -22.72)"/><path id="_Контур_4" data-name="&lt;Контур&gt;" class="cls-1" d="M89.75,100.06c-2.56,1.19-4.52,3.78-5.75,6.24-.07.13.15.21.22.08,1.36-2.65,3.34-4.38,5.58-6.25A0,0,0,0,0,89.75,100.06Z" transform="translate(-18.39 -22.72)"/><path id="_Контур_5" data-name="&lt;Контур&gt;" class="cls-1" d="M82.75,128.71s0,0,0,0c2.3,3.73,3.19,8,4.06,12.23a.17.17,0,0,0,.33-.06C86.27,136.59,85.29,132.37,82.75,128.71Z" transform="translate(-18.39 -22.72)"/><path id="_Контур_6" data-name="&lt;Контур&gt;" class="cls-1" d="M93,144.4c0-.1-.17-.09-.18,0a19.91,19.91,0,0,1-.64,4.63c-.07.27.34.43.41.16A13.84,13.84,0,0,0,93,144.4Z" transform="translate(-18.39 -22.72)"/><path id="_Контур_7" data-name="&lt;Контур&gt;" class="cls-1" d="M85.11,157.8c-3.81-3-7.08-6.67-5.58-11.94,0-.12-.14-.18-.18-.07-1.6,4.84,1.26,10,5.7,12.13C85.12,158,85.16,157.85,85.11,157.8Z" transform="translate(-18.39 -22.72)"/><path id="_Контур_8" data-name="&lt;Контур&gt;" class="cls-1" d="M82.88,158.25c-1.27-1.32-2.59-2.6-3.79-4a6.47,6.47,0,0,1-1.49-6.09s0,0,0,0c-.39,1.65-.7,3.28.16,4.84a19.47,19.47,0,0,0,5,5.38C82.84,158.45,83,158.33,82.88,158.25Z" transform="translate(-18.39 -22.72)"/><path id="_Контур_9" data-name="&lt;Контур&gt;" class="cls-1" d="M81.3,157.69a20.91,20.91,0,0,1-4.36-4.51s-.08,0-.06,0a13.19,13.19,0,0,0,4.35,4.55A0,0,0,0,0,81.3,157.69Z" transform="translate(-18.39 -22.72)"/><path id="_Контур_10" data-name="&lt;Контур&gt;" class="cls-1" d="M112.54,144.18a.27.27,0,0,0-.19.5,18,18,0,0,1,5.59,3.56c1.38,1.37,2.18,3.07,3.39,4.55a.2.2,0,0,0,.35-.16C121,148.61,116.25,145.13,112.54,144.18Z" transform="translate(-18.39 -22.72)"/><path id="_Контур_11" data-name="&lt;Контур&gt;" class="cls-1" d="M122.13,135.24a.14.14,0,0,0,0,.29,10.73,10.73,0,0,1,6.44,3,14.35,14.35,0,0,1,3,5.3c.05.13.28.1.27,0C131.8,138.94,126.55,135.26,122.13,135.24Z" transform="translate(-18.39 -22.72)"/><circle id="_Контур_12" data-name="&lt;Контур&gt;" class="cls-2" cx="145.19" cy="163.27" r="24.53" transform="translate(-48.68 270.71) rotate(-84.92)"/><path id="_Составной_контур_4" data-name="&lt;Составной контур&gt;" class="cls-1" d="M144.91,161.56a1,1,0,0,0-.76-.32.57.57,0,0,0-.48.05,1.1,1.1,0,0,0-.43,1,1.42,1.42,0,0,0,.39,1.1.93.93,0,0,0,1,.16A1.41,1.41,0,0,0,144.91,161.56Zm-.59,1.38c-.18.08-.36-.13-.43-.28a1.58,1.58,0,0,1-.08-.59,1,1,0,0,1,.23-.18c.38-.15.47.34.45.61S144.47,162.88,144.32,162.95Z" transform="translate(-18.39 -22.72)"/><path id="_Контур_13" data-name="&lt;Контур&gt;" class="cls-1" d="M146.47,189.36c0-.46.23-1.08-.11-1.44a.17.17,0,0,0-.23,0c-.59.42-.2,1.45-.45,2.05-.1.24-.12.2-.41.2l-.6,0-.86-.09a12.28,12.28,0,0,0,0-2c0-.35-.53-.28-.59,0a16.33,16.33,0,0,0-.11,2.25.37.37,0,0,0,.33.4,14.29,14.29,0,0,0,1.7.17,1.35,1.35,0,0,0,1.08-.23C146.5,190.33,146.45,189.77,146.47,189.36Z" transform="translate(-18.39 -22.72)"/><path id="_Контур_14" data-name="&lt;Контур&gt;" class="cls-1" d="M156,187.45a6.29,6.29,0,0,0-.72-1.81.18.18,0,0,0-.31.1,4.2,4.2,0,0,0,.23,1.25,2.18,2.18,0,0,1,.17.66c-.05.37-.2.3-.46.34a3.86,3.86,0,0,0-1.46.5,3.41,3.41,0,0,0-.68-1.48.27.27,0,0,0-.46.22c.15.67.43,1.28.53,2a.38.38,0,0,0,.61.22,3.59,3.59,0,0,1,1.76-.74,1.14,1.14,0,0,0,.76-.36A.9.9,0,0,0,156,187.45Z" transform="translate(-18.39 -22.72)"/><path id="_Контур_15" data-name="&lt;Контур&gt;" class="cls-1" d="M163.34,183a13.88,13.88,0,0,1-1.09-1.62.21.21,0,0,0-.38.18,17.1,17.1,0,0,0,.8,1.54c-.49.33-1,.66-1.47,1l-.58-.91a.36.36,0,0,0-.65.32h0l.78,1.33a.4.4,0,0,0,.61.13c.68-.47,1.31-1,2-1.51A.33.33,0,0,0,163.34,183Z" transform="translate(-18.39 -22.72)"/><path id="_Контур_16" data-name="&lt;Контур&gt;" class="cls-1" d="M168.53,176.94a9.66,9.66,0,0,1-1.53-1.41.29.29,0,0,0-.44.37,10.33,10.33,0,0,0,1.23,1.25,3,3,0,0,0-.82.74c-.06.08-.11.24-.19.3-.27.21-.32,0-.51,0s-.55-.43-.88-.56a.1.1,0,0,0-.12.13c.23.49.85,1.41,1.5,1.33.35,0,.49-.34.67-.6a2.75,2.75,0,0,1,1-.93A.33.33,0,0,0,168.53,176.94Z" transform="translate(-18.39 -22.72)"/><path id="_Контур_17" data-name="&lt;Контур&gt;" class="cls-1" d="M155.45,132.18s0-.07,0,0c-2.29,1.6-1.75,5.34-.86,7.55a0,0,0,0,0,.07,0C154.08,136.78,153.59,134.72,155.45,132.18Z" transform="translate(-18.39 -22.72)"/><path id="_Контур_18" data-name="&lt;Контур&gt;" class="cls-1" d="M156.92,139.72a9.83,9.83,0,0,1-1.42-5.86s-.05-.05-.06,0a6.59,6.59,0,0,0,1.34,6C156.84,139.88,157,139.81,156.92,139.72Z" transform="translate(-18.39 -22.72)"/><path id="_Контур_19" data-name="&lt;Контур&gt;" class="cls-1" d="M173.84,147.24a12.7,12.7,0,0,1-4.84.69c-.7,0-4.23-.13-4.57-.74,0,0,0,0,0,0,.2.82,2.9.95,3.58,1a9.6,9.6,0,0,0,6-.84A.09.09,0,0,0,173.84,147.24Z" transform="translate(-18.39 -22.72)"/><path id="_Контур_20" data-name="&lt;Контур&gt;" class="cls-1" d="M167.54,115.71a.06.06,0,0,0-.06.09,23.5,23.5,0,0,1,6,5.87c1.6,2.51,2.25,5.33,3.06,8.16a.06.06,0,0,0,.12,0C175.9,123.49,172.56,119.26,167.54,115.71Z" transform="translate(-18.39 -22.72)"/><path id="_Контур_21" data-name="&lt;Контур&gt;" class="cls-1" d="M79.64,125.54c-2.71-5.07-5.36-9.84-5.06-15.81a0,0,0,0,0,0,0c-.69,5.79,1.69,11.23,5,15.9C79.56,125.69,79.68,125.61,79.64,125.54Z" transform="translate(-18.39 -22.72)"/><path id="_Контур_22" data-name="&lt;Контур&gt;" class="cls-1" d="M131.74,140a12.9,12.9,0,0,0-5.73-5.48s-.08,0,0,.05a19.17,19.17,0,0,1,5.65,5.51C131.67,140.15,131.78,140.08,131.74,140Z" transform="translate(-18.39 -22.72)"/><path id="_Контур_23" data-name="&lt;Контур&gt;" class="cls-1" d="M133.46,139.1c-1-2.34-3.33-4.24-5.38-5.63a0,0,0,0,0,0,0,18.83,18.83,0,0,1,3,2.74c.84.93,1.45,2,2.24,3A.08.08,0,0,0,133.46,139.1Z" transform="translate(-18.39 -22.72)"/><path id="_Контур_24" data-name="&lt;Контур&gt;" class="cls-1" d="M119.65,146.15a22.6,22.6,0,0,0-3.61-2.78,0,0,0,0,0,0,.06,30.67,30.67,0,0,1,3,2.48q.57.54,1.11,1.12l.66.73c.09.1.51.41.53.44a.06.06,0,0,0-.11,0v0a.08.08,0,0,0,0,.11l.06,0a.12.12,0,0,0,.15-.07C121.7,147.79,120,146.45,119.65,146.15Z" transform="translate(-18.39 -22.72)"/><path id="_Контур_25" data-name="&lt;Контур&gt;" class="cls-1" d="M121.9,147.27a8.77,8.77,0,0,0-2.3-2.81,9.93,9.93,0,0,0-2.93-2.11s0,0,0,0c.91.86,2,1.52,2.87,2.42s1.42,1.84,2.26,2.59C121.85,147.42,121.92,147.33,121.9,147.27Z" transform="translate(-18.39 -22.72)"/><path id="_Контур_26" data-name="&lt;Контур&gt;" class="cls-1" d="M122.85,146.16a18.51,18.51,0,0,0-5.66-5.76s-.09,0-.05.07a34.93,34.93,0,0,1,3,2.9c.86.94,1.56,2,2.42,2.94C122.71,146.43,122.93,146.31,122.85,146.16Z" transform="translate(-18.39 -22.72)"/><path id="_Контур_27" data-name="&lt;Контур&gt;" class="cls-1" d="M124.4,145.62a27.66,27.66,0,0,0-6.47-6.95s-.09,0-.05.07a49.19,49.19,0,0,1,6.22,7.06C124.23,146,124.51,145.79,124.4,145.62Z" transform="translate(-18.39 -22.72)"/><path id="_Контур_28" data-name="&lt;Контур&gt;" class="cls-1" d="M124.68,144a9.83,9.83,0,0,0-1.79-2.56,29.9,29.9,0,0,0-2.37-2.48s-.11,0-.07.06a28.16,28.16,0,0,1,2.15,2.45,29.29,29.29,0,0,0,1.93,2.62A.08.08,0,0,0,124.68,144Z" transform="translate(-18.39 -22.72)"/><path id="_Контур_29" data-name="&lt;Контур&gt;" class="cls-1" d="M111.06,146.7c-.07-.07-.19,0-.12.1,3.32,3.63,3.12,7.94,3.17,12.54a.09.09,0,0,0,.19,0C115.2,154.93,114.29,150,111.06,146.7Z" transform="translate(-18.39 -22.72)"/><path id="_Контур_30" data-name="&lt;Контур&gt;" class="cls-1" d="M113.33,147.11h0c2.15,4,1.83,7.75,2.42,12,0,.09.13.07.14,0A16.94,16.94,0,0,0,113.33,147.11Z" transform="translate(-18.39 -22.72)"/><path id="_Контур_31" data-name="&lt;Контур&gt;" class="cls-1" d="M115.13,148s-.07,0-.06,0a30.56,30.56,0,0,1,2.21,8.75.09.09,0,0,0,.18,0A14,14,0,0,0,115.13,148Z" transform="translate(-18.39 -22.72)"/><path id="_Контур_32" data-name="&lt;Контур&gt;" class="cls-1" d="M117.6,150.42c0-.05-.11,0-.09.06a16,16,0,0,1,.84,2.48c.16.77.21,1.54.32,2.31a.1.1,0,0,0,.2,0A7.55,7.55,0,0,0,117.6,150.42Z" transform="translate(-18.39 -22.72)"/><path id="_Контур_33" data-name="&lt;Контур&gt;" class="cls-1" d="M89.43,172.83c-1.65-3.44-3.55-6.81-1.75-10.64,0,0,0-.06-.06,0-2,3.55-.27,7.55,1.7,10.72C89.37,172.94,89.46,172.9,89.43,172.83Z" transform="translate(-18.39 -22.72)"/><path id="_Контур_34" data-name="&lt;Контур&gt;" class="cls-1" d="M89.58,174.93c-1.43-3.32-4.27-6.49-2.85-10.32a0,0,0,0,0,0,0c-1.5,3.59.81,7.45,2.78,10.4C89.52,175,89.61,175,89.58,174.93Z" transform="translate(-18.39 -22.72)"/><path id="_Контур_35" data-name="&lt;Контур&gt;" class="cls-1" d="M90.08,177.71c-2.1-3.46-4.61-6.35-4.61-10.63,0,0,0,0,0,0-.33,4,1.87,7.83,4.53,10.71C90,177.84,90.12,177.78,90.08,177.71Z" transform="translate(-18.39 -22.72)"/><path id="_Контур_36" data-name="&lt;Контур&gt;" class="cls-1" d="M97.42,181.46c-2.42-.49-4.08-2-5.78-3.71-.06-.06-.16,0-.1.09,1.57,1.72,3.4,3.66,5.85,3.92C97.59,181.77,97.6,181.49,97.42,181.46Z" transform="translate(-18.39 -22.72)"/><path id="_Контур_37" data-name="&lt;Контур&gt;" class="cls-1" d="M98.4,180.33c-2.57-.66-4.52-2.31-6.44-4.05,0,0-.06,0,0,0,1.85,1.83,3.8,3.7,6.41,4.29C98.49,180.64,98.55,180.37,98.4,180.33Z" transform="translate(-18.39 -22.72)"/><path id="_Контур_38" data-name="&lt;Контур&gt;" class="cls-1" d="M134.87,189.15c-4.64-5.13-12-8.27-19-6.89,0,0,0,.08,0,.08,7.24-.14,13.46,1.79,18.54,7.16C134.69,189.74,135.1,189.4,134.87,189.15Z" transform="translate(-18.39 -22.72)"/><path id="_Составной_контур_5" data-name="&lt;Составной контур&gt;" class="cls-1" d="M184.87,129.42c.46-8.69-6.36-17.36-14.82-19.36-5.11-1.21-10.56-1.55-15.17,1.21-2.87,1.71-5.53,3.79-8.38,5.54-1.11.68-2.25,1.33-3.39,2l0,0a1.2,1.2,0,0,0,.07-1.4,14.32,14.32,0,0,0-1.3-1.75c.61-.09,1.19.32,1.81.33a1.37,1.37,0,0,0,1.28-.76,2,2,0,0,0-.6-2.31,2.08,2.08,0,0,0,1.64-.55,2.24,2.24,0,0,0,.61-2.19,1.35,1.35,0,0,0,.59-1.39,1.6,1.6,0,0,0-.65-1,1.87,1.87,0,0,0-.67-.26,1.6,1.6,0,0,1-.35-.08.93.93,0,0,1-.18-.12c.82-.05,1.61-.62,1.46-1.54a1.54,1.54,0,0,0-.91-1.08,2.78,2.78,0,0,0-.71-.22c-.16,0-.34,0-.5-.07a.79.79,0,0,1-.28-.17,1.4,1.4,0,0,0,1.38-1.41,1.26,1.26,0,0,0-.66-1,3.77,3.77,0,0,0-.73-.3,1.26,1.26,0,0,1-.57-.32.87.87,0,0,1-.23-.38,1.56,1.56,0,0,0,1.31-1.14,1.25,1.25,0,0,0-.38-1.13,12.35,12.35,0,0,1,3.08-1.22,15.33,15.33,0,0,1,4.73.94l.21.08c1.26.93,2,2.23,3.15,3.46a9.9,9.9,0,0,0-.54,1.29,5.23,5.23,0,0,0,0,3.91c.76,1.67,3.36,3,5.12,2.15a24.8,24.8,0,0,1,2.51-.78.37.37,0,0,0,.3-.29,6.46,6.46,0,0,0,1.38,0c7.83-.56,3.12-12-.8-14.89a.45.45,0,0,0,.14-.21c1.78-5.46-1.14-11.74-7-13.05a9.17,9.17,0,0,0-7.39,1.44,9.07,9.07,0,0,0-2.91,3.42c-.26.54-.36,1.51-.65,2a5.46,5.46,0,0,1-3.13,1.78h0a3.22,3.22,0,0,0-1.27.23c-.42.1-.84.14-1.26.24a1.53,1.53,0,0,0-.27-.31,1.59,1.59,0,0,0-1.28-.35,3.53,3.53,0,0,0-.94.26,2.72,2.72,0,0,0,.31-.52.39.39,0,0,0,.6-.2,19.5,19.5,0,0,0,1.47-5.87c.05-.3.11-.6.14-.9,5.33.76,10.14-3.48,11.2-8.56a13.11,13.11,0,0,0-6.52-14,56.53,56.53,0,0,0,5.21-27.93.37.37,0,0,0,.06-.14A6.51,6.51,0,0,0,145,22.79c-3.64-.56-7.95,2.41-10,5.37-.43.29-.6.91-.94,1.52a36.81,36.81,0,0,0-3.25,8.93c-1.33,5.38-2.09,11.77-.67,17.21.08.31.62.34.61,0-.07-4.48-.52-8.79.13-13.27a44.83,44.83,0,0,1,1.69-7.31c.35-1.1,1.88-6.61,3.18-6.74.26,0,.24-.38,0-.46A21,21,0,0,1,141,24.4a6,6,0,0,1,1.66,2.93c0,.12.08.25.11.37s0,0,0,0c-2.17.88-3.19,3.52-3.82,6.17a53,53,0,0,0-2.18,9.13c-.56,3.37-2.16,8.66-.92,12.2A13.36,13.36,0,0,0,122,65.77c-1.26,6.05,2.14,12.06,7.64,13.74a11.73,11.73,0,0,0,4.23,1.28,9.24,9.24,0,0,0,0,1c-.69-.25-1.31.45-1.89,1a1.57,1.57,0,0,0-.35-1.57A1.12,1.12,0,0,0,130.5,81c-.46.17-1,.87-1.59.87.16-.9,0-1.95-1-2.21s-1.49.69-2.26,1a3.84,3.84,0,0,0,0-.69,1.48,1.48,0,0,0-.6-1.15,1,1,0,0,0-.41-.15c-.86-11.14-22.15-9.46-18.38,1.65v.06s0,.07,0,.11,0,.05,0,.08,0,.12,0,.17a.78.78,0,0,1-.89.09c-.39-.2-.61-.65-.93-.93a1.22,1.22,0,0,0-1.33-.3,1.28,1.28,0,0,0-.57,1.2,2.84,2.84,0,0,0,.16,1c0,.07.41.86.34,1a4.83,4.83,0,0,0-1-.8,1.44,1.44,0,0,0-1.5-.16,1.29,1.29,0,0,0-.65,1.16c0,.53,1.59,2.2.44,2.27,0,0,0,0,0,0a6.05,6.05,0,0,1-.53-.34,3.62,3.62,0,0,0-.77-.48,1.35,1.35,0,0,0-1.47.22,1,1,0,0,0-.11,1.22,4,4,0,0,0,.54.63c.12.13.39.4.27.61a1.42,1.42,0,0,1-.31.11c-.87-.43-2-1.27-2.81-.49A1.23,1.23,0,0,0,95,88c.15.34,1.5,1.65,1,2-.88-.13-2.14-1-2.86-.07a1.11,1.11,0,0,0,0,1.24,2.21,2.21,0,0,0,.56.56c.11.09.24.16.35.25s1.19,1.08.09,1.22h0a2.41,2.41,0,0,0-.69-.13,3.93,3.93,0,0,0-1.09-.08,1.53,1.53,0,0,0-1.29,1.11,1.35,1.35,0,0,0,0,.35c-2.91-.05-6.39,1.55-8.9,3.43a.18.18,0,0,0-.2-.11,8.77,8.77,0,0,0-4.24,2.22,7.1,7.1,0,0,0-4.24-4,.62.62,0,0,0-.82.52c-.08.67-.15,1.33-.23,2-2.64-2.17-3.84-6.63-7.47-7.26A3.54,3.54,0,0,0,61,93.21,12.9,12.9,0,0,0,52,87.4a.57.57,0,0,0-.62.52q0,.6,0,1.21a16.73,16.73,0,0,0-9.13-3.84.57.57,0,0,0-.61.51q-.2,1.3-.39,2.6a21.07,21.07,0,0,0-13.09-4.45.56.56,0,0,0-.59.5c-.26,2.21-1.87,1.23-3.53,1a25.55,25.55,0,0,0-4.94-.27c0-.12-.05-.23-.07-.35a.31.31,0,0,0-.61.11,25.15,25.15,0,0,0,9.7,17.77,15.11,15.11,0,0,1-4,1.41.58.58,0,0,0-.34.93,13.66,13.66,0,0,0,9.6,6.11q-2.38,1.54-4.84,2.94c-.32.18-.47.72-.08.94a23.29,23.29,0,0,0,14.05,3.09,12.13,12.13,0,0,1-2.57,2.18.58.58,0,0,0,0,1,24.06,24.06,0,0,0,12,1.58l-.34,1.16A.61.61,0,0,0,52,125a23.56,23.56,0,0,0,22.65-6,33,33,0,0,0,3.32,6.71c3.28,5.16,6.43,9.49,7.61,15.64a.42.42,0,0,0,.06.15,5.44,5.44,0,0,0-1.14-.15c-3.75-.05-7.61,2.85-9,6.23-1.47,3.66-.23,7.21,2.49,9.86,2.1,2,5.51,4.19,8.59,3.79-2.8,2.35-2.83,8.07-1.76,11.23,2.23,6.6,8.8,10.87,15.56,11.59-.5,5.64.36,11.71,1,16.73a.39.39,0,0,0,.32.36c.86,2.06,4,2.69,6,1.72a.52.52,0,0,0,.34-.23l0,0,0,0a.56.56,0,0,0-.14-.69,22.28,22.28,0,0,1-1.32-4.62c0-1.48.22-3,.35-4.45.24-2.65.44-5.29.66-7.94,8.26.85,25-1,24.52,10.68,0,.41.52.8.86.45a16.06,16.06,0,0,0,4.56-9.35.5.5,0,0,0-.78-.45.44.44,0,0,0-.34-.48c-5.32-1.18-9.8-3.41-13-8-2.88-4.12-5.15-8.82-4.85-13.82a9.07,9.07,0,0,0,2.72-3.33.31.31,0,0,0,0-.18,11.2,11.2,0,0,1,1.21.08l0,.09h-.09a.3.3,0,0,0-.13.58l.06,0c-1.24,5,1.08,9.8,3.78,14.06,3.61,5.69,7.41,9,14.07,10.61a23.08,23.08,0,0,0,3.28.55c0,.16,0,.31,0,.47a.31.31,0,0,0,.62.05c0-.16,0-.31.05-.47,9.41.64,18.94-4.39,22.86-13.28.09-.21-.25-.4-.37-.2l-.22.38a.52.52,0,0,0-.08-.24c1.93-7.46,1.16-16.26-2.76-23h0c4.83,1.47,11.84.62,15.46-3.18a21.68,21.68,0,0,0,5.4-13.83A23.72,23.72,0,0,0,184.87,129.42Zm-28.58-28.34a3.76,3.76,0,0,0-.26-.77,7.6,7.6,0,0,1,.59.57A1.15,1.15,0,0,0,156.28,101.08Zm.72.16,0,.06a.35.35,0,0,0,.4.3c-.32.16-.64.32-.95.51A8.54,8.54,0,0,1,157,101.24Zm3.48,7.22c-1.63-.13-3.26.16-4.29-1.52a4.5,4.5,0,0,1-.09-4,11.12,11.12,0,0,0,1.93-.75,7,7,0,0,0,2-1.12.18.18,0,0,0,.05-.18.26.26,0,0,0,.21-.25c-.05-2.59-2.31-6.1-5.22-5.67a0,0,0,0,0,0,.07,4.71,4.71,0,0,1,3.5,2.59c.52,1,.67,2.12,1.13,3.13h0a6.47,6.47,0,0,0-2,.72.3.3,0,0,0,.07-.29h0c-.56-3.52-4.84-7.87-8.66-6.06a0,0,0,0,0,0,0c3.15-.56,5.89,1.47,7.2,4.16A7.56,7.56,0,0,0,154.06,98a8.1,8.1,0,0,0-2.87-1.37,7.68,7.68,0,0,0-7.07,1.68l-.34-.12c-.11,0-.22-.06-.33-.1s-.57-.27-.48-.49a1.2,1.2,0,0,0,1-.14,1.39,1.39,0,0,0,.54-1.6,1.73,1.73,0,0,0-1.29-1,3.79,3.79,0,0,0-.93-.08h-.06a12.78,12.78,0,0,1,3.45-1.24,27,27,0,0,1,9.56.12l1,.22c3.2,1,5.69,3,6,6.31,0,0,0,0,0,0-2.07.07-3.31,2.46-3,4.55a3.92,3.92,0,0,0,2.63,3.07A5.92,5.92,0,0,0,160.48,108.46ZM140.42,89.55a3.07,3.07,0,0,0,2.15-.41c1.22-.14,2.75-.32,3.47-1.05.4-.41.53-1.53.71-2A8.37,8.37,0,0,1,160,82.54c3.15,2.53,3.77,6.45,2.89,10.2a.52.52,0,0,0,.32.61s0,0,0,0c2,2.5,3.74,4.93,4.23,8.19.38,2.57-.36,5.85-3.77,5.62a4.41,4.41,0,0,1-2.8-1.19q-1.49-1.72.44-3.22.19-1.47,1.12-1.8a.35.35,0,0,0,.13,0l.12,0a2,2,0,0,1,.46,0,.27.27,0,0,0,.22-.29c2.2-1.37-.09-4.5-1.93-5.65A17,17,0,0,0,155,92.67c-4.4-1.08-9.53-1.07-13.08,1.7a.24.24,0,0,0,.05.39c-.32,0-.73-.13-.69-.4a1.19,1.19,0,0,0,.82-.67,1.91,1.91,0,0,0,.07-1.57,2.08,2.08,0,0,0-2-1.22A1.49,1.49,0,0,0,140.42,89.55Zm-1.74-5.8a.33.33,0,0,0-.36.27l-.46,2a1.84,1.84,0,0,0-1.11,0,7.25,7.25,0,0,0-.76.18l.22-.26a1.19,1.19,0,0,0,.26-1.34,1,1,0,0,0-1.26-.37c-.16.06-.74.42-.9.24s0-.24,0-.4a1.93,1.93,0,0,0,.35-.82,1.5,1.5,0,0,0-.12-.85,1,1,0,0,0,.18-.22.36.36,0,0,0,.08-.15v0a2.09,2.09,0,0,0,.13-.55c.34-1.6,1-5.53.23-6.61,1.84-.62,2.91-.21,3.5.73a.26.26,0,0,0,0,.11,30.11,30.11,0,0,1,.52,4.86C139.05,81.69,138.85,82.83,138.68,83.75Zm-3.84-9.19v0a.69.69,0,0,0-.34,0c-3.49-.68-5.43-5.33-4.46-8.45a6.23,6.23,0,0,1,.35-.87c.06,2.25,1.33,4.49,3.81,4.67,2.68.19,4.94-1.9,6.69-4.28,1.48,2.07,3.45,6.36,1.39,8.68a11.57,11.57,0,0,1-2.55,1.37A3.27,3.27,0,0,0,134.85,74.56Zm6.36-9.36c.36-.52.7-1,1-1.56a6.87,6.87,0,0,1,2.34,7.42,6.12,6.12,0,0,1-.77,1.7,11.1,11.1,0,0,0,0-1.91C143.71,68.79,143,66.36,141.2,65.2Zm9.66,5.62c-.65,5.89-5,9.17-10.56,9.5a11.51,11.51,0,0,0-.42-4.21c6.35.1,8.19-10.44,2.66-13,.41-.7.77-1.35,1.08-1.92.4-.74.77-1.48,1.13-2.23C148.33,62,151.43,65.72,150.86,70.82ZM142,24c4.42-1.36,6.93,1.88,7.39,5.8a.47.47,0,0,0-.22.44,55.63,55.63,0,0,1-2.77,21.83,51.55,51.55,0,0,1-4.63,10,20.68,20.68,0,0,1-3.2,4.3,10.45,10.45,0,0,1-2.5,1.85,7.37,7.37,0,0,1-3.53-.84c-.06-.05-.12-.09-.17-.15a2.13,2.13,0,0,1-.34-.5c.22-3,4.39-3.08,6.11-5.31,2.25-2.91,3.38-6.81,4.17-10.33,0-.18.07-.36.11-.53A49.07,49.07,0,0,0,144,29.46a6.75,6.75,0,0,0-.69-3.4A5.1,5.1,0,0,0,142,24ZM138.4,41.3c.8-3.94,1.45-9.83,4.42-12.88.17,1.23.32,2.47.41,3.73a52,52,0,0,1-1,14.92,39,39,0,0,1-2.63,7.69l-.46,1a13.76,13.76,0,0,0-1.83-.35h0A53.64,53.64,0,0,1,138.4,41.3Zm-4.29,37.41c0,.14,0,.29,0,.43a.42.42,0,0,0-.17,0,10.72,10.72,0,0,1-4.22-.57,36.75,36.75,0,0,1-3.56-2.12A11.16,11.16,0,0,1,123,64.85a12.76,12.76,0,0,1,13.07-9c.06.12.11.25.18.36a.28.28,0,0,0,.52-.17s0-.09,0-.13h.07a14.44,14.44,0,0,1,2,.32,17.23,17.23,0,0,1-3.56,5.17c-7.24-.87-8.58,12.53-.85,14a.4.4,0,0,0,.17,0s0,.09,0,.13A7.41,7.41,0,0,0,134.12,78.71ZM116,71.85c4.27.43,6.7,3.11,8.26,6.8a1,1,0,0,0-.39.17c-.23.18-.61,1-1,1,0-.8-.05-1.68-.79-2.1a1.08,1.08,0,0,0-.61-.13,4.57,4.57,0,0,0-1.7-2.38,5.87,5.87,0,0,0-4.42-1.56c-1.74.17-4.07,2.11-3.83,4-.4-.46-.87-.83-1.41-.7a.94.94,0,0,0-.66.71c-.1.37.13,1.46-.2,1.79a1,1,0,0,1-.46-.19,3.25,3.25,0,0,1-.45-.54,2.26,2.26,0,0,0-.93-.86.81.81,0,0,0-.76.08C107.42,73.62,111.33,71.38,116,71.85ZM120.61,79a1.76,1.76,0,0,0,0-.58,1.49,1.49,0,0,0-2.26-1c-.46.3-.61.91-1.06,1.21l0-.09c0-.27,0-.55-.08-.83a1.25,1.25,0,0,0-.67-1,.8.8,0,0,0-1,.18,1.34,1.34,0,0,0-.23.52c0,.14-.09.64-.25.8a.25.25,0,0,0-.19-.05h0l0-.05a1.24,1.24,0,0,0-1.3-1.51,1.17,1.17,0,0,0-.85.48,2.86,2.86,0,0,1,2.62-2.6A5.72,5.72,0,0,1,120.9,78a1,1,0,0,0-.06.21C120.8,78.44,120.91,78.9,120.61,79ZM92.31,93.78c.66-.2,1.47.41,2-.07a.19.19,0,0,0,.07-.17.66.66,0,0,0,.59-.23A1,1,0,0,0,94.93,92c-.33-.46-2-1.28-1.12-1.84.54-.35,1.61.44,2.19.52a.28.28,0,0,0,.32-.21.62.62,0,0,0,.39-.34,1.47,1.47,0,0,0-.42-1.52c-.21-.25-.63-.55-.71-.89s0-.77.46-.77a1.21,1.21,0,0,1,.53.14c.62.29,1.06.81,1.79.75a.26.26,0,0,0,.23-.26.47.47,0,0,0,.35-.29,1.21,1.21,0,0,0-.27-1.22c-.17-.21-.45-.36-.58-.6-.38-.71.51-.7.91-.47.56.31,1,1,1.69,1,.25,0,.45-.35.19-.51l-.16-.1a.64.64,0,0,0,.54-.25,1.1,1.1,0,0,0-.13-1.29c-.25-.37-.71-.75-.56-1.25s.9-.5,1.3-.19.76,1,1.37.95a.19.19,0,0,0,.16-.15.52.52,0,0,0,.28-.13c.55-.52-.32-1.43-.42-2-.07-.34-.16-1.33.71-.95.21.09.39.43.53.6a2.53,2.53,0,0,0,.86.74,1.14,1.14,0,0,0,1.51-.41.3.3,0,0,0,0-.3l-.06-.1a.18.18,0,0,0-.08-.07,1.18,1.18,0,0,0,.07-.61c0-.16,0-.33.06-.49a3.53,3.53,0,0,1,.09-1c.28-.55.8.23,1,.46.33.45.83,1.17,1.49.91a.22.22,0,0,0,.13-.17,1,1,0,0,0,.5-.84,5.24,5.24,0,0,0,0-.74.78.78,0,0,1,0-.44q0-.28.34-.14a.3.3,0,0,1,.4.1A5.56,5.56,0,0,1,111.85,79a.31.31,0,0,0,.54-.07c.1,0,.2,0,.2-.16s0-.14,0-.22a1.88,1.88,0,0,0,.32-.48c.16-.32.34-.78.78-.74s.42.6.45,1,.21.68.57.69a.45.45,0,0,0,.32-.12.74.74,0,0,0,.26,0,1,1,0,0,0,.55-1,2.07,2.07,0,0,1,0-.38c.07-.31.32-.45.59-.27s.31.67.32,1,0,.93.33,1.19a.17.17,0,0,0,.27-.12.94.94,0,0,0,0-.22h0c.7-.1.8-.9,1.39-1.16a.88.88,0,0,1,1.2.65c.06.32-.11.61,0,.92a.21.21,0,0,0,.27.1.53.53,0,0,0,.31-.29.15.15,0,0,0,.08.06c.54.18.77-.38.81-.81,0,0,0-.1,0-.14s0-.08,0-.13a.33.33,0,0,1,.45.1,1,1,0,0,1,.23.56,7.9,7.9,0,0,1,0,1.34.38.38,0,0,0,.54.38.37.37,0,0,0,.2-.22,1.32,1.32,0,0,0,1.1-.54c.15-.2.3-.55.57-.45s.3.5.28.77c0,.44-.2.93.19,1.25a.2.2,0,0,0,.24,0,.94.94,0,0,0,.25-.4,1.7,1.7,0,0,0,1.22-.44c.42-.28.92-.58,1.32-.07s.07,1.32,0,1.94c-.08.39.5.46.64.15,0-.07.06-.15.09-.23a1.55,1.55,0,0,0,1.11-.27c.45-.27,1.6-1.14,1.55.1,0,.43-.32.77-.28,1.21a.17.17,0,0,0,.23.12l.08-.05,0,0c.72.09,1.06-.57,1.57-.95.76-.56,1.06.24.7.85-.17.3-.37.5-.33.86a.2.2,0,0,0,.23.16h0a.46.46,0,0,0,.08.44,1,1,0,0,0,1,.33,3.49,3.49,0,0,0,.65-.23c.42-.16.46.12.24.42s-.91.72-.91,1.27a.23.23,0,0,0,0,.13.28.28,0,0,0,.38.34c.4-.13.78-.28,1.19-.37.24-.06,1-.3,1.22-.06s-.22,1.12-.37,1.39a1.89,1.89,0,0,0-.34.86.19.19,0,0,0,.26.18,1.16,1.16,0,0,0,.17-.1.11.11,0,0,0,0,.06c.34.35.8.11,1.22,0,.65-.11,1.43.28,1.14,1.07-.09.25-.62.62-.48.93a.27.27,0,0,0,.19.15c0,.12,0,.26.18.26.67,0,1.51.11,1.81.81a1.25,1.25,0,0,1,0,1,7.7,7.7,0,0,0-.41.73.25.25,0,0,0,0,.11.71.71,0,0,0-.12.34.93.93,0,0,0,.73,1c.61.18,1.31-.07,1.87.32a.67.67,0,0,1,.22,1c-.24.32-.63.26-1,.37a.15.15,0,0,0-.07.2l.05.07a.92.92,0,0,0,0,1.05c.34.38.9.32,1.28.62s.13.83-.25,1a2,2,0,0,0-.57.26.17.17,0,0,0,0,.23l.1.12a.86.86,0,0,0,0,.9,2.33,2.33,0,0,0,1.23.78c.46.2.75.65.21,1a5.54,5.54,0,0,0-.76.44.19.19,0,0,0-.05.22.74.74,0,0,0,.24.9c.49.36,1.17.24,1.66.62.71.56-.16.91-.78,1.13h0c-.17.06-.33.12-.42.16a.16.16,0,0,0,0,.3l0,0a.76.76,0,0,0,.08.54,1.54,1.54,0,0,0,.93.62c.3.09.59.17.71.49a.61.61,0,0,1-.52.8c-.41.1-.42.74,0,.77h.07a1.59,1.59,0,0,1-.44,1.45,2,2,0,0,1-1.67.39.18.18,0,0,0-.17.07l-.1-.06a.36.36,0,0,0-.4.56c.34.38.81.62,1.07,1.08s.27,1-.2,1.23-.9,0-1.3-.08a1.88,1.88,0,0,0-1.07.13.23.23,0,0,0-.09.07.4.4,0,0,0-.38.62l1,1.41c.2.29.6.66.26,1-.19.21-.59.18-.84.16-.68-.06-1.46-.31-2,.25a.33.33,0,0,0-.23.34,2.67,2.67,0,0,0,.66,1.56l0,0-.56.34a2.15,2.15,0,0,0-1.25-.39.76.76,0,0,0-.69,1c.18.77.86,1.36,1,2.18s-.81.94-1.37.58a4.29,4.29,0,0,1-.68-.58.93.93,0,0,0-.35-.45.19.19,0,0,0-.25,0c-.37.48,0,1.1.23,1.59s.47,1.17.14,1.64-1.14.37-1.58.09c-.62-.4-.91-1.45-1.58-1.71a.69.69,0,0,0-.22,0s0-.06,0-.1a.13.13,0,0,0-.16-.14c-1,.31-.67,1.42-.5,2.18a2.47,2.47,0,0,1,.08.82c-.08.58-.66.58-1,.26s-.66-1-1.2-1.4a.21.21,0,0,0-.07,0,.38.38,0,0,0-.56.37c.1.69.52,2,0,2.65s-1.18,0-1.46-.55a7.16,7.16,0,0,0-.42-.91c-.39-.57-1.64-.9-1.87-.09-.24,0-.49.12-.41.42a5.28,5.28,0,0,1,.23,2.17.52.52,0,0,0-.2.32.57.57,0,0,1-.53,0c-.76-.31-.64-1.32-1.12-1.87a1.06,1.06,0,0,0-1.14-.19.85.85,0,0,0-.26-.24.28.28,0,0,0-.42.35c.29.63.19,2.16-.54,2.46-.89.36-.76-1.23-.91-1.71s-1-1.23-1.53-.8a1.22,1.22,0,0,0-.1-.2.17.17,0,0,0-.29,0,2,2,0,0,0-.34.9c-.06.29-.1,1.24-.4,1.43l-.86,0-.22-.32a2,2,0,0,1-.21-.79,5.25,5.25,0,0,0,0-1c-.24-.94-1.18-.83-1.77-.33,0,0,0-.05,0-.08a.25.25,0,0,0-.45-.1c-.38.55-.36,1.48-1.06,1.79-1.16.51-1.39-1-1.59-1.68a1.28,1.28,0,0,0-.51-.73,1.14,1.14,0,0,0,0-.4.17.17,0,0,0-.28-.1,2.83,2.83,0,0,0-.44.53h0s0,0,0,0a2.05,2.05,0,0,1-1.11,1,.59.59,0,0,1-.59,0q-.52.07-.47-.48a1.38,1.38,0,0,1,0-.81,1.55,1.55,0,0,0,0-.7.8.8,0,0,0-.74-.6.44.44,0,0,0-.46.27.25.25,0,0,0-.34,0c-.42.37-.65,1.1-1.28,1.18s-.71-.57-.59-1c.08-.28.2-.55.27-.84.15-.62,0-1.44-.68-1.58a1,1,0,0,0,0-.26.17.17,0,0,0-.23-.12c-.67.31-.75,1.26-1.55,1.46a.68.68,0,0,1-.8-.24c-.31-.36-.17-.73,0-1.14s.34-.53.48-.82c.25-.55.16-1.58-.42-1.76a1.18,1.18,0,0,0,.15-.23.12.12,0,0,0,0-.14c-.48-.27-.86.13-1.16.51s-.41.82-.74,1.08-.61.28-1-.28l.19-.49a4.76,4.76,0,0,1,.46-.59,3.07,3.07,0,0,0,.9-2c0-.46-.32-.8-.74-.68,0,0,0-.07,0-.11a.17.17,0,0,0-.2-.18c-.84.11-1.15,1.2-2,1.31-.68.08-1.09-.46-.66-1.06a6.06,6.06,0,0,1,1.08-.88,1.14,1.14,0,0,0,.34-1.45.67.67,0,0,0-.54-.31.19.19,0,0,0-.17-.22c-.86,0-1.38.83-2.16,1.08a.8.8,0,0,1-.73,0,.42.42,0,0,1-.16-.46l.13-.08a.27.27,0,0,0,.12-.37l.12-.13c.29-.31.66-.53.94-.85a1.11,1.11,0,0,0,.3-1.28.68.68,0,0,0-.28-.25l.11-.12a.17.17,0,0,0-.08-.26c-.47-.19-.84,0-1.28.23a3.15,3.15,0,0,1-1,.32c-.41,0-1.55-.42-.75-1,.4-.3.94-.19,1.29-.62a.72.72,0,0,0,.17-.43.17.17,0,0,0,.2,0c.55-.64-.46-1.32-1-1.45s-1.13,0-1.69-.08c-.26,0-.37,0-.38-.29a.68.68,0,0,1,.36-.54l.09,0c.64.31,1.73-.6,1.76-1.32a1.7,1.7,0,0,0-.84-1.47,1.86,1.86,0,0,0-.87-.27c-.27,0-.79,0-1-.16a1,1,0,0,1,0-1.38c1,.2,2.53,0,2.43-1.37,0-.56-.53-.79-1-.92s-1-.09-1-.55c-.09-.8,1.12-.34,1.53-.2a.36.36,0,0,0,.44-.53c.41-.32.26-1.32-.11-1.63a1.24,1.24,0,0,0-.68-.24c-.26,0-.58,0-.79-.19a1.13,1.13,0,0,1-.18-.64c0-.59.2-.8.8-.74a3.62,3.62,0,0,0,1.34,0,.24.24,0,0,0,.16-.33.65.65,0,0,0,.15-.33,1.06,1.06,0,0,0-.74-1,6.44,6.44,0,0,1-1-.31A.77.77,0,0,1,92.31,93.78Zm50,25.42-1.64,1a1.24,1.24,0,0,0-.49-.72c-.1-.15-.19-.31-.28-.47.58.05,1.12.22,1.71.29A2.1,2.1,0,0,0,142.34,119.2Zm-42.08,6.39a19.21,19.21,0,0,1-9.87,0l.29-1.16a.51.51,0,0,0-.15-.85,13.09,13.09,0,0,0-1.88-.75,11.87,11.87,0,0,1,5.08-6.22,1.1,1.1,0,0,0,.36.61,1.62,1.62,0,0,0,1.67.15,4.46,4.46,0,0,0,1.61-1.08c.5.28-.05.72-.46,1a2.73,2.73,0,0,0-.86.85,1.36,1.36,0,0,0,.16,1.72,1.77,1.77,0,0,0,1.82.26,3.16,3.16,0,0,0,1.53-1.35l0,0c1,.22-1.19,2.64-1.32,3.07a1.29,1.29,0,0,0,.48,1.5,1.36,1.36,0,0,0,1.63-.42,7.4,7.4,0,0,0,.72-1.05,2.47,2.47,0,0,1,.32-.36c.85.66-.54,2-.7,2.77a1.28,1.28,0,0,0,.73,1.49l.16,0a8.79,8.79,0,0,0-.87.4C100.88,125.9,100.68,125.48,100.26,125.59Zm-9.8-23.87a1.16,1.16,0,0,0,.59.6,10.07,10.07,0,0,0-5,3.37,29.85,29.85,0,0,0-4.22,5.38,21,21,0,0,1,8.93-13v.05a1.35,1.35,0,0,0,.83,1.25c.37.13,1,0,1.19.37a.78.78,0,0,1,0,.62,2,2,0,0,0-1.75,0A1.15,1.15,0,0,0,90.46,101.72ZM82,112.13c2.85-3.53,5.22-8.76,10.11-9.23a.3.3,0,0,0,.28-.22.4.4,0,0,1,.19.11c.17.25-.15.65-.37.76a3.43,3.43,0,0,1-1.39.22.19.19,0,0,0-.17.2,1.34,1.34,0,0,0-.26,1.88,1.77,1.77,0,0,0,1.36.59c.67.08,1.61.75.93,1.45a.81.81,0,0,1-.54.22c-.74-.22-1.77,1.11-1.36,1.85.29.54,1.09.58,1.62.58a2.87,2.87,0,0,1,1.23.15,1.32,1.32,0,0,1,.37.27c-.26.74-1.47.49-1.91,1.14a1.25,1.25,0,0,0,.16,1.48,1.78,1.78,0,0,0,1.73.46,4.83,4.83,0,0,0,1.41-.51c.55.38-.65,1.16-.85,1.33a2.42,2.42,0,0,0-.63.76,1.67,1.67,0,0,0-.06.19,11.9,11.9,0,0,0-6.17,7.11.47.47,0,0,0,.27.6,16.24,16.24,0,0,1,1.67.67,2.38,2.38,0,0,0-.4,1,11.12,11.12,0,0,1-7.24-8.08,13.86,13.86,0,0,1-.34-3.49A6.34,6.34,0,0,1,82,112.13ZM91.12,95a1.5,1.5,0,0,0,.41.61c.31.27,1.69.45,1.74,1a6.73,6.73,0,0,0-1.09-.1,1.72,1.72,0,0,0-.91.06,1.09,1.09,0,0,0-.49,1c-7.05,3.13-11.68,13.26-9.41,20.63a12.23,12.23,0,0,0,1.25,2.77,5.31,5.31,0,0,0,1,1.38,13,13,0,0,0,5.59,3.83,4,4,0,0,0,.13.47.51.51,0,0,0,.95-.12,19.26,19.26,0,0,0,9.86.11c-2.24,2-5.82,3-7.22,5.82s.43,5.36,2,7.58c3.58,5.17,3.78,12-3,14.56a9.05,9.05,0,0,1-8.59-.85,6.41,6.41,0,0,1-2.48-5.5l.93-2.47q3.11-3.85,5.23.37a2.75,2.75,0,0,0-.23,2.67,4.18,4.18,0,0,0,5.49,2.28,5.2,5.2,0,0,0,3.1-5.27,9.38,9.38,0,0,0-1.58-4,17,17,0,0,1-2.41-7.2.42.42,0,0,0-.1-.24,2.51,2.51,0,0,0-.11-1,22.8,22.8,0,0,0-1.78-1.64A19.34,19.34,0,0,0,85.68,127a19.54,19.54,0,0,0-1.58-1.26c-3.06-3.1-5.8-6-7-10.41C74.39,105.58,81.28,96.34,91.12,95Zm8.12,43.38c1.69,2.58,4.17,4.63,7.25,4.84a4.08,4.08,0,0,1-2.12,1c-1.17.18-3,.09-3.87-.79a.12.12,0,0,0-.14,0,7,7,0,0,0-.32-1,22.08,22.08,0,0,0-2.46-4,21.75,21.75,0,0,1-3-6.88c.19-.22.39-.45.63-.68a8.92,8.92,0,0,1,1.4-1.1C95.49,132.51,97.76,136.18,99.24,138.42Zm-.47,8.39a17.74,17.74,0,0,0-.72-2.06,11.91,11.91,0,0,0-1.27-3.3c-1.76-3.1-5.33-5.78-2.49-9.57C93.43,137.14,101.81,142,98.77,146.82ZM53.09,124a3.87,3.87,0,0,0,.36-1.75.61.61,0,0,0-.7-.64,22.72,22.72,0,0,1-11.34-1,13.76,13.76,0,0,0,2.91-2.93.58.58,0,0,0-.57-.89,22.31,22.31,0,0,1-13.87-2.26c1.88-1.09,3.72-2.23,5.54-3.41.41-.27.14-1-.31-1A13,13,0,0,1,25.17,105a15.75,15.75,0,0,0,4.19-1.72.58.58,0,0,0,.09-1A27.27,27.27,0,0,1,19.21,85.77a39.44,39.44,0,0,1,8.4,1.57.54.54,0,0,0,.71-.45c.66-5,11,1.32,13,3a.57.57,0,0,0,.89-.41c.4-2.65.36-3.44,3.54-2.37a15.32,15.32,0,0,1,5.75,3.61c.31.3,1,.23,1-.31,0-2.66,2.89-1,4.3,0a12.16,12.16,0,0,1,4,4.79.59.59,0,0,0,1.11-.35q3-3.52,4.91-1.12a6.3,6.3,0,0,1,1.21,1.39c.48.64.87,1.35,1.32,2a9.15,9.15,0,0,0,3.15,3,.61.61,0,0,0,1-.44q.13-1.09.26-2.19a5.51,5.51,0,0,1,3,3.56l0,0a12.52,12.52,0,0,0-1.35,2.07c.12-.37-.22-.9-.39-1.18a4,4,0,0,0-1-1.13c-.14-.1-.34.1-.21.23a3.61,3.61,0,0,1,.82,1.18c.14.32.13.92.46,1.1a.21.21,0,0,0,.28,0,.42.42,0,0,0,.05-.09,17.9,17.9,0,0,0-1.79,5.65,104.26,104.26,0,0,1-13.87-2.71A33.22,33.22,0,0,0,47.14,90.63a.14.14,0,0,0-.17.23A45.2,45.2,0,0,1,58.38,105.8a120.89,120.89,0,0,1-15.62-5.58c-.82-4.81-5.34-9.12-9.73-10.69-.21-.07-.3.21-.12.31a19.15,19.15,0,0,1,6,4.73,19.65,19.65,0,0,1,2.83,5.2,161.45,161.45,0,0,1-14.49-7.36c-.24-.14-.48.18-.25.35a84.37,84.37,0,0,0,17.25,9.72c-4.56,1.58-9.64,5.37-14.56,3.71a.14.14,0,0,0-.1.26c4.44,2.09,11.8-.8,15.46-3.53a.29.29,0,0,0,.07-.08c3.08,1.27,6.23,2.38,9.42,3.33-5.34,2.05-10.08,5.49-15.64,7.07a.16.16,0,0,0,.06.3c2.87-.26,5.38-1.55,7.95-2.77a85,85,0,0,0,8.69-4.3c3.12.9,6.28,1.65,9.45,2.27-5.15,5-11,8-17.46,11a0,0,0,0,0,0,.06C54.57,118.39,61,114,66,109.09a.46.46,0,0,0,.09-.13q3.67.68,7.34,1.13a20.44,20.44,0,0,0,0,3.36.35.35,0,0,0-.57-.08,30.17,30.17,0,0,1-10.75,6.89.15.15,0,0,0,.09.28A22.92,22.92,0,0,0,73.34,114a.43.43,0,0,0,.08-.12c0,.32.07.63.11.93a23.07,23.07,0,0,0,.64,2.84A22.47,22.47,0,0,1,53.09,124Zm29.75,7.63c-2-3.39-4.56-6.33-6.28-9.87a23.13,23.13,0,0,1-1.31-3.42.7.7,0,0,0-.28-1,24.75,24.75,0,0,1-.8-7.33.65.65,0,0,0,.07-.91,13.74,13.74,0,0,1,2.89-7.6.63.63,0,0,0,.79-.84h0a10.54,10.54,0,0,1,3.62-2.24c-.37.3-.72.61-1,.92a16.26,16.26,0,0,0-4.74,11.32,18.64,18.64,0,0,0,2.6,9.5,12.32,12.32,0,0,0,4.18,5.5c.5.36,1,.76,1.56,1.17.28.29.56.58.83.88,2.3,2.55,3.85,5.56,5.68,8.44a16.37,16.37,0,0,0,1.76,5.25,14.27,14.27,0,0,1,1.76,3.67q.67,3-2.22,4.89l-1-.17a19.06,19.06,0,0,0-1.77-13.89,0,0,0,0,0-.06,0,22.16,22.16,0,0,1,1.43,13.78c-.32-.07-.62-.15-.89-.23a29.61,29.61,0,0,0-3.54-19.28,0,0,0,0,0,0,0,35.32,35.32,0,0,1,3.19,19.15q-2.49-.88-1.75-2.46a1.24,1.24,0,0,0,1.64-1.07,1.67,1.67,0,0,0-.44-1.41,2.73,2.73,0,0,0-.2-.72.2.2,0,0,0,.08-.19c-.67-5.47-1.72-11-5-15.62,0,0,0,0,0,0,2.8,4.65,3.61,9.81,4.48,15.06a4.27,4.27,0,0,0-2-1.31.38.38,0,0,0,.25-.45A31.55,31.55,0,0,0,82.84,131.62Zm-6.1,22.82a7.91,7.91,0,0,1,.82-8.85,9.87,9.87,0,0,1,2.94-2.38c1.64-.86,6.74-2.57,7.62.7a5.17,5.17,0,0,0-2.57-.77c-6.19,0-6.82,8-2.68,11.19,4.78,3.7,13.12,1.19,15-4.55a8.42,8.42,0,0,0,.26-1c.55,3.38.12,6.58-3.13,9.24a7.27,7.27,0,0,0-4,1.19,5.63,5.63,0,0,0-1.1,1,5.56,5.56,0,0,0-1.28.07.21.21,0,0,0-.28-.18C84,161.33,78.88,158.29,76.75,154.44ZM100.47,183c-5-.93-9.86-2.54-13-6.81-3-4-4.76-14.18,2.06-15.49-2.21,3.17-.77,8.23,1,11.34a15.51,15.51,0,0,0,5.77,5.76c1.15.66,3.17,1.8,4.77,1.82A26.77,26.77,0,0,0,100.47,183Zm.94-4.49c-.2-.5-.87-.63-2-.38l-1.07-.4a14.56,14.56,0,0,1-8.85-11.32,6.92,6.92,0,0,1,1.62-5.92,21.62,21.62,0,0,1,4.2-1.57,7.41,7.41,0,0,1,1.61.26c1.73.48,3.74,2.52,4.6,4.69.48,1.87.34,3.78-1.09,4.84l-.36.21c.78-1.41,0-3.9-.8-5-1.14-1.49-4.12-2.44-5.16-.43-1.31,1.38-1.43,3.88-.76,5.71a13.23,13.23,0,0,0,8.69,7.67C101.77,177.42,101.58,178,101.41,178.52ZM97.78,165a9.84,9.84,0,0,1,.82,3.22c0,.33,0,.66,0,1l-.4-.1a8,8,0,0,0-.33-2.48Q97.81,165.83,97.78,165Zm-.15,4-.57,0q-.05-.53-.15-1c-.07-.46-.14-.91-.2-1.37s-.13-.88-.18-1.32-.32-1.18.12-.49a6.85,6.85,0,0,1,1,2.92Q97.64,168.37,97.63,169Zm.95-3.38v.05a5.93,5.93,0,0,0-.86-1.44.13.13,0,0,0-.23.11c0,.48,0,1,.07,1.46a7.93,7.93,0,0,0-1.2-1.93.11.11,0,0,0-.2.09c.08.69.14,1.38.19,2.07a9.93,9.93,0,0,0-1.2-2.2A.1.1,0,0,0,95,164a12.6,12.6,0,0,1,1.58,5h-.49a6.62,6.62,0,0,0-1.56-4.38c-.09-.1-.22,0-.15.13a7.92,7.92,0,0,1,1.27,3.86.06.06,0,0,0-.07.07c0,.12,0,.24,0,.35l-.47,0a6.26,6.26,0,0,0-1.24-3.85,4,4,0,0,1,2-2.27H96a3.26,3.26,0,0,1,1.65.59,4.18,4.18,0,0,1,1.45,1.81,5.05,5.05,0,0,1,.32,1,6.66,6.66,0,0,0-.49-.84A.22.22,0,0,0,98.58,165.65Zm-4.9,1.26a4.8,4.8,0,0,1,.09-1.24,6.84,6.84,0,0,1,.9,3.45h0a.5.5,0,0,0-.35.25l0-.05,0,0A2.09,2.09,0,0,0,93.68,166.91Zm.38,1.86a7.46,7.46,0,0,1-.33-1.34,2.18,2.18,0,0,1,.27.63A2.67,2.67,0,0,1,94.05,168.77Zm5.35-.68a3.77,3.77,0,0,1-.22.49,8.68,8.68,0,0,0-.09-1c0-.34,0-.68,0-1A4.42,4.42,0,0,1,99.4,168.1Zm-3.61,3.82a11,11,0,0,1-1.16-1.78.6.6,0,0,0,.19,0,30.41,30.41,0,0,1,4.07,0,.42.42,0,0,0,.27-.11,3,3,0,0,0,3.29-2.86,8.25,8.25,0,0,0-1.11-5.92c-.08-.12-.18-.24-.27-.35a5.29,5.29,0,0,0-5-2.85c2.92-1.41,3.64-4.86,3.26-8.29a.18.18,0,0,0,.1,0c1.3-.2,1.69-.91,2.65-1.59q.33-1,1.5-.46a3.2,3.2,0,0,0,.9.09,9.47,9.47,0,0,0,2.05-.2,7.78,7.78,0,0,0,1.2-.38.16.16,0,0,0,.1.17c3.13,1.25,4.28,3.52,4.72,6.76a9.54,9.54,0,0,1-.35,4.82,5.12,5.12,0,0,1-.91,1.63,2.38,2.38,0,0,1-2.07,1.44.19.19,0,0,0-.28-.26,2.15,2.15,0,0,0-.89.86.46.46,0,0,0,.25.69c.64,1.89,3.67,2.41,5.62,2.37a108.14,108.14,0,0,0-1,12.05c-.32,0-.64,0-1,0s-.71,0-1.06,0a3.67,3.67,0,0,0,.27-2.38,4.37,4.37,0,0,0-1.92-3,4.11,4.11,0,0,0-5.79,1.73,5.31,5.31,0,0,0-.85,1.21c-.1.2-.19.4-.28.6a.21.21,0,0,0-.29,0A12.82,12.82,0,0,1,95.79,171.91Zm14-7.88a5.74,5.74,0,0,0,1.14.2,6.44,6.44,0,0,0,2,.5A5.7,5.7,0,0,1,109.75,164Zm.32,13.68a24.33,24.33,0,0,0-2.66-.12v-.14c1.15-2.85-.43-4.63-2.23-4.25a3.4,3.4,0,0,1,3.95.13,3.68,3.68,0,0,1,1.23,2.41A18.18,18.18,0,0,1,110.07,177.72ZM107,184.8c-.28,2.75-.56,5.49-.82,8.24a52.86,52.86,0,0,1,.6-8.27Zm0,17.21h0l0,.06a4.22,4.22,0,0,1-4.73-1.21.46.46,0,0,0,0-.23,100.32,100.32,0,0,1-.88-14.12c0-.81.09-1.62.18-2.42a.49.49,0,0,0,.08-.79c.13-1,.29-2.06.51-3.08a22.87,22.87,0,0,1,1-3.65l.76-1.63a5.56,5.56,0,0,1,2.34.46,14.87,14.87,0,0,1,.31,5.07,60.5,60.5,0,0,0-1.67,11.29C104.7,195.16,104.74,199.23,106.93,202ZM123,178.58c3.33,4.42,7.75,6.71,13.28,7.93a.35.35,0,0,0,.19,0,.5.5,0,0,0,0,.05,15.67,15.67,0,0,1-3.37,7.69c-.76-10.89-18.11-10.56-26.28-10,.14-1,.3-2,.45-3.07,0-.25.08-.65.11-1.13a2.49,2.49,0,0,0,.82.37c3.17,2,8.52,1,11.68-.16a.38.38,0,0,0,.22-.2,21.46,21.46,0,0,0,2.67-1.14A.45.45,0,0,0,123,178.58Zm-.88-1.25c.15.23.31.46.47.68a.44.44,0,0,0-.25,0,19.61,19.61,0,0,0-2.67,1.34.48.48,0,0,0-.2,0,17,17,0,0,1-6.68,1.15c-1.55,0-3-.57-4.56-.69l-.23-.14a7.08,7.08,0,0,1-.55-.45l.21-1.13a.2.2,0,0,0,0-.1,12.93,12.93,0,0,0,5.55.71.52.52,0,0,0,.52,0,29.81,29.81,0,0,0,5-.9.43.43,0,0,0,.33-.31,6.91,6.91,0,0,0,2.44-1.27Q121.81,176.79,122.16,177.32ZM121,175.46a13.27,13.27,0,0,1-1.32.83c-.23.12-.48.23-.72.34a.08.08,0,0,0,0,0,14.4,14.4,0,0,0-3.31-2.51c-.12-.07-.25.1-.13.18,1.17.74,2.18,1.67,3.31,2.45-.17.08-.35.16-.51.26a27.32,27.32,0,0,1-4.29.75l.06-.41a21,21,0,0,0,1.09-5.67,32.93,32.93,0,0,0,.4-5.71l0-.19a.39.39,0,0,0,0-.23,8.46,8.46,0,0,0,2.37-1.13C117.63,168.27,119,172,121,175.46Zm-2.34-14.37a.16.16,0,0,0-.09.07c-.16.13-.31.26-.48.38a11.54,11.54,0,0,1-5.79,2.08,12.28,12.28,0,0,1-2.35-.54l-.19-.11c3-1.3,4.11-4.69,3.84-7.91-.23-2.75-1.72-8.48-5.41-8A6.52,6.52,0,0,0,112,143a1.87,1.87,0,0,0,.86.81c1.82.58,3.07-2.76,3.37-4a11.28,11.28,0,0,0,.45-4.33,13.2,13.2,0,0,1,2.62,1.3c3.77,2.44,5.67,6.16,7.47,10.1a.18.18,0,0,0,.33-.11,16.37,16.37,0,0,0-7.78-10.92,14.32,14.32,0,0,0-3.08-1.33,1.29,1.29,0,0,0-.56-.36,1.47,1.47,0,0,0-.9,0,27,27,0,0,0-11.49.62,0,0,0,0,0,0,.1c3.48-.22,7-.67,10.36-.17-1.55.9-2.92,2.31-4.7,2.72-.52.12-.37.94.15.82l.16-.05c.79,1.2,1.42,2.45,2.12,3.71l.18.35,0,0c-1,1.15-1.63,2.44-3,3.32-1.78,1.17-3.47,1-5.48,1.08-1.7.06-2.15,1.92-3.73,2.7h0c-.07-.51-.16-1-.27-1.52a4,4,0,0,0,1.45-3.55c.65.74,2.51.91,3.21.93a4.4,4.4,0,0,0,4.17-2.14.42.42,0,0,0-.23-.55.37.37,0,0,0-.26-.13,9.37,9.37,0,0,1-7.27-4.24c-1.51-2.16-3.87-5.94-3-8.63a.21.21,0,0,0,0-.17,19.13,19.13,0,0,0,3.78-2.53.34.34,0,0,0,.1-.25,4.16,4.16,0,0,0,1.14-.66.14.14,0,0,0,0-.06,1.85,1.85,0,0,0,.93-.32,2.82,2.82,0,0,0,.93-1.06c.74.47-.08,1.6-.15,2.24a1.26,1.26,0,0,0,.54,1.28c.92.55,2-.27,2.33-1.17a.33.33,0,0,1,.15-.09c.87-.14.34.8.3,1.28a1.32,1.32,0,0,0,.91,1.35,2.59,2.59,0,0,0,2.61-1.06,1.62,1.62,0,0,1,.11.41,4.33,4.33,0,0,0,.06.49,2.49,2.49,0,0,0,.36.86,1.75,1.75,0,0,0,1.37.84,2.15,2.15,0,0,0,2-2.07l.15-.05c.48-.16.78,0,.86.47a8.78,8.78,0,0,0,0,1.17,2,2,0,0,0,1.39,1.52c1.25.25,1.95-1.49,1.83-2.68.92-.13.68,1.58.95,2.14a1.27,1.27,0,0,0,1.52.71,1.85,1.85,0,0,0,1.26-1.58,3.9,3.9,0,0,0,0-1.32c.3,0,.55.66.63.93a2.77,2.77,0,0,0,.32.73,1.65,1.65,0,0,0,1.61.81,1.32,1.32,0,0,0,.57-.22c3.71,1.58,8,3.41,9.62,7.38,2.34,5.65-1.92,10.22-6.24,13.12a13.65,13.65,0,0,0,1.38-5.53A.46.46,0,0,0,130,146a.38.38,0,0,0-.6.16l-.27,1.1a.15.15,0,0,0-.1.12,18.62,18.62,0,0,1-2.09,6.59,13.78,13.78,0,0,1-4.17,3.9,5.49,5.49,0,0,0,.49-3.32.15.15,0,0,0-.25-.08.17.17,0,0,0-.2.11C121.76,157.11,120.76,159.37,118.67,161.09Zm-7-20.52a9,9,0,0,0-1.82-2.58,13.85,13.85,0,0,0,2.43-1.41l1.32-.88.93-.6,1.15.67c.27.57-.14,2.36-.23,2.93a6.25,6.25,0,0,1-1.09,3.05.74.74,0,0,1-.92.39q-1,.59-1.26-.64C112,141.2,111.87,140.89,111.7,140.57Zm32-5.61-.08.05a3.41,3.41,0,0,0,0-.44,2.6,2.6,0,0,0-1.23-2.08,5.21,5.21,0,0,0-3.56-.63,2.25,2.25,0,0,0,0-.83,2.75,2.75,0,0,0-1.33-1.65c5.56-1.41,11-5.39,15.69-8.54,1.77-1.19,3.56-2.42,5.44-3.44a13.23,13.23,0,0,1,11.87,6.13c3,4.64,4.36,13.75-.67,17.39a.27.27,0,0,0-.1.15,5.55,5.55,0,0,1-1.56.12,5.06,5.06,0,0,1-4.17-2.75,4.55,4.55,0,0,1,.16-4.08.29.29,0,0,0,.25.22c1,.09,1.69-.78,1.34-1.46.72-1.38-1.06-2.83-2.43-3.44a4.72,4.72,0,0,0-5.15.59c-4.05.41-6.37,4.28-5.84,8.24a10.58,10.58,0,0,0,1,3.31h0a16.9,16.9,0,0,0-4.1-1.42.15.15,0,0,0-.2-.09l-.08,0a19.52,19.52,0,0,0-8.66.31v0c0-.22-.32-.3-.38-.09s0,.16-.07.25a18.73,18.73,0,0,0-1.86.65,27.69,27.69,0,0,1,4.54-4.48h0a1.32,1.32,0,0,0,.56-.44c.35-.26.71-.51,1.08-.75S144.17,134.68,143.73,135Zm32.85-8.07c0,.11.19.11.2,0s0-.34,0-.51a16,16,0,0,1,.17,2.33,18,18,0,0,1-1.42,7.16c1.16-8.5-3-18.33-11.78-20.41,3.36-.66,6,.39,8.69,2.08a14.65,14.65,0,0,1,2.8,3.91,13.62,13.62,0,0,0-4.22-4.33,0,0,0,0,0,0,0C174.35,119.58,175.78,122.95,176.57,126.89Zm-4.87-3.42a14.27,14.27,0,0,0-11.58-6.8,17.3,17.3,0,0,1,3.15-1.1c9.65,2.37,12.15,12.28,11.83,21.12a10.87,10.87,0,0,1-.77,1.25,9,9,0,0,1-.78.91C175.58,134.53,173.42,126.28,171.71,123.46Zm-13-7.31c-.4.2-.78.41-1.17.63a14.25,14.25,0,0,0-3.45.91c3.36-2.42,7-4.1,11.34-3.58l.77.12A19.08,19.08,0,0,0,158.72,116.15Zm-2.81,1.58c-2.71,1.66-5.28,3.56-8,5.2l-.82.47c1.89-1.56,3.73-3.21,5.62-4.7A17.28,17.28,0,0,1,155.91,117.74Zm7.15,39a13.28,13.28,0,0,1-8.34,5.58l-1.63-.75-.71-.33a17.91,17.91,0,0,0,10.57-5.76q.14.57.25,1.15A.26.26,0,0,0,163.05,156.72Zm.28.66a57.44,57.44,0,0,1,.72,7.39c-2.8.35-6.14-1-8.9-2.27A11,11,0,0,0,163.33,157.37Zm-11.64,3.53c-.9-.43-1.8-.86-2.71-1.27,4.69-2.17,8.61-6.37,11.3-10.66a.3.3,0,0,0,0-.06.22.22,0,0,0,0,.18,18.31,18.31,0,0,1,2.41,5.54A21.27,21.27,0,0,1,151.69,160.9Zm8.1-12.27c-3,4.61-6.91,7.69-11.35,10.77l-.66-.29c1.63-1.7,3.16-3.48,4.69-5.27,1.81-2.12,4-4.23,5.36-6.65a.18.18,0,0,0,0-.12,19.21,19.21,0,0,0,2.13,1.43A.27.27,0,0,0,159.79,148.63Zm-19.45,14.75c.68,2,2.8,4.09,5,3.51a3.42,3.42,0,0,1-3.79.21,4.38,4.38,0,0,1-1.93-4.62,4.32,4.32,0,0,1,.78-1.76A3.86,3.86,0,0,0,140.34,163.38Zm2.25-4.23a.22.22,0,0,0,.3.26,5.57,5.57,0,0,1,.9-.38,24.57,24.57,0,0,1,3.56,1,3.27,3.27,0,0,1,.27.52,4.84,4.84,0,0,1-1.83,5.42C142.32,167.85,138.72,161.15,142.6,159.15Zm4-1.18c-.86-1.16-1.37-7.64-1.35-8.28.12-3,.77-6.54,3.14-8.55.64.12,1.28.27,1.93.44-2.26.51-3.18,4.37-3.65,6.24A21.26,21.26,0,0,0,146.63,158Zm-1.76-10.64A20.26,20.26,0,0,0,146,158.23a3.5,3.5,0,0,0-1.43-.13l-.87-.15c-3.58-5.07-4.49-10.72-3.48-16.73a21.07,21.07,0,0,1,7.5-.17C145.94,142.45,145.27,145.14,144.87,147.34Zm12.72-.37a44.51,44.51,0,0,0-5,5.73c-1.72,2.08-3.47,4.14-5.1,6.29h0a25.24,25.24,0,0,1-.72-8.19c.25-2.45,1.18-8.59,4.42-9,.64.19,1.29.41,1.95.65a.32.32,0,0,0,.45-.28,15.88,15.88,0,0,0,4.09,4.74A.15.15,0,0,0,157.58,147Zm-17.84-5.66a21.12,21.12,0,0,0,3,16.49c-.94-.11-1.89-.17-2.83-.23-.29-.83-.94-1.72-1.27-2.44a23.3,23.3,0,0,1-1.58-4.54,14.06,14.06,0,0,1,.81-8.78Q138.8,141.52,139.74,141.31Zm-3.24,9.38c.36,1.74,1.1,5,2.36,6.83l-1.59-.11c-3.53-.3-7-1.05-10.48-1.51a12.88,12.88,0,0,0,1.65-2.56l.21-.36a13.12,13.12,0,0,0,7.61-7.12A14.59,14.59,0,0,0,136.5,150.69Zm-13.79,10.67a39.11,39.11,0,0,1,9,5.77l.13.1c-2.76.18-5.93.29-8.48,1.17A14.56,14.56,0,0,1,122.71,161.36Zm.13-.72v-.08c6.87,1.09,11.14,8.29,18.18,9.57a13.46,13.46,0,0,1-2.76-.58.28.28,0,0,0-.23-.08,24.43,24.43,0,0,1-7.32-4.46C128.39,163.12,125.89,161.07,122.84,160.63Zm1.06,9.2c-.18-.44-.34-.88-.49-1.33,2.92.38,6.35-.29,9.26-.67l.27.2a65.44,65.44,0,0,1-9,1.77Zm4.82,8c-.16-.2-.31-.41-.46-.62a40.93,40.93,0,0,1-4.16-7,28.54,28.54,0,0,0,9.39-1.62.29.29,0,0,0,.16-.13,17.65,17.65,0,0,0,3.57,1.92A24.83,24.83,0,0,1,128.72,177.87Zm.43.54a22.43,22.43,0,0,0,8.7-7.72c.39.13.79.23,1.19.32a18,18,0,0,1-4,4.81c-1.53,1.35-3.16,3.05-5.26,3.28Q129.44,178.76,129.15,178.41Zm12.18,6.87A21.21,21.21,0,0,1,130,179.34c1.78.53,3.76-1.69,4.94-2.71a18.76,18.76,0,0,0,4.57-5.53l.12,0a13.8,13.8,0,0,0,1.82.16c0,2.3.51,4.59.53,6.91A40.88,40.88,0,0,1,141.33,185.28Zm.77.15c.82-4.31,1.39-9.93-.3-14.14.51,0,1,0,1.52-.06a91,91,0,0,1,.17,14.4C143,185.58,142.57,185.52,142.1,185.44Zm3.33.37c-.42,0-.85-.05-1.28-.09a50.66,50.66,0,0,0-.33-14.51c.68-.06,1.35-.15,2-.24,3.79,3.45,4.1,8.93,5.49,13.53C149.43,185,147.46,185.37,145.43,185.8Zm6.4-1.45a22.62,22.62,0,0,0-1.85-7.76c-.84-2.19-1.79-4.27-3.63-5.7l1.32-.19a.22.22,0,0,0,.12.15c1.89,1,3,4.75,3.62,6.65a29.83,29.83,0,0,1,1.38,6.55Zm5-2.22a17.66,17.66,0,0,1-3.39,1.68,29.07,29.07,0,0,0-2-8.26c-.6-1.46-1.45-4.16-3.07-5,.63-.09,1.26-.17,1.89-.23H152a27.54,27.54,0,0,1,4.89,3.89c1.36,1.35,2.35,3.13,3.74,4.42A15.52,15.52,0,0,1,156.8,182.13Zm4.41-5.11a.32.32,0,0,0,.48.11c-.25.4-.5.79-.78,1.16-.69-1.83-2.41-3.47-3.79-4.76a19.51,19.51,0,0,0-4.29-3.16c1,0,2.08,0,3.22,0A30.14,30.14,0,0,1,161.21,177Zm-4.42-6.57a20.44,20.44,0,0,1,2.35.41c1.85.46,3,1.63,4.26,2.72a20.39,20.39,0,0,1-1.56,3.28.32.32,0,0,0,0-.13A18.15,18.15,0,0,0,156.79,170.45Zm9.23,3.46a26.35,26.35,0,0,1-6.84,7.6,14.14,14.14,0,0,0,4.92-7.38c.19.14.38.28.58.41a.68.68,0,0,0,1.05-.59A.44.44,0,0,0,166,173.92Zm-.58-1.9a.19.19,0,0,0,.22.17l0,.12a8.33,8.33,0,0,0-5.25-2.44,11,11,0,0,0-3-.66,36.05,36.05,0,0,0-7.88.28c-1.61,0-3.22,0-4.83,0-5.88-.12-9.45-2.76-13.95-6.13-2.39-1.8-4.86-3.18-7.72-3.38l0-.12a.15.15,0,0,0-.28-.1c0,.07,0,.14-.07.21a10.46,10.46,0,0,0-1.21,0l.26-.35a12.23,12.23,0,0,0,4.77-3.36c4.23,1.55,8.74,1.68,13.16,2.15a2.66,2.66,0,0,0,.31.23.24.24,0,0,0,.33-.06l.08-.09c.63.07,1.25.16,1.88.25a3.35,3.35,0,0,0-.69.41c-3.4,1.38-3.65,6.51-.64,8.54s6.5-.45,7.21-3.48a5.35,5.35,0,0,0,.23-3.82l.42.17c4.75,2.16,11.66,6.77,17.05,4.77a.47.47,0,0,0,.16-.1c0,1,.05,2,0,3.06A21.77,21.77,0,0,0,165.44,172Zm.77-8.09a.18.18,0,0,0-.18.16c0,.19,0,.38,0,.58a.5.5,0,0,0-.61-.2l-.14,0a40.46,40.46,0,0,0-1.52-9.15l-.16-.59v0a.31.31,0,0,0-.16-.5c-.52-1.89-1.15-4-2.57-5.24a17.2,17.2,0,0,0,1.82.8A40.92,40.92,0,0,1,166.21,163.92Zm3.71-14.36a15.8,15.8,0,0,1-7.33-.94l-.21-.32c-.1-.14-.29,0-.28.12a17.77,17.77,0,0,1-5.94-4.12c-3.81-4-4.79-11.71,1.39-13.4a5.65,5.65,0,0,0-.79,1.32c-1.45,3.35.19,7.56,2.22,10.32a11.77,11.77,0,0,0,10.46,4.75A15.1,15.1,0,0,0,182,139.4C180.24,144.69,176.87,148.83,169.92,149.56Zm13.76-19.69c-.11,1.22-.24,2.44-.41,3.65-1.2,5.09-4.18,9.8-8.59,11.67-4.8,2-10.8,1.45-14.43-2.45a12.55,12.55,0,0,1-3.07-5.56,9.65,9.65,0,0,1,0-4.31q.9-3.36,4.17-2.14,3.17-1,3.43,1.75c-2-.3-2.13,4.4-1.87,5.43.9,3.53,4.89,4.9,8.1,3.76,3.81-1.35,5.87-5.27,6.62-9,1.73-8.62-2.91-18.88-12.6-19.58-12.43-.9-18.24,14.46-30.22,15.37-.58,0-.41.93.16.89l.33,0c1.13.4,2.81.79,2.72,2.32-.06,1.07-1.18,1.55-1.56,2.45a.21.21,0,0,0,.23.28,2.72,2.72,0,0,0,2-1.79,5.09,5.09,0,0,1,3.13.76c1.07.74.67,1.64.51,2.57a20,20,0,0,0-5.3,5.7c0-.31,0-.62-.07-.93-.72-5.47-6-8.16-10.65-10a3.69,3.69,0,0,0-.28-2.33c.51-.72,1,.49,1.1.84a2.86,2.86,0,0,0,.66,1,1.5,1.5,0,0,0,1.67.38c.9-.41,1-1.51.89-2.53.59.77,1.41,1.35,2.26.63a1.71,1.71,0,0,0,.45-1.56c-.07-.53-.23-1-.29-1.49.27.35.57.9.69,1a3.12,3.12,0,0,0,1,.82,2,2,0,0,0,2-.06,1.79,1.79,0,0,0,.64-1.93,2.87,2.87,0,0,0-.1-.36,1.83,1.83,0,0,0,.52.21,1.46,1.46,0,0,0,1.78-.91,3.18,3.18,0,0,0-.66-2.44.25.25,0,0,0,.12,0l.32-.13a.65.65,0,0,0,.75-.08.29.29,0,0,0,.12-.27,63,63,0,0,0,9.17-5.24c3.6-2.32,7-5.51,11.4-6,8.8-1,18.34,3.27,22.08,11.64a17,17,0,0,1,1.24,7.81A.21.21,0,0,0,183.68,129.88Z" transform="translate(-18.39 -22.72)"/><path id="_Контур_39" data-name="&lt;Контур&gt;" class="cls-1" d="M160.24,360l-.2-.27c-.07-.09-.21,0-.14.11l.23.25A.07.07,0,0,0,160.24,360Z" transform="translate(-18.39 -22.72)"/><path id="_Контур_40" data-name="&lt;Контур&gt;" class="cls-1" d="M139.42,402.73a.07.07,0,0,0-.13.06c1.07,2.46,1.77,5.11,2.89,7.54a.1.1,0,0,0,.19-.06A28.38,28.38,0,0,0,139.42,402.73Z" transform="translate(-18.39 -22.72)"/><path id="_Контур_41" data-name="&lt;Контур&gt;" class="cls-1" d="M117.19,394.46a.07.07,0,0,0-.13.06c1.12,2.51,1.94,5.21,3.15,7.67a.11.11,0,0,0,.2-.06A29.77,29.77,0,0,0,117.19,394.46Z" transform="translate(-18.39 -22.72)"/><path id="_Контур_42" data-name="&lt;Контур&gt;" class="cls-1" d="M119.22,395.82a.08.08,0,0,0-.14.07c1.22,3,2.11,6.13,3.52,9a.09.09,0,0,0,.17-.05A37.64,37.64,0,0,0,119.22,395.82Z" transform="translate(-18.39 -22.72)"/><path id="_Контур_43" data-name="&lt;Контур&gt;" class="cls-1" d="M122.18,400.12c-.3-.74-.62-1.48-.93-2.21,0-.1-.19,0-.15.07.25.71.51,1.41.77,2.11a11.39,11.39,0,0,0,.86,2.07c.06.09.21.06.19-.06A10.56,10.56,0,0,0,122.18,400.12Z" transform="translate(-18.39 -22.72)"/><path id="_Контур_44" data-name="&lt;Контур&gt;" class="cls-1" d="M97.18,412.89A12.63,12.63,0,0,0,94.92,411q-1.33-1-2.7-2a.06.06,0,0,0-.06.09q1.26.95,2.47,1.94a20.57,20.57,0,0,0,2.44,2A.09.09,0,0,0,97.18,412.89Z" transform="translate(-18.39 -22.72)"/><path id="_Контур_45" data-name="&lt;Контур&gt;" class="cls-1" d="M97.94,411.07A19.78,19.78,0,0,0,92,405.75a.07.07,0,0,0-.08.12c1.1,1,2.27,1.84,3.32,2.86.86.82,1.62,1.76,2.52,2.54C97.89,411.37,98,411.18,97.94,411.07Z" transform="translate(-18.39 -22.72)"/><path id="_Контур_46" data-name="&lt;Контур&gt;" class="cls-1" d="M97.75,408A22.31,22.31,0,0,0,93,403.33c-.08-.06-.17.06-.09.13a44.69,44.69,0,0,1,4.69,4.64A.1.1,0,0,0,97.75,408Z" transform="translate(-18.39 -22.72)"/><path id="_Контур_47" data-name="&lt;Контур&gt;" class="cls-1" d="M98.28,405.7a17.71,17.71,0,0,0-5-4.59.06.06,0,0,0-.07.1,32.44,32.44,0,0,1,2.8,2.44c.72.7,1.35,1.51,2.1,2.17C98.21,405.89,98.34,405.79,98.28,405.7Z" transform="translate(-18.39 -22.72)"/><path id="_Контур_48" data-name="&lt;Контур&gt;" class="cls-1" d="M98.39,403.19a19,19,0,0,0-5.29-4.64.08.08,0,0,0-.1.14c.95.79,1.9,1.57,2.81,2.41a30.55,30.55,0,0,0,2.41,2.28C98.35,403.47,98.47,403.3,98.39,403.19Z" transform="translate(-18.39 -22.72)"/><path id="_Контур_49" data-name="&lt;Контур&gt;" class="cls-1" d="M98.51,400.48a41.57,41.57,0,0,0-5-4.55c-.07-.06-.18.06-.11.12a41.7,41.7,0,0,0,5,4.57A.1.1,0,0,0,98.51,400.48Z" transform="translate(-18.39 -22.72)"/><path id="_Контур_50" data-name="&lt;Контур&gt;" class="cls-1" d="M98.68,398.81a52.51,52.51,0,0,0-4.79-4.91c-.09-.09-.24,0-.15.13a52.72,52.72,0,0,0,4.82,4.91C98.64,399,98.74,398.89,98.68,398.81Z" transform="translate(-18.39 -22.72)"/><path id="_Контур_51" data-name="&lt;Контур&gt;" class="cls-1" d="M98.93,395.92c-.8-2.05-3-3.88-4.8-5.08A.08.08,0,0,0,94,391a23.6,23.6,0,0,1,2.64,2.49c.73.82,1.3,1.81,2.07,2.59A.11.11,0,0,0,98.93,395.92Z" transform="translate(-18.39 -22.72)"/><path id="_Контур_52" data-name="&lt;Контур&gt;" class="cls-1" d="M99.41,392.78a24.76,24.76,0,0,0-4.68-4.94c-.06-.06-.17.05-.1.11,1.65,1.55,3,3.39,4.69,4.9C99.36,392.9,99.44,392.84,99.41,392.78Z" transform="translate(-18.39 -22.72)"/><path id="_Контур_53" data-name="&lt;Контур&gt;" class="cls-1" d="M99.87,390.23a21.12,21.12,0,0,0-4.33-4.69c-.07-.06-.15.06-.08.12,1.57,1.45,2.82,3.13,4.29,4.65C99.8,390.36,99.91,390.3,99.87,390.23Z" transform="translate(-18.39 -22.72)"/><path id="_Контур_54" data-name="&lt;Контур&gt;" class="cls-1" d="M99.82,387.2A22.75,22.75,0,0,0,96,383.12c-.07-.06-.18.06-.11.12,1.37,1.28,2.53,2.74,3.87,4A.07.07,0,0,0,99.82,387.2Z" transform="translate(-18.39 -22.72)"/><path id="_Контур_55" data-name="&lt;Контур&gt;" class="cls-1" d="M96.8,381.79h0c1.26,1.51,2.47,3.09,3.82,4.53a0,0,0,0,0,.06,0C99.46,384.72,98.08,383.27,96.8,381.79Z" transform="translate(-18.39 -22.72)"/><path id="_Контур_56" data-name="&lt;Контур&gt;" class="cls-1" d="M98.23,380.26s0,0,0,0l2.8,3.21s0,0,0,0Z" transform="translate(-18.39 -22.72)"/><path id="_Контур_57" data-name="&lt;Контур&gt;" class="cls-1" d="M101.55,379.79A29.72,29.72,0,0,0,96,373.54s-.11,0-.07.06c2,2,3.6,4.24,5.53,6.25C101.5,379.89,101.58,379.85,101.55,379.79Z" transform="translate(-18.39 -22.72)"/><path id="_Контур_58" data-name="&lt;Контур&gt;" class="cls-1" d="M97.25,371.38c-.05,0-.13,0-.08.09a55.48,55.48,0,0,1,4.74,5.49s.11,0,.08-.05A22.41,22.41,0,0,0,97.25,371.38Z" transform="translate(-18.39 -22.72)"/><path id="_Контур_59" data-name="&lt;Контур&gt;" class="cls-1" d="M101.91,373.81a39.7,39.7,0,0,0-4-4.58s-.11,0-.07.06c1.36,1.5,2.59,3.14,4,4.59A.06.06,0,0,0,101.91,373.81Z" transform="translate(-18.39 -22.72)"/><path id="_Контур_60" data-name="&lt;Контур&gt;" class="cls-1" d="M102.67,371.89a42.13,42.13,0,0,0-4.77-6c-.06-.07-.17,0-.11.09,1.66,1.94,3.09,4.1,4.78,6C102.61,372,102.71,371.95,102.67,371.89Z" transform="translate(-18.39 -22.72)"/><path id="_Контур_61" data-name="&lt;Контур&gt;" class="cls-1" d="M103.64,369.79A29.67,29.67,0,0,0,99,363.6c-.07-.07-.18,0-.12.1,1.68,2,3,4.15,4.6,6.17A.08.08,0,0,0,103.64,369.79Z" transform="translate(-18.39 -22.72)"/><path id="_Контур_62" data-name="&lt;Контур&gt;" class="cls-1" d="M101.47,363.11A32.55,32.55,0,0,0,98,359.63c-.06-.05-.15,0-.1.1,2,2.27,3.94,4.54,5.78,7a.09.09,0,0,0,.16-.07C103.58,365.28,102.33,364.11,101.47,363.11Z" transform="translate(-18.39 -22.72)"/><path id="_Контур_63" data-name="&lt;Контур&gt;" class="cls-1" d="M104.13,362.95a44.8,44.8,0,0,0-6-7.11c-.06-.06-.16,0-.1.09,2,2.31,3.83,4.88,6,7.09C104.07,363.07,104.18,363,104.13,362.95Z" transform="translate(-18.39 -22.72)"/><path id="_Контур_64" data-name="&lt;Контур&gt;" class="cls-1" d="M104.24,359.92a25.29,25.29,0,0,0-4.38-5.5c-.07-.07-.19,0-.12.1,1.59,1.74,2.87,3.68,4.35,5.5C104.16,360.09,104.29,360,104.24,359.92Z" transform="translate(-18.39 -22.72)"/><path id="_Контур_65" data-name="&lt;Контур&gt;" class="cls-1" d="M105.18,357.51A56.83,56.83,0,0,0,99.42,350a.07.07,0,0,0-.11.09c2,2.42,3.79,5,5.7,7.52C105.08,357.7,105.24,357.61,105.18,357.51Z" transform="translate(-18.39 -22.72)"/><path id="_Контур_66" data-name="&lt;Контур&gt;" class="cls-1" d="M105.69,353.5c-1.33-3-4-5.62-6.25-7.86-.05,0-.13,0-.08.07,1.14,1.22,2.23,2.5,3.26,3.82s1.86,2.8,2.94,4.07A.08.08,0,0,0,105.69,353.5Z" transform="translate(-18.39 -22.72)"/><path id="_Контур_67" data-name="&lt;Контур&gt;" class="cls-1" d="M105.72,349.87a32.91,32.91,0,0,0-6.11-7.1s-.08,0-.05,0c2.14,2.29,4,4.81,6,7.15C105.64,350,105.76,350,105.72,349.87Z" transform="translate(-18.39 -22.72)"/><path id="_Контур_68" data-name="&lt;Контур&gt;" class="cls-1" d="M100.94,340.36s-.11,0-.07.06c2,2.3,3.71,4.89,5.73,7.18,0,0,.11,0,.08-.05A43.39,43.39,0,0,0,100.94,340.36Z" transform="translate(-18.39 -22.72)"/><path id="_Контур_69" data-name="&lt;Контур&gt;" class="cls-1" d="M107.12,344.67a54,54,0,0,0-6.23-8.52,0,0,0,0,0-.05,0c2.16,2.79,4.06,5.73,6.09,8.6C107,344.89,107.18,344.78,107.12,344.67Z" transform="translate(-18.39 -22.72)"/><path id="_Контур_70" data-name="&lt;Контур&gt;" class="cls-1" d="M107.84,341.14c-1-3-3.85-5.77-6.13-7.87,0,0,0,0,0,0a32.74,32.74,0,0,1,3.27,3.76c1,1.33,1.71,2.88,2.75,4.16C107.77,341.31,107.87,341.23,107.84,341.14Z" transform="translate(-18.39 -22.72)"/><path id="_Контур_71" data-name="&lt;Контур&gt;" class="cls-1" d="M108.73,337.56c-1.54-3.12-4.29-6-6.59-8.55-.09-.11-.26,0-.17.14,1.18,1.35,2.33,2.73,3.43,4.16s2,3,3.21,4.33A.08.08,0,0,0,108.73,337.56Z" transform="translate(-18.39 -22.72)"/><path id="_Контур_72" data-name="&lt;Контур&gt;" class="cls-1" d="M109.06,333.58c-1.76-3.43-4.42-6.55-6.85-9.53-.06-.07-.17,0-.11.09,2.32,3.12,4.34,6.54,6.82,9.52A.08.08,0,0,0,109.06,333.58Z" transform="translate(-18.39 -22.72)"/><path id="_Контур_73" data-name="&lt;Контур&gt;" class="cls-1" d="M110.28,331.17c-1.34-3-3.65-5.8-5.65-8.37-.15-.2-.45.05-.3.25,2.07,2.65,3.69,5.61,5.74,8.26C110.15,331.42,110.33,331.3,110.28,331.17Z" transform="translate(-18.39 -22.72)"/><g id="_Группа_4" data-name="&lt;Группа&gt;"><path id="_Контур_74" data-name="&lt;Контур&gt;" class="cls-1" d="M107.42,322.47c.86,1.24,1.68,2.51,2.48,3.76,0,0,.07,0,.06,0A39.43,39.43,0,0,0,107.42,322.47Z" transform="translate(-18.39 -22.72)"/><path id="_Контур_75" data-name="&lt;Контур&gt;" class="cls-1" d="M103.83,318c.2.2.39.42.59.63l-.53-.67S103.8,318,103.83,318Z" transform="translate(-18.39 -22.72)"/><path id="_Контур_76" data-name="&lt;Контур&gt;" class="cls-1" d="M104.41,318.66c1,1.28,2,2.53,3,3.82A35.9,35.9,0,0,0,104.41,318.66Z" transform="translate(-18.39 -22.72)"/></g><path id="_Контур_77" data-name="&lt;Контур&gt;" class="cls-1" d="M109.95,322.62a31.13,31.13,0,0,0-6.21-7.89c-.06-.06-.18,0-.11.09a73.59,73.59,0,0,1,6.17,7.9C109.86,322.8,110,322.71,109.95,322.62Z" transform="translate(-18.39 -22.72)"/><path id="_Контур_78" data-name="&lt;Контур&gt;" class="cls-1" d="M110.07,318.05a27.58,27.58,0,0,0-2.43-3.34,45.72,45.72,0,0,0-2.91-3.54.11.11,0,0,0-.17.14c.82,1.19,1.79,2.28,2.67,3.42a41.8,41.8,0,0,0,2.69,3.4C110,318.21,110.12,318.14,110.07,318.05Z" transform="translate(-18.39 -22.72)"/><path id="_Контур_79" data-name="&lt;Контур&gt;" class="cls-1" d="M111.52,315A26.68,26.68,0,0,0,105,306.8s-.08,0-.05.06a100.52,100.52,0,0,1,6.45,8.2C111.45,315.12,111.56,315.05,111.52,315Z" transform="translate(-18.39 -22.72)"/><path id="_Контур_80" data-name="&lt;Контур&gt;" class="cls-1" d="M105.72,304.78s0,0,0,0c1.61,2,3.39,3.92,5,5.92,0,0,.09,0,.06,0A27.48,27.48,0,0,0,105.72,304.78Z" transform="translate(-18.39 -22.72)"/><path id="_Контур_81" data-name="&lt;Контур&gt;" class="cls-1" d="M108.23,303.68h0l2.22,2.93s.05,0,0,0Z" transform="translate(-18.39 -22.72)"/><path id="_Контур_82" data-name="&lt;Контур&gt;" class="cls-1" d="M112.47,304.4a29.32,29.32,0,0,0-6.2-8.65c0-.05-.13,0-.08.07a55.19,55.19,0,0,1,6.16,8.64A.07.07,0,0,0,112.47,304.4Z" transform="translate(-18.39 -22.72)"/><path id="_Контур_83" data-name="&lt;Контур&gt;" class="cls-1" d="M112.58,300.39a32.11,32.11,0,0,0-6-7.93c-.07-.08-.2,0-.13.11,2.25,2.49,4,5.26,6,7.91A.08.08,0,0,0,112.58,300.39Z" transform="translate(-18.39 -22.72)"/><path id="_Контур_84" data-name="&lt;Контур&gt;" class="cls-1" d="M113.32,296.38a84.32,84.32,0,0,0-5.55-6.67.1.1,0,0,0-.15.13,84.29,84.29,0,0,0,5.57,6.65A.08.08,0,0,0,113.32,296.38Z" transform="translate(-18.39 -22.72)"/><path id="_Контур_85" data-name="&lt;Контур&gt;" class="cls-1" d="M113.1,293.63c-1.67-2.39-3.54-4.66-5.33-7,0-.06-.14,0-.09.08,1.76,2.32,3.46,4.73,5.33,7C113.06,293.75,113.14,293.69,113.1,293.63Z" transform="translate(-18.39 -22.72)"/><path id="_Контур_86" data-name="&lt;Контур&gt;" class="cls-1" d="M108.3,284.8a0,0,0,0,0,0,0c1.7,2.11,3.24,4.32,4.85,6.5,0,0,.1,0,.07,0A60.28,60.28,0,0,0,108.3,284.8Z" transform="translate(-18.39 -22.72)"/><path id="_Контур_87" data-name="&lt;Контур&gt;" class="cls-1" d="M109.5,282.82s-.06,0,0,0c1.62,2.1,3.05,4.33,4.61,6.47,0,0,.09,0,.06,0A60.09,60.09,0,0,0,109.5,282.82Z" transform="translate(-18.39 -22.72)"/><path id="_Контур_88" data-name="&lt;Контур&gt;" class="cls-1" d="M114.66,287.36c-1.13-2.69-3.46-5.15-5.45-7.24-.07-.08-.2,0-.13.11a42.69,42.69,0,0,1,2.87,3.5c.89,1.21,1.6,2.57,2.55,3.73A.09.09,0,0,0,114.66,287.36Z" transform="translate(-18.39 -22.72)"/><path id="_Контур_89" data-name="&lt;Контур&gt;" class="cls-1" d="M114.39,283.66a29,29,0,0,0-5.4-6.72c-.07-.07-.19,0-.12.1,2,2.11,3.53,4.51,5.38,6.71A.08.08,0,0,0,114.39,283.66Z" transform="translate(-18.39 -22.72)"/><path id="_Контур_90" data-name="&lt;Контур&gt;" class="cls-1" d="M114.8,280.25a66.31,66.31,0,0,0-5.09-6.74c-.06-.08-.18,0-.12.1a66,66,0,0,0,5.1,6.71C114.74,280.38,114.84,280.32,114.8,280.25Z" transform="translate(-18.39 -22.72)"/><path id="_Контур_91" data-name="&lt;Контур&gt;" class="cls-1" d="M115.5,278.25a41.12,41.12,0,0,0-5.69-8,0,0,0,0,0-.08.06c2.07,2.55,3.73,5.35,5.68,8C115.45,278.36,115.53,278.31,115.5,278.25Z" transform="translate(-18.39 -22.72)"/><path id="_Контур_92" data-name="&lt;Контур&gt;" class="cls-1" d="M115.71,275.68a35.73,35.73,0,0,0-4.83-7.07,0,0,0,0,0,0,0,83.58,83.58,0,0,1,4.76,7.08C115.64,275.8,115.74,275.75,115.71,275.68Z" transform="translate(-18.39 -22.72)"/><path id="_Контур_93" data-name="&lt;Контур&gt;" class="cls-1" d="M115.84,273.08a34.64,34.64,0,0,0-4.09-5.84s-.1,0-.07.06c1.41,1.9,2.58,4,4,5.87A.08.08,0,0,0,115.84,273.08Z" transform="translate(-18.39 -22.72)"/><path id="_Контур_94" data-name="&lt;Контур&gt;" class="cls-1" d="M116.61,270.27a56.91,56.91,0,0,0-5.42-7.13.09.09,0,0,0-.14.11c1.89,2.31,3.55,4.79,5.4,7.12C116.52,270.45,116.67,270.36,116.61,270.27Z" transform="translate(-18.39 -22.72)"/><path id="_Контур_95" data-name="&lt;Контур&gt;" class="cls-1" d="M116.32,267.14a37.81,37.81,0,0,0-5.29-7.8c-.06-.08-.18,0-.12.1,1.94,2.49,3.46,5.21,5.25,7.8C116.23,267.33,116.37,267.24,116.32,267.14Z" transform="translate(-18.39 -22.72)"/><path id="_Контур_96" data-name="&lt;Контур&gt;" class="cls-1" d="M112.82,258.29c-.08-.12-.25,0-.17.14,1.79,2.5,3.47,5.15,5.48,7.48,0,0,.1,0,.07,0C116.62,263.22,114.63,260.78,112.82,258.29Z" transform="translate(-18.39 -22.72)"/><path id="_Контур_97" data-name="&lt;Контур&gt;" class="cls-1" d="M117.88,261.89a20.91,20.91,0,0,0-4.87-7.47c0-.05-.13,0-.08.07a41,41,0,0,1,4.85,7.44A.06.06,0,0,0,117.88,261.89Z" transform="translate(-18.39 -22.72)"/><path id="_Контур_98" data-name="&lt;Контур&gt;" class="cls-1" d="M118.11,258.46c-1-2.73-3.37-5.17-5.45-7.1-.06-.05-.15,0-.09.08a33.73,33.73,0,0,1,2.88,3.42c.88,1.2,1.57,2.54,2.5,3.7C118,258.64,118.14,258.55,118.11,258.46Z" transform="translate(-18.39 -22.72)"/><path id="_Контур_99" data-name="&lt;Контур&gt;" class="cls-1" d="M117.93,255.35a23.33,23.33,0,0,0-4.46-6.09.07.07,0,0,0-.11.09c.8,1,1.56,2,2.29,3s1.32,2.15,2.11,3.11A.1.1,0,0,0,117.93,255.35Z" transform="translate(-18.39 -22.72)"/><path id="_Контур_100" data-name="&lt;Контур&gt;" class="cls-1" d="M117.18,250.87a9.35,9.35,0,0,0-2.37-2.89.08.08,0,0,0-.1,0,.55.55,0,0,0-.08-.12s-.1,0-.07.06l.09.12a.09.09,0,0,0,0,.12l.1.11a.69.69,0,0,1,0,.12h0s0,0,0-.07a13.61,13.61,0,0,1,1.1,1.21c.38.48.68,1,1.07,1.5A.12.12,0,0,0,117.18,250.87Z" transform="translate(-18.39 -22.72)"/><path id="_Контур_101" data-name="&lt;Контур&gt;" class="cls-1" d="M119,249.79a14.33,14.33,0,0,0-1.88-2.86,27.11,27.11,0,0,0-2.42-2.91.09.09,0,0,0-.14.12c.68,1,1.43,1.92,2.14,2.89a24.55,24.55,0,0,0,2.16,2.86A.09.09,0,0,0,119,249.79Z" transform="translate(-18.39 -22.72)"/><path id="_Контур_102" data-name="&lt;Контур&gt;" class="cls-1" d="M118.94,246.67a26.6,26.6,0,0,0-4.18-5.46,0,0,0,0,0-.08.06c1.45,1.76,2.63,3.76,4.1,5.49A.09.09,0,0,0,118.94,246.67Z" transform="translate(-18.39 -22.72)"/><path id="_Контур_103" data-name="&lt;Контур&gt;" class="cls-1" d="M119.35,244.36a32,32,0,0,0-4.41-6.12c-.06-.07-.16,0-.11.09,1.47,2,2.75,4.26,4.38,6.12A.08.08,0,0,0,119.35,244.36Z" transform="translate(-18.39 -22.72)"/><path id="_Контур_104" data-name="&lt;Контур&gt;" class="cls-1" d="M119.33,241c-1.13-2.09-2.58-4-3.9-6,0,0-.11,0-.08.05,1.24,2,2.41,4.16,3.85,6A.08.08,0,0,0,119.33,241Z" transform="translate(-18.39 -22.72)"/><path id="_Контур_105" data-name="&lt;Контур&gt;" class="cls-1" d="M119.11,237.93a23,23,0,0,0-4-6.79c0-.05-.14,0-.1.06,1.36,2.24,2.55,4.59,3.93,6.81A.09.09,0,0,0,119.11,237.93Z" transform="translate(-18.39 -22.72)"/><path id="_Контур_106" data-name="&lt;Контур&gt;" class="cls-1" d="M119.76,235.57a25.65,25.65,0,0,0-4.35-6.86.09.09,0,0,0-.14.11,58.31,58.31,0,0,1,4.35,6.81A.07.07,0,0,0,119.76,235.57Z" transform="translate(-18.39 -22.72)"/><path id="_Контур_107" data-name="&lt;Контур&gt;" class="cls-1" d="M120.27,232.85a21.71,21.71,0,0,0-4.67-7.35.11.11,0,0,0-.16.13,62.26,62.26,0,0,1,4.65,7.27C120.14,233,120.31,233,120.27,232.85Z" transform="translate(-18.39 -22.72)"/><path id="_Контур_108" data-name="&lt;Контур&gt;" class="cls-1" d="M121.08,230.07a39,39,0,0,0-5.11-8.68c0-.06-.15,0-.11.07,1.77,2.84,3.2,5.94,5.06,8.71C121,230.27,121.11,230.17,121.08,230.07Z" transform="translate(-18.39 -22.72)"/><path id="_Контур_109" data-name="&lt;Контур&gt;" class="cls-1" d="M120.66,225.86a35.26,35.26,0,0,0-4.36-7.26c0-.06-.12,0-.08.07,1.6,2.34,2.87,4.82,4.3,7.25A.08.08,0,0,0,120.66,225.86Z" transform="translate(-18.39 -22.72)"/><path id="_Контур_110" data-name="&lt;Контур&gt;" class="cls-1" d="M117.26,215.19c-.11-.14-.31,0-.21.18a90.41,90.41,0,0,1,4.46,8c.07.13.31.08.26-.08A26.5,26.5,0,0,0,117.26,215.19Z" transform="translate(-18.39 -22.72)"/><path id="_Контур_111" data-name="&lt;Контур&gt;" class="cls-1" d="M116.84,211.41c-.06-.08-.18,0-.12.1,2,2.56,3.28,5.38,4.93,8.14,0,.06.15,0,.13,0C120.9,216.61,118.8,213.77,116.84,211.41Z" transform="translate(-18.39 -22.72)"/><path id="_Контур_112" data-name="&lt;Контур&gt;" class="cls-1" d="M122.27,215.92a42,42,0,0,0-4.78-7.57c-.09-.13-.27,0-.19.16,1.67,2.45,3.07,5.11,4.82,7.5C122.19,216.09,122.31,216,122.27,215.92Z" transform="translate(-18.39 -22.72)"/><path id="_Контур_113" data-name="&lt;Контур&gt;" class="cls-1" d="M117.53,204.3a0,0,0,0,0-.08.06c.93,1.44,1.9,2.84,2.75,4.34.68,1.21,1.17,2.54,2,3.68.05.08.18,0,.16-.08C121.72,209.48,119.46,206.38,117.53,204.3Z" transform="translate(-18.39 -22.72)"/><path id="_Контур_114" data-name="&lt;Контур&gt;" class="cls-1" d="M122.08,208.12a29.06,29.06,0,0,0-4.42-7.31c-.09-.12-.27,0-.18.15,1.69,2.31,3,4.81,4.45,7.22A.08.08,0,0,0,122.08,208.12Z" transform="translate(-18.39 -22.72)"/><path id="_Контур_115" data-name="&lt;Контур&gt;" class="cls-1" d="M117.74,197.28a.09.09,0,0,0-.14.12,42,42,0,0,1,3,4.25c.74,1.2,1.31,2.5,2.09,3.67.05.08.19,0,.16-.08C121.92,202.32,119.71,199.56,117.74,197.28Z" transform="translate(-18.39 -22.72)"/><path id="_Контур_116" data-name="&lt;Контур&gt;" class="cls-1" d="M122.7,201.64a86,86,0,0,0-4.4-7.52c-.05-.09-.2,0-.15.07a86.39,86.39,0,0,0,4.42,7.53C122.62,201.79,122.73,201.72,122.7,201.64Z" transform="translate(-18.39 -22.72)"/><path id="_Контур_117" data-name="&lt;Контур&gt;" class="cls-1" d="M123.22,199.22a35.5,35.5,0,0,0-5.2-9.14s-.11,0-.08.05c1.86,3,3.41,6.1,5.13,9.17A.09.09,0,0,0,123.22,199.22Z" transform="translate(-18.39 -22.72)"/><path id="_Контур_118" data-name="&lt;Контур&gt;" class="cls-1" d="M119,188.26c-.08-.1-.22,0-.15.13a74.73,74.73,0,0,1,4,7.68c.05.11.24.06.21-.07A23.81,23.81,0,0,0,119,188.26Z" transform="translate(-18.39 -22.72)"/><path id="_Контур_119" data-name="&lt;Контур&gt;" class="cls-1" d="M119.73,187c-.07-.1-.24,0-.18.11,1.24,2,2.18,4.18,3.37,6.21,0,.08.2.05.17-.05A22.88,22.88,0,0,0,119.73,187Z" transform="translate(-18.39 -22.72)"/><path id="_Контур_120" data-name="&lt;Контур&gt;" class="cls-1" d="M121,186.62a.11.11,0,0,0-.17.14,33.79,33.79,0,0,1,2.37,4.26.11.11,0,0,0,.21-.07A9,9,0,0,0,121,186.62Z" transform="translate(-18.39 -22.72)"/><path id="_Контур_121" data-name="&lt;Контур&gt;" class="cls-1" d="M124.16,188.16l-.69-1.18c-.11-.18-.4-.05-.3.14l.64,1.29a3.14,3.14,0,0,0,.65,1c.09.08.22,0,.2-.13A3.26,3.26,0,0,0,124.16,188.16Z" transform="translate(-18.39 -22.72)"/></g><path id="_Контур_122" data-name="&lt;Контур&gt;" class="cls-1" d="M119.18,105.7a.91.91,0,0,0,.27-1.22,1.41,1.41,0,0,0-.7-1.35,1.32,1.32,0,0,0-1.41,0,.14.14,0,0,0-.22-.16,1.73,1.73,0,0,0-.45,1.91,1.46,1.46,0,0,0,.36.58,1.06,1.06,0,0,0,.75.72,1,1,0,0,0,.82-.09.2.2,0,0,0,.17-.14l.07-.08A1.39,1.39,0,0,0,119.18,105.7Z" transform="translate(-18.39 -22.72)"/><path id="_Контур_123" data-name="&lt;Контур&gt;" class="cls-1" d="M119.95,175.33a44.5,44.5,0,0,0-4-3.83c-.12-.11-.31.05-.2.16a44.68,44.68,0,0,0,4.12,3.79A.08.08,0,0,0,119.95,175.33Z" transform="translate(-18.39 -22.72)"/><path id="_Контур_124" data-name="&lt;Контур&gt;" class="cls-1" d="M119.14,171.64a28.62,28.62,0,0,0-2.64-2.57c-.05,0-.14,0-.08.07a28.76,28.76,0,0,0,2.63,2.61C119.11,171.8,119.19,171.71,119.14,171.64Z" transform="translate(-18.39 -22.72)"/><path id="_Контур_125" data-name="&lt;Контур&gt;" class="cls-1" d="M117,166.92a.09.09,0,0,0-.14.11,6.13,6.13,0,0,0,.68.76.06.06,0,0,0,.08-.07A6.13,6.13,0,0,0,117,166.92Z" transform="translate(-18.39 -22.72)"/><path id="_Составной_контур_6" data-name="&lt;Составной контур&gt;" class="cls-1" d="M77.32,128.58a21.78,21.78,0,0,0-4,2,98.68,98.68,0,0,0-17.91,3.26.47.47,0,0,0-.08.89l1.43.71a22.83,22.83,0,0,0-11.85,10.21c-.17.3-.06.85.38.83l1.92-.08a28.18,28.18,0,0,0-5,11.41.54.54,0,0,0,.87.45,3.94,3.94,0,0,1,.73-.67,22.29,22.29,0,0,0-1.53,16.31.54.54,0,0,0,1,.21l.63-1a25.8,25.8,0,0,0,4.4,13.28.57.57,0,0,0,.9,0,94,94,0,0,0,7.65-13.82l.9.83a.57.57,0,0,0,.7,0A18.38,18.38,0,0,0,63.52,166l1.16.8a.58.58,0,0,0,.86-.26c1.71-3.56,3.33-7.16,4.84-10.81,1.43-3.45,2.31-7.78,4.36-10.89,2.52-3.82,1.88-9.68,1.55-14.3a16.07,16.07,0,0,1,3.12-1.33c0,.08.11.13.15.06C80.42,127.66,77.77,128.42,77.32,128.58ZM74.87,143c-.61,1-.86.55-1.22,1.09a16.46,16.46,0,0,0-1.18,3.21q-3.42,9.23-7.68,18.11l-1.2-.84a.58.58,0,0,0-.86.27c-.64,1.88-3.33,8.64-5.87,6.31-.29-.27-.74,0-.87.27A95.72,95.72,0,0,1,48.61,185a24.49,24.49,0,0,1-3.8-13.61c0-.49-.67-.85-1-.36l-.92,1.46a21,21,0,0,1,2.42-15.69.53.53,0,0,0-.65-.78,6.14,6.14,0,0,0-1.18.51,27.12,27.12,0,0,1,5.2-10.39.53.53,0,0,0-.39-.84l-2,.09A22.31,22.31,0,0,1,58.12,136c.43-.15.3-.73,0-.89l-1.29-.62c5.09-1.34,10.24-2.28,15.42-3.14A46.71,46.71,0,0,0,66,136.53l-.37.39a14.54,14.54,0,0,0-11,4.21c-.14.14,0,.45.21.32a28.29,28.29,0,0,1,5-2.75A22.11,22.11,0,0,1,65,137.58a60.75,60.75,0,0,0-6.9,8.68l-.07,0a19.23,19.23,0,0,0-8.6,3.5c-.18.13,0,.37.19.31a68.23,68.23,0,0,0,8.24-3.42,76.44,76.44,0,0,0-8.12,16.84c-.07.19.23.37.33.17,1.54-2.88,3-5.8,4.45-8.69a123.6,123.6,0,0,1,2.34,12.4.16.16,0,0,0,.31,0c.69-4.29-.42-9.22-2.22-13.2a77,77,0,0,1,6.74-11.08,49.66,49.66,0,0,1,7.44-8,41.87,41.87,0,0,1,3.95-3c.17-.12,1.2-.64,2.38-1.22a51.49,51.49,0,0,1,.1,6.14C75.47,138.55,75.65,141.73,74.87,143Z" transform="translate(-18.39 -22.72)"/><path id="_Контур_126" data-name="&lt;Контур&gt;" class="cls-1" d="M61.6,147.6c-.27-.61-1.21-.17-.94.44,1.23,2.8,1.83,5.87,3.12,8.63.08.18.4.14.4-.07C64.19,153.54,62.8,150.36,61.6,147.6Z" transform="translate(-18.39 -22.72)"/><path id="_Контур_127" data-name="&lt;Контур&gt;" class="cls-1" d="M65.57,138.9a.11.11,0,0,0-.19.12,27.07,27.07,0,0,1,1.91,4.46c.42,1.41.54,2.87.9,4.29a.19.19,0,0,0,.38,0C68.86,144.76,67.37,141.22,65.57,138.9Z" transform="translate(-18.39 -22.72)"/><path id="_Контур_128" data-name="&lt;Контур&gt;" class="cls-1" d="M53.07,153.93a13.24,13.24,0,0,0-8.46,7.7.18.18,0,0,0,.32.17,27,27,0,0,1,3.6-4.31,24.88,24.88,0,0,1,4.68-3.12C53.41,154.24,53.33,153.85,53.07,153.93Z" transform="translate(-18.39 -22.72)"/><path id="_Контур_129" data-name="&lt;Контур&gt;" class="cls-1" d="M72.7,107.58l-.23-.76a.21.21,0,0,0-.32-.13,32.22,32.22,0,0,0-8.27-8.86c-.21-.14-.49.14-.31.33a92.17,92.17,0,0,1,8.27,10C72.2,108.63,72.88,108.09,72.7,107.58Z" transform="translate(-18.39 -22.72)"/><path class="cls-1" d="M72,116.79a25.43,25.43,0,0,1-19.29,7.14l.94-2.29c.43-1-.77-1.81-1.65-1.65a34.48,34.48,0,0,1-9.66.41,12.17,12.17,0,0,0,2.43-3.53c.45-1-.32-2.47-1.55-2a16.41,16.41,0,0,1-12,.12,14.79,14.79,0,0,0,4-3.19,1.26,1.26,0,0,0-.88-2.13,12,12,0,0,1-8.29-3.88,18.35,18.35,0,0,0,3.3-2.27.76.76,0,0,0,.28-.82c.55-.25.87-.93.28-1.4A27.71,27.71,0,0,1,23.33,94c-1.6-2.64-2.13-5.61-3.5-8.3-.18-.36-.67-.15-.7.19-.46,5.91,4.6,12.56,9,16.24l-.08,0-3.86,2.29c-.55.23-1.05.91-.62,1.51a14.31,14.31,0,0,0,8.1,5.68,13.35,13.35,0,0,1-3.88,2,1.32,1.32,0,0,0-.31,2.39,18.66,18.66,0,0,0,13,2.45,10.31,10.31,0,0,1-2,1.63c-.84.55-.87,2.17.31,2.36a42.45,42.45,0,0,0,11.45.41l-.7,1.8c-.35.88.51,1.56,1.26,1.65a27.54,27.54,0,0,0,23.22-7.47C75.44,117.55,73.37,115.49,72,116.79Z" transform="translate(-18.39 -22.72)"/><path class="cls-1" d="M76.54,130.12c.06-.81-1.16-.78-1.25,0-.4,3.33.06,6.76-.75,10a53.61,53.61,0,0,1-2.93,7.64c-2.29,5.48-4.71,10.91-7,16.38l-.48-.76a.67.67,0,0,0-.09-.1c0-.16.05-.31.06-.47.06-.73-1-.76-1.2-.16-1.44,3.8-2.58,7-5.06,10.08a6.9,6.9,0,0,1-.79-1.57.82.82,0,0,0-1.48.19c-1.44,5.32-4.12,9.47-7.1,14-.24.37.28.73.59.45,3.58-3.18,5.9-7.59,7.45-12.1a6.25,6.25,0,0,0,.61.75.84.84,0,0,0,1.3.17,23.62,23.62,0,0,0,5.24-9.29l.43.76a.75.75,0,0,0,1.29,0c3-6.16,5.57-12.49,8.09-18.84a40.93,40.93,0,0,0,2.75-8.18C76.68,136.18,76.31,133.09,76.54,130.12Z" transform="translate(-18.39 -22.72)"/><path class="cls-1" d="M72.14,131.58c-7.65,6-13.38,14.81-18.54,22.95-5.32,8.39-6.74,18.84-5.66,28.64,0,.17.3.25.34,0,.75-4.41.74-8.89,1.2-13.33a33.92,33.92,0,0,1,5.64-15.44,132.46,132.46,0,0,1,17.62-22.27C73.13,131.78,72.56,131.25,72.14,131.58Z" transform="translate(-18.39 -22.72)"/><path class="cls-1" d="M121.91,411.28c-2.1-2.85-1.3-7-2.39-10.31a12.21,12.21,0,0,0-4.16-6.11c-3.53-2.61-9.7-2.55-12.14,1.51,0,.07,0,.14.11.11,5.6-2.68,11.48-2.54,14.17,4.06,1.51,3.72.5,8.28,3,11.57C121.11,413,122.54,412.14,121.91,411.28Z" transform="translate(-18.39 -22.72)"/><path class="cls-1" d="M140,364a.57.57,0,0,0,1-.36.87.87,0,0,0-.16-.43,3.15,3.15,0,0,0-2.5-1.71.49.49,0,0,0-.51.37,11.16,11.16,0,0,0-9.23-1.33c-.33.11-.38.65,0,.72,2.67.54,5.31-.1,7.82,1.36,3,1.74,3,5.15,2.86,8.22,0,.87,1.3.86,1.34,0,.13-2.3.13-4.74-.89-6.72A.54.54,0,0,0,140,364Z" transform="translate(-18.39 -22.72)"/><path class="cls-1" d="M127.9,187.43a.49.49,0,0,0-.79-.37,19.33,19.33,0,0,0-8.06-1.66l-.11,0c-3.86-.91-8.35-1.4-11.61.25a.09.09,0,0,0,0,.17,22.62,22.62,0,0,0,5.2.73c-6.75,37.09-10.65,74.85-15.17,112.26-2.28,18.88-5.34,37.92-6,56.95-.3,9.09-.23,18.18-.94,27.25-.81,10.39-2.49,20.61-4.15,30.89-.24,1.48,2,2.15,2.29.63,3.64-17.85,4.42-36,4.77-54.18.38-19.27,3.25-38.46,5.37-57.6,4.3-38.86,9.6-77.47,15.43-116.12a27.58,27.58,0,0,1,4.91.57,27.12,27.12,0,0,1,7.5,2.7c-2.39,25.53-4.57,51.07-7.41,76.56-2.93,26.3-6.73,52.47-10,78.72-.11.87,1.39,1.08,1.53.21,4.23-25.82,7.11-51.94,10-77.94,2.8-25.55,5.39-51.18,7-76.85a10.93,10.93,0,0,1,3.7,4.42c.39.86,1.52.31,1.6-.43C133.36,191.38,131,189,127.9,187.43Z" transform="translate(-18.39 -22.72)"/><path class="cls-1" d="M107,147c-.66-.22-.95.7-.45,1.06,5,3.61,7.14,9.6,2.42,14.65-.74.79.45,2,1.19,1.19C114.84,158.91,114.29,149.43,107,147Z" transform="translate(-18.39 -22.72)"/><path class="cls-1" d="M101.08,127.42c.79-.57,0-1.91-.77-1.32-2.55,1.87-5.2,4-6.22,6.92,0-.16.09-.32.14-.48s-.25-.35-.37-.16c-.7,1.1-1.48,3.34-.62,4.53a.19.19,0,0,0,.34,0,2.47,2.47,0,0,0,.11-.77c0,.18,0,.35,0,.53.57,4.1,3.35,7.34,2,11.76a7.17,7.17,0,0,1-7.35,4.81q-7.13-.25-1.72-8.08a9.61,9.61,0,0,0,1.33.1.19.19,0,0,0,.13-.32c-2.32-2.25-5.63-1.89-6.81,1.32-1.62,4.39,2.07,8.24,6.14,9,4.47.8,8.6-1.16,9.83-5.68a14.11,14.11,0,0,0-.43-7.65c-.46-1.61-1.4-3.25-1.63-4.9C94.59,132.23,97.84,129.76,101.08,127.42Z" transform="translate(-18.39 -22.72)"/><path class="cls-1" d="M102.24,176.18A13.29,13.29,0,0,1,94,170.36a9.75,9.75,0,0,1-1.11-2.31c-.73-2.56.71-5.25,3.47-4.89,3,.39,2.41,3.15,3.52,5.14a.13.13,0,0,0,.23-.06c.19-2.54.09-5.19-2.72-6.27a4.61,4.61,0,0,0-5.65,2.25c-3,6,5.19,12.25,10.06,13.56A.83.83,0,0,0,102.24,176.18Z" transform="translate(-18.39 -22.72)"/><path class="cls-1" d="M120.6,175c-3.35,2.67-7.75,2.46-11.79,2.13a.85.85,0,0,0-.76.44c0,.06-.17.28-.14.4l.05.28a.9.9,0,0,0,.85.65c4.55.48,9.37.53,12.93-2.75C122.54,175.45,121.4,174.39,120.6,175Z" transform="translate(-18.39 -22.72)"/><path class="cls-1" d="M134.28,74.32c-5.65-1.24-6.08-8.08-1.47-11,.07,0,0-.17-.06-.14-6.63,2.27-5.34,11.28,1,12.9C135,76.43,135.46,74.58,134.28,74.32Z" transform="translate(-18.39 -22.72)"/><path class="cls-1" d="M143.07,27.95c-3.39,2.26-4.62,6.51-5.69,10.27a42.07,42.07,0,0,0-1.49,16.64c.12.92,1.51,1,1.5,0-.08-8-.39-20.32,6.32-26.07C144.17,28.39,143.57,27.61,143.07,27.95Z" transform="translate(-18.39 -22.72)"/><path class="cls-1" d="M161.17,106.61c-1.05,1.14-2.8,2.34-4.37,1.42a2.9,2.9,0,0,1-.34-4.44,1,1,0,0,0-.77-1.67c.1-1.84-2.82-3.63-4.24-4.18-2.39-.94-5.38-1-7.37.75-.27.25,0,.64.33.57,2.28-.46,4.44-.67,6.59.42a7.25,7.25,0,0,1,2.47,2c.45.58.58,1,1.13,1.21a5,5,0,0,0,1,7.15c2.46,1.59,6.48.39,6.87-2.71C162.52,106.48,161.58,106.17,161.17,106.61Z" transform="translate(-18.39 -22.72)"/></g></g></g></svg>