<?xml version="1.0" encoding="UTF-8" standalone="no"?>
<svg width="209px" height="256px" viewBox="0 0 209 256" version="1.1" xmlns="http://www.w3.org/2000/svg" xmlns:xlink="http://www.w3.org/1999/xlink">
    <!-- Generator: Sketch 41 (35326) - http://www.bohemiancoding.com/sketch -->
    <title>lock</title>
    <desc>Created with Sketch.</desc>
    <defs></defs>
    <g id="Page-1" stroke="none" stroke-width="1" fill="none" fill-rule="evenodd">
        <g id="lock" transform="translate(0.000000, -1.000000)" fill="#FFFFFF">
            <g id="Objects">
                <g id="_Группа_">
                    <g id="_Группа_2">
                        <g id="_Группа_3">
                            <path d="M139.97,182.76 C142.19,180.98 139.87,177.91 137.73,177.54 C137.52,177.54 137.24,177.73 137.41,177.95 C137.9,178.62 138.64,179.08 139.06,179.8 C139.48,180.52 139.56,181.73 138.45,181.8 C137.62,181.8 136.69,181.04 136.05,180.58 C135.41,180.12 134.92,179.66 134.3,179.29 L134.22,179.07 C137.8,177.23 138.49,173.4 136.85,169.73 C135.66,167.08 133.31,165.19 131.14,163.39 C130.04,162.47 128.89,161.62 127.83,160.63 C127.17347,160.054274 126.558595,159.432715 125.99,158.77 L125.89,158.69 C125.403333,157.67 124.9,156.67 124.38,155.69 C124.756377,155.303437 125.224118,155.017978 125.74,154.86 L125.74,154.86 C125.38401,155.824056 125.546265,156.903245 126.17,157.72 C129.17,161.72 135.59,159.41 137.58,155.72 C140.09,151.02 137.33,145.02 132.72,142.9 C131.246462,142.28052 129.632276,142.07313 128.05,142.3 C131.23,138.88 135.05,134.38 130.86,130.69 C130.597106,130.438569 130.182894,130.438569 129.92,130.69 C128.016752,132.480417 126.389101,134.542781 125.09,136.81 C125.032357,136.32191 124.945535,135.83771 124.83,135.36 C124.99,130.31 123.43,125.28 119.23,122.03 C116,119.53 108.07,116.77 105.23,121.4 C104.984391,121.812134 104.818189,122.266645 104.74,122.74 C104.462167,121.58348 104.013934,120.474692 103.41,119.45 C102.41,117.73 101,115.59 98.73,115.98 C95.31,116.57 96.26,120.46 97.9,123.6 C93.71,122.45 89,127.55 87.68,130.93 C86.6747758,133.732589 86.6747758,136.797411 87.68,139.6 L87.9,140.29 C87.74,140.14 87.58,139.98 87.4,139.83 C86.1,138.76 83.4,137.41 81.9,138.9 C80.24,140.53 82.68,143.47 83.9,144.54 C85.9873417,146.229554 88.357219,147.536372 90.9,148.4 C88.7241477,148.488466 86.6914433,149.508461 85.32,151.2 C82.32,154.9 82.83,160.08 85.17,163.97 C87.61,168.02 90.82,170.17 95.37,167.5 C96.6032466,166.750313 97.4054638,165.457852 97.53,164.02 C98.53,165.61 98.3,167.35 96.79,169.23 L95.97,170.65 C95.3891184,171.618812 94.8649052,172.620493 94.4,173.65 C93.3376948,176.227398 93.0223354,179.051771 93.49,181.8 C94.06,184.71 95.58,187.11 98.16,187.52 C96,188.76 92.35,191.9 94.95,193.19 C96.0823072,193.664458 97.3576928,193.664458 98.49,193.19 C97.7805777,195.719501 98.1704506,198.430875 99.5638374,200.658009 C100.957224,202.885144 103.224988,204.421632 105.81,204.89 C109.596087,205.324576 113.326873,203.708792 115.6,200.65 L115.6,201.18 C115.762469,202.917541 117.116923,204.305335 118.85,204.51 C122.33,204.88 122.21,201.51 121.07,198.8 C125.07,200.35 130.66,199.69 133.86,198.33 C136.630494,197.085319 138.768578,194.757911 139.774291,191.892007 C140.780004,189.026103 140.565161,185.872997 139.18,183.17 C139.470787,183.094407 139.740806,182.954271 139.97,182.76 L139.97,182.76 Z M133.84,178.04 C132.350007,172.921839 130.370883,167.95896 127.93,163.22 C127.72,162.74 127.51,162.22 127.3,161.78 C132.59,166.43 140.45,172.05 133.84,178.05 L133.84,178.04 Z M129.07,154.46 C129.036712,154.367164 128.996602,154.276918 128.95,154.19 C128.95,154.19 128.95,154.19 128.95,154.12 C128.833285,153.693271 128.548128,153.332313 128.16,153.12 C128.50838,151.731652 127.844423,150.287822 126.563668,149.648646 C125.282914,149.00947 123.72998,149.346935 122.83,150.46 C122.530922,150.799782 122.306121,151.198293 122.17,151.63 L122.11,151.52 C121.77,149.77 124.11,149.17 125.34,149.18 C126.455378,149.168362 127.531433,149.591611 128.34,150.36 C129.011849,151.012399 129.462894,151.858544 129.63,152.78 C129.741828,153.394521 129.69712,154.027307 129.5,154.62 L129.01,155.45 C128.38,156.05 128.01,156.09 128.01,155.58 C128.01,155.35 128.11,155.11 128.18,154.86 C128.51,155.23 129.26,155.02 129.07,154.46 Z M119.54,130.83 C118.802253,130.03208 117.96153,129.335961 117.04,128.76 C117.2,128.85 117.37,128.93 117.53,129.02 C122.53,132.09 123.53,136.08 122.98,140.38 C122.978006,136.893628 121.761652,133.516831 119.54,130.83 Z M130.37,132.07 C133.48,135.62 128.17,139.62 125.76,142.83 L125.21,143.07 C124.92,138.38 127.28,135.18 130.37,132.03 L130.37,132.07 Z M125.15,144.7 C125.231439,144.805183 125.356975,144.866751 125.49,144.866751 C125.623025,144.866751 125.748561,144.805183 125.83,144.7 C126.06,144.41 126.33,144.11 126.62,143.79 C127.014483,143.617691 127.427068,143.490225 127.85,143.41 C131.1,142.81 134.38,144.8 135.95,147.57 C137.52,150.34 137.58,153.69 135.54,156.05 C134.643715,157.089887 133.45003,157.829832 132.12,158.17 C131.468551,158.344039 130.792055,158.404924 130.12,158.35 C129.03,158.35 128.39,157.93 128.12,157.14 C128.266413,157.152197 128.413587,157.152197 128.56,157.14 C129.844721,156.809212 130.796543,155.726515 130.96,154.41 C131.178127,152.928261 130.784798,151.421492 129.870263,150.235425 C128.955728,149.049359 127.5985,148.285818 126.11,148.12 C124.9345,148.012315 123.756447,148.297158 122.76,148.93 C123.046667,148.203333 123.316667,147.47 123.57,146.73 C123.984592,145.97311 124.518052,145.287716 125.15,144.7 Z M114.8,121.23 C117.015574,122.007185 118.966968,123.393611 120.43,125.23 C121.876196,127.091496 122.835151,129.284373 123.22,131.61 C122.140901,130.08073 120.754722,128.793321 119.15,127.83 C116.977677,126.558534 114.55523,125.773797 112.05,125.53 C112.042664,124.867969 111.732117,124.245869 111.207415,123.842103 C110.682714,123.438336 110.001821,123.297507 109.36,123.46 C109.66,119.75 111.15,119.94 114.8,121.23 Z M108.02,127.94 C108.606021,128.099397 109.223979,128.099397 109.81,127.94 C114.06,128.54 117.88,130.39 119.86,134.94 C122.24,140.36 120.92,146.31 119.31,151.72 C119.222651,152.036121 119.36319,152.370934 119.65,152.53 L119.65,152.53 C120.498887,154.602055 121.501688,156.607658 122.65,158.53 C124.3,162.13 125.98,165.71 127.4,169.43 C128.7,172.83 134.22,183.65 131.47,186.98 C131.390701,187.078006 131.338928,187.195359 131.32,187.32 C128.32,188.26 112.01,192.32 110.32,192.49 C109.206101,192.608323 108.08021,192.537321 106.99,192.28 C106.328207,186.974049 106.094119,181.623475 106.29,176.28 C106.514462,172.664862 106.98893,169.0696 107.71,165.52 C108.09,163.65 109.06,161.43 108.82,159.47 C108.32,155.37 103.42,151.89 101.56,148.39 C97.35,140.56 99.27,130.16 108.01,127.95 L108.02,127.94 Z M122.7,191.61 C122.14,191.79 121.58,191.98 121.01,192.14 C118.07463,193.069953 115.062963,193.739213 112.01,194.14 C113.23,193.78 114.36,193.43 115.24,193.23 C117.71,192.7 120.15,192.16 122.69,191.61 L122.7,191.61 Z M103.93,165.09 L104.68,166.36 C104.829202,166.755484 105.085407,167.101706 105.42,167.36 C105.46221,167.384871 105.512733,167.391462 105.559911,167.378252 C105.607088,167.365043 105.646843,167.333173 105.67,167.29 C105.53,168.05 105.38,168.85 105.26,169.69 C104.125488,176.910609 104.101881,184.262254 105.19,191.49 C104.741825,191.156817 104.355916,190.747212 104.05,190.28 C103.311505,184.577893 103.127311,178.817639 103.5,173.08 C103.570917,173.212958 103.665852,173.331627 103.78,173.43 C103.822198,173.470826 103.882475,173.486987 103.939437,173.472746 C103.996398,173.458506 104.041979,173.41588 104.06,173.36 C104.097747,172.933431 104.018216,172.504656 103.83,172.12 L103.57,171.41 C103.73,167.41 103.92,163.49 103.84,159.7 C103.837313,159.570628 103.795474,159.445109 103.72,159.34 C103.770869,159.258355 103.801709,159.165837 103.81,159.07 C104.3398,159.79793 104.993003,160.427441 105.74,160.93 C105.797361,160.957395 105.865762,160.94566 105.910711,160.900711 C105.95566,160.855762 105.967395,160.787361 105.94,160.73 C105.201442,159.737317 104.381977,158.807475 103.49,157.95 C102.49,156.8 101.6,155.59 100.7,154.37 C100.683325,154.344862 100.655166,154.329749 100.625,154.329749 C100.594834,154.329749 100.566675,154.344862 100.55,154.37 L100.33,154.08 C99.15,152.19 97.92,150.33 96.91,148.33 C99.23,150.67 101.38,153.17 103.7,155.5 C103.79,155.59 103.95,155.5 103.88,155.36 C101.843359,152.525835 99.4159691,149.994078 96.67,147.84 C96.2884837,147.040421 95.9545679,146.218989 95.67,145.38 C95.5,144.89 95.36,144.38 95.23,143.94 C96.2950105,146.315682 97.9722548,148.365647 100.09,149.88 C100.2,149.95 100.31,149.79 100.23,149.7 C99.0582017,148.5337 97.9499365,147.305262 96.91,146.02 C96.2118559,145.038225 95.5772269,144.012798 95.01,142.95 C94.8117887,142.025302 94.6946775,141.085067 94.66,140.14 C95.78,142.4 97.14,144.82 99.06,146.29 C99.16,146.59 99.25,146.89 99.36,147.17 C100.64,150.39 102.77,152.69 104.53,155.56 C107.21,159.91 106.53,163.11 105.73,167.15 C105.67756,166.752325 105.526285,166.374136 105.29,166.05 L104.58,164.75 C104.3,164.35 103.69,164.71 103.91,165.1 L103.93,165.09 Z M92.82,143.34 L92.82,143.48 C91.0502282,139.183522 92.1119581,134.240712 95.49,131.05 C95.7,130.92 95.92,130.8 96.14,130.67 L96.35,130.75 C96.15,130.95 95.93,131.15 95.75,131.36 C94.0357057,132.674452 92.8990924,134.603468 92.58,136.74 C91.9831503,138.914877 92.0598589,141.219622 92.8,143.35 L92.82,143.34 Z M98.18,141.17 C97.8082776,140.254687 97.3808097,139.363016 96.9,138.5 C96.45,137.58 96.12,136.3 95.23,135.73 C95.4735978,135.032731 95.7886045,134.362504 96.17,133.73 C96.3985318,134.653106 96.6926112,135.558737 97.05,136.44 C97.300011,137.252874 97.7153697,138.005286 98.27,138.65 C98.1788395,139.490128 98.1387658,140.335015 98.15,141.18 L98.18,141.17 Z M98.6,144.81 C98.03,143.92 97.38,143.07 96.81,142.2 C96.0225524,140.972878 95.3015159,139.704388 94.65,138.4 C94.7272228,137.578264 94.8914769,136.767051 95.14,135.98 C95.3259183,137.007521 95.7170402,137.987027 96.29,138.86 C96.7265259,140.057948 97.3399962,141.183767 98.11,142.2 C98.1479723,142.218012 98.1920277,142.218012 98.23,142.2 C98.2879804,143.084044 98.4082792,143.962894 98.59,144.83 L98.6,144.81 Z M104.85,124.47 C104.948806,124.87636 105.096553,125.269231 105.29,125.64 L104.34,125.81 C104.588591,125.401942 104.758206,124.950764 104.84,124.48 L104.85,124.47 Z M98.4,117.65 L98.4,117.65 C99.6816144,118.924859 100.745707,120.401076 101.55,122.02 C102.15,123.28 102.27,124.9 102.98,126.1 C102.265407,126.282239 101.561068,126.502553 100.87,126.76 L100.41,125.99 C100.256032,125.321013 99.9081898,124.712289 99.41,124.24 C98.09,121.91 96.85,118.94 98.4,117.67 L98.4,117.65 Z M98.67,134.82 C98.75,134.92 98.87,134.82 98.86,134.71 C98.75,134.01 98.44,133.33 98.27,132.64 C98.17,132.22 98.09,131.8 98.02,131.38 C98.4573504,130.966302 98.9217066,130.582123 99.41,130.23 L99.63,130.38 C99.6845375,130.409818 99.7522048,130.400107 99.7961561,130.356156 C99.8401075,130.312205 99.8498179,130.244537 99.82,130.19 L99.71,130.03 C100.874468,129.214051 102.133678,128.542473 103.46,128.03 C103.57677,127.991724 103.642827,127.868418 103.61,127.75 L104.31,127.75 C100.98,129.54 99.05,133.38 98.4,137.51 C98.23,137.1 98.02,136.7 97.84,136.29 C97.4,135.29 97.02,134.19 96.66,133.12 C96.6639881,133.090133 96.6639881,133.059867 96.66,133.03 C96.9649706,132.597733 97.2990798,132.186779 97.66,131.8 C97.6846826,132.888521 98.0366338,133.944374 98.67,134.83 L98.67,134.82 Z M88.36,133.32 C88.9267332,130.066901 90.969052,127.260098 93.89,125.72 C95.89,124.25 97.05,124.87 97.24,127.55 C95.46,127.7 94.9,129.22 95.54,130.15 L95.36,130.32 C91.08,133.8 89.95,139.16 91.36,144.32 C90.94,143.78 90.51,143.26 90.13,142.75 C89.87,142.396667 89.6033333,142.063333 89.33,141.75 C88.3481675,139.058869 88.0158127,136.173891 88.36,133.33 L88.36,133.32 Z M87.79,145.6 C86.7178386,145.048496 85.7114503,144.377571 84.79,143.6 C84.09,142.96 81.27,139.43 84.21,139.54 C86.36,139.62 88.07,142.21 89.21,143.76 C90.35,145.31 91.37,147.33 93.01,148.48 L93.01,148.48 C91.33,147.41 89.52,146.58 87.8,145.61 L87.79,145.6 Z M92.79,167.1 C91.0138349,167.375946 89.2195136,166.727578 88.03,165.38 C86.0657567,163.306825 84.8787029,160.618289 84.67,157.77 C84.49,152.3 89.83,147.16 95,150.85 L95,150.85 C95.83,151.8 96.7,152.7 97.56,153.69 C96.4071752,153.113668 95.1033957,152.910936 93.83,153.11 C89.75,153.82 88.19,158.9 90.47,162.11 C91.62,163.75 95.17,164.84 96.84,163.54 C97.21,165.58 94.1,166.93 92.79,167.11 L92.79,167.1 Z M108,203.28 C101.3,203.73 99.19,197.75 100,192.23 C100.592455,191.6765 100.888979,190.875883 100.8,190.07 C100.8,189.89 100.56,189.73 100.4,189.9 C99.29,191.14 98.08,192.47 96.24,192.25 C94.57,192.05 96.24,190.25 96.79,189.7 C97.6324996,188.910838 98.5617694,188.219757 99.56,187.64 C99.6047845,187.602678 99.6392203,187.554468 99.66,187.5 C99.8951175,187.475762 100.128781,187.439044 100.36,187.39 C100.67,187.32 100.58,186.9 100.3,186.87 C96.73,186.47 94.87,182.76 94.72,179.62 C94.715663,177.201849 95.3027125,174.819321 96.43,172.68 C97.17,171.16 98.19,169.79 98.89,168.25 C100.13,165.52 100.7,162.39 98.89,159.74 C97.08,157.09 92.47,156.83 93.15,160.83 C93.1591522,160.898417 93.1973193,160.959581 93.254753,160.997871 C93.3121866,161.03616 93.3833256,161.047866 93.45,161.03 C93.4533904,161.231437 93.4905738,161.430875 93.56,161.62 C93.601528,161.746067 93.7107943,161.837797 93.8421488,161.856864 C93.9735032,161.875932 94.1043411,161.819056 94.18,161.71 C94.58,160.93 94.9133333,161.263333 95.18,162.71 C94.649779,162.87972 94.0751434,162.844029 93.57,162.61 C92.4314271,162.298139 91.5304286,161.4273 91.18,160.3 C90.35,158.14 91.18,155.3 93.56,154.54 C96.72,153.54 99.26,155.99 100.65,158.71 C102.15,163.89 100.51,170.71 100.56,175.71 C100.56,180.14 99.11,193.01 104.89,194.89 C105.24738,195.000289 105.61667,195.067432 105.99,195.09 L105.99,195.09 C106.082654,195.367512 106.342429,195.554651 106.635,195.554651 C106.927571,195.554651 107.187346,195.367512 107.28,195.09 C110.28,195.98 113.79,195.67 117.19,194.91 L117.24,195.01 C115.15,198.99 112.89,202.96 108,203.29 L108,203.28 Z M119.15,202.83 C117.79,202.83 117.15,201.39 117.08,200.24 C116.990078,199.43577 117.051125,198.62182 117.26,197.84 L117.37,197.56 C117.48479,197.313261 117.664542,197.102399 117.89,196.95 C117.994992,196.878798 118.041519,196.74762 118.004856,196.626175 C117.968194,196.504731 117.856852,196.421211 117.73,196.42 C117.73,196.36 117.73,196.3 117.78,196.24 C118.222231,196.846549 118.767101,197.371113 119.39,197.79 C120.23,199.83 121.28,202.91 119.15,202.83 Z M131.87,197.05 C128.02,198.2 123.32,198.2 119.67,196.32 C119.528915,196.167148 119.375021,196.026637 119.21,195.9 C119.131647,195.846316 119.028353,195.846316 118.95,195.9 C118.605004,195.705463 118.27115,195.491796 117.95,195.26 C117.95,195.11 118,194.96 118.02,194.81 C120.85,194.1 123.58,193.13 125.85,192.34 C127.85,191.63 136.07,189.21 135.63,186.03 C135.74795,185.872733 135.78839,185.670535 135.74,185.48 C135.56,184.66 135.36,183.81 135.15,182.95 C135.106435,182.355809 135.009375,181.766757 134.86,181.19 C135.402251,181.669085 135.976952,182.110135 136.58,182.51 C137.224872,182.982675 138.011107,183.222424 138.81,183.19 C139.72,189.17 138.43,195.13 131.9,197.07 L131.87,197.05 Z" id="_Составной_контур_"></path>
                            <path d="M77.43,98.16 C74.03,92.78 64.58,92.93 60.77,97.75 C60.7087713,97.8302472 60.6769952,97.9291063 60.68,98.03 C57.97,101.21 56.81,106.26 58.1,109.81 C60.46,116.3 68.32,118.19 73.87,114.52 C79.1319267,110.823148 80.6799766,103.709076 77.43,98.16 Z M59.15,106.53 C59.147675,103.341653 60.2822782,100.256951 62.35,97.83 C66.23,95.99 71.42,94.74 74.75,97.74 C74.7434343,97.7864357 74.7434343,97.8335643 74.75,97.88 C75.1961229,99.0011419 75.5310637,100.163386 75.75,101.35 C75.49,102.6 75.56,103.8 75.21,105.12 C74.5608277,107.581606 72.9792301,109.693989 70.8,111.01 C66.15,113.83 60.23,112.31 59.15,106.53 Z M74.26,111.93 C71.4642651,114.604271 67.3229281,115.309011 63.8,113.71 C65.4023172,114.162764 67.0954269,114.186902 68.71,113.78 C72.14,112.88 76.39,109.13 77.32,105.17 C77.1368735,107.709663 76.0639484,110.103383 74.29,111.93 L74.26,111.93 Z" id="_Составной_контур_2"></path>
                            <path d="M53.72,85.11 C51.02,82.81 46.12,84.11 43.51,85.87 C43.05,86.18 43.51,86.94 43.94,86.63 C45.4515084,85.6123692 47.2188574,85.0405799 49.04,84.98 C50.6,84.98 51.96,85.55 53.47,85.71 C53.613134,85.7120813 53.7431083,85.6267901 53.7981657,85.4946524 C53.8532231,85.3625147 53.8222645,85.2101681 53.72,85.11 L53.72,85.11 Z" id="_Контур_"></path>
                            <path d="M198.59,79.13 C189.87,66.83 177,60.83 162.91,61.33 L162.91,61.23 C161.355563,53.5532526 158.85305,46.0994572 155.46,39.04 C152.125509,30.2650138 146.830877,22.3675301 139.98,15.95 C126.98,3.95 108.65,-1.05 91.3,1.73 C54.65,7.56 36.3,45.1 36.06,79.53 C35.8218132,83.51084 35.8518812,87.5031992 36.15,91.48 C36.1612176,91.6108794 36.2022674,91.7374498 36.27,91.85 C24.0847361,97.1651495 13.951362,106.287993 7.39,117.85 C1.57333566,128.146103 -0.890856841,139.998694 0.34,151.76 C0.377518674,152.448144 0.461038543,153.133007 0.59,153.81 C0.965409485,156.432377 1.52343265,159.025347 2.26,161.57 C4.49814195,169.869267 8.38925033,177.631076 13.7,184.39 C23.81,199.34 37.49,211.87 53.7,219.7 C65.7,225.51 78.17,230.51 90.41,235.83 C95.91,238.22 101.41,240.66 106.89,243.08 C114.89,247.8 123.03,252.43 132.22,254.28 C133.2043,255.256172 134.484359,255.878619 135.86,256.05 C136.427725,256.205756 137.016544,255.882569 137.19,255.32 C137.26,254.94 137.36,254.58 137.43,254.21 C143.08,238.42 152.49,226.29 162.43,212.94 C173.87,197.64 184.78,181.94 195.37,166 C203.67,153.54 207.26,140.06 207.76,125.35 C210.48,109.3 208.24,92.74 198.59,79.13 Z M205.23,116.24 C204.47,116.97 203.68,117.66 202.89,118.35 C202.89,116.13 202.89,113.81 202.79,111.45 C203.476305,110.850863 204.118007,110.202477 204.71,109.51 C204.963333,111.723333 205.136667,113.966667 205.23,116.24 L205.23,116.24 Z M204.6,108.67 C204.019494,109.31865 203.401787,109.933019 202.75,110.51 C202.655913,107.934491 202.385278,105.368469 201.94,102.83 C202.43,102.38 202.94,101.91 203.37,101.43 C203.89,103.816667 204.3,106.23 204.6,108.67 Z M179.76,150.04 C181.1,149.34 182.42,148.62 183.76,147.86 C182.645109,150.622119 181.383307,153.322642 179.98,155.95 L179.82,156.24 C178.5,156.98 177.13,157.68 175.7,158.32 C175.58,158.37 175.7,158.57 175.79,158.53 C177.04,158.03 178.27,157.46 179.48,156.86 C178.14,159.32 176.63,161.8 175.09,164.31 L169.64,167.72 C173.066667,161.873333 176.466667,156.016667 179.84,150.15 C179.86086,150.125376 179.862182,150.089681 179.8432,150.063582 C179.824219,150.037482 179.789854,150.027742 179.76,150.04 L179.76,150.04 Z M164.33,128.04 C164.105222,127.80075 163.766991,127.704661 163.45,127.79 C162.67943,128.000947 162.031109,128.522501 161.66,129.23 C157.386667,126.076667 158.546667,123.373333 165.14,121.12 L169.45,122.52 C171.110122,123.583061 172.404847,125.129053 173.16,126.95 C170.493333,128.37 167.826667,129.803333 165.16,131.25 C165.564492,130.099652 165.23245,128.818919 164.32,128.01 L164.33,128.04 Z M168.93,120.04 C162.87,117.41 154.22,123.12 157.55,130.15 C158.279946,131.879175 159.963262,133.013157 161.84,133.04 C160.43,133.82 159.02,134.6 157.62,135.39 C157.42,135.51 157.62,135.8 157.8,135.7 C163.06,133.09 168.25,130.35 173.43,127.59 C173.91763,128.968565 174.128324,130.429832 174.05,131.89 C173.891841,134.16425 173.155211,136.360373 171.91,138.27 L169.56,139.64 C169.522487,139.663222 169.500213,139.704693 169.501567,139.748792 C169.502922,139.79289 169.5277,139.832916 169.566567,139.853792 C169.605435,139.874668 169.652487,139.873222 169.69,139.85 L171.51,138.85 C169.596701,141.605081 166.757822,143.58165 163.51,144.42 C152.39,147.05 143.24,136.37 143.32,126.03 C143.5,102.12 178.75,91.53 186.56,117.03 C186.77,117.72 186.96,118.41 187.13,119.09 C184.13,110.87 178.07,104.17 168.52,102.39 C168.39,102.39 168.33,102.55 168.46,102.59 C177.11,105.04 183.07,112.04 185.79,120.29 C184.49,120.92 183.23,121.54 182.05,122.17 L179.35,123.6 C178.918794,121.670528 178.388085,119.764649 177.76,117.89 C176.25,113.36 174.39,108.89 170.22,106.27 C170.16,106.27 170.08,106.33 170.14,106.38 C175.14,110.62 177.48,117.23 178.62,123.99 L176.15,125.35 C175.752643,122.94799 175.081607,120.599367 174.15,118.35 L174.15,118.35 C175.008358,120.646327 175.608713,123.030979 175.94,125.46 L174.94,125.97 C173.789087,123.280053 171.626976,121.150267 168.92,120.04 L168.93,120.04 Z M183.69,97.04 L183.42,97.15 C181.56,93.3 180.06,89.35 181.42,84.94 C182.090143,83.0062034 183.223054,81.265641 184.72,79.87 C190.12,87.04 193.64,96.06 195.64,105.01 C195.64,105.18 195.92,105.11 195.9,104.94 C195.628298,102.96458 195.251092,101.005112 194.77,99.07 C196.434382,98.2833596 198.041645,97.3811537 199.58,96.37 C200.386877,98.443943 200.963664,100.600189 201.3,102.8 C199.59,104.17 197.86,105.46 196.07,106.65 C195.291591,104.17927 194.380263,101.7524 193.34,99.38 C193.34,99.38 193.29,99.38 193.34,99.38 C194.312432,101.804021 195.156928,104.277425 195.87,106.79 C195.05,107.34 194.2,107.85 193.35,108.36 C192.296462,103.136328 190.28599,98.1525269 187.42,93.66 C187.27,93.41 186.88,93.66 187.03,93.89 C189.815997,98.4369211 191.776164,103.440595 192.82,108.67 C191.43,109.48 190,110.24 188.51,110.92 C187.66652,106.817545 186.288074,102.843586 184.41,99.1 L183.59,97.46 L183.89,97.34 C184.1,97.23 183.9,96.9 183.68,97 L183.69,97.04 Z M165.29,91.5 C167.79,91.37 172.29,89.34 174.29,86.59 C174.154248,87.5615773 173.842483,88.5002609 173.37,89.36 C170.93,93.77 163.58,94.96 159.93,91.36 C158.849949,90.3045218 158.087726,88.9671665 157.73,87.5 C159.30216,90.1291934 162.213016,91.6579722 165.27,91.46 L165.29,91.5 Z M157.79,82.8 C158.056528,81.7454446 158.474186,80.7349838 159.03,79.8 C159.59,79.44 160.15,79.08 160.72,78.74 C162.15,77.88 163.61,77.1 165.07,76.36 C166.742022,76.2062254 168.418194,76.6068201 169.84,77.5 C171.666205,78.5787198 173.075422,80.2415964 173.84,82.22 C173.225408,85.7857951 170.548076,88.6439748 167.03,89.49 C165.181049,90.0796878 163.185158,90.0125693 161.38,89.3 C159.2,88.24 157.82,85.32 157.77,82.77 L157.79,82.8 Z M173.26,78.25 C171.793545,76.6837565 169.925908,75.5493396 167.86,74.97 C170.65,73.68 173.5,72.57 176.39,71.54 C177.303333,72.2066667 178.18,72.9066667 179.02,73.64 C178.13,74.09 177.27,74.58 176.44,75.1 C176.397556,75.1459165 176.390707,75.2144118 176.423218,75.2678236 C176.45573,75.3212354 176.519718,75.346612 176.58,75.33 C177.58,74.85 178.49,74.42 179.45,74 C180.530009,74.9791478 181.554914,76.017407 182.52,77.11 C180.975518,77.8306328 179.482044,78.6558856 178.05,79.58 C178.007556,79.6259165 178.000707,79.6944118 178.033218,79.7478236 C178.06573,79.8012354 178.129718,79.826612 178.19,79.81 C179.738245,78.9717447 181.349854,78.2562172 183.01,77.67 L183.58,78.35 C181.449059,80.12674 179.933663,82.5310748 179.25,85.22 C178.25,89.5 179.35,93.6 181.25,97.47 L181.41,97.81 C180.763356,97.9837047 180.072687,97.8222984 179.57,97.38 C179.037285,96.5091021 178.549968,95.6112363 178.11,94.69 C177.042401,93.2134039 175.680442,91.9740214 174.11,91.05 C176.8,87.26 176.28,81.76 173.24,78.22 L173.26,78.25 Z M183.87,77.36 C184.663333,77.0866667 185.463333,76.8266667 186.27,76.58 C185.56619,76.9262891 184.896565,77.3381083 184.27,77.81 L183.87,77.36 Z M195.3,124.3 C193.74,125.39 192.15,126.46 190.54,127.48 C190.466296,124.691501 190.131499,121.916039 189.54,119.19 C192.2,117.93 195.04,116.63 197.68,115.11 C198.053333,117.396667 198.32,119.693333 198.48,122 C197.48,122.72 196.54,123.41 195.56,124.1 C195.540359,121.648163 195.336451,119.20127 194.95,116.78 C194.95,116.71 194.83,116.78 194.84,116.78 C195.172742,119.262249 195.319817,121.765865 195.28,124.27 L195.3,124.3 Z M195.3,125.44 C195.203611,127.996412 194.92625,130.542785 194.47,133.06 C193.03,134.293333 191.563333,135.493333 190.07,136.66 C190.439149,133.892414 190.609585,131.10194 190.58,128.31 L192.41,127.24 C193.336667,126.633333 194.283333,126.02 195.25,125.4 L195.3,125.44 Z M193.47,108.92 C194.35,108.44 195.21,107.92 196.06,107.41 C196.693333,109.71 197.21,112.023333 197.61,114.35 C194.970265,115.909431 192.253473,117.334579 189.47,118.62 C189.47,118.49 189.42,118.35 189.38,118.22 C189.320829,115.868643 189.05987,113.526708 188.6,111.22 C190.08,110.6 191.54,109.91 192.96,109.16 C193.23,110.5 193.46,111.86 193.65,113.25 C193.65,113.47 194.02,113.49 194.01,113.25 C193.89804,111.782595 193.697676,110.323279 193.41,108.88 L193.47,108.92 Z M196.32,107.25 C198.131363,106.089021 199.846846,104.784853 201.45,103.35 C201.83,105.9 202,108.52 202.13,111.13 C200.839313,112.225445 199.47255,113.227961 198.04,114.13 C197.564857,111.794535 196.97075,109.484861 196.26,107.21 L196.32,107.25 Z M179.59,124.38 L185.76,121.09 L186.07,120.93 C186.485934,122.241313 186.819912,123.577225 187.07,124.93 C187.325261,126.407519 187.475637,127.90125 187.52,129.4 C185.17,130.81 182.79,132.18 180.4,133.54 C180.504552,130.449274 180.215567,127.357801 179.54,124.34 L179.59,124.38 Z M176.27,126.15 L178.81,124.79 C179.25745,127.822092 179.534551,130.876885 179.64,133.94 L176.44,135.76 C176.767481,132.54667 176.693579,129.305067 176.22,126.11 L176.27,126.15 Z M175.19,126.73 L175.98,126.31 C176.332713,129.555612 176.302505,132.831444 175.89,136.07 L175,136.58 C176.193379,133.400098 176.246394,129.90463 175.15,126.69 L175.19,126.73 Z M176.39,136.3 L179.67,134.5 C179.67,135.25 179.72,136 179.74,136.72 C179.74,136.89 180.02,136.94 180.05,136.72 C180.2,135.85 180.29,134.97 180.35,134.09 C182.75,132.77 185.14,131.44 187.51,130.09 C187.541293,133.201916 187.205643,136.306672 186.51,139.34 C182.549272,142.207539 178.418363,144.832352 174.14,147.2 C175.185581,143.62314 175.921626,139.962989 176.34,136.26 L176.39,136.3 Z M186.21,140.46 C185.616084,142.77714 184.877979,145.05491 184,147.28 C183.07,147.84 182.13,148.39 181.15,148.92 C178.23,150.49 175.23,151.92 172.15,153.17 C172.75,151.44 173.32,149.69 173.85,147.93 C178.109429,145.69765 182.218207,143.188957 186.15,140.42 L186.21,140.46 Z M174.55,165.11 C173.21,167.28 171.86,169.47 170.55,171.69 C169.99,172.543333 169.44,173.406667 168.9,174.28 C167.373333,175.08 165.843333,175.873333 164.31,176.66 C165.99,173.84 167.656667,171.01 169.31,168.17 C171.07,167.17 172.816667,166.15 174.55,165.11 Z M168.15,175.61 C166.345639,178.582455 164.777485,181.692013 163.46,184.91 C161.66,185.74 159.82,186.52 157.96,187.27 C159.913333,184.083333 161.846667,180.883333 163.76,177.67 C165.193333,177.003333 166.656667,176.316667 168.15,175.61 Z M172.23,173.55 C174.556667,172.336667 176.856667,171.066667 179.13,169.74 C177.46,172.9 175.82,176.06 174.28,179.25 C172.12,180.516667 169.926667,181.72 167.7,182.86 C168.954875,179.652544 170.442159,176.540947 172.15,173.55 L172.23,173.55 Z M177.6,169.55 C176.106667,170.423333 174.6,171.276667 173.08,172.11 L174.08,170.46 C174.7,169.553333 175.32,168.653333 175.94,167.76 C177.273333,165.813333 178.576667,163.863333 179.85,161.91 C181.59,160.81 183.32,159.693333 185.04,158.56 C183.42,161.74 181.73,164.9 180.04,168.07 C179.15,168.53 178.37,169.04 177.55,169.52 L177.6,169.55 Z M184.75,158.13 C183.35,159.06 181.92,159.96 180.51,160.87 C181.89,158.66 183.2,156.43 184.37,154.14 C185.81,153.23 187.2,152.25 188.56,151.22 C187.56,153.37 186.56,155.51 185.5,157.64 L184.75,158.13 Z M184.9,153.05 C186.17061,150.50237 187.253489,147.865358 188.14,145.16 C189.49,144.26 190.79,143.3 192.08,142.31 C191.25,144.81 190.28,147.31 189.23,149.71 C187.77,150.83 186.34,151.96 184.84,153.02 L184.9,153.05 Z M188.37,144.43 C189.044677,142.239583 189.562651,140.003938 189.92,137.74 C191.4,136.606667 192.843333,135.433333 194.25,134.22 C193.761397,136.62573 193.140453,139.002675 192.39,141.34 C191.02,142.38 189.69,143.41 188.31,144.4 L188.37,144.43 Z M194.81,133.74 C196.143333,132.586667 197.433333,131.406667 198.68,130.2 C198.61,132.15 198.47,134.1 198.27,136.06 C196.636667,137.673333 194.95,139.213333 193.21,140.68 C193.84944,138.382959 194.363532,136.052854 194.75,133.7 L194.81,133.74 Z M194.99,132.61 C195.364965,130.173759 195.572119,127.714636 195.61,125.25 C196.61,124.6 197.61,123.92 198.61,123.25 C198.716667,125.25 198.746667,127.276667 198.7,129.33 C197.44,130.41 196.183333,131.49 194.93,132.57 L194.99,132.61 Z M198.15,114.83 C199.552941,114.007735 200.890255,113.078302 202.15,112.05 C202.25,114.31 202.34,116.55 202.52,118.73 C201.386667,119.703333 200.233333,120.646667 199.06,121.56 C198.869464,119.302854 198.565748,117.056694 198.15,114.83 L198.15,114.83 Z M203.32,101.15 L201.86,102.35 C201.455312,100.216469 200.807765,98.1362665 199.93,96.15 C200.516667,95.7633333 201.093333,95.36 201.66,94.94 C202.286667,96.98 202.833333,99.0433333 203.3,101.13 L203.32,101.15 Z M199.81,89.73 C200.48,91.4 201.07,93.09 201.61,94.79 C201.036667,95.1966667 200.453333,95.59 199.86,95.97 C199.371145,94.9039763 198.788872,93.8833253 198.12,92.92 C198.05,92.83 197.9,92.92 197.96,93.01 C198.574903,94.0149457 199.106672,95.0684502 199.55,96.16 C197.999704,97.1429457 196.401024,98.0474181 194.76,98.87 C194.173084,96.5291276 193.438275,94.2278406 192.56,91.98 C193.359775,92.4562737 194.279714,92.6923336 195.21,92.66 C197.221711,92.8002644 199.085752,91.599627 199.79,89.71 L199.81,89.73 Z M195.74,81.27 C196.66,82.89 197.5,84.53 198.27,86.19 C197.97,86.87 197.21,87.24 195.98,87.29 C196.205005,86.5158467 196.049139,85.6808465 195.56,85.04 C195.417689,84.7809459 195.14557,84.6199743 194.85,84.62 C192.863272,84.7014958 191.200051,86.1526564 190.85,88.11 C189.350151,84.9784192 187.526901,82.0122856 185.41,79.26 C187.41,77.61 190,76.76 192.49,77.98 L195.74,81.27 Z M192.91,75.79 C191.812882,75.5111678 190.673299,75.4399438 189.55,75.58 L190.86,75.19 C190.920751,75.19 190.97,75.1407513 190.97,75.08 C190.97,75.0192487 190.920751,74.97 190.86,74.97 C188.269192,75.0783883 185.72321,75.6826347 183.36,76.75 C182.386799,75.6678843 181.355265,74.6396886 180.27,73.67 C182.559648,72.730619 184.896063,71.9095359 187.27,71.21 C189.281555,72.5512547 191.163101,74.0779183 192.89,75.77 L192.91,75.79 Z M186.75,70.83 C184.327584,71.3272887 181.97627,72.1233763 179.75,73.2 C178.93,72.49 178.08,71.81 177.2,71.2 C179.346667,70.4533333 181.513333,69.7433333 183.7,69.07 C184.72,69.6166667 185.736667,70.2033333 186.75,70.83 Z M182.87,68.62 C180.598079,69.1223451 178.354836,69.7465809 176.15,70.49 C174.547448,69.4292144 172.854179,68.5123058 171.09,67.75 C172.66,67.08 174.26,66.48 175.89,65.94 C178.292087,66.6439462 180.627723,67.5574544 182.87,68.67 L182.87,68.62 Z M175.37,65.83 C173.731809,66.2885959 172.13059,66.8702498 170.58,67.57 C169.66,67.19 168.716667,66.8566667 167.75,66.57 C169.080679,65.9434809 170.454126,65.4121474 171.86,64.98 C173,65.18 174.15,65.47 175.37,65.83 Z M169.15,64.69 C169.262268,64.6884435 169.36355,64.6222207 169.41,64.52 C169.98,64.6 170.56,64.7 171.15,64.81 C170.15,65.17 169.26,65.6 168.39,65.94 L167.29,66.39 C165.549218,65.9021799 163.7691,65.5675712 161.97,65.39 C162.52,65.14 163.06,64.89 163.62,64.66 C165.43,64.66 167.26,64.69 169.15,64.69 Z M159.56,64.69 L163.31,64.69 C162.77,64.91 162.23,65.14 161.7,65.39 C160.556414,65.2862609 159.408154,65.2428673 158.26,65.26 C158.69,65.04 159.15,64.83 159.56,64.68 L159.56,64.69 Z M156.96,61.83 L156.96,61.74 C156.410451,61.2030666 155.807297,60.7238943 155.16,60.31 C155.06,59.73 154.96,59.16 154.85,58.58 C155.391832,58.8833595 155.916009,59.2172298 156.42,59.58 C156.591421,59.703107 156.755067,59.8366952 156.91,59.98 C156.9,60.57 156.94,61.2 156.96,61.83 Z M156.57,55.92 C156.65,56.79 156.72,57.66 156.78,58.54 C156.08979,58.105637 155.342672,57.7690978 154.56,57.54 C154.333333,56.54 154.076667,55.54 153.79,54.54 C154.733936,54.7176577 155.64041,55.0558942 156.47,55.54 C156.51,55.65 156.54,55.83 156.57,55.92 L156.57,55.92 Z M155.42,51.15 C155.68,52.15 155.92,53.06 156.15,54.03 C155.317998,53.6837565 154.420427,53.5233542 153.52,53.56 C153.133333,52.28 152.706667,51.0066667 152.24,49.74 C153.241024,49.9313951 154.22196,50.215967 155.17,50.59 L155.42,51.15 Z M154.52,49.07 C153.659685,48.8614785 152.774491,48.7739688 151.89,48.81 C151.39,47.51 150.89,46.22 150.29,44.94 C151.243595,45.1473777 152.182335,45.4179754 153.1,45.75 L154.52,49.07 Z M152.44,44.21 C151.589598,44.0244903 150.720184,43.94057 149.85,43.96 C149.3,42.76 148.71,41.58 148.1,40.4 L148.1,40.4 C148.972395,40.3427352 149.847605,40.3427352 150.72,40.4 C151.306667,41.6533333 151.876667,42.9233333 152.43,44.21 L152.44,44.21 Z M148.03,39.83 C147.960335,39.8538164 147.902853,39.9041129 147.87,39.97 C147.29,38.8633333 146.69,37.7666667 146.07,36.68 C146.944488,36.461463 147.839265,36.3341165 148.74,36.3 C149.28,37.34 149.8,38.39 150.3,39.45 C149.52996,39.476743 148.766768,39.6045021 148.03,39.83 L148.03,39.83 Z M137.56,23.56 C138.036765,23.0882921 138.570956,22.67841 139.15,22.34 C139.72,22.98 140.28,23.62 140.82,24.28 C140.096356,24.5889641 139.406116,24.9709413 138.76,25.42 C138.708255,25.4501072 138.686615,25.5137476 138.709283,25.569157 C138.73195,25.6245665 138.79199,25.6547928 138.85,25.64 L141.39,25.01 C142,25.78 142.6,26.56 143.18,27.35 C142.366386,27.6646813 141.599356,28.0885667 140.9,28.61 C138.9,25.74 136.79,23 134.66,20.41 C135.269482,20.0887843 135.901082,19.811415 136.55,19.58 C137.28,20.3 137.99,21.04 138.69,21.8 C138.108495,22.1964885 137.606489,22.6984953 137.21,23.28 C137.13268,23.3766498 137.14835,23.5176801 137.245,23.595 C137.34165,23.6723199 137.48268,23.6566498 137.56,23.56 L137.56,23.56 Z M143.82,28.26 C144.486667,29.1866667 145.113333,30.13 145.7,31.09 C144.881482,31.2463542 144.098549,31.551393 143.39,31.99 C143.336247,32.0257786 143.291704,32.0737474 143.26,32.13 C142.593333,31.1166667 141.926667,30.1166667 141.26,29.13 C142.08407,28.7489316 142.94531,28.4540323 143.83,28.25 L143.82,28.26 Z M143.68,32.72 C144.611695,32.540013 145.553409,32.4164547 146.5,32.35 L146.68,32.63 C147.2,33.5 147.68,34.39 148.18,35.28 C147.327159,35.4442398 146.504362,35.7376141 145.74,36.15 C145.06,34.99 144.35,33.85 143.63,32.72 L143.68,32.72 Z M147.74,32.34 L147.97,32.34 C148.463333,33.24 148.936667,34.15 149.39,35.07 L149.39,35.07 C148.843333,34.1366667 148.273333,33.2166667 147.68,32.31 L147.74,32.34 Z M145.25,28.04 L145.47,28.04 C146.06,28.98 146.63,29.95 147.18,30.91 L146.74,30.91 C146.073333,29.95 145.406667,29.0033333 144.74,28.07 L145.25,28.04 Z M143.25,24.64 C143.76,25.37 144.25,26.13 144.73,26.88 C144.47,26.94 144.22,27.02 143.97,27.1 C143.363333,26.3266667 142.756667,25.57 142.15,24.83 L142.6,24.73 L143.25,24.64 Z M141.1,21.64 C141.61,22.29 142.1,22.98 142.56,23.64 C142.190781,23.737475 141.826945,23.8543031 141.47,23.99 C140.89,23.33 140.3,22.68 139.71,22.04 C140.012831,21.8995003 140.327361,21.7857342 140.65,21.7 C140.789199,21.6792876 140.929394,21.6659357 141.07,21.66 L141.1,21.64 Z M140.51,20.87 C140.045571,21.028014 139.599634,21.2358943 139.18,21.49 C138.513333,20.77 137.806667,20.07 137.06,19.39 C137.66,19.21 138.29,19.09 138.88,18.89 C139.413333,19.5566667 139.946667,20.2266667 140.48,20.9 L140.51,20.87 Z M138.34,18.29 C137.688604,18.3788124 137.052595,18.5571641 136.45,18.82 C135.203333,17.68 133.916667,16.6033333 132.59,15.59 C133.360279,15.1955846 134.181384,14.9095439 135.03,14.74 C136.15,15.91 137.24,17.1 138.31,18.32 L138.34,18.29 Z M131.88,11.83 C132.66,12.4966667 133.426667,13.2 134.18,13.94 C133.281432,14.0673931 132.427082,14.4105057 131.69,14.94 C130.52,14.08 129.33,13.26 128.1,12.51 L128.47,12.21 C129.221564,11.7423195 130.046386,11.4042779 130.91,11.21 C131.23,11.44 131.56,11.63 131.88,11.83 Z M38.32,68.95 C39.56,57.79 42.21,46.95 47.73,36.63 C56.15,20.92 70.33,8.07 88.01,4.07 C99.0470619,1.60192282 110.564468,2.40821073 121.15,6.39 C119.087722,7.40250918 117.522439,9.20583071 116.81,11.39 C116.785698,11.4674031 116.823173,11.5507439 116.897204,11.58393 C116.971234,11.6171161 117.058385,11.5896424 117.1,11.52 C118.162395,9.47255756 119.841546,7.81089777 121.9,6.77 C121.946034,6.74902468 121.986974,6.71831962 122.02,6.68 C123.34,7.2 124.62,7.79 125.9,8.41 C123.688682,9.29099038 121.935553,11.0405055 121.05,13.25 C121.05,13.36 121.17,13.42 121.24,13.33 C122.080405,12.1477936 123.115049,11.1165312 124.3,10.28 C125.151218,9.77605637 126.029177,9.31871616 126.93,8.91 C127.816667,9.36333333 128.686667,9.84 129.54,10.34 C128.849998,10.6268326 128.206334,11.0143792 127.63,11.49 C126.379595,12.4353237 125.658172,13.9227934 125.69,15.49 C125.69,15.59 125.83,15.6 125.86,15.49 C126.35527,14.3407485 127.09991,13.3160154 128.04,12.49 C129.24,13.28 130.38,14.12 131.5,14.99 C130.7063,15.5900191 130.068394,16.3719679 129.64,17.27 C129.547232,17.4351317 129.602658,17.6440993 129.765071,17.7415476 C129.927485,17.8389958 130.137951,17.7895632 130.24,17.63 C130.769829,16.8118563 131.481716,16.12735 132.32,15.63 C133.61,16.63 134.86,17.75 136.05,18.9 C135.459442,19.1968646 134.888296,19.5308677 134.34,19.9 L133.59,18.99 L133.59,18.99 L134.31,19.9 L133.74,20.26 C133.48,20.44 133.74,20.86 133.98,20.69 C134.22,20.52 134.43,20.45 134.65,20.34 C136.78,23.06 138.79,25.86 140.65,28.76 L140.54,28.85 C140.34,29.04 140.54,29.33 140.82,29.22 L140.92,29.22 C142.999781,32.4765521 144.892832,35.8486541 146.59,39.32 C148.765263,44.0613175 150.622697,48.942094 152.15,53.93 C152.122659,54.0489148 152.165323,54.1730287 152.26,54.25 L153.26,57.25 C152.991508,57.2116584 152.72109,57.1882889 152.45,57.18 C152.34,57.18 152.27,57.35 152.39,57.4 L153.47,57.89 L154.1,59.74 C153.628409,59.5081904 153.136292,59.3207174 152.63,59.18 C152.477899,59.1420307 152.320686,59.2198426 152.258632,59.3638071 C152.196579,59.5077715 152.247958,59.6754938 152.38,59.76 C153.18,60.3133333 153.96,60.8866667 154.72,61.48 L154.87,61.91 C154.898083,62.0075204 154.982333,62.0783881 155.083222,62.0893544 C155.184112,62.1003206 155.28162,62.0492092 155.33,61.96 L155.54,62.12 C154.54,62.27 153.54,62.47 152.46,62.71 C152.13,62.08 151.3,61.71 150.7,61.43 C150.618914,61.3819031 150.521128,61.3707841 150.431313,61.3994483 C150.341499,61.4281125 150.268233,61.4938226 150.23,61.58 C149.734712,61.6449269 149.287107,61.9084362 148.99,62.31 C145.7,35.48 119.78,15.67 92.61,18.99 C88.0104122,19.5467638 83.5204155,20.7906142 79.29,22.68 C76.281066,23.8541925 73.4790781,25.5016263 70.99,27.56 C66.039407,31.2673169 61.9917044,36.0466144 59.15,41.54 C58.7149595,41.2153288 58.2232359,40.9745538 57.7,40.83 C58.1666667,39.8033333 58.6633333,38.7833333 59.19,37.77 C59.4807736,37.9786969 59.7885159,38.1626733 60.11,38.32 C60.25,38.38 60.48,38.32 60.41,38.09 C60.2370109,37.6643288 59.9227288,37.3112029 59.52,37.09 C59.83,36.51 60.16,35.94 60.52,35.36 C60.791523,35.5354258 61.0837531,35.6765023 61.39,35.78 C61.465583,35.8041562 61.5482183,35.7787983 61.597242,35.7164044 C61.6462657,35.6540106 61.6513528,35.5677219 61.61,35.5 C61.4510891,35.1652895 61.2060545,34.8788406 60.9,34.67 L61.02,34.45 L60.9,34.66 C60.4560046,34.3676675 59.9751285,34.1356364 59.47,33.97 C58.572869,33.6084753 57.5918091,33.5079426 56.64,33.68 C56.48,33.68 56.46,33.99 56.64,34.02 C57.5269582,34.1131008 58.3997304,34.3111529 59.24,34.61 C59.6824657,34.8184207 60.1072055,35.0625624 60.51,35.34 C60.18,35.91 59.84,36.47 59.51,37.05 C59.0821147,36.8339673 58.6233389,36.6855398 58.15,36.61 C57.1595234,36.3945199 56.1240934,36.5700773 55.26,37.1 C55.06,37.22 55.26,37.49 55.43,37.41 C56.2752125,37.0710628 57.2051945,37.0046355 58.09,37.22 C58.4485717,37.3305146 58.7864453,37.4994514 59.09,37.72 C58.5566667,38.7266667 58.0433333,39.7633333 57.55,40.83 L57.16,40.73 C56.1218584,40.4950821 55.035117,40.6111419 54.07,41.06 C53.99,41.06 54.07,41.2 54.12,41.19 C55.1654528,41.0614722 56.2263343,41.1603969 57.23,41.48 L57.23,41.48 C56.6966667,42.6266667 56.1933333,43.7866667 55.72,44.96 L55.36,44.83 C54.4205809,44.6843119 53.4592053,44.798432 52.58,45.16 C52.5247161,45.1829719 52.4948204,45.2431766 52.509932,45.3011047 C52.5250437,45.3590327 52.5805394,45.3969614 52.64,45.39 C53.5708166,45.2542017 54.5201459,45.3259137 55.42,45.6 L55.42,45.6 C55.0466667,46.5666667 54.6933333,47.54 54.36,48.52 C53.3099809,48.2671806 52.2259397,48.1861308 51.15,48.28 C51.49,47.46 51.85,46.64 52.25,45.83 C52.3,45.73 52.15,45.64 52.09,45.74 C51.64,46.58 51.22,47.44 50.83,48.31 L50.41,48.31 C50.14,48.31 50.11,48.76 50.41,48.75 L50.63,48.75 C49.4723504,51.3843492 48.5357894,54.1104105 47.83,56.9 C47.7906232,56.9422473 47.7906232,57.0077527 47.83,57.05 C47.54,58.21 47.27,59.38 47.04,60.56 L46.73,60.56 C46.6592034,60.5781268 46.6096863,60.6419196 46.6096863,60.715 C46.6096863,60.7880804 46.6592034,60.8518732 46.73,60.87 L47.02,60.94 C46.8066667,62.0666667 46.6233333,63.2 46.47,64.34 C46.0131619,64.4510807 45.5678476,64.6050992 45.14,64.8 C44.88,64.92 45.06,65.31 45.32,65.26 C45.58,65.21 46.02,65.13 46.32,65.1 C46.18,66.17 46.07,67.25 45.98,68.32 C45.5892339,68.3787186 45.2019849,68.4588391 44.82,68.56 C44.45,68.66 44.49,69.27 44.9,69.25 L45.9,69.25 C45.7933333,70.6833333 45.72,72.1166667 45.68,73.55 C45.2559517,73.6066263 44.8376839,73.7003183 44.43,73.83 C44.17,73.92 44.1,74.35 44.43,74.42 C44.835504,74.5000804 45.2468719,74.5469028 45.66,74.56 L45.66,76.76 C45.2089099,76.9193628 44.7680737,77.1063842 44.34,77.32 C43.78,77.6 44.26,78.41 44.81,78.16 C45.09,78.03 45.37,77.93 45.66,77.82 C45.66,78.74 45.66,79.66 45.72,80.57 C45.72,80.6252285 45.7647715,80.67 45.82,80.67 C45.8752285,80.67 45.92,80.6252285 45.92,80.57 C46.01,79.57 46.09,78.63 46.17,77.66 C47.0775449,77.3877417 48.0228866,77.2628216 48.97,77.29 C49.7145885,77.4144646 50.4659107,77.4946056 51.22,77.53 C51.37,78.81 51.58,80.08 51.81,81.34 C49.66,80.25 46.21,80.86 44.24,81.6 C43.76,81.78 43.92,82.54 44.44,82.39 C45.803274,81.9792185 47.2292464,81.8166374 48.65,81.91 C49.82,82 50.93,82.53 52.06,82.62 C52.12,82.92 52.17,83.21 52.24,83.51 C52.31,83.81 52.57,83.62 52.54,83.43 C52.51,83.24 52.47,82.9 52.43,82.64 C52.5800218,82.6276509 52.7104082,82.5321233 52.7674036,82.3928015 C52.8243989,82.2534796 52.7983514,82.0939564 52.7,81.98 C52.572574,81.8559644 52.4354741,81.7422718 52.29,81.64 C52.1,80.22 51.94,78.8 51.82,77.39 C51.9515373,77.3119146 51.996063,77.1427171 51.92,77.01 C51.8743017,76.9496783 51.8241622,76.8928536 51.77,76.84 C51.7,76 51.65,75.15 51.61,74.31 C51.81,74.31 52.01,74.26 52.21,74.21 L52.32,74.21 C52.5782113,78.3744593 53.190421,82.509384 54.15,86.57 C48.4974883,87.4326405 42.9726273,88.9876622 37.7,91.2 C38.29,83.83 38.26,76.38 38.32,68.95 Z M151.23,63.05 C150.66,63.2 150.08,63.35 149.51,63.52 C149.592076,63.441664 149.638967,63.3334542 149.64,63.22 C149.64,62.66 149.79,62.22 150.38,62.11 C150.632753,62.4466562 150.913772,62.7611303 151.22,63.05 L151.23,63.05 Z M58.59,86.05 C55.25,73.92 54.08,61.05 58.02,48.95 C61.89,38.95 68.08,32.23 76.11,26.32 C81.2392201,23.3399577 86.9211266,21.4346477 92.81,20.72 C120.81,17.24 143.51,37.53 147.99,64.02 C145.766911,64.790975 143.589986,65.6891236 141.47,66.71 C125.92,73.54 111.81,86.06 107.73,102.56 C96.15,88.61 76.15,84.41 58.58,86.03 L58.59,86.05 Z M104.87,101.05 C98.1937237,95.9328777 90.6497956,92.0609828 82.6,89.62 C90.8046528,91.6664501 98.4237753,95.5855404 104.86,101.07 L104.87,101.05 Z M52.15,73.15 C52.0962863,73.1245732 52.0389267,73.1077027 51.98,73.1 L51.45,73.1 C51.45,71.89 51.4,70.69 51.45,69.49 C51.6035031,69.4331767 51.7100101,69.2923509 51.7228923,69.1291757 C51.7357746,68.9660005 51.652685,68.8102065 51.51,68.73 L51.51,68.73 C51.51,67.6966667 51.5533333,66.6633333 51.64,65.63 C51.7148711,65.4647518 51.7148711,65.2752482 51.64,65.11 C51.7133333,64.0433333 51.81,62.9766667 51.93,61.91 L52.02,61.91 C52.52,61.91 52.67,61.11 52.16,61.02 L52.03,61.02 C52.17,59.9 52.34,58.79 52.53,57.68 C53.06,57.68 53.28,56.9 52.73,56.81 L52.73,56.81 C52.85,56.16 52.97,55.51 53.11,54.86 C53.2165108,54.7522985 53.2549625,54.5946463 53.21,54.45 C53.59,52.76 54.02,51.08 54.52,49.45 C54.8439258,49.5590428 55.1795742,49.6295289 55.52,49.66 C55.5559459,49.6702815 55.5940541,49.6702815 55.63,49.66 C52.8785116,57.1703112 51.6941826,65.1645323 52.15,73.15 L52.15,73.15 Z M48.05,69.21 C48.93,69.21 49.84,69.5 50.72,69.52 C50.72,70.7 50.74,71.8833333 50.78,73.07 C49.83,73.07 48.87,73.24 47.94,73.31 L46.41,73.43 C46.51,72.02 46.62,70.61 46.74,69.21 C47.15,69.2 47.61,69.19 48.05,69.21 Z M46.82,68.21 C46.92,67.15 47.02,66.09 47.14,65.03 C48.4223071,64.9941277 49.697467,65.232794 50.88,65.73 C50.82,66.61 50.77,67.5 50.74,68.38 C49.93476,68.2110199 49.1124627,68.137181 48.29,68.16 C47.8,68.18 47.31,68.2 46.82,68.23 L46.82,68.21 Z M48.2,74.45 C49.07,74.45 49.96,74.45 50.84,74.35 C50.84,75.01 50.95,75.67 51.01,76.35 C50.1819303,76.0962233 49.3100439,76.0178897 48.45,76.12 C47.6770154,76.1640821 46.911828,76.2983255 46.17,76.52 C46.2233333,75.8533333 46.2733333,75.1866667 46.32,74.52 C46.95,74.55 47.58,74.5 48.2,74.48 L48.2,74.45 Z M50.95,64.61 C49.7662045,64.1691989 48.4948506,64.0149915 47.24,64.16 C47.36,63.16 47.5,62.16 47.66,61.11 C48.8505983,61.3947146 50.0556804,61.6150343 51.27,61.77 C51.15,62.75 51.03,63.69 50.95,64.64 L50.95,64.61 Z M47.74,60.61 C47.93,59.47 48.15,58.33 48.39,57.19 C49.58,57.3 50.78,57.38 51.97,57.57 C51.75,58.6766667 51.56,59.7866667 51.4,60.9 C50.1862489,60.7345635 48.9644902,60.6344194 47.74,60.6 L47.74,60.61 Z M52.52,52.42 C51.77,51.42 50.31,51.77 49.52,52.63 C49.94,51.3433333 50.41,50.0766667 50.93,48.83 C51.7028679,48.8309242 52.4735907,48.9113475 53.23,49.07 C53.53,49.14 53.84,49.24 54.14,49.33 C53.61,50.94 53.14,52.57 52.73,54.22 C51.4955813,53.983015 50.2199262,54.0867268 49.04,54.52 L49.22,53.87 C49.2641828,53.87 49.3,53.8341828 49.3,53.79 C49.41,52.31 51.13,52.13 52.1,52.87 C52.33,53.01 52.7,52.66 52.52,52.42 L52.52,52.42 Z M52.52,54.94 C52.38,55.53 52.26,56.12 52.14,56.71 C50.9217519,56.5271244 49.6816191,56.547399 48.47,56.77 C48.6166667,56.1033333 48.7733333,55.4366667 48.94,54.77 C50.1378666,54.6412993 51.3483318,54.6952476 52.53,54.93 L52.52,54.94 Z M56.98,46.23 L56.98,46.23 C56.53,47.23 56.12,48.23 55.73,49.23 C55.7360009,49.2036709 55.7360009,49.1763291 55.73,49.15 C55.4299631,48.9141944 55.0917344,48.731551 54.73,48.61 C55.0366667,47.63 55.37,46.6533333 55.73,45.68 C56.1249545,45.9135853 56.5484696,46.0950917 56.99,46.22 L56.98,46.23 Z M55.98,44.99 C56.42,43.8233333 56.8966667,42.6666667 57.41,41.52 C57.89,41.72 58.35,42.09 58.82,42.31 C58.3733333,43.1366667 57.99,43.9766667 57.67,44.83 L57.26,45.68 C56.9140603,45.3171437 56.4627748,45.0722601 55.97,44.98 L55.98,44.99 Z M63.53,87.55 C58.5866168,87.8326745 53.6703252,88.4743659 48.82,89.47 C50.96,88.97 53.13,88.57 55.32,88.26 C55.6164557,88.3091549 55.9208628,88.2636688 56.19,88.13 C58.6188005,87.8147123 61.0618542,87.621137 63.51,87.55 L63.53,87.55 Z M3.15,133.18 C3.60336717,137.090313 4.61359268,140.915701 6.15,144.54 C6.1272682,149.490809 6.77310223,154.422021 8.07,159.2 C8.13,159.4 8.4,159.31 8.37,159.12 C7.71,154.8 7.21,150.6 6.97,146.41 C8.39369458,149.427388 10.1874881,152.255804 12.31,154.83 C12.47,155.74 12.67,156.64 12.9,157.54 C12.9,157.68 13.18,157.66 13.17,157.54 C13.09,156.89 13.02,156.24 12.95,155.59 C14.5085273,157.387466 16.2514081,159.016389 18.15,160.45 C18.6467699,161.696484 19.2246743,162.909081 19.88,164.08 C20,164.29 20.28,164.08 20.19,163.9 C19.7966667,162.98 19.4333333,162.056667 19.1,161.13 C20.8657832,162.337209 22.7608609,163.343445 24.75,164.13 C25.3984781,165.267005 26.1733971,166.327067 27.06,167.29 C27.21,167.46 27.51,167.24 27.38,167.04 C26.8415942,166.239139 26.3442847,165.411402 25.89,164.56 C27.4364684,165.100672 29.0300559,165.495721 30.65,165.74 C30.9186306,165.782661 31.1930489,165.714057 31.41,165.55 C32.313607,169.182975 33.6568538,172.692207 35.41,176 C27.6367672,175.686818 20.0947312,173.267283 13.59,169 C12.59,167.22 11.59,165.42 10.59,163.57 C10.59,163.49 10.44,163.57 10.47,163.64 C11.26,165.32 12.1,166.98 12.98,168.64 C8.39060625,165.600147 4.86625499,161.2017 2.9,156.06 C1.21657366,148.516232 1.30214018,140.685184 3.15,133.18 L3.15,133.18 Z M33.82,153.97 C32.6153649,158.575268 32.5194089,163.400481 33.54,168.05 C33.54,167.95 33.47,167.85 33.44,167.75 C32.331182,164.072257 31.9540714,160.212819 32.33,156.39 C32.7699886,155.547647 33.2713412,154.738798 33.83,153.97 L33.82,153.97 Z M33.28,151.08 C33.53,149.41 33.85,147.76 34.28,146.13 L34.28,146.02 C37.38,133.32 44.73,122.28 56.04,115.26 C56.11,120.26 51.9,125.82 49.47,129.69 C46.89,133.81 44.1466667,137.81 41.24,141.69 L40.92,142.1 C39.3912988,143.387284 38.0692391,144.901582 37,146.59 C35.6825892,148.014585 34.4440731,149.510151 33.29,151.07 L33.28,151.08 Z M11.59,177.08 C9.10104099,172.946181 6.99239218,168.595001 5.29,164.08 C7.00538529,166.48644 8.99921916,168.681671 11.23,170.62 C12.7625856,171.924856 14.409191,173.089528 16.15,174.1 C20.3173506,180.903609 25.3605045,187.130223 31.15,192.62 C30.33,192.36 29.51,192.05 28.69,191.7 C24.6920375,189.976919 20.9556147,187.701404 17.59,184.94 C15.4444126,182.43691 13.4444487,179.812584 11.6,177.08 L11.59,177.08 Z M24.42,192.19 C24.97,192.49 25.51,192.78 26.02,193.04 C30.5879394,195.415721 35.5355336,196.975803 40.64,197.65 C41.54,198.47 42.46,199.26 43.42,200.03 C43.54,200.13 43.72,199.97 43.6,199.85 C42.8333333,199.143333 42.0766667,198.426667 41.33,197.7 C42.7587273,197.820644 44.1959694,197.797192 45.62,197.63 C46.89,199 48.19,200.33 49.56,201.63 C49.599812,201.659859 49.6555215,201.6559 49.6907107,201.620711 C49.7258999,201.585521 49.729859,201.529812 49.7,201.49 C48.5066667,200.196667 47.33,198.893333 46.17,197.58 C47.2215372,197.420838 48.251514,197.142375 49.24,196.75 C49.69,196.57 49.56,195.84 49.12,195.75 C47.3511174,195.34503 45.561915,195.03459 43.76,194.82 C40.1070569,190.548177 36.7651527,186.019897 33.76,181.27 C33.7,181.17 33.54,181.27 33.6,181.36 C36.3900737,186.050047 39.5395076,190.51676 43.02,194.72 C41.25,194.5 39.49,194.32 37.73,194.08 C33.5319238,189.691262 29.8049361,184.875002 26.61,179.71 C29.503179,184.827656 32.9797034,189.592776 36.97,193.91 C35.2814803,193.669013 33.611054,193.314882 31.97,192.85 C26.4487662,187.248388 21.4730131,181.134172 17.11,174.59 C22.8429194,177.76336 29.4142205,179.093682 35.93,178.4 C36.1820949,178.375357 36.4132317,178.248954 36.57,178.05 C40.2935154,184.30934 44.5920905,190.208164 49.41,195.67 C53.14,200.51 56.8,205.38 60.41,210.26 C55.2136615,210.454019 50.0271041,209.670438 45.12,207.95 C37.7012672,203.416055 30.7681733,198.131623 24.43,192.18 L24.42,192.19 Z M61.81,212.26 C63.65,214.746667 65.49,217.24 67.33,219.74 C65.18,218.74 63.04,217.74 60.92,216.74 C57.74,215.19 54.59,213.54 51.47,211.8 C54.8806336,212.472761 58.3731624,212.627835 61.83,212.26 L61.81,212.26 Z M74.15,226.6 C64.05,222.23 53.67,218.17 44.26,212.38 C39.2867746,209.27721 34.6865967,205.613173 30.55,201.46 C38.5702729,207.896091 47.2524566,213.460734 56.45,218.06 C64.35,222.06 72.45,225.61 80.45,229.32 L74.15,226.6 Z M162.31,208.2 C160.21,210.87 158.07,213.5 155.95,216.2 C149.670084,219.665052 143.199819,222.773317 136.57,225.51 C136.43,225.57 136.48,225.8 136.64,225.75 C142.923838,223.80893 148.963535,221.151463 154.64,217.83 C152.64,220.36 150.64,222.92 148.78,225.53 C143.728715,228.302321 138.465554,230.66974 133.04,232.61 C132.91,232.61 132.96,232.87 133.1,232.83 C138.412262,231.236642 143.515101,229.014221 148.3,226.21 C147.98,226.66 147.65,227.11 147.3,227.56 C144.406692,231.621841 141.861008,235.9204 139.69,240.41 C138.730091,242.438676 137.882151,244.518465 137.15,246.64 C136.71,247.93 136.42,250.83 135.5,252.23 C134.094033,252.051894 132.698679,251.798193 131.32,251.47 L130.15,250.83 C132.428832,250.964629 134.673677,250.228262 136.43,248.77 C136.58,248.63 136.43,248.33 136.22,248.41 C135.22,248.82 134.22,249.41 133.13,249.72 C132.04,250.03 130.95,250.26 129.87,250.55 C129.81716,250.559763 129.779106,250.606273 129.78,250.66 C123.886667,247.926667 117.953333,245.26 111.98,242.66 C107.36,239.86 102.82,236.88 98.12,234.3 C89.12,229.35 79.64,225.3 70.27,221.01 C67,214.02 62.15,207.83 57.09,201.83 C57.16,201.89 57.25,201.83 57.19,201.71 C51.9687762,195.623884 47.123136,189.225368 42.68,182.55 C42.68,182.48 42.52,182.55 42.56,182.62 C44.86,186.32 47.32,189.9 49.95,193.35 C43.64,185.68 37.95,177.68 35.66,167.87 C34.1895718,161.577469 34.9679014,154.968743 37.86,149.19 C38.92,148.02 39.96,146.87 40.86,145.73 C41.4,145.04 41.91,144.32 42.44,143.62 C44.3726085,142.107254 46.6389788,141.078644 49.05,140.62 C56.7400274,139.173068 64.2656735,143.824577 66.41,151.35 C67.54,155.41 67.05,160.5 63.94,163.66 C62.0617283,165.814053 59.1167541,166.703762 56.36,165.95 C50.2066667,160.31 50.23,157.976667 56.43,158.95 C55.21,158.84 55.18,160.73 56.43,160.85 C57.874907,161.017058 59.280555,160.30789 60.0047801,159.046477 C60.7290051,157.785064 60.6327546,156.2136 59.76,155.05 C57.31,151.9 52.5,154.28 50.96,157.05 C49.9627038,158.877646 49.7677654,161.036968 50.4216139,163.013675 C51.0754625,164.990382 52.5195736,166.607545 54.41,167.48 C59.23,169.83 64.55,167.28 67.15,162.83 C73.99,151.22 63,137.03 50.37,138.19 C48.7286912,138.336734 47.1162064,138.713766 45.58,139.31 C46.71,137.73 47.82,136.14 48.89,134.53 C52.81,128.63 59.57,120.8 57.89,113.25 C57.8200493,112.936522 57.6037826,112.675723 57.3086673,112.548962 C57.013552,112.422201 56.6755107,112.444908 56.4,112.61 C48.1937158,117.4858 41.5633701,124.619496 37.3,133.16 C38.3,127.16 38.12,120.31 34.07,115.39 C32.1296751,113.03122 29.3150677,111.560983 26.2706226,111.315919 C23.2261776,111.070855 20.212639,112.071954 17.92,114.09 C13.22,117.97 11.47,125.4 13.64,131.09 C15.34,135.52 19.99,138.56 24.34,135.31 C27.68,132.81 29.34,124.98 24.02,123.48 C18.49,121.92 17.76,128.83 19.75,132.15 C20.15,132.82 21.38,132.42 21.09,131.61 C19.6966667,128.89 20.87,128.97 24.61,131.85 C18.89,134.323333 15.68,133.323333 14.98,128.85 C14.2490303,125.653719 14.6630956,122.302267 16.15,119.38 C21.15,109.62 32.74,112.64 35.21,122.2 C37.76,132.08 32.58,142.12 30.93,151.74 C30.6425032,153.415494 30.4820462,155.110321 30.45,156.81 C30.2830073,157.497933 30.192459,158.202198 30.18,158.91 C30.1798437,159.124865 30.3048245,159.320147 30.5,159.41 C30.583196,160.717805 30.740112,162.019874 30.97,163.31 C28.6091187,162.606045 26.3244469,161.668056 24.15,160.51 C22.34,155.12 22.36,149.46 23.29,143.4 C23.29,143.22 23.04,143.13 23.01,143.32 C22.01,148.7 21.46,154.58 22.95,159.84 C21.0322112,158.727649 19.2270605,157.431557 17.56,155.97 C16.2919833,150.82798 16.1013221,145.479254 17,140.26 C17,140.05 16.72,139.95 16.67,140.17 C15.6146768,145.06949 15.5704407,150.13282 16.54,155.05 C15.0751685,153.639762 13.736717,152.103889 12.54,150.46 C12.206651,145.76162 12.3809924,141.040991 13.06,136.38 C13.06,136.3 12.95,136.26 12.93,136.38 C11.9898677,140.646303 11.5900634,145.013913 11.74,149.38 C9.67253701,146.281879 8.03430713,142.917958 6.87,139.38 C6.94303325,136.346021 7.2102465,133.319831 7.67,130.32 C7.67,130.21 7.52,130.16 7.5,130.32 C7.03,132.88 6.66,135.49 6.43,138.11 C5.5557782,135.211266 4.92689525,132.244143 4.55,129.24 C4.53507271,129.131708 4.49387478,129.028713 4.43,128.94 C7.51028116,119.683153 12.8757947,111.352849 20.03,104.72 C26.5,100.83 32.32,96.91 39.7,94.42 C47.1577605,91.961773 54.9158892,90.5319357 62.76,90.17 C79.37,89.29 93.5,94.87 106.22,105.42 C106.421463,105.586963 106.669255,105.688174 106.93,105.71 L106.93,105.71 C106.84,106.12 107.45,106.45 107.65,106.02 L107.65,106.02 C107.77624,105.991178 107.876252,105.895013 107.91,105.77 C107.91,105.64 108,105.51 108.04,105.38 C108.376583,105.112819 108.541303,104.683781 108.47,104.26 C113.84,92.7 120.07,82.62 130.78,75.02 C125.63626,79.2160331 121.141011,84.1493493 117.44,89.66 C117.44,89.66 117.44,89.75 117.52,89.66 C122.758078,82.3070541 129.34474,76.0156208 136.93,71.12 C140.297998,69.2626124 143.837827,67.7354957 147.5,66.56 C150.912546,65.5056199 154.450309,64.910388 158.02,64.79 C141.46,70.79 127.46,84.05 119.91,99.79 C119.91,99.88 120,99.96 120.05,99.87 C128.41,83.69 141.68,72.2 158.05,65.34 C159.14,65.34 160.19,65.47 161.23,65.6 C160.5,65.95 159.79,66.34 159.08,66.77 C159.85,66.33 160.63,65.93 161.43,65.55 C163.155818,65.7798132 164.861018,66.1442579 166.53,66.64 C163.95,67.72 161.423333,68.9233333 158.95,70.25 C152.190612,73.8750443 145.939848,78.3773427 140.36,83.64 C140.29,83.71 140.36,83.82 140.47,83.75 C145.377664,79.3590359 150.714522,75.4728112 156.4,72.15 C158.913333,70.7033333 161.493333,69.37 164.14,68.15 C164.98,67.77 165.98,67.28 167.06,66.77 C168.06,67.07 168.93,67.42 169.83,67.77 C168.210966,68.5822795 166.64754,69.500959 165.15,70.52 C165.05,70.58 165.15,70.74 165.24,70.68 C166.876506,69.7006239 168.573214,68.8255499 170.32,68.06 C172.062452,68.815907 173.735487,69.7226921 175.32,70.77 C172.209044,71.8296641 169.172293,73.0958121 166.23,74.56 C162.82,73.98 159.31,74.79 157.76,78.02 C157.717268,78.1067525 157.718976,78.2087841 157.764588,78.2940577 C157.810199,78.3793312 157.89412,78.4373885 157.99,78.45 C157.669859,78.8843331 157.388763,79.3461326 157.15,79.83 C150.278204,84.4099401 144.135893,89.9993759 138.93,96.41 C138.8,96.58 139.02,96.81 139.17,96.65 C144.370302,90.9117977 150.208016,85.785345 156.57,81.37 C155.634966,84.430364 155.943967,87.735953 157.43,90.57 C160.48,95.71 168.23,96.39 172.65,92.57 C173.099802,92.1755916 173.50855,91.7366904 173.87,91.26 C176.293646,92.9626309 178.142112,95.3621491 179.17,98.14 C179.204152,98.2502618 179.30462,98.3266175 179.42,98.33 C180.091127,98.3053588 180.759564,98.2318306 181.42,98.11 C183.27603,101.612239 184.760769,105.29895 185.85,109.11 C185.96,109.54 186.06,109.98 186.15,110.41 C185.231624,108.837274 184.119612,107.385946 182.84,106.09 C176.44,99.69 166.42,98.19 158.16,101.51 C140.93,108.45 133.21,136.51 153.23,145.3 C160.23,148.39 168.33,146.67 172.93,140.3 C173.627352,139.328079 174.208005,138.277533 174.66,137.17 L175.74,136.58 C175.223953,140.296251 174.44873,143.971878 173.42,147.58 C169.070271,149.939554 164.578304,152.026899 159.97,153.83 C159.9,153.83 159.97,153.96 159.97,153.94 C164.515393,152.318315 168.948422,150.397447 173.24,148.19 C172.76,149.89 172.24,151.59 171.75,153.29 C165.34,156 158.75,158.29 152.19,160.66 C152.06,160.66 152.11,160.92 152.25,160.88 C158.803741,158.873415 165.251955,156.537106 171.57,153.88 L171.14,155.29 C171.14,155.42 171.29,155.47 171.34,155.34 L171.91,153.73 C174.52,152.6 177.1,151.4 179.61,150.09 C174.01,159.19 168.37,168.28 162.81,177.42 L158.64,179.56 C158.47,179.65 158.64,179.88 158.79,179.81 C159.95,179.32 161.12,178.81 162.28,178.28 C160.366667,181.433333 158.463333,184.596667 156.57,187.77 C155.85,188.05 155.15,188.34 154.42,188.61 C154.22,188.68 154.3,189 154.51,188.94 L156.18,188.42 C154.586667,191.086667 153.01,193.753333 151.45,196.42 C150.75,196.59 150.04,196.77 149.33,196.92 C149.16,196.92 149.23,197.21 149.4,197.18 C150,197.09 150.6,196.96 151.2,196.85 C150.086667,198.763333 148.98,200.683333 147.88,202.61 C147.863388,202.670282 147.888765,202.73427 147.942176,202.766782 C147.995588,202.799293 148.064083,202.792444 148.11,202.75 C149.41,200.75 150.696667,198.75 151.97,196.75 C155.002128,196.129783 157.976138,195.253303 160.86,194.13 C160.69833,195.346862 160.6115,196.572499 160.6,197.8 C156.05,199.8 151.39,201.52 146.69,203.37 C146.51,203.44 146.58,203.74 146.77,203.67 C151.465659,202.267642 156.085228,200.622088 160.61,198.74 C160.641564,200.230095 160.795414,201.715083 161.07,203.18 C155.07,206.18 148.7,208.55 142.5,211.41 C142.34,211.48 142.5,211.76 142.62,211.7 C147.76,209.75 152.85,207.62 157.9,205.46 C159,204.99 160.12,204.51 161.24,204.01 C161.516993,205.271505 161.884613,206.511388 162.34,207.72 C162.373363,207.795702 162.417117,207.866382 162.47,207.93 L162.31,208.2 Z M161.02,193.35 C158.195457,194.526085 155.29161,195.501831 152.33,196.27 C154.056667,193.536667 155.763333,190.786667 157.45,188.02 C159.323333,187.393333 161.176667,186.703333 163.01,185.95 C162.102915,188.348005 161.436308,190.830194 161.02,193.36 L161.02,193.35 Z M163.81,206.13 C163.53463,205.165966 163.310978,204.187905 163.14,203.2 C163.423067,204.0228 163.777759,204.819185 164.2,205.58 L163.81,206.13 Z M166.25,202.83 C166.13,202.43 166.03,202.03 165.93,201.63 C166.854134,201.037117 167.727165,200.368128 168.54,199.63 C167.76,200.66 167.01,201.73 166.25,202.83 Z M169.25,198.64 C168.096667,199.4 166.923333,200.12 165.73,200.8 C165.437841,199.466698 165.250602,198.112554 165.17,196.75 C168.506896,195.123976 171.695642,193.21006 174.7,191.03 C172.9,193.53 171.07,196.06 169.25,198.59 L169.25,198.64 Z M177.58,186.96 C176.89,187.96 176.19,188.96 175.49,189.91 C172.196424,192.124829 168.739877,194.087105 165.15,195.78 L165.15,193.6 C165.15,193.52 165.15,193.44 165.23,193.35 C165.284359,193.213751 165.26551,193.059191 165.18,192.94 C165.18,192.7 165.24,192.46 165.27,192.22 C172.077048,188.861668 178.11405,184.128768 183,178.32 C183.09,178.21 182.94,178.05 182.84,178.16 C177.823038,183.526704 171.916059,187.985695 165.38,191.34 C165.729234,188.878655 166.329015,186.459429 167.17,184.12 C169.32,183.12 171.42,182 173.48,180.82 C172.62,182.66 171.8,184.52 171.04,186.39 C171.04,186.47 171.15,186.53 171.18,186.45 C172.18,184.45 173.18,182.4 174.27,180.36 C178.907231,177.649844 183.276818,174.505751 187.32,170.97 C184.27,176.39 181,181.72 177.58,186.92 L177.58,186.96 Z M187.82,170.16 C183.759843,173.241574 179.529852,176.092728 175.15,178.7 C176.89,175.46 178.7,172.19 180.49,168.9 C184.809624,166.329395 188.970492,163.50094 192.95,160.43 C191.33,163.683333 189.62,166.91 187.82,170.11 L187.82,170.16 Z M181.47,167.16 C183.18,164 184.86,160.82 186.47,157.6 L187.3,157.05 C191.05,154.54 195.47,152.05 198.54,148.55 C196.99,152.22 195.3,155.86 193.54,159.47 C189.43,161.95 185.5,164.61 181.47,167.13 L181.47,167.16 Z M199.05,154.21 C197.677473,157.096894 196.120936,159.89265 194.39,162.58 C197.51439,156.578313 200.266263,150.389937 202.63,144.05 C201.750632,147.529546 200.552223,150.920574 199.05,154.18 L199.05,154.21 Z M200.31,144.14 C199.87,145.27 199.39,146.39 198.92,147.52 C195.4,151.14 191.1,153.94 186.86,156.7 C187.86,154.57 188.86,152.42 189.75,150.26 C194.622665,146.365555 199.013652,141.904071 202.83,136.97 C202.07,139.376667 201.23,141.76 200.31,144.12 L200.31,144.14 Z M205,128.97 C204.47,131.36 203.82,133.74 203.11,136.09 C198.92,140.49 194.86,144.79 190.42,148.64 C191.33,146.33 192.15,144.01 192.86,141.64 C194.690344,140.190233 196.442788,138.644745 198.11,137.01 C197.98,138.17 197.83,139.33 197.65,140.5 C197.65,140.61 197.8,140.66 197.82,140.5 C198.11,139.18 198.34,137.86 198.54,136.5 C200.911634,134.128275 203.073068,131.555298 205,128.81 L205,128.97 Z M205,128.76 L205,128.76 C202.95,131.14 200.86,133.41 198.71,135.56 C198.98,133.56 199.14,131.56 199.22,129.56 C201.35,127.47 203.38,125.29 205.29,123.02 C205.243333,124.893333 205.15,126.796667 205.01,128.73 L205,128.76 Z M205.28,122.76 C203.28,124.84 201.28,126.83 199.23,128.76 C199.283333,126.76 199.246667,124.786667 199.12,122.84 C200.32,121.96 201.483333,121.03 202.61,120.05 C202.61,120.27 202.61,120.49 202.68,120.71 C202.75,120.93 202.91,120.86 202.91,120.71 L202.91,119.79 C203.73,119.06 204.53,118.31 205.28,117.51 C205.32,119.203333 205.323333,120.93 205.29,122.69 L205.28,122.76 Z" id="_Составной_контур_3"></path>
                            <path d="M63.23,32.61 C61.87,31.15 59.34,30.39 57.41,30.17 C57.34,30.17 57.33,30.27 57.41,30.28 C58.4635464,30.5539989 59.4934955,30.9118059 60.49,31.35 C61.4,31.77 62.19,32.35 63.08,32.81 C63.1342159,32.8307329 63.1956073,32.8130117 63.2304343,32.7665757 C63.2652613,32.7201397 63.2650841,32.6562421 63.23,32.61 L63.23,32.61 Z" id="_Контур_2"></path>
                            <path d="M63.5,28.16 C62.5031597,27.5288314 61.2839667,27.3541411 60.15,27.68 C60.0991398,27.69516 60.0642783,27.7419284 60.0642783,27.795 C60.0642783,27.8480716 60.0991398,27.89484 60.15,27.91 C61.2090578,27.9652274 62.2387297,28.2775612 63.15,28.82 C63.5959914,29.1104926 63.9884316,29.4758679 64.31,29.9 C64.57,30.24 64.66,30.51 65.05,30.67 C65.1096864,30.6884414 65.1743066,30.6818109 65.2290043,30.6516329 C65.2837021,30.6214548 65.3237713,30.5703256 65.34,30.51 C65.62,29.56 64.23,28.57 63.5,28.16 Z" id="_Контур_3"></path>
                            <path d="M65.49,25.93 C64.6355821,25.3852901 63.6062772,25.1851475 62.61,25.37 C62.5541875,25.3859432 62.5157071,25.436955 62.5157071,25.495 C62.5157071,25.553045 62.5541875,25.6040568 62.61,25.62 C63.4911187,25.788171 64.338913,26.0989163 65.12,26.54 C65.83761,27.0882084 66.5067423,27.6971188 67.12,28.36 C67.1867152,28.4136939 67.2793514,28.4214975 67.3541089,28.3797212 C67.4288665,28.3379449 67.4707672,28.2549589 67.46,28.17 C67.1605032,27.1722805 66.4412878,26.3544925 65.49,25.93 Z" id="_Контур_4"></path>
                            <path d="M66.01,23.26 C65.9738243,23.2725893 65.9495804,23.3066963 65.9495804,23.345 C65.9495804,23.3833037 65.9738243,23.4174107 66.01,23.43 C66.7078644,23.6847343 67.3622334,24.0456492 67.95,24.5 C68.5017427,24.9835455 69.0259009,25.497688 69.52,26.04 C69.5485812,26.0775129 69.5950043,26.0969283 69.641782,26.0909327 C69.6885598,26.084937 69.7285855,26.0544412 69.746782,26.0109327 C69.7649785,25.9674241 69.7585812,25.9175129 69.73,25.88 C68.957024,24.4827399 67.5859823,23.5171137 66.01,23.26 L66.01,23.26 Z" id="_Контур_5"></path>
                            <path d="M72.15,22.83 C71.3883699,22.2223032 70.4534473,21.8721449 69.48,21.83 C69.16,21.83 69.06,22.34 69.39,22.4 C70.236762,22.5597603 71.0305496,22.9274454 71.7,23.47 C72.043045,23.756063 72.3398738,24.0933684 72.58,24.47 C72.7233874,24.766153 72.9278745,25.0285781 73.18,25.24 C73.2610854,25.2847662 73.3594578,25.2848449 73.4406148,25.2402086 C73.5217717,25.1955723 73.5743845,25.1124517 73.58,25.02 C73.71,24.18 72.73,23.27 72.15,22.83 Z" id="_Контур_6"></path>
                            <path d="M72.23,19.09 C72.1938243,19.1025893 72.1695804,19.1366963 72.1695804,19.175 C72.1695804,19.2133037 72.1938243,19.2474107 72.23,19.26 C73.0626758,19.5177604 73.8254286,19.9624145 74.46,20.56 C74.9623322,21.1191927 75.4362626,21.7032618 75.88,22.31 C75.9309765,22.3559535 76.003649,22.3689195 76.0673721,22.3434303 C76.1310952,22.317941 76.174778,22.2584329 76.18,22.19 C76.15,20.31 73.86,19.17 72.23,19.09 Z" id="_Контур_7"></path>
                            <path d="M80.15,20.21 L79.3,18.69 C79.13,18.39 78.7,18.69 78.84,18.95 L79.57,20.54 C79.7112847,20.9870063 79.9703586,21.3877072 80.32,21.7 C80.386458,21.7384837 80.4681736,21.7395272 80.5355927,21.7027532 C80.6030117,21.6659792 80.6463753,21.5967106 80.65,21.52 C80.6030172,21.0465866 80.4303978,20.5943237 80.15,20.21 L80.15,20.21 Z" id="_Контур_8"></path>
                            <path d="M81.84,17.49 C81.1662762,17.2995775 80.4467191,17.5663796 80.06,18.15 C79.92,18.37 80.27,18.58 80.41,18.36 C80.7176497,17.924548 81.2740651,17.7417838 81.78,17.91 C82.34,18.06 82.43,18.42 82.78,18.83 C82.8062832,18.8863444 82.8628269,18.9223613 82.925,18.9223613 C82.9871731,18.9223613 83.0437168,18.8863444 83.07,18.83 C83.2,18.14 82.38,17.62 81.84,17.49 Z" id="_Контур_9"></path>
                            <path d="M85.15,18.11 C85.1281232,18.1195379 85.1139792,18.1411344 85.1139792,18.165 C85.1139792,18.1888656 85.1281232,18.2104621 85.15,18.22 C85.1718768,18.2104621 85.1860208,18.1888656 85.1860208,18.165 C85.1860208,18.1411344 85.1718768,18.1195379 85.15,18.11 L85.15,18.11 Z" id="_Контур_10"></path>
                            <path d="M70.85,100.05 C69.5568509,100.80849 68.4199408,101.806256 67.5,102.99 C67.0152329,102.040422 66.655571,101.032024 66.43,99.99 C66.3660425,99.771401 66.1545525,99.6301195 65.928123,99.6547314 C65.7016935,99.6793433 65.5254972,99.8627647 65.51,100.09 C65.5275903,101.509148 65.8516531,102.907735 66.46,104.19 C65.12,105.66 63.74,107.09 62.53,108.67 C62.16,109.15 62.91,109.67 63.33,109.3 C64.69,108.12 65.95,106.81 67.19,105.51 C67.937567,106.82819 69.2508861,107.72833 70.75,107.95 C70.9186897,107.953656 71.0763951,107.866608 71.1632056,107.721923 C71.2500161,107.577239 71.2526093,107.397123 71.17,107.25 C70.39,106.14 69.17,105.48 68.33,104.37 L68.33,104.37 C69.581676,103.282764 70.622373,101.974265 71.4,100.51 C71.52,100.15 71.15,99.92 70.85,100.05 Z" id="_Контур_11"></path>
                            <path d="M169.09,80.06 C169.19,79.84 169.09,79.48 168.79,79.51 C167.41,79.65 166.23,80.79 165.27,81.85 C163.920226,81.7468085 162.563107,81.8994845 161.27,82.3 C160.85,82.44 160.85,83.18 161.36,83.13 C162.323237,83.0303157 163.292184,82.9969038 164.26,83.03 C163.17853,84.2230455 162.36678,85.6350796 161.88,87.17 C161.77,87.56 162.31,87.96 162.61,87.61 C163.71,86.27 164.61,84.78 165.77,83.5 L166.01,83.25 C167.18,83.51 168.28,84.03 169.47,84.25 C169.78,84.25 169.89,83.87 169.72,83.68 C169.037082,82.9744055 168.171567,82.4724069 167.22,82.23 C167.987863,81.6450126 168.624842,80.9058444 169.09,80.06 L169.09,80.06 Z" id="_Контур_12"></path>
                        </g>
                        <path d="M161.09,207.73 C154.52,211.35 148.44,214.73 141.32,217.21 C141.261051,217.226077 141.215157,217.272381 141.199606,217.331471 C141.184054,217.390561 141.201208,217.453458 141.244606,217.496471 C141.288003,217.539484 141.351051,217.556077 141.41,217.54 C148.35,215.85 155.83,212.65 161.3,208 C161.45,207.83 161.25,207.64 161.09,207.73 Z" id="_Контур_13"></path>
                        <path d="M143.64,232.3 C141.629626,234.256664 139.212108,235.745417 136.56,236.66 C136.495723,236.695541 136.4639,236.770279 136.482825,236.841247 C136.501749,236.912215 136.566562,236.961183 136.64,236.96 C139.473399,236.326451 142.00814,234.750611 143.83,232.49 C143.94,232.36 143.77,232.18 143.64,232.3 Z" id="_Контур_14"></path>
                        <path d="M120.28,90.83 C114.486796,97.484966 110.314352,105.391731 108.09,113.93 C108.062386,114.02665 108.11835,114.127386 108.215,114.155 C108.31165,114.182614 108.412386,114.12665 108.44,114.03 C110.972909,105.66423 115.019974,97.8344807 120.38,90.93 C120.42,90.83 120.33,90.75 120.28,90.83 Z" id="_Контур_15"></path>
                        <path d="M130.15,91.75 C125.45,98.3 121.02,105.32 118.08,112.86 C118.08,112.94 118.18,113 118.22,112.92 C121.97,105.68 125.61,98.55 130.22,91.81 C130.31,91.74 130.21,91.69 130.15,91.75 Z" id="_Контур_16"></path>
                        <path d="M132.6,97.44 C130.05,102.11 127.34,106.69 124.7,111.31 C124.686118,111.342468 124.698592,111.380192 124.729093,111.397984 C124.759594,111.415776 124.798571,111.408065 124.82,111.38 C127.66,106.88 130.2,102.2 132.68,97.49 C132.7,97.44 132.63,97.39 132.6,97.44 Z" id="_Контур_17"></path>
                        <path d="M127.32,212.17 L119,214.83 L119,214.83 L127.33,212.21 C127.33,212.21 127.34,212.16 127.32,212.17 Z" id="_Контур_18"></path>
                        <path d="M110.61,222.68 L110.29,222.68 L110.61,222.68 Z" id="_Контур_19"></path>
                        <path d="M132.99,215.83 C124.465179,220.131105 115.26462,222.935246 105.79,224.12 C105.6,224.12 105.6,224.43 105.79,224.41 C115.392817,223.546115 124.71056,220.692216 133.15,216.03 C133.26,215.95 133.15,215.75 132.99,215.83 Z" id="_Контур_20"></path>
                        <path d="M133.89,220.52 C125.560754,224.763369 116.614047,227.665734 107.38,229.12 C107.28,229.12 107.3,229.31 107.38,229.3 C116.743362,228.324293 125.79463,225.379904 133.94,220.66 C134.06,220.61 133.98,220.48 133.89,220.52 Z" id="_Контур_21"></path>
                        <path d="M139.03,237.24 C135.090555,239.381944 130.916005,241.059818 126.59,242.24 C125.145695,240.888272 123.623061,239.62275 122.03,238.45 C125.615944,237.821418 129.054133,236.532945 132.17,234.65 C132.32,234.55 132.22,234.26 132.04,234.34 C128.584892,235.849092 125.004633,237.053665 121.34,237.94 C119.138551,236.375149 116.85894,234.923273 114.51,233.59 C116.485728,233.341984 118.44086,232.950958 120.36,232.42 C121.3,233.21 122.23,234.02 123.14,234.87 C123.157863,234.887863 123.1839,234.89484 123.208301,234.888301 C123.232703,234.881763 123.251763,234.862703 123.258301,234.838301 C123.26484,234.8139 123.257863,234.787863 123.24,234.77 C122.442961,233.892573 121.580485,233.076898 120.66,232.33 C123.09813,231.648 125.462942,230.726862 127.72,229.58 C127.85,229.51 127.72,229.28 127.62,229.33 C125.06,230.24 122.52,231.04 119.96,231.74 C118.833439,230.873467 117.658182,230.072155 116.44,229.34 C116.395817,229.315147 116.339853,229.330817 116.315,229.375 C116.290147,229.419183 116.305817,229.475147 116.35,229.5 C117.498344,230.20583 118.600574,230.984071 119.65,231.83 C117.75,232.35 115.84,232.83 113.88,233.22 C111.64,231.96 109.37,230.77 107.15,229.65 C106.9,229.53 106.69,229.89 106.93,230.02 C108.93,231.09 110.93,232.24 112.79,233.45 L112.52,233.51 C112.459212,233.526697 112.417081,233.581961 112.417081,233.645 C112.417081,233.708039 112.459212,233.763303 112.52,233.78 L113.15,233.72 C115.42,235.17 117.65,236.72 119.86,238.24 C119.12,238.38 118.37,238.51 117.6,238.61 C117.36,238.61 117.42,239.05 117.66,239.03 C118.66,238.96 119.57,238.84 120.52,238.7 C122.29,239.94 124.07,241.18 125.88,242.41 C124.75,242.7 123.61,242.97 122.44,243.19 C122.28,243.19 122.31,243.5 122.44,243.48 C123.783805,243.324449 125.118854,243.100829 126.44,242.81 L127.22,243.34 C127.39,243.46 127.58,243.2 127.44,243.06 L127.04,242.69 C131.36129,241.698107 135.465221,239.925725 139.15,237.46 C139.210751,237.426863 139.233137,237.350751 139.2,237.29 C139.166863,237.229249 139.090751,237.206863 139.03,237.24 Z" id="_Контур_22"></path>
                        <path d="M138.32,241.33 C136.712335,242.433719 135.004888,243.384533 133.22,244.17 C131.62,244.82 129.76,244.91 128.22,245.71 C128.198939,245.722656 128.186056,245.745429 128.186056,245.77 C128.186056,245.794571 128.198939,245.817344 128.22,245.83 C131.51,246.83 136.36,244 138.56,241.7 C138.78,241.51 138.55,241.18 138.32,241.33 Z" id="_Контур_23"></path>
                        <path d="M104.4,161.83 C104.1,161.58 103.66,162.01 103.97,162.26 C104.624807,162.902796 105.205132,163.6173 105.7,164.39 C105.74248,164.428295 105.803041,164.4391 105.856143,164.417859 C105.909246,164.396618 105.945648,164.347027 105.95,164.29 C105.79179,163.292422 105.231573,162.403304 104.4,161.83 L104.4,161.83 Z" id="_Контур_24"></path>
                        <path d="M104.81,169.02 L104.56,168.36 C104.37,167.85 103.62,168.21 103.9,168.64 L104.29,169.24 C104.46,169.49 104.93,169.33 104.81,169.02 Z" id="_Контур_25"></path>
                        <path d="M139.7,99.66 C134.928801,104.908465 131.73635,111.397354 130.49,118.38 C130.49,118.46 130.6,118.5 130.62,118.38 C132.19203,111.557728 135.350866,105.20237 139.84,99.83 C139.93,99.71 139.78,99.56 139.7,99.66 Z" id="_Контур_26"></path>
                        <path d="M140.86,34.89 C145.41,42.89 147.92,51.12 151.07,59.62 C151.094853,59.711127 151.188873,59.7648528 151.28,59.74 C151.371127,59.7151472 151.424853,59.621127 151.4,59.53 C149.95,50.89 145.44,42.29 140.86,34.89 Z" id="_Контур_27"></path>
                        <path d="M42.56,64.14 L42.49,64.14 C41.3897878,72.1425083 41.3393614,80.2544322 42.34,88.27 C42.34,88.57 42.85,88.57 42.81,88.27 C41.7971106,80.2631732 41.7132205,72.166094 42.56,64.14 L42.56,64.14 Z" id="_Контур_28"></path>
                        <path d="M39.15,72.18 L39.08,72.18 C38.5728772,77.5507757 38.8151986,82.9659853 39.8,88.27 C39.8,88.36 39.96,88.34 39.96,88.27 C39.3222655,82.9315094 39.0516297,77.5555475 39.15,72.18 L39.15,72.18 Z" id="_Контур_29"></path>
                        <path d="M68.76,205.83 C61.0490158,198.544021 54.2737257,190.32768 48.59,181.37 C53.755597,190.700841 60.56111,199.02396 68.68,205.94 C68.71,206.03 68.85,205.9 68.76,205.83 Z" id="_Контур_30"></path>
                        <path d="M76.6,203.44 C69.5108084,197.479546 63.1831257,190.668219 57.76,183.16 C57.76,183.09 57.59,183.16 57.64,183.23 C62.780359,190.992376 69.1543015,197.862858 76.51,203.57 C76.58,203.62 76.67,203.5 76.6,203.44 Z" id="_Контур_31"></path>
                        <path d="M90.08,226.22 C83.4811801,222.372914 77.1861663,218.026914 71.25,213.22 C71.17,213.16 71.06,213.22 71.14,213.33 C76.8890601,218.3957 83.2201892,222.759681 90,226.33 C90.0276198,226.332052 90.0543362,226.319672 90.0706262,226.297274 C90.0869162,226.274875 90.0904621,226.245644 90.08,226.22 L90.08,226.22 Z" id="_Контур_32"></path>
                        <path d="M102.6,226.55 C94.9029905,222.172167 87.6373023,217.076141 80.9,211.33 C80.83,211.27 80.74,211.33 80.8,211.43 C87.093246,217.741948 94.4229382,222.92719 102.47,226.76 C102.62,226.83 102.74,226.63 102.6,226.55 Z" id="_Контур_33"></path>
                        <path d="M103.95,222.25 C98.5,218.12 93.08,214.35 88.29,209.4 C88.14,209.24 87.9,209.48 88.05,209.64 C92.59,214.48 97.83,219.46 103.77,222.54 C103.850081,222.589706 103.955294,222.565081 104.005,222.485 C104.054706,222.404919 104.030081,222.299706 103.95,222.25 L103.95,222.25 Z" id="_Контур_34"></path>
                        <path d="M118.26,241.7 C112.73,237.49 106.46,233.54 99.83,231.34 C99.7889145,231.322137 99.7414199,231.327549 99.7054071,231.354199 C99.6693943,231.380848 99.6503344,231.424686 99.6554071,231.469199 C99.6604798,231.513711 99.6889145,231.552137 99.73,231.57 C105.88,235.05 112.14,238.14 118.13,241.92 C118.28,242 118.39,241.83 118.26,241.7 Z" id="_Контур_35"></path>
                    </g>
                </g>
            </g>
        </g>
    </g>
</svg>