<?xml version="1.0" encoding="UTF-8" standalone="no"?>
<svg width="228px" height="39px" viewBox="0 0 228 39" version="1.1" xmlns="http://www.w3.org/2000/svg" xmlns:xlink="http://www.w3.org/1999/xlink">
    <!-- Generator: Sketch 41 (35326) - http://www.bohemiancoding.com/sketch -->
    <title>QUEST-R</title>
    <desc>Created with Sketch.</desc>
    <defs></defs>
    <g id="Page-1" stroke="none" stroke-width="1" fill="none" fill-rule="evenodd">
        <g id="Design_home-New-Copy-3" transform="translate(-60.000000, -52.000000)" fill="#FFCE0E">
            <g id="Group-18" transform="translate(60.000000, 52.000000)">
                <path d="M40.81,35.987 L37.948,32.701 L37.312,31.694 L36.623,30.952 L36.305,29.574 L36.305,28.249 L37.206,26.235 L37.471,25.122 L37.842,24.221 L38.266,20.935 L38.372,19.133 L38.266,17.649 L38.054,16.483 L38.054,15.582 L37.842,14.469 L36.888,11.395 L35.51,8.639 L33.602,6.042 L32.913,5.353 L31.27,3.922 L26.871,1.378 L22.79,0.212 L20.723,-7.10542736e-15 L19.186,0.106 L16.589,0.159 L15.476,0.371 L14.469,0.689 L13.462,0.795 L11.448,1.431 L6.89,3.975 L4.717,6.148 L2.173,9.593 L1.749,10.441 L1.484,11.554 L1.06,12.402 L0.424,14.522 L0.371,15.582 L0.106,16.642 L0,20.776 L0.212,22.843 L1.007,26.023 L1.855,27.825 L2.173,28.832 L2.809,29.733 L3.286,30.74 L3.922,31.376 L4.611,32.33 L6.996,34.45 L9.593,36.146 L10.653,36.464 L11.501,37.047 L13.462,37.471 L14.522,37.789 L15.476,38.001 L19.186,38.266 L20.829,38.213 L21.889,38.266 L23.055,37.948 L23.956,37.63 L27.189,36.729 L28.567,36.729 L30.846,37.948 L32.171,38.266 L33.125,38.266 L34.185,38.372 L38.213,38.266 L39.273,38.372 L40.227,38.372 L41.234,38.107 L41.499,36.994 L40.81,35.987 Z M24.857,3.074 L24.963,2.544 L25.652,3.021 L26.659,2.915 L26.765,3.233 L27.242,3.445 L27.878,3.922 L28.09,4.134 L28.037,4.24 L27.772,4.558 L27.56,4.982 L27.295,4.717 L27.878,4.134 L27.189,3.869 L25.758,3.392 L24.804,3.657 L24.857,3.074 Z M23.161,2.756 L23.532,2.809 L23.479,3.127 L23.161,3.021 L23.161,2.756 Z M28.09,3.021 L28.302,3.392 L27.825,3.339 L27.666,2.968 L28.09,3.021 Z M29.15,3.286 L29.362,3.71 L29.362,4.187 L29.309,4.452 L29.256,4.293 L29.15,4.134 L28.938,3.71 L29.15,3.286 Z M34.026,35.245 L32.436,33.814 L31.005,32.118 L29.415,31.005 L28.355,31.323 L26.182,32.701 L24.751,33.337 L20.617,34.291 L19.027,34.397 L16.483,34.079 L15.476,33.708 L14.416,33.655 L10.547,31.8 L8.003,29.627 L6.784,28.09 L5.565,26.076 L4.611,22.949 L4.346,17.543 L4.611,15.37 L6.095,11.342 L7.367,9.487 L8.904,7.897 L10.547,6.572 L12.402,5.512 L15.476,4.505 L17.596,4.081 L19.133,4.028 L20.246,4.24 L21.783,4.24 L22.843,4.611 L23.956,4.77 L24.857,5.3 L27.772,6.572 L28.673,7.208 L30.157,8.745 L31.535,10.494 L32.012,11.395 L32.648,12.243 L33.814,16.43 L33.973,19.027 L33.708,22.843 L33.39,23.638 L32.754,25.652 L31.482,27.878 L31.058,29.521 L31.429,30.899 L33.708,33.284 L34.344,34.185 L34.715,35.086 L34.026,35.245 Z M29.892,4.187 L30.104,4.293 L29.998,4.505 L29.733,4.505 L29.892,4.187 Z M29.15,5.247 L29.15,4.982 L29.362,5.088 L29.309,5.247 L29.15,5.247 Z M32.171,23.85 L32.595,21.677 L32.807,19.133 L32.595,16.536 L32.171,14.575 L30.899,11.554 L30.475,10.706 L29.044,9.169 L26.606,7.155 L24.698,6.307 L22.684,5.724 L20.67,5.3 L16.536,5.353 L15.476,5.565 L13.462,6.254 L12.561,6.678 L10.07,8.374 L8.533,9.858 L7.208,11.66 L6.042,14.575 L5.459,17.596 L5.459,20.882 L5.777,22.843 L6.837,25.864 L7.314,26.871 L8.533,28.408 L9.222,29.15 L9.911,29.998 L10.812,30.475 L11.607,31.217 L12.508,31.747 L16.059,32.807 L17.543,33.072 L21.73,32.86 L25.705,31.694 L26.553,31.111 L27.507,30.581 L28.249,29.839 L29.097,29.309 L29.786,28.514 L31.535,25.917 L32.171,23.85 Z M29.256,5.459 L29.786,5.512 L29.521,5.936 L29.097,5.883 L29.256,5.459 Z M7.049,6.254 L7.314,6.095 L7.261,6.36 L6.943,6.413 L7.049,6.254 Z M23.214,7.897 L23.373,8.215 L23.161,8.056 L22.949,8.003 L23.214,7.897 Z M14.045,8.215 L14.416,8.109 L14.416,8.48 L13.939,8.48 L14.045,8.215 Z M3.922,9.275 L4.187,9.116 L4.028,9.381 L3.869,9.487 L3.922,9.275 Z M10.759,9.434 L11.289,9.699 L11.501,9.487 L11.554,9.169 L11.766,9.434 L11.289,9.699 L10.812,9.699 L10.759,9.434 Z M28.302,20.935 L27.931,22.896 L27.507,24.009 L26.977,24.963 L26.288,25.864 L25.546,26.553 L23.797,27.931 L21.73,28.779 L19.08,28.991 L15.37,28.514 L14.363,27.984 L13.515,27.454 L11.872,25.811 L11.236,24.804 L10.335,23.002 L10.07,21.995 L9.805,19.239 L9.858,17.596 L10.335,15.423 L11.342,13.356 L11.925,12.455 L12.614,11.713 L14.469,10.494 L15.847,9.858 L17.49,9.275 L20.882,9.434 L22.313,9.858 L23.744,10.388 L24.698,11.077 L26.341,12.561 L27.03,13.568 L27.507,14.469 L28.249,16.43 L28.408,19.186 L28.302,20.935 Z M33.178,9.381 L33.337,9.434 L33.337,9.646 L33.178,9.593 L33.178,9.381 Z M25.811,9.964 L26.076,9.911 L26.023,10.123 L25.811,10.176 L25.811,9.964 Z M10.865,10.176 L11.024,10.547 L11.236,10.812 L11.342,10.918 L11.13,10.918 L10.918,10.6 L10.865,10.335 L10.706,10.229 L10.865,10.176 Z M10.07,10.547 L10.229,10.706 L10.441,11.024 L10.176,11.183 L10.017,10.812 L10.07,10.547 Z M2.332,11.766 L2.65,11.713 L2.597,12.031 L2.279,12.137 L2.332,11.766 Z M10.388,11.872 L10.123,11.978 L10.07,11.766 L10.388,11.872 Z M3.392,11.819 L3.445,12.084 L3.18,12.137 L3.127,11.872 L3.392,11.819 Z M8.957,12.72 L9.116,12.773 L9.063,12.985 L8.798,12.879 L8.957,12.72 Z M9.646,13.303 L9.858,13.356 L9.858,13.568 L9.593,13.515 L9.646,13.303 Z M29.574,13.674 L29.415,13.78 L29.256,13.833 L29.362,13.727 L29.521,13.621 L29.68,13.568 L29.574,13.674 Z M3.339,13.939 L3.233,13.674 L3.445,13.674 L3.551,13.833 L3.339,13.939 Z M2.226,14.151 L2.544,14.151 L2.756,14.363 L2.438,14.575 L2.173,14.257 L2.12,14.045 L2.226,14.151 Z M3.445,14.469 L3.445,14.681 L3.233,14.681 L3.18,14.575 L3.445,14.469 Z M8.374,15.582 L8.639,15.688 L8.745,15.847 L8.586,15.847 L8.374,15.635 L8.003,15.423 L7.844,15.211 L8.374,15.582 Z M3.074,16.271 L2.756,16.377 L2.756,16.165 L3.021,16.165 L3.074,16.271 Z M7.632,16.324 L7.897,16.377 L7.95,16.642 L7.632,16.589 L7.632,16.324 Z M8.003,17.967 L7.844,17.755 L8.374,17.437 L8.851,17.172 L8.533,17.702 L8.003,17.967 Z M1.378,17.331 L1.802,17.543 L2.067,17.702 L2.067,17.914 L1.643,18.338 L2.173,18.815 L2.067,19.451 L1.802,19.292 L1.802,18.974 L1.378,18.762 L1.325,18.179 L1.696,17.596 L1.431,17.437 L1.06,17.225 L1.378,17.331 Z M7.049,17.755 L7.42,17.702 L7.261,18.073 L6.837,18.126 L7.049,17.755 Z M8.215,18.656 L8.427,18.603 L8.268,18.391 L8.48,18.497 L8.904,18.656 L8.745,18.868 L8.427,18.762 L8.215,18.815 L8.215,18.656 Z M6.89,18.868 L6.943,18.603 L7.261,18.603 L7.314,18.815 L6.89,18.868 Z M7.791,19.504 L7.685,19.61 L7.685,19.981 L7.208,20.299 L6.89,20.034 L6.89,19.875 L7.314,19.769 L7.579,19.557 L7.791,19.504 Z M3.286,20.776 L2.756,20.935 L2.65,20.352 L2.279,20.087 L2.014,20.14 L1.749,20.034 L2.226,19.716 L2.597,19.822 L3.021,19.716 L3.127,20.299 L3.286,20.776 Z M8.745,20.564 L8.427,20.776 L8.586,20.617 L8.745,20.564 Z M7.791,21.094 L7.261,21.094 L7.526,20.882 L7.844,20.67 L7.791,21.094 Z M8.639,33.231 L8.321,34.079 L7.844,34.026 L7.791,33.549 L8.162,33.337 L7.738,33.125 L7.367,32.86 L7.208,32.807 L6.731,33.072 L6.042,32.436 L5.936,32.065 L5.565,32.118 L5.406,31.8 L5.936,31.694 L6.307,31.906 L6.148,31.27 L5.459,31.27 L4.664,31.111 L4.293,29.892 L3.975,28.991 L3.127,28.832 L3.127,27.931 L3.233,27.507 L2.862,27.401 L2.597,27.613 L2.491,27.03 L3.18,26.765 L3.127,26.5 L2.226,26.5 L1.855,25.705 L1.855,25.175 L1.749,24.486 L1.378,24.433 L1.272,23.797 L1.272,23.161 L1.378,22.525 L1.696,21.518 L1.961,20.935 L2.332,21.094 L2.279,21.412 L2.067,21.677 L2.332,22.048 L2.756,21.889 L2.915,22.26 L3.233,22.525 L3.657,23.002 L3.233,23.002 L3.604,23.479 L3.604,24.274 L3.816,24.38 L3.975,24.486 L4.24,24.698 L4.187,24.857 L3.551,24.645 L2.915,24.539 L2.915,24.804 L3.816,25.334 L4.505,25.758 L5.3,26.606 L5.088,27.348 L5.512,27.56 L5.565,27.719 L5.671,28.196 L6.307,28.514 L6.095,28.62 L6.148,28.832 L6.89,29.627 L7.261,30.634 L7.579,31.005 L8.162,31.164 L8.321,31.482 L8.374,31.641 L8.48,31.641 L8.745,31.853 L8.268,32.277 L8.639,33.231 Z M8.374,21.518 L8.639,21.359 L8.851,21.677 L9.116,21.889 L8.957,21.836 L8.798,21.942 L8.533,22.207 L8.321,22.101 L8.427,21.836 L8.374,21.518 Z M6.784,21.995 L6.89,21.783 L7.155,21.677 L7.049,21.942 L6.784,21.995 Z M7.844,21.836 L7.632,21.942 L7.632,21.73 L7.791,21.677 L7.844,21.836 Z M7.261,23.373 L7.155,23.214 L7.473,23.214 L7.579,23.108 L7.526,22.949 L7.738,23.002 L7.95,23.002 L8.374,22.525 L8.639,22.949 L8.109,23.32 L7.685,23.214 L7.526,23.373 L7.261,23.373 Z M9.275,24.91 L9.275,24.751 L9.381,24.698 L8.798,24.433 L8.321,24.115 L7.791,24.592 L7.367,24.274 L8.109,23.744 L8.957,23.956 L9.116,23.32 L9.328,22.737 L9.646,22.578 L9.593,22.949 L9.381,23.426 L9.593,24.168 L9.275,24.433 L9.54,24.592 L9.487,24.804 L9.275,24.91 Z M1.59,23.32 L1.908,23.585 L1.961,23.267 L1.696,23.002 L1.59,23.32 Z M3.18,23.373 L2.968,23.479 L2.968,23.691 L3.18,23.585 L3.18,23.373 Z M10.229,25.493 L10.229,25.228 L10.494,25.281 L10.494,25.599 L10.229,25.493 Z M9.222,26.659 L8.745,26.553 L8.586,25.758 L8.851,25.97 L9.328,26.288 L9.222,26.659 Z M4.24,26.5 L4.134,26.394 L3.922,26.659 L4.081,26.818 L4.24,26.5 Z M4.558,26.765 L4.823,26.818 L4.77,26.606 L4.558,26.765 Z M11.13,26.871 L10.759,26.871 L10.918,26.818 L11.13,26.871 L11.236,27.083 L11.024,27.401 L10.706,27.454 L10.759,27.189 L11.13,26.871 Z M9.911,28.249 L9.54,27.825 L9.752,27.295 L10.017,27.348 L10.229,27.666 L10.335,27.719 L10.07,27.984 L9.911,28.249 Z M26.871,27.878 L26.659,27.666 L26.924,27.613 L27.083,27.772 L26.871,27.878 Z M11.872,28.885 L11.448,28.779 L11.183,28.726 L10.971,28.779 L10.335,27.719 L10.918,28.09 L11.501,28.673 L11.607,28.196 L12.084,28.302 L11.872,28.885 Z M3.551,27.878 L4.134,28.143 L4.505,27.984 L4.293,27.878 L3.551,27.878 Z M12.826,28.832 L13.303,28.779 L13.568,29.097 L13.144,29.097 L12.826,28.832 Z M24.274,29.309 L24.433,29.044 L24.857,29.309 L24.486,29.415 L24.274,29.309 Z M15.317,31.058 L15.105,30.793 L14.84,30.475 L14.363,30.157 L14.045,30.581 L13.833,30.952 L13.568,30.793 L13.78,30.104 L14.416,29.627 L14.575,30.104 L14.734,30.263 L15.052,30.475 L15.158,30.687 L15.423,30.899 L15.317,31.058 Z M22.896,29.998 L22.419,30.051 L22.419,30.263 L22.684,30.316 L22.631,30.528 L22.366,30.475 L21.942,30.687 L21.359,30.74 L21.783,30.475 L22.313,30.422 L22.101,30.263 L21.889,30.051 L22.154,29.945 L22.631,29.733 L22.896,29.945 L23.161,29.839 L22.896,29.998 Z M25.228,30.263 L24.963,30.422 L24.645,30.74 L24.433,30.581 L24.645,30.263 L24.486,29.892 L24.91,29.786 L25.228,30.104 L25.228,30.263 Z M4.929,29.892 L5.141,30.104 L5.565,29.945 L5.3,29.839 L4.929,29.892 Z M19.716,32.224 L19.239,32.436 L18.709,32.224 L18.444,31.853 L18.497,31.641 L19.027,31.694 L19.239,31.376 L19.61,30.846 L19.292,30.687 L19.08,30.952 L18.815,31.482 L18.497,31.005 L18.285,30.581 L18.497,30.316 L18.126,30.157 L18.126,29.945 L18.974,29.998 L19.663,30.157 L20.458,30.475 L19.928,30.846 L19.663,31.482 L19.716,32.224 Z M16.112,31.588 L16.059,31.164 L16.589,31.005 L17.013,30.74 L16.483,30.475 L16.748,29.998 L17.172,30.263 L17.437,30.263 L17.437,30.422 L17.066,31.27 L16.112,31.588 Z M12.614,30.475 L12.349,30.104 L12.826,30.157 L12.985,30.687 L12.614,30.475 Z M15.953,30.581 L15.9,30.316 L16.112,30.422 L15.953,30.581 Z M20.829,31.8 L20.193,31.906 L20.299,31.323 L20.882,31.058 L20.829,31.8 Z M23.479,31.27 L23.426,31.058 L23.638,31.058 L23.479,31.27 Z M22.26,31.429 L21.995,31.323 L22.26,31.111 L22.26,31.429 Z M17.914,31.588 L17.437,31.641 L17.331,31.959 L17.225,31.906 L17.331,31.429 L17.755,31.164 L18.073,31.323 L17.914,31.588 Z M19.239,32.277 L19.557,31.959 L19.133,32.012 L19.239,32.277 Z M6.731,32.277 L6.89,32.436 L7.208,32.224 L6.89,32.171 L6.731,32.277 Z M12.667,36.093 L12.243,36.358 L11.978,35.828 L11.13,35.616 L11.13,35.139 L11.713,35.245 L11.766,34.821 L10.547,34.609 L9.911,34.662 L10.176,35.033 L9.911,35.298 L9.646,35.033 L9.752,34.662 L9.275,34.132 L8.957,33.443 L8.957,32.224 L9.646,32.224 L9.752,32.807 L10.017,32.807 L9.911,32.966 L10.229,33.125 L10.759,32.86 L10.812,33.178 L10.812,33.549 L10.388,33.496 L10.918,34.026 L11.766,33.92 L11.766,34.079 L12.614,34.291 L13.409,34.397 L13.992,34.397 L13.674,35.033 L12.826,35.404 L12.508,35.563 L12.667,36.093 Z M9.593,33.602 L9.911,33.443 L9.54,33.178 L9.593,33.602 Z M28.832,34.556 L28.885,34.026 L28.991,34.238 L28.832,34.556 Z M11.554,34.45 L11.713,34.291 L11.554,34.185 L11.554,34.45 Z M27.666,35.351 L27.242,35.086 L26.924,35.192 L26.235,34.98 L25.599,34.609 L25.493,34.397 L26.553,34.609 L27.348,34.874 L27.878,34.821 L27.931,35.139 L27.666,35.351 Z M18.02,37.524 L17.702,37.365 L17.702,37.1 L16.96,36.888 L16.112,36.729 L16.271,37.259 L15.476,37.047 L14.575,36.199 L13.674,36.358 L13.409,36.464 L13.674,35.51 L14.575,34.98 L14.363,34.662 L14.098,34.45 L14.469,34.556 L14.787,35.351 L14.151,35.722 L14.204,35.987 L14.681,35.987 L15.105,35.828 L15.211,35.245 L16.112,35.51 L16.748,35.245 L17.013,35.722 L17.437,35.51 L17.384,35.351 L17.596,35.457 L18.179,35.351 L18.126,35.616 L17.702,35.669 L17.172,36.093 L17.013,36.464 L18.073,36.411 L18.179,36.888 L18.444,37.259 L18.02,37.524 Z M21.73,35.616 L22.154,35.457 L22.472,35.298 L22.896,34.821 L23.161,35.139 L22.684,35.563 L22.525,35.51 L22.207,35.51 L21.783,35.722 L21.73,35.616 Z M24.38,35.457 L23.956,35.51 L24.115,35.192 L24.486,34.927 L24.38,35.457 Z M22.843,36.835 L22.048,36.517 L21.836,36.941 L21.571,36.994 L21.412,36.517 L21.041,36.729 L20.034,36.888 L19.186,37.418 L18.921,36.888 L18.762,36.517 L18.921,36.358 L19.133,36.411 L19.451,36.623 L19.663,36.411 L19.557,36.093 L19.504,35.881 L19.504,35.616 L20.034,35.563 L20.829,35.457 L21.147,36.04 L21.624,36.358 L21.783,36.623 L21.942,36.57 L22.048,36.199 L22.366,36.305 L22.843,36.57 L23.267,35.934 L23.638,36.358 L22.843,36.835 Z M20.193,36.093 L19.981,35.828 L19.504,35.881 L19.928,36.252 L20.193,36.093 Z M24.91,36.57 L24.91,36.358 L25.122,36.358 L25.175,36.676 L24.91,36.57 Z M73.14,7.632 L73.14,3.233 L73.299,2.173 L72.61,1.06 L71.444,0.689 L68.105,0.795 L65.879,0.636 L64.766,1.166 L64.183,2.332 L64.289,23.214 L63.918,26.5 L63.6,27.295 L63.017,28.355 L62.116,28.991 L60.261,29.68 L57.081,29.68 L55.862,29.415 L54.961,28.885 L54.113,28.249 L53.477,27.401 L53.159,26.394 L52.841,23.32 L53,6.254 L52.894,5.459 L53,3.763 L52.894,2.226 L52.258,1.06 L51.145,0.583 L50.138,0.583 L49.078,0.742 L46.799,0.53 L45.686,0.689 L44.573,1.113 L43.884,2.12 L43.99,3.18 L43.99,4.452 L43.884,5.3 L44.043,12.72 L43.884,13.78 L43.99,14.787 L43.831,23.32 L44.149,27.56 L44.679,29.733 L45.527,31.535 L46.746,33.443 L47.382,34.185 L48.177,34.874 L49.873,35.987 L50.933,36.464 L51.728,36.941 L53.742,37.842 L55.809,38.266 L56.869,38.266 L58.565,38.372 L60.155,38.213 L61.162,38.266 L65.296,37.206 L67.204,36.199 L68.953,35.033 L70.437,33.549 L71.656,31.694 L71.974,30.634 L72.504,29.733 L72.981,27.507 L73.246,24.963 L73.246,10.653 L73.14,9.646 L73.246,8.48 L73.14,7.632 Z M46.322,3.551 L46.428,3.763 L45.951,3.551 L46.216,4.187 L45.898,4.982 L46.11,5.565 L45.633,5.989 L45.103,5.671 L45.474,5.141 L44.732,4.346 L44.732,3.445 L45.05,2.703 L45.156,3.18 L45.421,3.127 L45.262,2.226 L45.739,1.484 L46.693,1.59 L47.7,1.06 L48.018,1.166 L48.23,1.378 L48.071,1.749 L47.541,1.484 L47.223,1.961 L47.806,2.544 L47.753,2.809 L47.276,2.862 L47.329,3.18 L48.177,2.968 L49.025,2.862 L48.707,2.597 L48.548,2.173 L48.972,2.385 L49.131,2.862 L49.29,2.915 L49.661,2.862 L49.926,3.021 L49.502,3.233 L49.131,2.915 L48.283,3.392 L47.859,3.392 L47.329,3.233 L46.852,3.445 L46.322,3.551 Z M49.343,1.802 L49.714,2.067 L49.29,2.226 L49.237,1.961 L49.131,1.749 L49.343,1.802 Z M50.827,2.226 L51.092,2.491 L50.986,2.809 L50.562,2.491 L50.827,2.226 Z M46.905,3.021 L46.746,2.65 L46.428,2.438 L46.11,3.021 L46.746,3.233 L47.223,3.021 L46.905,3.021 Z M50.509,3.286 L50.562,3.763 L49.82,4.346 L49.29,3.869 L49.29,3.445 L49.661,3.71 L50.032,3.71 L50.509,3.286 Z M45.103,3.71 L44.891,4.081 L45.368,4.399 L45.686,4.028 L45.633,3.71 L45.103,3.71 Z M47.011,4.028 L47.276,4.187 L47.17,4.452 L46.852,4.293 L47.011,4.028 Z M69.059,27.242 L68.423,29.415 L66.727,31.694 L64.925,33.019 L63.176,33.973 L61.639,34.185 L60.049,34.662 L55.915,34.503 L52.947,33.496 L52.046,33.019 L50.456,31.853 L49.184,30.21 L48.707,29.309 L48.071,27.454 L47.912,26.288 L47.806,22.313 L47.912,21.041 L47.753,16.907 L47.859,15.9 L47.753,14.734 L47.806,5.3 L48.177,4.399 L48.601,4.346 L48.919,5.565 L49.078,21.147 L48.919,22.048 L49.131,26.288 L49.343,27.401 L49.608,28.249 L50.085,29.362 L50.562,30.21 L51.357,31.058 L53.848,32.807 L54.908,33.178 L55.915,33.231 L56.869,33.443 L60.208,33.443 L62.222,33.019 L63.176,32.542 L64.13,32.224 L65.031,31.694 L66.462,30.157 L66.992,29.415 L67.522,28.302 L67.734,27.454 L68.052,26.447 L68.264,22.737 L68.105,20.14 L68.264,19.08 L68.158,16.907 L68.264,15.794 L68.105,11.819 L68.211,10.653 L68.105,8.056 L68.264,5.406 L68.423,4.293 L68.953,4.346 L69.324,5.353 L69.271,6.466 L69.377,7.632 L69.377,15.9 L69.271,16.801 L69.377,19.027 L69.271,20.087 L69.43,20.988 L69.271,23.214 L69.377,24.645 L69.059,27.242 Z M50.615,5.353 L50.297,4.929 L49.767,4.982 L49.82,4.77 L50.35,4.664 L50.721,5.194 L50.615,5.353 Z M50.774,6.254 L50.986,6.095 L51.092,6.466 L50.88,6.572 L50.774,6.254 Z M46.322,7.049 L46.11,6.837 L46.057,6.519 L45.686,6.413 L45.951,6.307 L46.163,6.466 L46.216,6.731 L46.481,6.731 L46.534,6.996 L46.322,7.049 Z M44.838,6.943 L45.421,6.996 L45.527,7.42 L45.262,7.261 L44.838,6.943 Z M44.732,8.056 L44.785,7.632 L44.838,7.685 L44.838,8.109 L44.732,8.056 Z M46.269,8.533 L46.322,8.162 L46.587,8.215 L46.587,8.586 L46.269,8.533 Z M44.573,9.805 L44.626,9.699 L44.838,9.169 L45.103,8.692 L45.421,8.427 L45.633,8.427 L45.262,9.169 L44.732,9.752 L44.573,9.805 Z M50.191,10.388 L50.297,9.911 L50.721,9.858 L50.615,10.229 L50.191,10.388 Z M46.64,13.144 L46.428,13.356 L46.481,13.25 L46.64,13.144 Z M46.269,13.515 L46.163,13.833 L46.004,13.78 L46.057,13.621 L46.269,13.515 Z M45.633,14.628 L45.633,14.946 L45.421,14.893 L45.368,14.681 L45.633,14.628 Z M51.198,14.681 L51.41,14.681 L51.304,14.893 L51.092,14.84 L51.198,14.681 Z M66.25,15.052 L66.038,14.946 L65.985,14.787 L66.25,15.052 Z M45.739,16.483 L46.004,16.748 L46.163,17.119 L46.269,17.331 L46.057,17.172 L45.686,16.854 L45.739,16.483 Z M66.886,18.02 L66.992,18.126 L66.992,18.285 L66.833,18.126 L66.886,18.02 Z M51.357,20.564 L51.092,20.299 L51.304,20.458 L51.357,20.564 Z M46.11,21.995 L46.428,22.578 L46.004,22.737 L45.792,22.048 L46.322,21.2 L46.322,20.723 L46.64,21.359 L46.11,21.995 Z M67.257,21.2 L67.204,21.306 L67.31,21.571 L67.098,21.783 L66.992,21.518 L67.098,21.306 L67.257,21.2 Z M45.103,22.101 L45.262,21.783 L45.421,21.889 L45.315,22.154 L45.103,22.101 Z M51.728,22.843 L51.569,22.949 L51.357,23.002 L51.516,22.79 L51.728,22.843 Z M66.939,23.055 L67.045,23.32 L66.674,23.267 L66.462,22.843 L66.939,23.055 Z M71.815,23.161 L71.603,23.161 L71.603,22.843 L71.815,22.949 L71.815,23.161 Z M50.88,24.062 L51.039,24.221 L50.827,24.221 L50.562,23.956 L50.668,23.797 L50.88,24.062 Z M66.144,24.38 L66.25,24.645 L65.879,24.645 L65.614,24.38 L66.144,24.38 Z M70.914,25.122 L71.02,24.963 L71.232,24.857 L71.126,24.963 L70.914,25.122 Z M45.739,25.599 L45.951,25.387 L45.951,25.705 L45.739,25.864 L45.739,25.599 Z M50.562,27.189 L50.827,27.136 L50.562,26.924 L50.456,26.447 L50.668,26.288 L50.827,26.235 L50.774,25.97 L50.88,25.811 L50.986,26.023 L50.774,26.341 L50.721,26.818 L51.039,26.871 L51.357,26.659 L51.198,27.083 L50.509,27.56 L50.085,27.189 L50.562,27.189 Z M66.356,26.447 L66.038,26.288 L65.932,25.917 L66.303,25.97 L66.356,26.447 Z M46.057,26.871 L46.481,26.818 L46.269,27.401 L45.898,27.878 L45.686,27.454 L46.057,26.871 Z M52.046,27.295 L52.311,27.401 L52.099,27.613 L51.834,27.507 L52.046,27.295 Z M46.428,29.574 L46.269,29.309 L46.057,29.256 L45.633,29.097 L45.421,28.885 L45.951,28.885 L46.322,29.044 L46.322,29.309 L46.428,29.521 L46.64,29.627 L46.428,29.574 Z M64.925,29.521 L64.978,30.157 L64.554,29.945 L64.501,29.362 L64.925,29.521 Z M52.417,29.521 L52.152,29.998 L51.569,29.68 L51.675,29.415 L51.887,29.415 L52.417,29.521 Z M69.43,30.634 L69.536,30.422 L69.536,30.581 L69.642,30.74 L69.43,30.634 Z M53.848,30.581 L54.113,30.528 L54.166,30.687 L53.848,30.74 L53.848,30.581 Z M46.587,31.111 L46.481,31.005 L46.481,30.793 L46.375,30.687 L46.534,30.793 L46.587,31.005 L46.587,31.111 Z M59.254,31.535 L59.095,31.27 L59.625,31.323 L59.731,31.853 L59.943,32.118 L59.466,32.489 L58.883,32.224 L59.519,32.118 L59.678,31.8 L59.254,31.535 Z M48.495,32.595 L47.965,32.171 L47.488,31.641 L47.17,31.376 L47.7,31.482 L48.177,32.065 L48.495,32.489 L49.078,32.224 L49.396,32.595 L49.29,33.019 L48.813,32.86 L48.495,32.595 Z M55.703,31.694 L55.862,32.118 L55.756,32.489 L55.544,32.065 L55.703,31.694 Z M57.717,32.012 L57.505,32.118 L57.452,31.853 L57.717,32.012 Z M69.165,32.33 L68.847,32.224 L69.059,32.118 L69.377,32.118 L69.165,32.33 Z M49.078,32.489 L48.813,32.595 L49.078,32.701 L49.343,32.595 L49.078,32.489 Z M47.594,32.648 L47.859,32.595 L47.912,32.807 L47.594,32.648 Z M49.926,33.761 L49.29,33.761 L49.29,33.178 L49.714,33.337 L49.979,33.443 L49.926,33.761 Z M50.774,34.291 L50.509,34.185 L50.509,33.973 L50.774,34.026 L50.774,34.291 Z M55.014,36.464 L54.643,36.464 L54.378,36.729 L54.113,36.252 L54.431,35.934 L55.014,35.934 L55.014,36.464 Z M57.452,36.941 L57.24,36.941 L57.293,36.676 L57.452,36.729 L57.452,36.941 Z M58.724,36.941 L58.512,36.835 L58.247,36.941 L57.929,36.835 L58.3,36.676 L58.724,36.941 Z M56.074,36.888 L55.862,36.941 L55.756,36.782 L56.074,36.729 L56.074,36.888 Z M104.039,29.733 L102.926,29.256 L101.707,29.362 L100.7,29.203 L97.997,29.15 L96.248,29.362 L95.188,29.256 L94.022,29.309 L93.015,29.15 L91.849,29.256 L90.736,28.726 L90.312,27.772 L90.312,24.433 L90.789,23.32 L91.743,22.737 L93.333,22.684 L95.029,22.843 L97.043,22.737 L99.216,22.79 L100.276,22.684 L101.495,22.737 L102.555,22.313 L102.926,21.253 L103.085,16.483 L102.555,14.999 L101.336,14.31 L98.209,14.31 L97.096,14.416 L94.87,14.257 L91.796,14.363 L90.683,13.886 L90.259,12.243 L90.259,10.6 L90.736,9.593 L91.902,9.169 L92.909,9.222 L93.916,9.01 L101.495,9.116 L102.502,9.063 L103.615,8.427 L104.145,7.473 L104.092,6.413 L104.145,5.353 L104.039,2.173 L103.562,1.166 L102.502,0.742 L101.389,0.742 L100.435,0.53 L96.142,0.583 L94.976,0.689 L93.916,0.583 L93.015,0.636 L91.955,0.53 L87.609,0.636 L86.549,0.477 L85.542,0.689 L84.588,0.583 L83.528,0.689 L82.468,0.636 L81.355,1.06 L80.772,2.173 L80.878,4.187 L80.719,6.36 L80.878,7.526 L80.772,12.72 L80.931,13.833 L80.825,14.84 L80.772,19.186 L80.931,20.14 L80.878,28.726 L80.772,29.733 L80.931,30.793 L80.772,34.45 L80.878,35.616 L81.302,37.047 L82.892,37.736 L86.708,37.789 L87.874,37.683 L88.828,37.736 L91.001,37.577 L92.008,37.789 L93.227,37.842 L94.287,37.736 L95.347,37.842 L102.926,37.736 L104.039,37.259 L104.622,36.146 L104.622,30.793 L104.039,29.733 Z M98.686,1.378 L99.004,1.643 L99.375,1.855 L98.845,2.173 L98.58,2.014 L98.739,1.59 L98.686,1.378 Z M96.725,1.749 L96.937,1.643 L97.043,1.431 L97.096,1.59 L97.202,1.802 L97.626,1.802 L97.626,2.067 L97.255,2.014 L96.725,2.067 L96.46,2.226 L96.407,1.802 L96.725,1.749 Z M92.485,1.749 L92.75,1.537 L92.697,1.961 L92.432,2.226 L92.485,1.749 Z M93.545,2.65 L93.757,2.385 L93.916,2.12 L94.499,1.537 L95.029,1.908 L94.764,2.544 L94.446,2.65 L93.916,2.597 L93.545,2.756 L93.121,2.862 L93.068,2.65 L93.545,2.65 Z M90.153,2.067 L90.471,2.226 L90.63,2.597 L90.418,2.703 L89.941,2.597 L89.888,2.226 L89.782,1.802 L90.153,2.067 Z M101.071,2.014 L101.76,2.014 L101.654,2.438 L101.442,2.597 L100.912,2.544 L101.071,2.014 Z M91.796,2.067 L91.796,2.226 L91.69,2.385 L91.584,2.173 L91.796,2.067 Z M102.237,2.544 L102.449,2.226 L102.661,2.491 L102.714,2.756 L102.449,2.968 L102.714,3.127 L102.608,3.339 L102.184,3.021 L102.237,2.544 Z M99.746,2.703 L100.011,2.65 L100.435,2.597 L100.541,2.862 L100.117,3.021 L99.852,3.18 L99.799,3.286 L100.117,3.392 L100.011,3.604 L99.428,2.968 L99.11,2.544 L99.428,2.332 L99.746,2.703 Z M96.513,2.438 L96.937,2.597 L97.149,2.544 L97.308,2.544 L97.255,2.65 L97.043,3.021 L96.407,3.074 L96.248,2.703 L96.513,2.438 Z M95.135,2.968 L94.817,3.074 L94.499,3.339 L94.446,3.021 L95.029,2.915 L95.135,2.968 Z M84.906,2.968 L85.224,3.021 L85.065,3.233 L84.8,3.127 L84.906,2.968 Z M92.22,3.127 L92.75,3.127 L92.697,3.233 L92.538,3.286 L92.167,3.339 L91.743,3.233 L91.796,3.074 L92.22,3.127 Z M98.421,3.127 L98.633,3.233 L98.633,3.551 L98.421,3.445 L98.421,3.127 Z M102.396,3.975 L102.979,4.399 L103.138,4.664 L102.979,5.035 L102.396,5.406 L102.078,5.512 L101.866,5.671 L101.76,5.989 L101.23,5.565 L101.76,5.141 L101.707,4.982 L101.23,5.088 L100.965,4.717 L101.283,4.505 L102.025,5.141 L102.29,5.194 L102.555,4.876 L102.025,4.505 L102.184,4.505 L102.184,4.24 L101.654,4.134 L101.283,3.71 L101.707,3.392 L101.919,3.816 L102.396,3.975 Z M102.29,3.604 L102.449,3.71 L102.237,3.763 L102.184,3.657 L102.29,3.604 Z M93.015,33.973 L92.061,34.132 L90.895,34.132 L89.835,34.026 L86.549,34.079 L85.489,33.39 L85.012,31.906 L84.959,5.83 L85.489,4.77 L86.549,4.187 L88.616,4.24 L89.729,4.134 L90.736,4.24 L91.796,4.134 L93.916,4.346 L98.633,4.24 L100.276,4.505 L100.382,5.194 L99.269,5.3 L92.909,5.3 L91.902,5.459 L88.192,5.459 L86.602,5.936 L86.178,6.89 L86.178,14.31 L86.072,15.264 L86.231,16.271 L86.602,17.331 L87.662,17.914 L88.775,17.808 L91.372,17.967 L92.803,17.755 L93.969,17.861 L94.923,17.808 L95.93,18.02 L96.937,18.02 L98.209,17.914 L99.216,18.285 L99.163,18.921 L97.52,19.239 L94.976,19.08 L94.022,19.239 L90.736,19.186 L89.782,19.08 L87.715,19.133 L86.761,19.663 L86.231,20.564 L86.125,21.624 L86.231,23.267 L86.125,30.793 L86.708,32.33 L88.298,33.019 L89.888,32.86 L92.008,33.019 L93.015,32.913 L95.188,33.019 L96.301,32.86 L97.414,32.966 L98.633,32.913 L100.753,33.125 L100.753,33.761 L99.693,34.185 L96.884,34.185 L93.015,33.973 Z M83.846,4.558 L84.058,4.505 L84.058,4.611 L83.793,4.664 L83.846,4.558 Z M82.468,5.459 L82.945,5.194 L82.892,5.724 L82.415,5.777 L82.468,5.459 Z M83.475,6.042 L83.581,5.618 L83.899,5.777 L83.634,6.095 L83.422,6.36 L83.316,6.572 L83.263,6.254 L83.475,6.042 Z M95.877,7.791 L95.665,7.261 L95.347,7.367 L95.188,7.579 L95.188,7.367 L95.4,7.208 L95.029,7.155 L94.711,7.102 L94.128,7.208 L93.863,7.261 L93.492,6.837 L93.598,6.307 L93.969,6.36 L93.916,6.943 L94.075,7.049 L94.87,6.784 L95.135,6.837 L95.665,7.102 L95.93,7.155 L96.142,7.738 L95.877,7.791 Z M100.753,6.572 L100.488,6.625 L100.541,6.36 L100.806,6.36 L100.753,6.572 Z M97.891,6.784 L98.05,6.466 L98.421,6.466 L98.262,6.731 L97.891,6.784 Z M82.521,6.731 L82.574,6.519 L82.786,6.625 L82.68,6.784 L82.521,6.731 Z M89.623,6.784 L89.782,6.678 L89.888,6.731 L89.623,6.784 Z M100.382,7.261 L100.17,7.42 L100.011,7.473 L100.276,7.155 L100.011,7.049 L99.693,7.049 L99.428,6.943 L99.216,6.678 L99.587,6.784 L99.958,6.731 L100.329,6.89 L100.7,6.89 L100.753,7.155 L100.382,7.261 Z M102.131,7.261 L101.866,7.42 L101.442,7.261 L101.389,7.049 L101.548,7.155 L101.919,7.155 L102.237,6.678 L102.502,6.943 L102.131,7.261 Z M88.563,7.049 L88.351,7.155 L88.457,7.579 L87.98,7.791 L87.821,7.526 L87.98,7.049 L88.51,6.943 L88.722,6.89 L88.563,7.049 Z M92.485,7.367 L92.379,7.261 L92.114,7.261 L92.008,7.049 L92.22,7.049 L92.432,7.261 L92.538,7.314 L92.485,7.367 Z M98.739,7.473 L98.421,7.367 L98.421,7.102 L98.739,7.155 L98.739,7.473 Z M82.15,7.367 L82.362,7.261 L82.362,7.579 L82.044,7.738 L82.15,7.367 Z M83.422,7.526 L83.21,7.791 L82.839,7.897 L82.998,7.579 L83.422,7.526 Z M93.969,7.844 L93.81,7.791 L93.863,7.579 L94.022,7.685 L93.969,7.844 Z M91.425,8.109 L90.895,8.215 L90.895,7.791 L91.478,7.738 L91.425,8.109 Z M88.722,8.268 L88.828,7.95 L89.146,8.003 L89.04,8.321 L88.722,8.268 Z M92.379,8.215 L92.273,8.162 L92.273,8.003 L92.432,8.109 L92.379,8.215 Z M88.033,8.162 L87.874,8.48 L87.503,8.798 L87.556,8.268 L88.033,8.162 Z M82.786,8.745 L83.157,8.904 L83.634,9.116 L83.793,9.752 L83.634,10.176 L83.369,9.752 L83.316,9.381 L83.104,9.01 L82.839,9.169 L82.521,9.063 L82.521,8.586 L82.786,8.745 Z M90.047,9.116 L90.153,9.275 L89.941,9.381 L89.676,9.275 L89.517,9.169 L90.047,9.116 Z M82.203,9.487 L82.362,9.646 L82.097,9.646 L81.991,9.381 L82.203,9.487 Z M87.662,10.229 L87.98,10.653 L88.457,10.653 L88.669,10.759 L88.722,10.812 L88.457,10.812 L88.351,11.024 L88.457,11.236 L88.616,11.342 L88.404,11.395 L88.033,11.077 L87.821,10.918 L87.344,10.759 L87.45,10.388 L87.662,10.229 Z M89.623,10.335 L89.57,10.547 L89.305,10.547 L89.411,10.335 L89.623,10.335 Z M82.786,11.077 L82.468,11.395 L82.15,11.024 L82.415,10.812 L82.786,11.077 Z M87.397,11.448 L87.609,11.607 L87.927,11.713 L87.768,11.713 L87.556,11.66 L87.291,11.607 L87.397,11.448 Z M83.422,11.925 L83.422,11.66 L83.687,11.66 L83.687,11.925 L83.422,11.925 Z M88.881,12.084 L88.828,12.349 L88.616,12.243 L88.669,12.031 L88.881,12.084 Z M82.998,12.243 L82.892,12.402 L82.627,12.508 L82.362,12.455 L82.203,12.296 L82.309,12.296 L82.468,12.349 L82.786,12.243 L82.998,12.243 Z M87.715,12.455 L87.874,12.402 L87.98,12.508 L87.874,12.508 L87.715,12.455 Z M83.528,13.144 L83.263,13.462 L82.998,13.568 L82.627,13.409 L82.68,13.409 L83.263,12.932 L83.528,13.144 Z M87.715,13.303 L87.503,13.197 L87.503,13.091 L87.662,13.091 L87.715,13.303 Z M88.033,13.621 L88.351,13.621 L88.245,13.833 L87.874,13.78 L88.033,13.621 Z M83.316,13.992 L83.687,13.833 L83.528,13.992 L83.316,13.992 Z M90.524,14.734 L90.206,14.84 L89.888,14.84 L89.517,14.681 L89.252,14.469 L88.934,14.151 L88.987,13.886 L89.411,14.045 L89.729,13.886 L89.729,13.939 L89.676,14.257 L90.259,14.522 L90.524,14.734 Z M83.74,13.886 L83.846,14.045 L83.952,14.469 L83.687,14.416 L83.74,13.886 Z M83.369,15.211 L82.786,15.052 L82.468,14.893 L82.839,14.84 L83.104,14.946 L83.369,15.158 L83.422,15.317 L83.369,15.211 Z M88.828,16.218 L88.563,16.006 L88.033,16.271 L87.715,16.218 L87.503,15.847 L87.874,15.847 L88.192,15.688 L88.404,15.423 L88.775,15.158 L88.987,14.946 L89.146,14.893 L89.093,15.105 L88.775,15.476 L88.987,16.059 L89.464,16.271 L89.57,16.483 L89.464,16.96 L88.987,16.801 L89.04,16.483 L88.828,16.218 Z M91.054,15.37 L91.372,15.052 L91.743,15.423 L90.948,15.953 L90.842,16.483 L90.736,16.854 L90.524,16.748 L90.312,16.271 L90.312,15.741 L90.577,15.582 L91.054,15.37 Z M95.506,15.635 L95.824,15.688 L96.142,15.582 L96.301,15.847 L96.513,16.271 L96.937,16.112 L97.149,15.529 L97.626,15.264 L97.838,15.105 L98.474,15.158 L99.163,15.264 L99.428,15.317 L99.852,15.582 L99.746,15.794 L99.375,15.582 L98.739,15.37 L98.421,15.317 L98.103,15.37 L97.785,15.37 L97.52,15.582 L97.679,15.688 L98.156,15.688 L98.368,15.953 L98.05,16.218 L97.626,16.006 L97.308,16.112 L97.096,16.801 L96.831,16.854 L96.301,16.377 L95.983,16.271 L95.4,15.9 L95.294,15.582 L95.506,15.635 Z M94.128,15.317 L94.658,15.529 L94.234,15.582 L94.022,15.264 L94.128,15.317 Z M91.955,16.059 L92.008,15.847 L92.485,15.529 L92.75,15.529 L93.121,15.37 L93.015,15.847 L92.432,15.741 L92.273,15.9 L92.167,16.112 L91.69,16.483 L91.372,16.695 L91.425,16.324 L91.743,16.271 L91.955,16.059 Z M89.941,15.741 L89.888,15.847 L89.676,15.794 L89.729,15.688 L89.941,15.741 Z M94.817,16.165 L94.711,16.483 L94.499,16.43 L94.605,16.271 L94.817,16.165 Z M100.329,16.483 L100.435,16.271 L100.753,16.483 L101.336,16.324 L101.495,16.483 L101.389,17.066 L101.177,17.278 L100.753,17.225 L100.435,16.695 L100.17,16.907 L100.011,17.172 L99.481,17.331 L99.216,17.384 L98.845,16.96 L98.262,17.119 L97.944,17.119 L97.573,16.96 L97.944,16.695 L98.209,16.801 L98.58,16.589 L98.898,16.43 L99.375,16.96 L99.693,17.013 L99.958,16.854 L100.011,16.642 L99.587,16.589 L99.428,16.324 L99.746,16.324 L100.117,16.642 L100.329,16.483 Z M95.665,16.907 L95.612,17.119 L95.4,17.066 L95.4,16.854 L95.665,16.907 Z M83.422,17.543 L83.157,17.755 L82.786,17.596 L82.627,17.543 L82.892,17.543 L82.945,17.649 L83.157,17.49 L83.422,17.543 Z M101.866,18.232 L101.442,18.126 L101.442,17.808 L101.919,17.808 L101.866,18.232 Z M81.779,26.818 L82.309,26.659 L82.415,26.023 L82.15,26.076 L82.044,25.546 L81.779,25.281 L82.044,24.751 L82.15,24.486 L82.15,23.426 L82.097,23.108 L82.468,22.843 L82.627,23.108 L83.21,23.479 L83.422,23.373 L83.21,23.002 L82.892,22.896 L82.945,22.631 L83.21,22.313 L82.892,22.048 L82.574,21.836 L82.362,21.253 L82.415,20.988 L82.521,20.67 L82.627,20.405 L82.786,19.981 L82.627,19.981 L82.415,20.193 L82.044,20.087 L81.938,19.875 L82.15,19.769 L82.468,19.981 L82.521,19.822 L82.468,19.504 L82.521,19.239 L82.945,18.815 L82.945,18.497 L82.574,18.179 L82.203,18.232 L82.415,18.709 L82.044,19.027 L81.885,18.603 L81.938,18.285 L82.574,18.073 L83.104,18.179 L83.316,18.179 L83.263,18.55 L83.369,18.921 L83.846,19.08 L83.74,19.345 L83.21,19.451 L82.892,19.663 L82.892,19.981 L83.104,19.981 L83.316,19.769 L83.634,19.769 L83.634,20.087 L83.21,20.564 L82.945,21.359 L83.051,21.889 L83.475,21.624 L83.687,21.995 L83.846,22.313 L83.422,22.79 L84.005,23.161 L83.793,23.638 L84.111,24.274 L83.952,24.539 L83.581,24.592 L83.263,24.486 L82.945,24.433 L82.574,24.592 L82.362,25.069 L82.574,25.281 L82.945,25.016 L83.104,24.804 L83.422,24.857 L83.952,25.175 L83.952,25.546 L83.369,25.652 L83.422,26.182 L83.846,26.182 L83.899,26.765 L83.952,27.083 L84.005,27.772 L83.634,28.09 L83.104,27.931 L82.521,28.143 L82.256,27.984 L81.991,28.196 L81.673,27.03 L81.779,26.818 Z M100.859,18.815 L100.647,18.656 L100.17,18.497 L99.958,18.126 L100.382,18.126 L100.435,18.497 L100.912,18.497 L101.177,18.656 L100.859,18.815 Z M93.651,20.988 L93.121,21.306 L92.856,20.988 L93.333,20.723 L93.121,20.564 L92.803,20.617 L92.432,21.041 L92.167,20.882 L92.273,20.511 L92.167,20.352 L91.955,20.193 L91.955,19.928 L92.061,19.981 L92.22,20.299 L93.227,20.299 L93.757,20.723 L93.651,20.988 Z M90.259,22.366 L89.782,22.366 L89.358,22.207 L89.623,21.889 L89.57,21.624 L89.04,21.571 L88.457,21.359 L88.298,20.723 L88.775,20.405 L89.199,20.193 L89.358,20.511 L88.934,20.67 L89.04,20.988 L89.57,20.988 L89.941,21.094 L90.153,21.253 L90.259,21.571 L90.365,22.154 L90.471,22.472 L90.259,22.366 Z M97.891,20.617 L97.785,20.299 L98.156,20.405 L98.368,20.723 L97.891,20.617 Z M96.513,21.2 L96.248,21.465 L96.089,20.988 L96.142,20.723 L96.513,20.511 L96.513,21.2 Z M94.552,21.2 L94.234,21.041 L94.234,20.617 L94.552,20.829 L94.552,21.2 Z M91.425,21.836 L90.895,22.048 L90.789,21.73 L90.789,21.253 L90.63,20.988 L90.365,20.935 L90.471,20.67 L90.736,20.723 L91.16,20.67 L91.372,20.829 L90.842,21.253 L91.054,21.412 L91.425,21.518 L91.425,21.836 Z M97.202,20.829 L97.255,20.723 L97.467,20.67 L97.52,20.829 L97.202,20.829 Z M84.111,21.147 L84.005,21.359 L83.846,21.2 L83.899,20.829 L84.111,21.147 Z M95.559,21.253 L95.4,21.2 L95.453,21.041 L95.612,21.094 L95.559,21.253 Z M87.662,21.465 L88.033,21.465 L88.404,21.783 L88.51,22.154 L88.298,22.26 L88.192,21.889 L87.874,21.73 L87.662,21.465 Z M90.63,29.468 L90.948,29.415 L91.213,29.521 L91.796,29.786 L92.008,29.945 L92.326,30.21 L92.008,30.475 L92.167,30.793 L91.796,31.058 L91.001,31.058 L90.736,31.641 L90.471,31.747 L89.729,31.641 L89.358,31.376 L89.04,31.376 L88.775,31.27 L88.245,30.952 L87.927,30.899 L87.397,30.687 L87.344,30.369 L87.238,30.104 L87.132,30.051 L87.291,30.051 L87.662,29.998 L87.609,29.521 L87.344,28.991 L87.238,28.726 L87.45,28.355 L87.715,28.461 L87.927,28.567 L87.821,28.249 L87.556,28.09 L87.238,28.037 L86.973,27.984 L87.026,27.825 L86.814,27.401 L86.92,27.083 L87.45,26.818 L87.45,26.606 L87.344,26.712 L87.238,26.712 L87.291,26.606 L87.344,26.447 L87.291,26.129 L87.503,26.076 L87.556,26.447 L88.245,26.977 L88.245,26.235 L88.139,26.023 L88.139,25.864 L88.616,25.652 L88.245,24.38 L88.298,24.062 L88.616,23.956 L88.934,23.585 L88.987,23.373 L89.57,23.108 L89.57,22.896 L89.199,22.843 L88.139,22.843 L87.821,23.108 L87.556,23.002 L87.662,22.737 L88.033,22.737 L88.828,22.472 L89.146,22.525 L89.464,22.684 L89.888,23.002 L89.623,23.426 L89.464,23.744 L89.358,24.062 L89.305,24.592 L89.411,24.857 L89.199,25.44 L89.04,25.705 L89.146,25.758 L89.411,25.652 L89.57,25.811 L89.411,25.97 L89.146,25.811 L89.146,26.076 L89.252,26.394 L89.305,26.712 L89.252,27.03 L89.146,27.348 L88.934,27.878 L89.517,28.037 L89.782,28.037 L89.676,27.825 L89.729,27.666 L89.888,27.984 L89.623,28.302 L89.517,28.567 L89.411,28.885 L89.517,29.15 L90.047,28.938 L90.259,29.203 L90.153,29.574 L90.259,29.733 L90.63,29.468 Z M87.874,24.009 L87.397,23.956 L87.503,23.479 L87.874,23.532 L87.874,24.009 Z M83.634,24.221 L83.263,24.115 L83.422,24.327 L83.634,24.221 Z M88.139,25.281 L87.768,25.44 L87.556,25.44 L87.609,25.175 L87.874,24.963 L88.139,25.281 Z M83.157,27.136 L83.422,26.924 L83.528,26.712 L83.422,26.447 L83.157,26.288 L82.839,26.023 L82.839,26.341 L82.945,26.977 L83.157,27.136 Z M88.245,27.348 L88.51,27.136 L88.404,26.977 L88.245,26.977 L88.139,27.083 L88.245,27.348 Z M91.107,35.987 L90.736,35.934 L90.312,35.775 L90.471,36.411 L89.941,36.729 L89.676,36.623 L89.252,36.464 L88.669,36.358 L88.457,35.828 L88.192,36.04 L88.404,36.57 L87.98,36.729 L87.821,36.517 L87.662,36.782 L87.45,36.888 L87.185,36.835 L86.549,36.623 L86.125,36.676 L85.595,36.941 L85.277,36.941 L84.959,36.994 L84.694,37.047 L84.323,37.1 L84.005,37.047 L83.74,36.994 L83.157,36.729 L82.839,36.676 L82.309,36.305 L82.256,35.934 L82.15,35.987 L81.991,35.722 L81.938,35.457 L81.832,35.139 L81.832,34.874 L81.885,34.609 L81.938,33.973 L81.832,33.708 L81.673,33.231 L82.044,32.966 L82.203,32.595 L82.203,32.277 L81.832,31.535 L81.938,31.217 L81.832,30.634 L82.309,30.687 L82.468,30.21 L82.15,29.68 L82.15,28.673 L82.574,28.62 L83.104,28.514 L83.422,28.514 L83.687,28.726 L83.74,29.68 L84.111,29.786 L83.952,30.157 L83.422,29.945 L83.157,29.362 L82.892,29.68 L82.998,29.945 L83.369,30.528 L83.581,30.74 L83.793,31.058 L84.217,31.376 L84.164,31.8 L83.581,31.747 L83.475,32.383 L83.422,32.754 L84.323,33.231 L84.641,33.443 L84.906,33.655 L85.33,34.132 L85.489,34.503 L86.019,35.298 L86.655,35.563 L86.867,35.775 L87.079,35.616 L87.397,35.51 L87.662,35.51 L87.927,35.616 L88.192,35.563 L87.927,35.033 L88.298,34.662 L88.563,34.768 L88.828,35.086 L89.252,35.139 L89.782,35.351 L90.471,35.298 L90.63,35.457 L90.736,35.775 L91.107,35.775 L91.107,35.987 Z M82.998,29.203 L82.627,29.097 L82.68,29.415 L82.998,29.203 Z M88.51,29.309 L88.669,29.256 L88.563,29.097 L88.51,29.309 Z M91.372,29.945 L91.478,29.839 L91.372,29.733 L91.054,29.733 L91.107,29.945 L91.372,29.945 Z M89.941,29.786 L89.517,29.892 L89.676,30.104 L90.047,29.892 L89.941,29.786 Z M91.372,30.952 L91.478,30.528 L91.584,30.21 L91.107,30.051 L91.001,30.475 L91.266,30.793 L91.372,30.952 Z M93.121,30.157 L93.757,30.263 L94.34,30.422 L95.347,30.369 L95.93,30.157 L95.93,30.793 L96.089,31.164 L96.354,31.005 L96.725,31.111 L96.725,31.376 L96.619,31.694 L96.407,32.012 L95.877,31.959 L95.718,31.694 L95.294,31.429 L94.976,31.376 L94.817,31.058 L94.446,31.482 L94.393,31.8 L94.128,31.482 L94.34,30.952 L94.287,30.634 L93.757,30.528 L93.333,30.316 L93.068,30.369 L92.803,30.263 L93.121,30.157 Z M88.351,30.21 L88.404,30.475 L88.563,30.528 L88.51,30.316 L88.351,30.21 Z M89.411,30.952 L89.994,30.899 L89.994,30.422 L89.517,30.422 L89.146,30.687 L88.987,31.058 L89.04,31.376 L89.146,31.111 L89.411,30.952 Z M99.852,30.74 L100.223,30.793 L100.064,31.164 L99.64,31.058 L99.852,30.74 Z M90.047,31.429 L90.365,31.482 L90.047,31.058 L90.047,31.429 Z M96.301,31.641 L96.566,31.323 L96.354,31.111 L96.036,31.217 L95.93,31.641 L96.301,31.641 Z M95.983,31.217 L95.665,31.164 L95.771,31.429 L95.983,31.217 Z M92.803,31.323 L92.432,31.588 L92.061,31.429 L92.273,31.376 L92.538,31.27 L92.803,31.323 Z M82.892,31.323 L82.945,31.588 L83.263,31.588 L83.21,31.323 L82.892,31.323 Z M101.76,32.807 L101.919,32.86 L101.866,32.966 L101.654,32.966 L101.76,32.807 Z M82.627,33.072 L82.839,33.019 L82.892,32.913 L82.627,32.913 L82.627,33.072 Z M101.76,33.602 L102.025,33.496 L101.919,33.814 L101.654,33.973 L101.76,33.602 Z M83.634,33.655 L83.634,33.814 L83.952,33.867 L84.005,33.602 L83.634,33.655 Z M86.125,34.715 L86.549,34.609 L87.132,34.98 L87.344,35.245 L86.655,35.192 L86.39,35.033 L86.125,34.715 Z M84.906,34.98 L85.118,34.927 L85.171,34.662 L84.959,34.715 L84.906,34.98 Z M90.683,34.821 L90.736,34.662 L91.001,34.662 L90.948,34.874 L90.683,34.821 Z M91.266,35.245 L91.425,35.033 L91.902,34.662 L92.909,34.715 L92.856,35.033 L92.379,35.086 L92.061,35.139 L91.531,35.404 L91.266,35.245 Z M83.687,35.033 L83.952,35.033 L83.793,34.821 L83.687,35.033 Z M94.817,35.192 L94.393,35.139 L94.658,34.821 L95.082,34.874 L95.294,34.874 L94.817,35.192 Z M101.23,35.351 L101.23,34.98 L101.495,35.139 L101.442,35.404 L101.23,35.351 Z M94.605,35.775 L94.393,35.722 L94.446,35.881 L94.499,36.252 L94.287,36.411 L94.022,36.04 L93.651,36.464 L93.81,36.623 L93.81,36.888 L93.598,36.676 L93.333,36.57 L93.015,36.729 L92.803,36.994 L92.644,36.782 L92.379,36.729 L91.743,36.888 L91.584,36.358 L92.167,36.252 L92.008,35.934 L91.849,35.722 L92.061,35.669 L92.538,35.563 L93.068,35.457 L93.598,35.192 L93.916,35.086 L94.128,35.351 L94.393,35.669 L94.711,35.669 L94.605,35.775 Z M99.799,35.828 L99.269,35.828 L99.004,35.351 L99.481,35.139 L99.64,35.457 L99.852,35.669 L99.799,35.828 Z M84.005,35.351 L84.217,35.404 L84.217,35.192 L84.058,35.192 L84.005,35.351 Z M88.987,35.457 L88.828,35.987 L88.934,35.987 L89.146,35.775 L89.623,35.828 L89.623,35.51 L89.199,35.351 L88.987,35.457 Z M97.149,36.358 L96.672,36.252 L96.407,36.305 L96.248,36.411 L96.407,36.623 L96.354,36.782 L96.195,36.676 L96.195,36.411 L96.036,36.358 L95.718,36.623 L95.4,36.782 L95.665,36.517 L95.877,36.04 L95.453,35.775 L95.347,35.457 L95.93,35.457 L96.248,35.616 L96.831,35.934 L97.255,36.093 L97.149,36.358 Z M102.396,35.775 L102.025,35.881 L101.707,36.093 L101.495,36.04 L101.707,35.934 L101.972,35.722 L102.714,35.51 L102.396,35.775 Z M92.538,35.775 L92.273,35.881 L92.485,36.093 L93.068,36.146 L93.386,36.252 L93.492,36.04 L93.174,35.881 L92.538,35.775 Z M100.806,36.358 L100.541,36.358 L100.488,36.04 L100.806,36.093 L100.806,36.358 Z M97.944,36.464 L97.838,36.305 L98.05,36.146 L98.103,36.358 L97.944,36.464 Z M139.019,24.857 L138.224,21.783 L137.641,20.935 L136.263,19.345 L135.309,18.497 L134.461,18.073 L133.507,17.49 L129.373,16.218 L128.313,16.059 L127.253,16.006 L126.14,15.794 L124.603,15.794 L121.794,15.211 L119.833,14.257 L119.038,13.515 L118.826,11.925 L119.091,10.494 L119.727,9.805 L120.522,9.222 L121.37,8.745 L122.324,8.533 L124.02,8.48 L125.716,8.692 L126.67,8.957 L127.624,9.593 L128.525,10.335 L129.32,11.395 L130.486,12.084 L132.977,11.872 L134.408,11.978 L135.468,11.978 L136.422,12.084 L137.429,11.342 L137.853,10.441 L137.641,9.434 L137.535,8.427 L136.051,5.671 L134.885,4.081 L131.387,1.643 L128.419,0.636 L126.352,0.212 L122.271,0.106 L121.105,0.424 L120.045,0.477 L119.091,0.636 L117.077,1.272 L115.275,2.332 L112.731,4.081 L110.876,6.572 L109.922,9.487 L109.763,12.084 L109.816,13.727 L110.187,15.847 L111.035,17.702 L112.996,20.14 L116.6,22.101 L118.508,22.737 L126.829,23.691 L128.737,24.592 L129.426,25.228 L129.744,26.553 L129.32,27.878 L128.631,28.673 L126.829,29.468 L125.186,29.574 L124.232,29.733 L121.529,29.468 L120.628,28.991 L119.727,28.408 L117.978,26.5 L116.918,26.076 L115.964,26.182 L114.957,26.023 L110.876,26.235 L109.922,26.659 L109.498,27.772 L109.657,28.832 L109.869,29.892 L110.187,30.846 L111.194,32.807 L111.936,33.496 L112.625,34.291 L114.48,35.457 L115.222,36.252 L116.229,36.729 L117.289,37.047 L119.356,37.789 L121.529,38.16 L125.716,38.266 L126.776,38.16 L127.836,37.895 L128.896,37.736 L129.956,37.312 L130.91,37.206 L131.917,36.729 L135.521,34.556 L137.058,32.966 L137.588,32.224 L138.171,31.058 L138.489,30.104 L138.807,29.203 L139.125,26.553 L139.019,24.857 Z M121.476,1.272 L121.37,1.749 L121.529,2.332 L121.37,2.65 L121.317,2.385 L121.052,1.696 L121.476,1.272 Z M124.921,1.643 L125.239,1.749 L125.345,1.643 L125.504,1.325 L125.716,1.325 L125.716,1.59 L125.186,1.908 L124.868,1.961 L124.709,1.749 L124.921,1.643 Z M122.324,1.378 L122.695,1.643 L123.331,1.908 L123.702,1.908 L123.702,2.226 L124.179,2.226 L124.02,2.332 L123.384,2.385 L122.801,2.279 L122.748,2.014 L122.324,1.855 L122.324,1.378 Z M118.667,1.961 L118.826,1.749 L119.356,1.749 L119.674,1.908 L119.303,2.226 L118.826,2.014 L118.508,2.544 L118.826,3.074 L118.296,3.021 L118.19,2.491 L118.667,1.961 Z M128.313,2.067 L128.419,2.385 L128.154,2.332 L128.101,2.014 L128.313,2.067 Z M117.448,2.279 L117.66,2.226 L117.66,2.544 L117.395,2.544 L117.448,2.279 Z M125.875,2.332 L126.352,2.385 L126.087,2.65 L125.769,2.756 L125.875,2.332 Z M129.002,2.544 L129.214,2.491 L129.638,2.756 L129.956,3.18 L129.532,2.968 L128.896,2.968 L129.002,2.544 Z M113.844,4.558 L114.639,4.24 L115.593,4.293 L115.646,4.081 L115.01,3.657 L115.222,3.127 L116.176,3.021 L116.653,3.339 L117.183,3.392 L117.024,3.71 L116.706,3.816 L116.918,4.293 L117.501,4.187 L116.865,4.664 L115.752,4.823 L114.798,4.876 L114.639,5.565 L114.056,5.883 L113.897,5.3 L113.685,4.823 L113.844,4.558 Z M130.963,3.339 L131.122,3.233 L131.122,3.445 L130.963,3.498 L130.963,3.339 Z M116.653,3.763 L116.653,3.498 L115.805,3.498 L116.017,3.869 L116.653,3.763 Z M132.712,31.8 L130.963,33.072 L130.009,33.443 L126.882,34.45 L125.769,34.556 L121.635,34.503 L119.727,34.026 L117.66,33.125 L116.812,32.595 L115.487,31.429 L114.904,30.475 L114.692,29.68 L115.381,29.68 L116.176,30.528 L116.971,31.217 L118.667,32.383 L119.621,32.648 L120.628,33.125 L124.232,33.443 L125.981,33.39 L129.055,32.595 L130.168,32.065 L132.023,30.952 L132.659,29.892 L133.242,29.15 L133.613,28.143 L133.772,26.447 L133.719,24.91 L133.348,23.903 L132.235,22.419 L130.38,21.2 L129.532,20.776 L126.352,20.193 L125.398,20.193 L121.688,19.822 L119.144,19.292 L116.388,17.914 L115.54,17.172 L114.851,16.483 L114.427,15.688 L114.003,14.575 L113.738,11.925 L113.738,10.547 L115.01,7.473 L116.865,5.83 L120.151,4.081 L122.218,3.763 L125.345,3.657 L127.465,4.081 L128.366,4.558 L130.38,5.353 L131.228,6.095 L132.023,6.625 L132.659,7.526 L132.871,8.427 L132.076,8.533 L130.38,6.837 L129.532,6.254 L128.419,5.724 L125.504,4.823 L121.211,5.088 L120.098,5.406 L117.342,6.89 L115.858,8.374 L115.328,9.275 L114.904,10.335 L114.957,13.727 L115.222,14.681 L116.388,16.377 L117.183,17.013 L118.296,17.49 L120.204,18.179 L121.37,18.391 L122.324,18.656 L127.73,19.292 L130.963,20.087 L131.917,20.67 L133.454,22.101 L134.09,22.79 L134.832,24.751 L134.885,28.09 L134.09,29.998 L133.401,31.058 L132.712,31.8 Z M112.572,7.049 L112.943,6.36 L113.155,5.83 L113.95,6.042 L114.586,6.625 L114.321,7.314 L113.367,8.056 L112.89,8.215 L112.996,8.904 L112.413,9.01 L112.519,8.745 L112.466,7.95 L113.102,7.526 L112.678,7.314 L112.095,7.791 L111.883,7.473 L112.572,7.049 Z M112.201,5.989 L112.413,5.936 L112.466,6.201 L112.148,6.254 L112.201,5.989 Z M126.564,6.837 L126.246,6.837 L126.034,6.784 L125.928,6.413 L126.193,6.572 L126.564,6.625 L126.564,6.837 Z M120.31,7.685 L119.833,7.314 L119.568,7.314 L119.886,6.996 L120.469,7.261 L120.31,7.685 Z M127.2,7.738 L126.935,7.738 L126.882,7.42 L127.2,7.473 L127.2,7.738 Z M127.995,7.738 L127.995,7.42 L128.207,7.42 L128.26,7.738 L127.995,7.738 Z M119.038,8.321 L118.561,7.897 L118.72,7.632 L119.038,7.95 L119.038,8.321 Z M117.289,9.699 L117.183,9.646 L116.971,9.699 L117.024,9.275 L117.342,8.745 L117.713,8.851 L117.395,9.01 L117.077,9.275 L117.289,9.699 Z M110.929,10.441 L110.876,10.229 L111.035,10.282 L111.3,10.176 L111.777,9.858 L111.83,9.487 L112.201,9.487 L112.148,9.805 L111.83,9.964 L111.565,10.494 L110.929,10.441 Z M117.978,10.865 L118.084,11.13 L117.342,11.395 L116.653,11.395 L116.123,11.077 L116.918,10.865 L117.978,10.865 Z M111.353,11.607 L111.883,11.448 L112.095,11.024 L112.413,11.236 L112.307,11.554 L111.883,11.554 L111.83,12.031 L111.671,12.508 L111.512,12.402 L111.671,12.402 L111.459,12.084 L111.088,11.819 L111.353,11.607 Z M116.706,12.243 L116.759,11.819 L117.554,11.66 L117.819,12.19 L118.084,12.561 L117.978,12.879 L117.607,13.038 L117.713,13.25 L117.819,13.356 L117.607,13.25 L117.501,13.038 L117.713,12.667 L117.395,12.561 L116.706,12.243 Z M117.236,12.349 L117.289,12.031 L116.865,12.137 L117.236,12.349 Z M111.83,13.197 L111.565,13.038 L111.777,12.773 L112.148,12.508 L112.572,12.773 L112.254,13.303 L111.83,13.197 Z M116.441,12.773 L116.812,12.773 L116.6,13.144 L116.123,13.091 L116.441,12.773 Z M117.024,13.462 L117.342,13.568 L117.289,13.833 L116.971,13.727 L117.024,13.462 Z M111.618,13.992 L111.247,13.992 L111.406,13.674 L111.777,13.674 L111.618,13.992 Z M117.554,14.575 L117.077,14.575 L117.077,14.31 L117.289,14.098 L117.66,14.522 L118.243,14.734 L118.508,15.158 L118.296,15.529 L117.766,15.317 L117.342,14.999 L117.66,14.893 L117.554,14.575 Z M112.625,14.84 L112.731,14.946 L112.678,15.105 L112.572,15.052 L112.625,14.84 Z M119.197,15.741 L119.568,16.271 L119.833,16.854 L120.098,17.225 L119.833,16.907 L119.356,16.377 L119.144,15.9 L118.667,16.112 L118.402,15.9 L118.614,15.688 L119.197,15.741 Z M121.317,16.006 L121.582,16.324 L121.9,16.96 L121.635,16.96 L121.317,16.907 L121.317,16.748 L121.211,16.377 L121.317,16.006 Z M113.155,17.596 L113.049,17.331 L112.837,17.119 L112.678,16.801 L112.837,16.483 L113.42,16.218 L113.738,16.695 L113.208,17.066 L113.102,17.331 L113.261,17.384 L113.314,17.49 L113.155,17.596 Z M122.377,16.377 L123.013,16.695 L122.96,17.013 L122.642,16.801 L122.695,16.695 L122.324,16.695 L122.377,16.377 Z M113.897,18.126 L113.579,18.126 L113.579,17.861 L113.897,17.861 L113.897,18.126 Z M114.798,19.08 L114.586,19.027 L114.639,18.762 L114.904,18.868 L114.798,19.08 Z M115.275,19.769 L115.275,19.451 L115.699,19.345 L115.752,19.663 L115.275,19.769 Z M119.197,20.882 L118.72,20.935 L118.561,21.041 L118.985,21.359 L119.144,21.571 L118.561,21.518 L118.084,21.147 L117.925,20.617 L118.349,20.564 L118.402,20.935 L118.72,20.829 L119.144,20.617 L119.409,20.776 L119.197,20.882 Z M123.119,21.2 L122.907,21.306 L122.907,21.041 L123.119,21.094 L123.119,21.2 Z M135.309,21.518 L135.468,21.518 L135.415,21.677 L135.044,21.677 L135.309,21.518 Z M123.066,22.048 L122.801,22.048 L122.854,21.783 L123.066,21.783 L123.066,22.048 Z M124.709,22.154 L124.709,21.783 L124.921,21.836 L125.027,22.101 L124.709,22.154 Z M126.67,22.154 L126.511,21.942 L126.67,21.889 L126.935,22.207 L126.67,22.154 Z M131.281,24.168 L131.122,24.115 L130.857,24.009 L130.857,23.744 L131.228,23.691 L131.122,23.85 L131.281,24.168 Z M136.687,24.857 L137.058,25.016 L137.429,25.016 L137.217,25.069 L137.058,25.016 L136.74,25.175 L136.475,25.122 L136.687,24.857 Z M137.8,26.659 L137.429,26.606 L137.482,26.341 L137.853,26.394 L137.8,26.659 Z M137.323,27.242 L137.535,27.507 L137.535,27.613 L137.164,27.56 L137.005,27.189 L137.323,27.242 Z M116.335,27.666 L116.759,27.931 L116.812,28.408 L116.335,28.196 L116.335,27.666 Z M136.581,28.143 L136.74,27.878 L137.164,28.037 L136.899,28.249 L136.581,28.196 L136.369,28.196 L136.581,28.143 Z M137.641,28.461 L137.482,28.514 L137.482,28.249 L137.641,28.249 L137.641,28.461 Z M117.342,28.726 L117.236,28.832 L117.077,28.938 L117.342,28.726 Z M135.998,28.991 L136.316,28.885 L136.316,29.362 L135.998,29.362 L135.998,28.991 Z M137.111,30.316 L136.74,30.899 L136.422,31.588 L136.157,31.853 L136.104,31.588 L136.051,31.429 L135.574,31.535 L135.256,31.217 L135.203,30.475 L135.68,30.475 L135.68,30.952 L136.051,31.111 L136.316,30.528 L136.422,29.892 L136.846,29.733 L137.323,30.051 L137.111,30.316 Z M127.624,30.104 L128.048,30.104 L127.889,30.422 L127.518,30.475 L127.624,30.104 Z M126.458,30.793 L126.723,30.793 L126.882,31.111 L127.041,31.217 L127.041,31.376 L126.935,31.217 L126.776,31.058 L126.564,31.217 L126.299,31.111 L126.458,30.793 Z M125.61,30.952 L125.663,31.429 L125.398,31.429 L125.345,31.111 L125.61,30.952 Z M124.709,31.058 L124.709,31.27 L124.497,31.27 L124.444,31.111 L124.709,31.058 Z M134.408,31.535 L134.355,31.8 L134.09,31.747 L134.196,31.535 L134.408,31.535 Z M121.529,31.8 L121.794,31.641 L121.9,31.853 L121.741,32.118 L121.476,32.224 L121.317,32.171 L121.582,32.171 L121.529,31.8 Z M123.119,31.747 L123.331,31.747 L123.331,32.012 L123.066,31.959 L123.119,31.747 Z M135.256,33.231 L134.514,33.231 L133.825,32.86 L134.461,32.436 L135.256,32.701 L135.256,33.231 Z M134.249,34.079 L133.878,34.185 L134.037,33.708 L134.62,33.867 L134.249,34.079 Z M132.659,34.238 L132.341,34.344 L132.447,33.92 L132.712,33.92 L132.659,34.238 Z M131.387,34.503 L131.493,34.344 L131.97,34.291 L131.811,34.556 L131.387,34.503 Z M131.864,35.351 L131.599,35.139 L131.228,34.927 L130.857,35.245 L130.698,35.616 L131.069,35.722 L131.228,35.828 L130.963,35.881 L130.698,35.722 L129.903,35.934 L129.161,36.199 L128.525,36.57 L128.313,36.517 L127.889,36.464 L127.995,36.199 L128.101,35.987 L127.836,35.616 L128.684,35.669 L129.903,35.616 L130.433,35.245 L130.38,34.927 L130.274,34.715 L130.486,34.821 L130.804,34.927 L131.228,34.927 L131.652,35.033 L131.97,35.033 L132.129,35.298 L131.864,35.351 Z M123.543,35.934 L123.596,35.775 L123.808,35.669 L123.861,35.881 L123.543,35.934 Z M126.511,36.676 L126.034,36.676 L126.246,35.934 L126.617,36.04 L126.511,36.676 Z M125.345,36.517 L125.186,36.146 L125.504,36.093 L125.61,36.517 L125.345,36.517 Z M120.575,36.676 L120.363,36.623 L120.575,36.623 L120.893,36.517 L120.575,36.676 Z M122.695,37.047 L122.748,36.623 L122.854,36.676 L122.96,37.047 L122.695,37.047 Z M124.656,37.312 L124.391,37.259 L124.285,37.047 L124.656,36.994 L124.656,37.312 Z M169.176,1.272 L168.169,0.583 L164.883,0.583 L163.876,0.477 L162.763,0.636 L161.756,0.53 L157.463,0.742 L156.403,0.53 L155.396,0.477 L154.283,0.636 L153.117,0.53 L152.163,0.742 L149.036,0.583 L147.393,0.742 L143.683,0.53 L142.676,1.06 L142.04,2.279 L142.093,3.339 L141.987,5.989 L142.093,7.632 L142.57,8.586 L143.524,9.116 L144.584,9.01 L149.619,9.116 L150.626,9.646 L151.209,10.706 L151.103,12.402 L151.209,13.886 L151.156,15.052 L151.209,16.112 L151.103,17.596 L151.262,25.493 L151.156,26.553 L151.103,30.846 L151.209,31.959 L151.156,35.033 L151.05,36.04 L151.739,37.206 L153.276,37.736 L154.919,37.789 L158.47,37.683 L160.007,37.153 L160.537,35.669 L160.696,32.913 L160.537,30.899 L160.643,29.786 L160.59,27.666 L160.696,26.712 L160.537,25.546 L160.643,17.013 L160.484,15.9 L160.643,11.289 L161.067,9.699 L162.074,9.063 L164.141,8.957 L166.102,9.222 L167.215,9.063 L168.169,9.116 L169.07,8.533 L169.706,7.367 L169.759,2.332 L169.176,1.272 Z M153.912,1.749 L154.018,1.749 L154.389,1.696 L154.389,2.014 L153.912,2.014 L153.912,1.749 Z M162.869,1.908 L162.975,2.12 L162.657,2.067 L162.551,1.855 L162.869,1.908 Z M165.89,2.067 L165.731,2.014 L165.837,1.908 L166.049,2.014 L165.89,2.067 Z M150.573,2.014 L150.732,1.961 L150.626,2.226 L150.414,2.226 L150.573,2.014 Z M159.795,2.014 L159.901,2.173 L159.901,2.438 L159.795,2.279 L159.795,2.014 Z M151.315,2.385 L151.368,2.597 L151.156,2.597 L151.103,2.491 L151.315,2.385 Z M155.343,2.438 L155.608,2.544 L155.555,2.756 L155.29,2.703 L155.343,2.438 Z M164.724,5.565 L163.717,5.406 L162.445,5.565 L161.438,5.406 L159.848,5.406 L158.735,5.512 L156.933,6.042 L156.35,6.996 L156.509,8.162 L156.403,11.501 L156.509,12.402 L156.562,18.921 L156.456,19.981 L156.403,24.38 L156.562,25.44 L156.456,26.447 L156.509,32.807 L156.244,34.079 L155.555,33.973 L155.343,32.754 L155.343,12.508 L155.237,11.448 L155.29,10.388 L155.237,9.222 L155.343,8.268 L155.29,7.208 L154.707,5.989 L153.594,5.406 L152.481,5.3 L150.308,5.618 L149.195,5.459 L146.969,5.512 L145.962,5.141 L145.909,4.505 L146.969,4.346 L155.29,4.399 L157.887,4.187 L161.703,4.346 L162.71,4.293 L163.823,4.134 L165.784,4.558 L165.837,5.194 L164.724,5.565 Z M167.798,5.088 L167.957,4.876 L168.116,5.035 L167.798,5.088 Z M160.537,7.208 L160.431,7.579 L160.166,7.685 L160.272,7.208 L160.59,7.102 L160.537,7.208 Z M149.142,7.367 L149.142,7.155 L149.46,7.261 L149.142,7.367 Z M152.693,8.692 L152.428,8.692 L152.534,8.48 L152.746,8.533 L152.693,8.692 Z M158.152,10.865 L158.205,10.229 L158.523,10.388 L158.629,10.971 L158.152,10.865 Z M154.018,12.137 L154.23,12.137 L154.389,12.296 L154.177,12.296 L154.018,12.137 Z M153.488,12.508 L153.647,12.561 L153.7,12.773 L153.541,12.614 L153.488,12.508 Z M152.799,12.932 L152.958,13.038 L152.746,13.038 L152.64,12.932 L152.799,12.932 Z M159.053,13.939 L159.212,13.409 L159.477,13.462 L159.371,13.886 L159.371,14.257 L159.053,13.939 Z M152.746,13.462 L152.905,13.621 L152.693,14.204 L153.064,14.946 L152.587,15.211 L152.322,14.257 L152.746,13.462 Z M152.534,15.688 L153.435,15.264 L153.7,15.476 L153.594,16.112 L153.965,16.377 L154.336,16.801 L154.071,17.437 L153.17,17.278 L152.534,16.907 L152.375,17.225 L151.951,17.119 L152.269,16.589 L152.534,15.688 Z M159.159,15.582 L159.477,15.582 L159.636,15.794 L159.477,15.847 L159.159,15.741 L159,15.635 L158.894,15.476 L159.159,15.582 Z M159.795,22.949 L159.583,23.585 L159.477,24.327 L159.795,25.122 L159.636,25.44 L158.735,25.705 L158.046,25.228 L157.993,24.751 L158.046,24.115 L157.834,23.479 L157.463,22.79 L157.516,22.684 L158.576,22.949 L158.47,22.737 L157.728,22.154 L157.781,21.412 L158.311,21.2 L158.364,20.935 L157.781,20.776 L157.728,19.875 L158.099,18.709 L157.622,18.338 L157.728,17.861 L157.834,16.748 L158.682,16.218 L158.576,16.006 L158.629,15.9 L159.212,16.165 L158.629,17.278 L158.417,18.179 L158.576,18.232 L158.894,17.914 L159.159,18.338 L158.788,18.656 L159.318,18.762 L159.636,18.709 L159.795,18.762 L159.636,18.815 L159.53,18.921 L159.795,19.133 L159.477,19.61 L159.318,19.875 L159.636,20.299 L159.954,20.67 L159.848,20.988 L159.742,20.564 L159.689,20.405 L159.371,20.299 L159.053,20.299 L159.106,21.094 L159.53,21.73 L160.007,22.101 L160.06,22.949 L159.795,22.949 Z M153.594,16.589 L153.329,16.536 L153.382,16.748 L153.594,16.589 Z M152.11,18.391 L152.057,17.861 L152.852,17.649 L153.435,17.649 L153.488,18.073 L152.958,18.285 L152.11,18.391 Z M152.905,18.709 L152.746,19.027 L152.216,19.133 L152.428,18.815 L152.905,18.709 Z M158.894,19.451 L158.682,19.663 L158.894,19.663 L159.106,19.557 L158.894,19.451 Z M153.912,21.677 L153.541,21.942 L152.905,22.419 L152.693,22.101 L153.011,21.942 L152.746,21.624 L152.534,21.412 L153.064,21.147 L152.905,20.882 L152.269,20.882 L152.428,20.511 L152.746,20.617 L153.011,20.299 L153.382,20.458 L153.859,20.67 L154.283,20.299 L153.965,20.034 L153.912,19.822 L154.23,19.875 L154.442,20.299 L154.283,20.935 L154.283,21.836 L153.912,21.677 Z M153.7,21.518 L153.912,21.465 L153.7,21.147 L153.7,21.518 Z M158.576,21.995 L158.682,22.313 L158.894,22.207 L158.788,21.942 L158.576,21.995 Z M153.806,22.737 L153.435,22.843 L153.382,22.631 L153.806,22.684 L154.071,22.419 L154.124,22.578 L153.806,22.737 Z M159.53,23.108 L159.689,22.737 L159.212,22.843 L159.53,23.108 Z M158.523,23.479 L158.735,23.108 L158.364,23.161 L158.523,23.479 Z M153.541,25.122 L153.329,25.281 L153.17,24.963 L152.799,24.592 L152.693,24.115 L153.117,24.38 L153.329,24.857 L153.541,25.122 Z M159.159,25.228 L159.477,25.228 L159.371,24.963 L159.159,25.228 Z M152.852,25.546 L152.958,26.129 L152.905,26.235 L152.269,25.705 L152.216,25.387 L152.852,25.546 Z M154.124,25.758 L154.071,26.076 L153.647,26.023 L153.7,25.758 L154.124,25.758 Z M158.735,33.443 L159.159,33.761 L159.477,33.549 L159.689,33.814 L159.371,33.973 L159.636,34.503 L159.742,35.245 L159.53,36.305 L159.159,36.199 L158.788,36.623 L157.993,37.206 L156.986,36.888 L155.873,36.888 L155.449,36.623 L154.707,37.047 L153.912,36.941 L152.852,36.517 L152.852,35.722 L152.905,35.351 L152.64,35.457 L152.375,35.457 L152.375,34.927 L152.004,34.238 L152.11,33.655 L152.322,33.072 L153.117,32.966 L152.746,32.86 L151.739,32.33 L152.746,31.058 L152.216,30.422 L151.898,30.051 L152.057,29.574 L152.587,29.68 L152.958,29.945 L153.276,29.68 L153.17,29.309 L152.534,29.362 L152.322,29.097 L152.587,29.256 L152.746,29.15 L152.534,28.779 L152.746,28.514 L153.488,28.832 L154.336,28.567 L154.442,29.097 L154.071,29.203 L153.647,29.892 L153.223,30.634 L154.071,30.899 L154.124,30.104 L154.389,29.945 L154.548,30.846 L154.018,32.118 L154.76,32.807 L154.548,33.549 L154.389,34.185 L155.025,34.344 L154.813,34.927 L155.449,35.033 L156.509,35.722 L157.251,35.616 L157.887,35.351 L157.675,34.556 L157.516,34.185 L157.198,34.556 L156.774,35.245 L156.403,34.927 L156.668,34.344 L157.145,33.443 L157.304,32.701 L157.622,31.694 L157.41,31.217 L157.834,30.846 L157.993,31.164 L158.046,30.528 L157.41,30.157 L157.569,29.786 L158.046,29.574 L158.152,29.15 L157.569,28.991 L157.41,28.196 L157.94,27.136 L157.357,26.606 L157.463,26.394 L157.94,26.288 L158.311,26.023 L158.788,26.023 L159.424,26.182 L159.477,27.083 L158.788,27.295 L159.318,27.666 L159.636,28.302 L159.53,29.521 L159.053,29.415 L158.947,29.839 L159.583,29.998 L159.795,30.316 L159.53,30.634 L159.212,30.846 L159.318,31.005 L158.894,30.793 L158.629,31.111 L158.947,31.694 L159.583,31.482 L159.954,32.171 L159.371,33.178 L158.523,33.072 L158.099,32.966 L157.993,33.284 L158.735,33.443 Z M158.894,26.288 L158.576,26.129 L158.311,26.341 L158.576,26.394 L158.894,26.288 Z M153.382,26.447 L153.17,26.447 L153.011,26.288 L153.223,26.235 L153.382,26.447 Z M152.693,27.401 L152.11,27.295 L152.64,26.765 L153.329,27.348 L153.541,27.348 L153.912,27.136 L154.283,27.719 L153.594,28.143 L152.693,27.401 Z M152.905,28.037 L152.64,27.984 L152.216,27.772 L152.11,27.348 L152.428,27.507 L152.799,27.772 L152.905,28.037 Z M158.417,27.613 L158.099,28.302 L158.841,27.878 L158.417,27.613 Z M158.947,29.362 L159.106,29.15 L159.106,28.885 L158.894,28.779 L158.682,29.097 L158.947,29.362 Z M152.375,30.316 L152.375,30.051 L152.11,30.21 L152.375,30.316 Z M153.859,30.581 L153.541,30.581 L153.541,30.369 L153.753,30.263 L153.859,30.581 Z M152.269,32.542 L152.587,32.542 L152.428,32.33 L152.269,32.542 Z M153.594,33.549 L153.594,34.079 L153.965,34.026 L153.912,33.443 L153.594,33.549 Z M158.894,33.814 L158.894,33.973 L159.106,33.867 L158.894,33.814 Z M159.106,35.245 L158.947,35.139 L158.841,35.669 L159.053,35.616 L159.106,35.245 Z M154.071,35.669 L154.283,35.722 L154.283,35.51 L154.177,35.51 L154.071,35.669 Z M152.428,36.305 L152.11,36.199 L152.11,35.934 L152.481,35.987 L152.428,36.305 Z M157.94,36.411 L158.311,36.252 L158.205,35.987 L157.781,36.093 L157.94,36.411 Z M155.343,36.464 L155.82,36.411 L155.449,36.093 L155.343,36.464 Z M176.278,23.161 L177.285,22.949 L179.405,23.108 L180.306,22.949 L183.91,22.949 L184.97,23.108 L188.097,23.055 L189.687,22.525 L190.323,21.412 L190.217,17.119 L189.846,15.953 L188.786,15.37 L183.433,15.423 L182.426,15.211 L176.278,15.317 L175.218,15.211 L174.211,15.317 L173.098,15.953 L172.621,16.96 L172.621,21.465 L173.098,22.472 L174.052,23.108 L175.165,23.055 L176.278,23.161 Z M180.571,16.218 L180.412,16.059 L180.677,16.006 L180.836,16.218 L180.571,16.218 Z M179.458,16.324 L179.352,16.165 L179.564,16.059 L179.564,16.324 L179.458,16.324 Z M188.521,18.709 L187.885,18.232 L187.461,18.126 L187.037,18.232 L186.984,18.232 L186.719,18.126 L186.454,17.914 L186.242,17.331 L186.083,17.331 L186.083,17.278 L185.765,17.225 L185.129,17.278 L184.864,16.854 L184.546,16.642 L184.811,16.271 L185.182,16.589 L185.341,16.43 L185.5,16.165 L185.765,16.377 L185.447,16.589 L185.394,16.907 L185.659,17.013 L186.189,16.907 L186.295,16.483 L186.825,16.589 L186.719,16.907 L186.401,16.801 L186.189,16.907 L186.083,17.119 L186.454,17.225 L187.302,17.066 L187.673,17.066 L188.15,17.013 L188.309,16.642 L188.68,16.907 L188.521,17.331 L188.097,17.49 L188.309,17.861 L188.68,17.649 L188.945,17.543 L189.157,17.596 L188.998,17.755 L188.68,17.702 L188.68,17.861 L188.786,18.444 L188.521,18.709 Z M175.907,22.313 L175.483,21.889 L175.006,22.101 L174.688,21.518 L174.211,21.836 L173.999,21.73 L174.158,21.624 L174.423,21.412 L174.105,21.2 L173.681,20.988 L173.522,20.723 L173.522,20.352 L173.681,19.875 L173.628,20.246 L173.893,20.564 L174.105,20.723 L174.423,20.246 L174.688,20.034 L174.847,19.822 L174.37,19.557 L173.999,19.398 L173.893,19.239 L174.105,19.239 L174.264,19.08 L174.476,18.603 L174.423,18.444 L173.575,18.444 L173.522,18.073 L173.681,17.331 L174.052,17.066 L174.794,16.96 L175.324,16.907 L175.748,16.96 L175.748,16.589 L175.483,16.43 L175.748,16.218 L176.119,16.271 L176.967,16.695 L176.967,17.331 L176.172,17.119 L176.066,17.967 L175.377,17.755 L174.264,17.596 L173.893,17.596 L173.893,17.914 L174.264,18.073 L174.741,18.179 L175.112,18.232 L175.324,18.709 L175.43,18.974 L175.801,19.398 L175.96,19.61 L175.96,19.769 L175.748,20.193 L175.695,20.617 L175.165,21.2 L175.695,21.677 L175.96,21.942 L176.278,21.677 L176.649,21.465 L177.126,21.518 L177.179,21.2 L176.808,21.2 L176.384,20.988 L176.278,20.458 L176.914,20.246 L177.285,20.723 L177.444,20.776 L177.868,20.723 L178.186,20.882 L178.61,20.988 L178.027,21.253 L177.444,21.836 L177.179,21.995 L176.808,21.889 L176.384,21.889 L175.907,22.313 Z M183.486,16.695 L183.433,16.642 L183.433,16.43 L183.539,16.589 L183.486,16.695 Z M179.723,16.854 L179.776,16.642 L179.882,16.854 L179.776,16.801 L179.723,16.854 Z M181.578,17.066 L181.101,17.013 L180.836,16.854 L181.207,16.907 L181.578,17.066 Z M182.32,17.225 L182.214,17.119 L182.214,16.96 L182.267,17.013 L182.32,17.225 Z M177.444,17.437 L177.55,17.119 L177.868,17.013 L178.08,17.225 L177.815,17.225 L177.444,17.437 Z M179.193,17.596 L179.087,17.49 L179.246,17.437 L179.299,17.543 L179.193,17.596 Z M179.829,19.875 L177.656,19.716 L176.543,19.504 L176.543,18.815 L177.656,18.55 L179.882,18.603 L182.532,18.444 L186.401,18.868 L186.348,19.398 L185.235,19.822 L182.002,19.716 L179.829,19.875 Z M187.779,20.882 L187.726,20.723 L187.408,20.458 L187.302,19.981 L187.249,19.557 L187.302,19.239 L187.726,18.815 L188.044,18.868 L188.15,19.504 L188.097,19.875 L187.938,20.246 L187.779,20.723 L187.779,20.882 Z M175.059,19.398 L175.642,19.398 L175.377,19.186 L175.006,19.186 L174.688,19.345 L175.059,19.398 Z M188.68,19.451 L188.574,19.398 L188.68,19.186 L188.786,19.345 L188.68,19.451 Z M189.21,19.557 L189.104,19.504 L189.157,19.398 L189.263,19.451 L189.21,19.557 Z M175.748,19.716 L175.907,19.716 L175.748,19.61 L175.748,19.716 Z M189.21,20.246 L188.733,20.193 L188.68,20.034 L189.157,20.034 L189.21,20.246 Z M174.741,20.617 L174.9,20.617 L174.9,20.405 L174.741,20.352 L174.741,20.617 Z M179.299,22.313 L179.193,21.73 L178.875,21.624 L178.61,22.101 L178.186,21.942 L178.451,21.359 L179.511,21.518 L179.882,21.518 L180.2,21.465 L180.518,21.306 L180.836,21.2 L181.154,20.988 L181.843,20.617 L182.267,20.617 L182.479,20.776 L182.903,21.306 L183.327,21.2 L183.592,20.882 L183.963,20.776 L184.281,20.67 L184.705,20.617 L185.023,20.564 L184.705,20.776 L184.334,21.041 L184.599,21.412 L185.023,21.2 L185.447,20.882 L185.553,21.359 L186.189,21.412 L186.984,21.412 L186.984,21.889 L186.666,21.995 L186.295,22.154 L186.03,22.26 L185.606,22.154 L185.182,21.624 L184.334,21.624 L184.122,21.677 L184.281,22.154 L184.122,22.313 L183.857,21.942 L183.645,21.359 L183.327,21.306 L183.221,21.677 L183.062,22.048 L182.108,22.048 L181.472,22.313 L181.154,22.313 L180.571,21.995 L180.2,21.942 L179.882,22.048 L179.299,22.313 Z M186.295,20.723 L186.295,20.617 L186.454,20.564 L186.507,20.67 L186.295,20.723 Z M187.09,20.882 L187.09,20.776 L187.249,20.776 L187.249,20.882 L187.09,20.882 Z M179.511,21.2 L179.67,20.882 L179.882,20.829 L179.829,21.094 L179.511,21.2 Z M189.21,21.359 L189.104,21.253 L189.157,21.094 L189.263,21.253 L189.21,21.359 Z M180.995,21.73 L181.207,21.73 L181.313,21.465 L181.048,21.465 L180.995,21.73 Z M182.426,21.677 L182.373,21.465 L182.214,21.465 L182.214,21.624 L182.426,21.677 Z M187.62,21.995 L187.62,21.73 L187.938,21.73 L187.885,21.995 L187.62,21.995 Z M226.946,34.98 L226.31,34.238 L225.886,33.231 L224.084,30.528 L223.607,29.574 L221.911,26.818 L221.275,26.023 L221.222,24.751 L221.699,23.585 L222.441,22.79 L223.183,22.154 L225.25,18.444 L225.939,15.37 L225.833,12.031 L225.674,10.971 L224.72,7.95 L224.296,7.049 L223.713,6.201 L220.692,3.021 L218.837,2.014 L216.823,1.325 L213.802,0.636 L212.106,0.583 L210.569,0.689 L207.389,0.689 L206.329,0.477 L205.269,0.477 L204.315,0.742 L203.255,0.742 L202.195,0.53 L201.029,0.477 L197.902,0.742 L196.948,1.272 L196.312,2.756 L196.365,14.893 L196.471,15.953 L196.312,18.073 L196.365,19.239 L196.365,20.299 L196.471,21.306 L196.365,22.313 L196.312,26.606 L196.418,27.666 L196.418,35.51 L196.948,37.153 L198.485,37.842 L199.545,37.683 L201.241,37.842 L202.089,37.736 L203.679,37.736 L205.375,37.206 L205.852,35.669 L205.852,33.867 L205.958,32.913 L205.799,31.8 L205.905,28.408 L206.382,27.348 L207.389,26.765 L210.463,27.189 L211.523,28.09 L212.159,29.15 L212.583,30.104 L213.696,31.694 L214.703,33.602 L215.286,34.397 L215.71,35.457 L216.293,36.358 L217.459,37.312 L219.261,37.789 L223.448,37.736 L224.455,37.842 L226.204,37.789 L227.211,37.312 L227.529,36.146 L226.946,34.98 Z M205.375,2.809 L205.799,2.703 L205.958,2.491 L206.117,2.703 L205.64,3.074 L205.375,3.127 L205.375,2.809 Z M212.954,2.703 L212.954,3.021 L213.06,3.127 L212.954,3.127 L212.742,2.915 L212.689,2.703 L212.954,2.703 Z M216.187,3.657 L216.24,3.763 L216.558,3.551 L216.876,3.657 L216.452,4.028 L216.028,3.763 L215.975,3.604 L216.187,3.657 Z M217.3,3.975 L217.83,4.028 L218.254,3.657 L218.413,4.187 L217.565,4.399 L217.141,4.452 L217.3,3.975 Z M217.671,4.664 L218.36,4.558 L218.466,4.717 L218.678,4.717 L219.102,4.558 L219.526,4.134 L221.063,5.671 L220.798,6.042 L220.321,6.307 L219.208,5.989 L218.519,5.141 L217.989,4.982 L217.247,5.088 L217.088,5.141 L216.982,4.982 L217.671,4.664 Z M201.665,24.486 L201.612,31.27 L201.241,33.867 L200.711,33.814 L200.499,32.913 L200.393,31.747 L200.393,24.274 L200.499,23.161 L200.393,19.981 L200.499,18.921 L200.552,5.883 L201.029,4.929 L202.089,4.399 L210.516,4.505 L212.159,4.293 L213.696,4.452 L215.922,5.035 L216.823,5.512 L217.724,5.936 L218.625,6.625 L219.314,7.314 L220.109,8.215 L221.01,10.017 L221.381,10.918 L221.593,12.137 L221.699,13.674 L221.54,16.112 L220.745,18.126 L219.632,19.822 L218.943,20.564 L218.148,21.2 L217.3,21.624 L215.604,22.896 L215.71,23.956 L218.519,28.673 L218.996,29.733 L220.586,32.383 L221.116,33.125 L221.434,34.132 L220.692,34.079 L219.738,33.178 L218.837,31.323 L218.148,30.475 L214.438,24.327 L213.484,23.479 L211.947,23.108 L203.202,23.214 L202.195,23.532 L201.665,24.486 Z M219.791,4.876 L219.473,5.3 L220.003,5.3 L219.791,4.876 Z M207.283,21.995 L209.615,21.942 L210.622,21.783 L212.159,21.889 L214.862,21.571 L215.922,21.2 L216.823,20.723 L217.83,19.981 L218.466,19.239 L219.791,17.437 L220.48,15.211 L220.586,13.568 L220.533,12.084 L219.791,9.911 L219.261,9.01 L217.724,7.42 L216.876,6.837 L215.869,6.36 L214.809,6.042 L213.802,5.671 L212.053,5.512 L210.569,5.565 L209.509,5.406 L208.502,5.565 L204.262,5.565 L203.149,5.406 L202.089,5.936 L201.718,7.102 L201.559,13.197 L201.665,14.31 L201.718,19.875 L202.195,21.465 L203.149,21.889 L206.382,21.836 L207.283,21.995 Z M198.273,5.989 L198.273,6.307 L198.697,6.678 L198.962,6.36 L199.174,6.466 L199.174,6.731 L198.697,6.837 L198.061,6.413 L198.273,5.989 Z M222.123,6.996 L222.335,7.367 L222.335,8.056 L222.759,8.268 L222.494,8.586 L222.229,8.427 L222.176,8.48 L222.07,8.215 L221.646,8.003 L221.593,7.897 L221.328,7.42 L220.798,6.837 L220.692,6.572 L221.116,6.413 L222.123,6.996 Z M206.541,7.049 L207.018,7.049 L206.912,7.102 L206.7,7.473 L206.435,7.526 L206.541,7.049 Z M207.654,7.208 L207.389,7.049 L207.548,7.049 L207.654,7.208 Z M211.841,7.208 L212.212,7.367 L212.53,7.261 L212.583,7.632 L212.371,7.897 L212.212,8.109 L211.947,7.897 L211.523,7.473 L211.841,7.208 Z M209.615,7.261 L210.251,7.261 L211.046,7.685 L211.311,8.056 L211.205,8.162 L210.728,7.844 L210.198,7.791 L210.251,8.056 L210.039,8.162 L210.039,7.95 L210.145,7.579 L209.456,7.632 L208.979,7.367 L209.615,7.261 Z M207.866,7.738 L207.23,7.844 L207.76,7.42 L207.866,7.738 Z M198.75,8.162 L198.75,7.791 L199.015,7.579 L199.068,8.003 L198.75,8.162 Z M206.329,7.95 L206.382,8.215 L206.011,8.109 L205.852,7.844 L206.329,7.95 Z M213.219,8.003 L213.802,8.162 L214.438,8.533 L214.65,7.897 L215.339,7.95 L215.445,8.321 L215.445,8.639 L215.021,8.798 L214.544,8.904 L214.067,8.904 L213.643,8.692 L213.06,8.48 L212.848,8.268 L213.219,8.003 Z M204.262,8.851 L204.368,8.586 L204.368,8.109 L204.633,8.056 L204.58,8.586 L204.527,8.798 L204.368,8.957 L204.209,9.01 L204.262,8.851 Z M223.501,9.01 L223.289,9.54 L222.335,9.699 L222.282,9.275 L222.706,9.222 L223.077,8.904 L223.501,9.01 Z M205.905,10.547 L206.382,9.54 L207.495,9.116 L208.555,9.169 L210.675,8.957 L212.159,9.275 L213.537,9.381 L214.544,9.646 L215.869,11.289 L216.187,12.137 L216.399,13.515 L216.24,15.105 L215.763,16.165 L215.18,16.96 L214.597,17.437 L213.643,17.861 L212.106,18.232 L211.099,18.285 L208.555,18.179 L207.389,18.285 L206.329,17.702 L205.905,16.854 L205.905,13.674 L205.799,12.773 L205.905,10.547 Z M199.545,9.54 L199.174,9.54 L199.28,9.169 L199.651,9.275 L199.545,9.54 Z M217.035,9.381 L216.982,9.593 L216.664,9.699 L216.505,9.699 L217.035,9.381 Z M223.766,10.335 L223.395,10.547 L223.024,10.282 L223.024,10.176 L223.448,10.017 L223.766,10.335 Z M204.05,10.865 L204.474,10.865 L204.209,11.13 L203.838,11.183 L204.05,10.865 Z M224.137,11.766 L223.713,11.607 L223.554,11.289 L223.872,11.448 L224.137,11.766 Z M204.633,11.501 L204.368,12.349 L203.944,11.819 L203.944,11.713 L204.633,11.501 Z M224.402,13.727 L224.084,14.045 L224.508,14.416 L224.19,14.84 L223.766,14.575 L223.819,14.098 L224.137,13.197 L223.236,12.455 L223.183,11.766 L223.395,11.819 L223.872,12.296 L224.19,12.72 L224.402,13.727 Z M218.042,13.197 L218.572,13.303 L218.625,13.621 L218.254,13.568 L217.83,13.409 L218.042,13.197 Z M222.812,14.999 L222.706,13.886 L222.918,13.886 L223.236,13.992 L223.342,14.522 L223.501,14.999 L222.812,14.999 Z M217.3,15.052 L217.883,14.787 L217.565,14.469 L217.3,14.363 L217.936,14.31 L218.307,14.787 L218.519,15.211 L218.943,14.893 L219.155,15.158 L218.731,15.688 L218.201,15.582 L218.095,15.211 L217.883,15.211 L217.459,15.476 L217.088,15.476 L217.3,15.052 Z M202.884,14.469 L203.149,14.522 L203.096,15.052 L203.308,15.794 L203.944,15.635 L204.262,16.112 L204.05,16.324 L203.732,16.059 L203.467,16.271 L203.096,16.112 L202.725,14.999 L202.884,14.469 Z M198.061,14.84 L198.167,15.423 L197.849,15.582 L197.743,15.052 L198.061,14.84 Z M199.015,16.483 L198.75,16.324 L198.75,16.059 L199.174,16.324 L199.015,16.483 Z M217.618,17.172 L217.194,16.907 L217.3,16.536 L216.876,16.377 L217.406,16.059 L217.936,16.854 L218.148,17.384 L217.618,17.172 Z M218.413,16.536 L218.254,16.271 L218.572,16.165 L218.943,16.483 L218.413,16.536 Z M223.501,16.854 L223.13,17.066 L223.395,17.331 L223.236,17.543 L222.759,17.49 L222.759,17.172 L222.388,16.589 L222.971,16.218 L223.077,16.165 L223.501,16.377 L223.501,16.854 Z M205.322,20.935 L205.375,20.882 L205.428,20.67 L204.951,20.511 L204.792,20.511 L204.633,20.617 L204.633,20.405 L204.898,19.928 L204.103,20.087 L202.99,19.557 L202.99,18.868 L203.679,18.868 L204.103,18.921 L204.58,19.027 L205.057,19.186 L204.845,18.709 L204.209,18.55 L204.209,18.338 L204.58,17.967 L204.58,17.437 L204.368,17.384 L204.262,17.702 L203.732,17.49 L203.255,17.596 L203.626,17.967 L203.52,18.391 L203.043,18.444 L203.043,18.126 L203.414,17.967 L203.202,17.861 L202.99,17.49 L203.414,16.642 L204.103,17.172 L204.58,16.748 L205.004,17.278 L205.163,17.755 L205.693,18.179 L205.428,18.815 L205.693,18.868 L206.117,18.232 L206.753,19.345 L207.124,19.345 L207.283,19.451 L207.707,19.822 L208.502,20.14 L208.502,19.61 L209.032,19.451 L209.297,20.087 L209.774,19.928 L209.509,19.504 L209.827,19.239 L210.463,19.716 L211.311,19.345 L211.629,19.663 L211.894,20.087 L212.053,20.511 L212.053,21.094 L211.523,21.094 L211.364,20.776 L211.576,20.405 L211.311,20.14 L210.993,20.087 L210.834,20.458 L210.516,20.776 L209.986,20.829 L209.562,21.253 L209.085,20.776 L209.403,20.458 L208.873,20.405 L208.714,20.935 L208.29,20.988 L208.131,20.405 L207.919,20.405 L207.919,20.988 L207.601,21.2 L207.707,21.041 L207.601,20.564 L207.177,20.511 L206.859,20.988 L205.693,21.041 L205.322,20.935 Z M216.187,17.914 L216.24,17.596 L216.187,17.437 L216.399,17.49 L216.452,17.861 L216.187,17.914 Z M217.883,18.391 L217.459,18.126 L217.194,18.179 L217.194,18.55 L216.876,18.709 L216.876,18.179 L217.035,17.914 L217.141,17.596 L217.565,17.702 L217.936,18.179 L217.883,18.391 Z M223.024,33.867 L222.388,33.814 L222.441,34.079 L222.971,34.397 L222.759,34.768 L222.547,34.874 L222.706,35.192 L222.017,35.669 L221.54,35.139 L221.169,34.662 L221.858,34.291 L221.911,33.178 L222.07,32.701 L222.176,32.33 L221.911,32.277 L221.752,32.012 L222.017,32.012 L222.176,32.224 L222.547,32.012 L222.123,31.747 L221.487,31.588 L221.01,31.853 L220.851,31.005 L220.586,30.528 L220.374,29.945 L220.109,29.415 L219.738,28.938 L218.996,28.196 L218.625,27.878 L218.731,27.56 L219.314,27.454 L219.42,27.03 L219.102,26.765 L218.996,26.553 L218.572,26.447 L218.678,26.765 L218.466,27.03 L217.989,26.288 L217.3,25.705 L217.777,25.122 L217.3,24.91 L217.459,24.274 L216.876,23.956 L217.3,23.479 L217.353,23.267 L217.406,23.161 L217.459,22.313 L218.148,22.525 L218.678,22.631 L218.784,22.472 L218.466,21.995 L218.996,21.306 L219.844,20.564 L220.48,19.61 L221.01,19.451 L221.01,19.769 L221.54,19.61 L221.858,19.292 L221.805,19.133 L221.911,19.345 L222.282,19.133 L222.388,18.868 L222.388,18.285 L221.805,18.232 L221.911,17.914 L222.6,18.02 L222.759,18.709 L223.183,18.921 L222.759,19.292 L222.388,19.398 L222.335,19.769 L222.812,19.61 L223.077,19.981 L222.441,20.14 L221.805,20.14 L221.275,20.67 L221.169,20.458 L221.01,20.087 L220.48,20.405 L220.215,20.246 L220.48,20.829 L220.692,21.2 L221.116,21.253 L221.699,20.882 L222.07,20.564 L222.6,20.564 L222.388,21.041 L222.123,21.359 L221.752,21.783 L221.381,21.465 L221.222,21.995 L220.904,22.79 L220.904,23.214 L220.109,23.532 L219.791,23.903 L219.367,24.062 L219.685,24.433 L219.738,24.751 L219.155,25.175 L218.519,25.175 L218.307,25.281 L218.572,25.599 L219.208,25.387 L219.791,25.334 L220.109,25.705 L220.427,26.182 L220.798,26.765 L220.639,27.083 L220.215,26.924 L220.109,26.765 L220.321,27.348 L220.904,27.719 L220.798,28.249 L221.54,28.514 L221.593,29.309 L220.957,29.786 L221.858,29.786 L222.282,30.263 L222.441,30.899 L222.176,30.846 L222.388,31.27 L223.236,32.118 L223.448,32.542 L223.289,33.443 L223.024,33.867 Z M198.909,19.239 L198.856,19.292 L197.955,19.027 L198.061,18.868 L197.902,18.603 L198.061,18.391 L198.538,18.55 L198.697,18.285 L198.591,17.967 L198.909,18.02 L199.386,18.391 L198.803,18.868 L198.909,19.239 Z M213.749,20.723 L213.166,20.564 L212.689,20.458 L212.742,20.193 L213.113,20.193 L213.113,19.928 L212.742,19.769 L212.636,19.398 L212.901,19.186 L212.901,19.451 L213.484,19.61 L214.226,19.133 L214.915,18.815 L215.286,19.239 L214.968,19.345 L214.862,19.186 L214.491,19.398 L213.749,20.723 Z M212.901,19.186 L213.007,19.133 L213.219,19.186 L213.166,19.345 L212.901,19.186 Z M204.209,19.769 L204.58,19.451 L203.997,19.292 L204.209,19.769 Z M207.124,19.557 L206.753,19.504 L206.541,19.345 L206.117,19.345 L205.693,19.663 L205.746,20.193 L206.7,20.246 L207.124,19.981 L207.124,19.557 Z M198.061,19.398 L198.644,19.663 L198.697,19.822 L198.485,19.822 L198.432,19.61 L198.061,19.875 L197.69,19.663 L198.061,19.398 Z M215.975,19.822 L215.71,19.981 L215.604,19.981 L215.286,20.087 L214.862,20.087 L214.703,19.822 L215.021,19.822 L215.286,20.034 L215.551,19.928 L215.975,19.557 L216.452,19.663 L215.975,19.822 Z M198.22,20.617 L198.379,20.405 L198.485,20.511 L198.22,20.617 Z M198.167,20.617 L198.008,20.67 L197.743,20.723 L197.637,20.617 L198.167,20.617 Z M198.273,22.472 L198.538,22.737 L198.273,22.843 L198.008,22.737 L198.273,22.472 Z M199.439,22.949 L199.386,23.426 L199.174,23.479 L198.962,23.161 L199.333,22.79 L199.651,22.684 L199.439,22.949 Z M218.784,23.691 L219.049,23.055 L218.784,22.949 L218.466,23.691 L218.36,24.168 L218.678,24.221 L218.784,23.691 Z M219.208,34.609 L219.155,35.351 L218.837,35.563 L218.307,35.351 L218.201,35.192 L217.141,34.662 L216.664,34.768 L216.717,35.139 L216.505,35.139 L216.293,34.609 L216.028,34.185 L215.392,33.443 L214.915,32.86 L215.339,32.754 L215.233,32.277 L214.756,31.641 L213.696,30.581 L213.537,30.104 L213.378,29.15 L212.583,28.514 L212.583,27.719 L212.106,27.613 L211.47,27.03 L210.834,26.394 L210.092,26.182 L209.403,25.705 L208.82,25.599 L208.608,25.864 L208.078,25.546 L207.813,25.175 L207.442,25.387 L207.548,26.129 L206.806,26.076 L206.435,26.394 L205.693,26.977 L205.216,27.295 L204.315,27.295 L204.209,27.772 L204.633,27.878 L204.474,28.143 L204.05,28.037 L203.52,28.09 L203.043,28.62 L202.566,28.302 L202.99,27.666 L202.99,27.348 L203.202,27.083 L203.52,27.083 L203.52,27.719 L203.838,27.348 L204.05,26.818 L204.845,26.341 L205.163,26.871 L205.534,26.712 L205.534,26.288 L204.527,25.758 L204.156,26.235 L203.838,26.023 L204.05,25.652 L203.573,25.811 L202.937,26.235 L202.566,26.182 L202.937,25.811 L202.619,25.387 L202.831,25.069 L203.255,25.387 L203.52,24.698 L203.838,24.168 L204.209,24.486 L204.951,24.115 L205.11,24.38 L205.004,24.539 L205.322,24.963 L205.693,25.175 L206.382,25.334 L206.223,25.917 L206.859,26.076 L207.018,25.599 L207.018,24.963 L206.859,24.804 L206.488,24.274 L207.177,24.221 L207.972,24.857 L208.608,25.016 L209.297,25.016 L209.509,24.539 L209.933,24.327 L209.721,24.009 L209.244,24.221 L208.608,24.38 L208.237,24.539 L208.184,24.433 L209.138,23.956 L209.721,23.956 L210.251,24.115 L210.145,24.804 L210.516,24.91 L210.675,24.221 L211.47,23.903 L211.523,24.115 L211.258,24.327 L211.788,24.486 L211.947,24.592 L212.424,24.274 L213.113,24.38 L213.007,24.751 L212.424,24.645 L212,25.016 L212.371,25.387 L213.325,25.069 L213.802,25.228 L214.067,25.599 L214.438,25.705 L214.756,26.659 L215.339,27.136 L215.498,27.083 L215.551,28.09 L216.081,28.355 L216.028,28.567 L215.286,28.461 L215.286,28.779 L215.922,29.097 L216.187,29.839 L217.035,30.051 L217.3,30.634 L216.823,30.952 L216.823,31.323 L217.3,31.217 L217.883,31.747 L217.936,32.542 L218.572,32.807 L218.148,33.443 L217.459,33.39 L217.353,34.026 L218.148,34.026 L218.307,33.814 L218.625,33.761 L218.943,34.238 L219.314,34.45 L219.208,34.609 Z M218.095,24.168 L217.989,24.38 L218.148,24.751 L218.519,24.539 L218.095,24.168 Z M206.117,24.698 L205.746,24.698 L205.587,24.274 L205.958,24.327 L206.117,24.698 Z M197.584,25.069 L197.584,24.857 L197.955,24.857 L198.538,25.228 L198.803,26.129 L199.28,26.288 L198.697,26.341 L198.379,26.023 L197.849,25.334 L197.902,24.963 L197.584,25.069 Z M199.227,28.143 L199.015,27.931 L198.538,27.719 L198.697,27.454 L199.333,27.719 L199.227,28.143 Z M213.855,28.196 L213.908,28.62 L214.279,28.832 L214.173,28.302 L213.855,28.196 Z M198.22,29.203 L197.955,29.256 L198.75,28.355 L199.227,28.196 L198.75,28.779 L198.22,29.203 Z M204.633,30.74 L204.368,30.528 L204.474,30.104 L203.891,29.839 L203.679,30.316 L203.944,30.899 L203.308,31.27 L202.778,31.217 L203.573,30.793 L202.831,30.634 L202.99,29.945 L203.467,29.733 L203.255,29.415 L203.202,29.097 L203.944,28.885 L204.421,28.62 L204.315,29.627 L204.686,30.051 L204.898,30.528 L204.633,30.74 Z M214.544,30.581 L215.18,30.634 L215.021,30.316 L214.544,30.581 Z M221.01,30.316 L221.169,30.687 L221.593,30.581 L221.434,30.369 L221.01,30.316 Z M198.856,31.694 L198.485,31.588 L198.803,30.793 L199.121,31.058 L198.856,31.694 Z M204.58,32.595 L204.315,32.595 L203.997,31.906 L203.997,31.323 L204.262,31.588 L204.262,31.217 L204.58,31.058 L204.633,31.747 L204.898,32.118 L204.58,32.595 Z M202.937,31.8 L203.149,31.8 L203.52,32.118 L203.361,32.065 L202.937,31.8 Z M216.24,33.39 L216.611,33.443 L216.664,32.966 L216.24,32.913 L216.24,33.39 Z M204.262,35.245 L203.679,35.192 L203.149,35.351 L202.884,35.298 L203.679,34.98 L203.785,34.662 L203.414,34.609 L203.573,34.238 L203.785,34.132 L203.467,33.973 L203.361,33.443 L202.99,33.443 L202.99,33.178 L203.414,33.125 L203.891,34.079 L204.262,34.079 L204.156,34.397 L203.891,34.238 L203.785,34.45 L204.421,34.98 L204.262,35.245 Z M204.58,33.443 L204.315,33.549 L204.262,33.337 L204.527,33.39 L204.686,33.231 L204.58,33.443 Z M224.826,34.768 L224.561,34.821 L223.978,34.609 L223.66,34.927 L223.925,34.874 L224.031,34.98 L223.66,34.98 L223.501,34.45 L223.607,34.079 L223.395,33.761 L223.872,33.602 L224.084,33.92 L224.19,34.132 L224.614,34.397 L224.879,34.185 L224.826,34.768 Z M218.042,34.609 L218.572,34.98 L218.837,34.715 L218.254,34.291 L218.042,34.609 Z M202.089,34.609 L201.93,34.715 L201.718,34.874 L201.506,34.768 L201.93,34.715 L201.93,34.556 L202.089,34.503 L202.089,34.609 Z M200.552,35.033 L200.181,35.245 L199.863,35.298 L200.499,34.874 L200.817,34.715 L200.923,34.927 L200.552,35.033 Z M221.328,35.563 L221.116,36.04 L220.745,36.358 L220.215,36.305 L219.738,35.775 L220.215,35.192 L220.692,35.245 L221.328,35.404 L221.328,35.563 Z M220.321,35.881 L220.692,36.04 L220.904,35.563 L221.222,35.51 L220.851,35.351 L220.321,35.457 L220.321,35.881 Z M203.573,35.616 L202.99,35.934 L202.407,35.881 L202.884,35.616 L203.626,35.457 L203.785,35.51 L203.573,35.616 Z" id="QUEST-R"></path>
            </g>
        </g>
    </g>
</svg>