<svg xmlns="http://www.w3.org/2000/svg" width="106" height="15" viewBox="0 0 106 15">
    <path fill="#FFF" fill-rule="evenodd" d="M11.803 10.867c-.519-.603-1.057-1.55-1.665-2.548-.609-.999-2.436-1.454-3.2-1.324-.764.13-2.674 1.908-3.796 2.224-1.124.314-1.769 1.365-1.769 1.365-.542 1.116-.44 1.6.365 2.333.806.731 2.436-.18 3.008.08.575.26 2.24.569 3.295.684 1.059.114.126 0 3.154 1.009 3.026 1.007 2.525-1.66 2.471-1.823-.053-.163-1.343-1.4-1.863-2zM3.904 5.905c-.626-2.26-1.987-2.406-2.49-2.178-.5.228-1.629.927-1.378 3.122.25 2.197 1.075 2.226 1.415 2.26.34.033 2.67-.733 2.453-3.203zm2.15.245c.364.01 2.276-.894 2.131-2.732C8.041 1.579 7.362-.208 6.25.02 5.14.246 3.978.832 3.654 1.776c-.32.943.037 2.715.842 3.513.806.794 1.195.852 1.559.86zm8.453-.829c-.286.18-2.24 1.007-2.382 2.211-.054.57-.251.977.018 1.447 0 0 .805.961 1.199 1.025.394.065 1.094.065 1.594-.7.502-.762 1.362-1.365 1.02-3.366-.14-.537-1.162-.796-1.45-.617h.001zm-4.584.927c1.683.992 2.596-.568 2.596-.568.25-.326.858-1.84.877-3.01.018-1.172-.305-1.692-1.415-2.081-1.11-.39-2.436 1.382-2.506 1.594-.073.21-1.237 3.072.447 4.066l.001-.001zm19.865 1.755a4.624 4.624 0 0 0-1.186-.536c-.465-.143-.976-.28-1.532-.414-.47-.105-.882-.203-1.235-.293a4.732 4.732 0 0 1-.883-.308 1.419 1.419 0 0 1-.529-.407c-.118-.158-.176-.36-.176-.608 0-.448.181-.796.545-1.044.364-.247.898-.371 1.604-.371.375 0 .727.033 1.059.1.332.067.634.152.906.257.273.105.511.217.714.336.203.12.358.233.465.337l.819-1.316a7.42 7.42 0 0 0-1.709-.815c-.647-.22-1.366-.33-2.158-.33-.577 0-1.117.067-1.62.2a4.012 4.012 0 0 0-1.307.594 2.835 2.835 0 0 0-.866.972 2.741 2.741 0 0 0-.313 1.323c0 .4.072.741.216 1.023.145.28.356.526.634.736.278.21.628.389 1.05.536.423.148.918.289 1.485.422.492.115.93.223 1.315.322.385.1.711.215.979.344.267.129.47.279.61.45a.99.99 0 0 1 .208.644c0 .43-.19.756-.57.98-.38.224-.911.336-1.596.336-.45 0-.882-.045-1.3-.136-.416-.09-.799-.2-1.146-.328a5.502 5.502 0 0 1-.907-.422 3.976 3.976 0 0 1-.593-.414l-.834 1.372c.652.45 1.384.79 2.197 1.024.813.233 1.653.35 2.519.35.567 0 1.101-.055 1.604-.164.503-.11.944-.282 1.324-.516.38-.234.681-.536.906-.908.225-.372.337-.824.337-1.359 0-.466-.091-.858-.273-1.172a2.37 2.37 0 0 0-.762-.794v-.003zm9.938 2.954V8.253c0-.981-.32-1.734-.962-2.258-.642-.525-1.54-.787-2.696-.787-1.165 0-2.288.324-3.369.971l.546 1.002a7 7 0 0 1 1.34-.636 4.084 4.084 0 0 1 1.323-.222c.664 0 1.172.155 1.524.465.355.31.53.742.53 1.295v.515a6.474 6.474 0 0 0-1.042-.25 7.357 7.357 0 0 0-1.171-.094c-.524 0-1.003.058-1.435.173a3.759 3.759 0 0 0-1.123.486 2.34 2.34 0 0 0-.73.743c-.17.287-.256.606-.256.959 0 .333.072.643.216.93.145.285.343.534.595.744.252.21.55.374.898.493.347.12.724.179 1.13.179.632 0 1.223-.117 1.774-.35a3.69 3.69 0 0 0 1.387-1.01l.048.472a.918.918 0 0 0 .33.572c.176.143.435.224.777.243a4.799 4.799 0 0 0 .867-.072v-1.345c-.182-.009-.31-.052-.385-.128-.073-.076-.112-.205-.112-.386h-.004zm-1.764-.486c0 .19-.112.372-.336.544-.214.248-.511.441-.89.58-.38.138-.784.207-1.212.207-.481 0-.877-.127-1.187-.38-.31-.252-.465-.564-.465-.936 0-.4.2-.722.601-.965.401-.244.917-.365 1.548-.365.321 0 .65.029.987.086.337.057.655.138.955.243v.987h-.001zm16.546-4.347a2.083 2.083 0 0 0-.778-.665c-.326-.167-.735-.25-1.227-.25-.674 0-1.278.145-1.813.435a3.637 3.637 0 0 0-1.332 1.266 2.124 2.124 0 0 0-.754-1.216c-.395-.324-.946-.486-1.652-.486-.695 0-1.313.14-1.853.421-.54.282-.976.685-1.307 1.209V5.336h-1.604v7.48h1.765V8.368c.182-.524.484-.948.906-1.273.423-.324.88-.486 1.372-.486.492 0 .864.161 1.115.48.252.319.378.832.378 1.537v4.19h1.765V8.383a2.73 2.73 0 0 1 .898-1.28 2.175 2.175 0 0 1 1.379-.494c.481 0 .853.162 1.115.486.262.325.394.835.394 1.53v4.19h1.765V8.254c0-.41-.04-.798-.12-1.165a2.675 2.675 0 0 0-.41-.965l-.002.001zm8.576 3.125a4.386 4.386 0 0 0-1.035-.437 20.4 20.4 0 0 0-1.493-.372 23.872 23.872 0 0 1-.866-.207 2.73 2.73 0 0 1-.568-.207.786.786 0 0 1-.314-.272.728.728 0 0 1-.096-.386c0-.362.155-.627.465-.793.31-.167.69-.25 1.14-.25.908 0 1.764.267 2.566.8l.754-.957a5.825 5.825 0 0 0-1.524-.701 6.055 6.055 0 0 0-1.765-.256c-.46 0-.89.051-1.29.156a3.24 3.24 0 0 0-1.044.465 2.336 2.336 0 0 0-.697.75 1.99 1.99 0 0 0-.258 1.016c0 .286.054.532.16.737.108.205.279.381.514.529.235.148.54.282.914.401.375.12.824.236 1.349.35.759.163 1.312.318 1.66.465.347.15.521.38.521.694 0 .334-.153.591-.464.773-.31.181-.733.272-1.268.272-1.016 0-2.038-.32-3.064-.958l-.738 1.057c.236.163.506.308.81.437.305.128.626.238.963.329.337.089.68.159 1.027.206.347.048.692.072 1.034.072.513 0 .981-.055 1.403-.165.423-.109.781-.264 1.075-.464.294-.201.522-.443.682-.73.16-.285.24-.605.24-.957a1.6 1.6 0 0 0-.192-.809 1.681 1.681 0 0 0-.601-.586v-.002zm9.503-2.882a4.312 4.312 0 0 0-1.363-.844 4.775 4.775 0 0 0-1.773-.315c-.652 0-1.243.104-1.773.314-.53.21-.982.491-1.363.844s-.67.765-.874 1.237a3.704 3.704 0 0 0-.305 1.48c0 .514.102 1.008.305 1.48s.492.884.866 1.237c.375.353.826.634 1.355.844.53.208 1.126.314 1.789.314.652 0 1.243-.105 1.773-.315.529-.21.984-.492 1.363-.844a3.705 3.705 0 0 0 1.18-2.717 3.705 3.705 0 0 0-1.18-2.718v.003zm-.826 3.718a2.547 2.547 0 0 1-.53.8c-.225.23-.49.408-.794.537a2.515 2.515 0 0 1-.987.193 2.512 2.512 0 0 1-1.781-.721 2.454 2.454 0 0 1-.53-.795 2.556 2.556 0 0 1-.193-1c0-.354.067-.685.2-.995.135-.31.313-.58.538-.808.224-.23.489-.41.794-.544.305-.133.628-.2.971-.2.353 0 .682.065.987.194.304.128.568.306.793.536.225.228.401.497.53.807.128.31.191.641.191.994 0 .363-.064.697-.192 1.001h.003zm10.893-3.969a1.939 1.939 0 0 0-.77-.665c-.326-.162-.74-.243-1.243-.243-.738 0-1.412.145-2.021.435-.61.29-1.075.69-1.395 1.195V5.336H75.62v7.48h1.765V8.368c.096-.257.233-.493.41-.708.176-.214.376-.4.6-.558.225-.157.469-.28.73-.365a2.49 2.49 0 0 1 .779-.128c.48 0 .85.16 1.107.48.257.319.385.831.385 1.537v4.19h1.765V8.253c0-.41-.038-.798-.112-1.165a2.72 2.72 0 0 0-.393-.972h-.002zm11.751-1.895a5.44 5.44 0 0 0-1.676-1.18c-.653-.3-1.37-.45-2.15-.45-.75 0-1.447.14-2.094.422A5.397 5.397 0 0 0 86.8 4.15a5.379 5.379 0 0 0-1.123 1.645 4.787 4.787 0 0 0-.407 1.945c0 .648.127 1.282.384 1.902.257.62.62 1.168 1.09 1.644.471.477 1.03.862 1.677 1.158.647.296 1.367.443 2.158.443.749 0 1.444-.14 2.085-.421a5.49 5.49 0 0 0 1.677-1.13 5.257 5.257 0 0 0 1.123-1.638 4.79 4.79 0 0 0 .024-3.826 5.354 5.354 0 0 0-1.082-1.652l-.001.001zm.786 5.292a5.003 5.003 0 0 1-2.581 2.667 4.815 4.815 0 0 1-2.03.421 4.944 4.944 0 0 1-2.006-.4 4.893 4.893 0 0 1-1.572-1.08 5.132 5.132 0 0 1-1.034-1.559 4.572 4.572 0 0 1-.016-3.596c.24-.582.58-1.101 1.018-1.559A5.098 5.098 0 0 1 88.55 3.3a4.82 4.82 0 0 1 2.03-.422c.705 0 1.36.134 1.965.4a5.108 5.108 0 0 1 1.58 1.079c.45.453.8.973 1.05 1.56.252.586.377 1.194.377 1.823a4.6 4.6 0 0 1-.361 1.773zm10.517-.3a2.3 2.3 0 0 0-.826-.745 5.54 5.54 0 0 0-1.307-.5 24.234 24.234 0 0 0-1.717-.372 22.006 22.006 0 0 1-1.628-.35c-.454-.12-.825-.263-1.114-.43a1.687 1.687 0 0 1-.642-.615c-.139-.243-.208-.546-.208-.908 0-.372.07-.706.209-1.001.139-.296.358-.55.658-.765.3-.215.681-.38 1.147-.495.465-.115 1.024-.171 1.676-.171.675 0 1.255.081 1.741.243.487.162.955.463 1.404.902l.209-.2a3.962 3.962 0 0 0-1.484-.937c-.54-.186-1.174-.28-1.901-.28-.61 0-1.158.06-1.645.18-.486.119-.903.295-1.25.529a2.47 2.47 0 0 0-.803.858c-.187.338-.28.727-.28 1.165 0 .42.086.77.257 1.052.17.281.425.515.762.7.336.187.748.34 1.235.46.486.119 1.045.23 1.676.335.653.115 1.22.239 1.701.372.482.134.877.296 1.187.486.31.191.542.417.69.68.15.262.225.584.225.965 0 .763-.329 1.332-.987 1.709-.657.377-1.553.566-2.687.566-.866 0-1.639-.12-2.318-.357a5.415 5.415 0 0 1-1.885-1.16l-.24.186a5.97 5.97 0 0 0 1.98 1.195c.711.253 1.527.38 2.447.38 1.25 0 2.233-.22 2.943-.659.711-.438 1.067-1.072 1.067-1.902 0-.447-.097-.82-.29-1.114l-.002-.002z"/>
</svg>
