<?xml version="1.0" encoding="UTF-8" standalone="no"?>
<svg width="29px" height="29px" viewBox="0 0 29 29" version="1.1" xmlns="http://www.w3.org/2000/svg" xmlns:xlink="http://www.w3.org/1999/xlink">
    <!-- Generator: Sketch 41 (35326) - http://www.bohemiancoding.com/sketch -->
    <title>share</title>
    <desc>Created with Sketch.</desc>
    <defs></defs>
    <g id="Page-1" stroke="none" stroke-width="1" fill="none" fill-rule="evenodd">
        <g id="Artboard-4" transform="translate(-166.000000, -511.000000)" fill="#FFFFFF">
            <g id="share" transform="translate(166.000000, 511.000000)">
                <g id="Capa_1">
                    <path d="M23.6635681,18.4287046 C21.9705851,18.4287046 20.4772702,19.2284684 19.5016362,20.4531983 L10.4524021,15.8644684 C10.5708702,15.4263481 10.6560191,14.9736667 10.6560191,14.4972468 C10.6560191,13.9786118 10.5548894,13.4903228 10.4137766,13.0151878 L19.4230894,8.44762658 C20.3933553,9.72778692 21.9252957,10.5645042 23.6648638,10.5645042 C26.611634,10.5645042 28.9953723,8.20088186 28.9953723,5.2816097 C28.995434,2.36496835 26.611634,0 23.6649255,0 C20.7248191,0 18.3384277,2.36496835 18.3384277,5.28154852 C18.3384277,5.75931435 18.4236383,6.21328059 18.5434021,6.65274684 L9.49546383,11.2414768 C8.51853404,10.015462 7.02250426,9.21306751 5.32686809,9.21306751 C2.38275106,9.21306751 0.000370212765,11.5793207 0.000370212765,14.4972468 C0.000370212765,17.415173 2.38281277,19.7801414 5.32686809,19.7801414 C7.06908936,19.7801414 8.59973404,18.9407932 9.57394894,17.6593481 L18.5792511,22.2269093 C18.4381383,22.7006983 18.3357128,23.1929641 18.3357128,23.7129451 C18.3357128,26.6308713 20.7221043,28.9958397 23.6622106,28.9958397 C26.6089809,28.9958397 28.9927191,26.6308713 28.9927191,23.7129451 C28.9940766,20.7923882 26.6103383,18.4287046 23.6635681,18.4287046 Z" id="Shape"></path>
                </g>
            </g>
        </g>
    </g>
</svg>